<svg width="944" height="772" viewBox="0 0 944 772" fill="none" xmlns="http://www.w3.org/2000/svg">
<rect x="107" y="326" width="477" height="261" fill="white" stroke="black" stroke-width="4" stroke-dasharray="8 8"/>
<rect x="107" y="280" width="477" height="46" stroke="black" stroke-width="4" stroke-dasharray="8 8"/>
<rect x="107" y="77" width="463" height="202" fill="white" stroke="black" stroke-width="4" stroke-dasharray="8 8"/>
<path d="M583 646.341C588.501 636.018 598.323 626.558 607.122 619.206C624.669 604.548 644.27 596.223 666.809 593" stroke="black" stroke-width="3" stroke-linecap="round"/>
<path d="M647.68 652.412L731.7 592.393H931.521L894.848 621.223L855.174 652.412H647.68Z" fill="#D9D9D9" stroke="black" stroke-width="3"/>
<path d="M645.097 695.47L652.975 528.946H862.39L853.795 695.47H645.097Z" fill="white" stroke="black" stroke-width="4"/>
<path d="M854.191 692.287L861.356 527.034L938.799 467.192L933.232 620.179L854.191 692.287Z" fill="white" stroke="black" stroke-width="4"/>
<path d="M655.094 525.446L739.114 465.427H938.935L902.262 494.257L862.588 525.446H655.094Z" fill="white" stroke="black" stroke-width="3"/>
<path d="M666.19 567.303H770L764.81 656.303H661L666.19 567.303Z" fill="#D9D9D9"/>
<circle cx="825.572" cy="584.405" r="11.1211" fill="#FF5E5E"/>
<circle cx="789.428" cy="584.405" r="11.1211" fill="#5ABE5E"/>
<path d="M655.094 525.447L739.114 465.428H938.935L902.262 494.258L862.588 525.447H655.094Z" fill="white" stroke="black" stroke-width="3"/>
<path d="M655.094 525.447L739.114 465.428H938.935L902.262 494.258L862.588 525.447H655.094Z" fill="white" stroke="black" stroke-width="3"/>
<rect opacity="0.8" x="672.5" y="587.803" width="87" height="37" fill="white" stroke="black"/>
<path d="M690.307 610.653C690.307 611.946 690.005 613.036 689.401 613.924C688.797 614.802 687.966 615.467 686.909 615.92C685.861 616.364 684.671 616.586 683.34 616.586C682.009 616.586 680.815 616.364 679.758 615.92C678.701 615.467 677.865 614.802 677.251 613.924C676.638 613.036 676.331 611.946 676.331 610.653C676.331 609.784 676.506 609.001 676.855 608.302C677.204 607.594 677.69 606.99 678.313 606.49C678.946 605.98 679.687 605.593 680.537 605.329C681.386 605.055 682.311 604.918 683.312 604.918C684.653 604.918 685.851 605.154 686.909 605.626C687.966 606.098 688.797 606.764 689.401 607.623C690.005 608.482 690.307 609.492 690.307 610.653ZM686.201 610.384C686.201 609.751 686.078 609.208 685.833 608.755C685.597 608.293 685.261 607.939 684.827 607.693C684.393 607.448 683.888 607.325 683.312 607.325C682.736 607.325 682.231 607.448 681.797 607.693C681.363 607.939 681.023 608.293 680.777 608.755C680.541 609.208 680.423 609.751 680.423 610.384C680.423 611.007 680.541 611.545 680.777 611.998C681.023 612.451 681.363 612.8 681.797 613.046C682.241 613.282 682.755 613.4 683.34 613.4C683.926 613.4 684.431 613.282 684.855 613.046C685.29 612.8 685.62 612.451 685.847 611.998C686.083 611.545 686.201 611.007 686.201 610.384ZM689.868 601.151C689.868 602.199 689.59 603.129 689.033 603.941C688.476 604.743 687.702 605.371 686.71 605.824C685.729 606.277 684.605 606.504 683.34 606.504C682.066 606.504 680.933 606.277 679.942 605.824C678.951 605.371 678.177 604.743 677.62 603.941C677.063 603.129 676.784 602.199 676.784 601.151C676.784 599.905 677.063 598.857 677.62 598.008C678.186 597.149 678.96 596.497 679.942 596.054C680.933 595.61 682.056 595.388 683.312 595.388C684.586 595.388 685.715 595.61 686.696 596.054C687.688 596.497 688.462 597.149 689.019 598.008C689.585 598.857 689.868 599.905 689.868 601.151ZM685.79 601.335C685.79 600.778 685.691 600.297 685.493 599.891C685.294 599.476 685.011 599.155 684.643 598.928C684.284 598.702 683.841 598.588 683.312 598.588C682.802 598.588 682.363 598.697 681.995 598.914C681.636 599.131 681.358 599.447 681.16 599.863C680.971 600.269 680.876 600.76 680.876 601.335C680.876 601.892 680.971 602.383 681.16 602.808C681.358 603.223 681.641 603.549 682.009 603.785C682.377 604.021 682.821 604.139 683.34 604.139C683.86 604.139 684.299 604.021 684.657 603.785C685.025 603.549 685.304 603.223 685.493 602.808C685.691 602.383 685.79 601.892 685.79 601.335ZM706.945 604.182V607.75C706.945 609.298 706.78 610.634 706.45 611.757C706.119 612.871 705.643 613.787 705.02 614.504C704.406 615.212 703.674 615.736 702.825 616.076C701.975 616.416 701.031 616.586 699.993 616.586C699.162 616.586 698.388 616.482 697.67 616.274C696.953 616.057 696.306 615.722 695.73 615.269C695.164 614.816 694.673 614.245 694.258 613.556C693.852 612.857 693.54 612.026 693.323 611.063C693.106 610.101 692.998 608.996 692.998 607.75V604.182C692.998 602.633 693.163 601.307 693.493 600.203C693.833 599.089 694.31 598.178 694.923 597.47C695.546 596.762 696.283 596.243 697.132 595.912C697.982 595.572 698.926 595.402 699.964 595.402C700.795 595.402 701.564 595.511 702.272 595.728C702.99 595.936 703.637 596.261 704.212 596.705C704.788 597.149 705.279 597.72 705.685 598.418C706.091 599.108 706.403 599.934 706.62 600.896C706.837 601.85 706.945 602.945 706.945 604.182ZM702.853 608.288V603.629C702.853 602.884 702.811 602.232 702.726 601.675C702.65 601.118 702.532 600.646 702.372 600.259C702.211 599.863 702.013 599.542 701.777 599.296C701.541 599.051 701.272 598.872 700.97 598.758C700.668 598.645 700.333 598.588 699.964 598.588C699.502 598.588 699.091 598.678 698.732 598.857C698.383 599.037 698.086 599.325 697.84 599.721C697.595 600.108 697.406 600.627 697.274 601.279C697.151 601.921 697.09 602.704 697.09 603.629V608.288C697.09 609.034 697.128 609.69 697.203 610.256C697.288 610.823 697.411 611.309 697.571 611.715C697.741 612.111 697.939 612.437 698.166 612.692C698.402 612.937 698.671 613.117 698.973 613.23C699.285 613.343 699.625 613.4 699.993 613.4C700.446 613.4 700.847 613.31 701.196 613.131C701.555 612.942 701.857 612.649 702.103 612.253C702.357 611.847 702.546 611.318 702.669 610.667C702.792 610.016 702.853 609.223 702.853 608.288ZM723.598 604.182V607.75C723.598 609.298 723.432 610.634 723.102 611.757C722.772 612.871 722.295 613.787 721.672 614.504C721.058 615.212 720.327 615.736 719.477 616.076C718.627 616.416 717.683 616.586 716.645 616.586C715.814 616.586 715.04 616.482 714.323 616.274C713.605 616.057 712.959 615.722 712.383 615.269C711.816 614.816 711.326 614.245 710.91 613.556C710.504 612.857 710.193 612.026 709.976 611.063C709.758 610.101 709.65 608.996 709.65 607.75V604.182C709.65 602.633 709.815 601.307 710.146 600.203C710.485 599.089 710.962 598.178 711.576 597.47C712.199 596.762 712.935 596.243 713.785 595.912C714.634 595.572 715.578 595.402 716.617 595.402C717.447 595.402 718.217 595.511 718.925 595.728C719.642 595.936 720.289 596.261 720.865 596.705C721.441 597.149 721.931 597.72 722.337 598.418C722.743 599.108 723.055 599.934 723.272 600.896C723.489 601.85 723.598 602.945 723.598 604.182ZM719.505 608.288V603.629C719.505 602.884 719.463 602.232 719.378 601.675C719.302 601.118 719.184 600.646 719.024 600.259C718.863 599.863 718.665 599.542 718.429 599.296C718.193 599.051 717.924 598.872 717.622 598.758C717.32 598.645 716.985 598.588 716.617 598.588C716.154 598.588 715.743 598.678 715.385 598.857C715.035 599.037 714.738 599.325 714.493 599.721C714.247 600.108 714.058 600.627 713.926 601.279C713.804 601.921 713.742 602.704 713.742 603.629V608.288C713.742 609.034 713.78 609.69 713.855 610.256C713.94 610.823 714.063 611.309 714.224 611.715C714.394 612.111 714.592 612.437 714.818 612.692C715.054 612.937 715.323 613.117 715.625 613.23C715.937 613.343 716.277 613.4 716.645 613.4C717.098 613.4 717.499 613.31 717.849 613.131C718.207 612.942 718.509 612.649 718.755 612.253C719.01 611.847 719.199 611.318 719.321 610.667C719.444 610.016 719.505 609.223 719.505 608.288ZM726.77 599.282C726.77 598.574 726.944 597.928 727.293 597.342C727.643 596.748 728.11 596.276 728.695 595.926C729.281 595.577 729.923 595.402 730.621 595.402C731.31 595.402 731.943 595.577 732.519 595.926C733.094 596.276 733.552 596.748 733.892 597.342C734.232 597.928 734.402 598.574 734.402 599.282C734.402 599.99 734.232 600.637 733.892 601.222C733.552 601.798 733.094 602.256 732.519 602.596C731.943 602.936 731.31 603.105 730.621 603.105C729.923 603.105 729.281 602.936 728.695 602.596C728.11 602.256 727.643 601.798 727.293 601.222C726.944 600.637 726.77 599.99 726.77 599.282ZM728.809 599.282C728.809 599.792 728.988 600.217 729.347 600.557C729.705 600.896 730.13 601.066 730.621 601.066C731.112 601.066 731.523 600.896 731.853 600.557C732.183 600.217 732.349 599.792 732.349 599.282C732.349 598.763 732.183 598.329 731.853 597.979C731.523 597.63 731.112 597.456 730.621 597.456C730.13 597.456 729.705 597.63 729.347 597.979C728.988 598.329 728.809 598.763 728.809 599.282ZM750.049 609.463H754.283C754.198 610.851 753.815 612.083 753.136 613.159C752.465 614.235 751.526 615.076 750.318 615.68C749.119 616.284 747.675 616.586 745.985 616.586C744.663 616.586 743.479 616.359 742.431 615.906C741.383 615.444 740.486 614.783 739.74 613.924C739.004 613.065 738.442 612.026 738.055 610.809C737.668 609.591 737.475 608.227 737.475 606.716V605.286C737.475 603.776 737.673 602.412 738.069 601.194C738.475 599.967 739.051 598.924 739.797 598.064C740.552 597.205 741.454 596.545 742.501 596.082C743.549 595.619 744.72 595.388 746.013 595.388C747.731 595.388 749.18 595.7 750.36 596.323C751.55 596.946 752.47 597.805 753.122 598.9C753.782 599.995 754.179 601.241 754.311 602.638H750.063C750.016 601.807 749.851 601.104 749.567 600.528C749.284 599.943 748.855 599.504 748.279 599.211C747.712 598.909 746.957 598.758 746.013 598.758C745.305 598.758 744.687 598.89 744.158 599.155C743.63 599.419 743.186 599.82 742.827 600.358C742.468 600.896 742.199 601.576 742.02 602.397C741.85 603.209 741.765 604.163 741.765 605.258V606.716C741.765 607.783 741.845 608.722 742.006 609.534C742.166 610.337 742.412 611.016 742.742 611.573C743.082 612.121 743.516 612.536 744.045 612.819C744.583 613.093 745.23 613.23 745.985 613.23C746.872 613.23 747.604 613.088 748.18 612.805C748.756 612.522 749.194 612.102 749.497 611.545C749.808 610.988 749.992 610.294 750.049 609.463Z" fill="black"/>
<path d="M152.08 769.5H125.591V716.5H167.745L152.08 769.5Z" fill="white" stroke="black" stroke-width="5"/>
<path d="M524.102 769.5H550.591V716.5H508.437L524.102 769.5Z" fill="white" stroke="black" stroke-width="5"/>
<rect x="117.591" y="2.5" width="452" height="75" fill="white" stroke="black" stroke-width="5"/>
<mask id="path-19-inside-1_718_314" fill="white">
<path fill-rule="evenodd" clip-rule="evenodd" d="M586.091 75H100.091V716H586.091V75ZM561.091 94H123.091V563H561.091V94Z"/>
</mask>
<path fill-rule="evenodd" clip-rule="evenodd" d="M586.091 75H100.091V716H586.091V75ZM561.091 94H123.091V563H561.091V94Z" fill="white"/>
<path d="M100.091 75V70H95.0913V75H100.091ZM586.091 75H591.091V70H586.091V75ZM100.091 716H95.0913V721H100.091V716ZM586.091 716V721H591.091V716H586.091ZM123.091 94V89H118.091V94H123.091ZM561.091 94H566.091V89H561.091V94ZM123.091 563H118.091V568H123.091V563ZM561.091 563V568H566.091V563H561.091ZM100.091 80H586.091V70H100.091V80ZM105.091 716V75H95.0913V716H105.091ZM586.091 711H100.091V721H586.091V711ZM581.091 75V716H591.091V75H581.091ZM123.091 99H561.091V89H123.091V99ZM128.091 563V94H118.091V563H128.091ZM561.091 558H123.091V568H561.091V558ZM556.091 94V563H566.091V94H556.091Z" fill="black" mask="url(#path-19-inside-1_718_314)"/>
<rect x="124.591" y="595.5" width="432" height="99" fill="white" stroke="black" stroke-width="5"/>
<rect x="45.7849" y="253" width="56.9562" height="102.459" fill="white" stroke="black" stroke-width="4"/>
<rect x="2" y="282.19" width="43.2196" height="44.0781" fill="white" stroke="black" stroke-width="4"/>
<rect x="644.956" y="355.459" width="56.9562" height="102.459" transform="rotate(180 644.956 355.459)" fill="white" stroke="black" stroke-width="4"/>
<rect x="688.741" y="326.269" width="43.2196" height="44.0781" transform="rotate(180 688.741 326.269)" fill="white" stroke="black" stroke-width="4"/>
</svg>
