<svg width="942" height="772" viewBox="0 0 942 772" fill="none" xmlns="http://www.w3.org/2000/svg">
<rect x="358" y="326" width="477" height="261" fill="white" stroke="black" stroke-width="4" stroke-dasharray="8 8"/>
<rect x="358" y="280" width="477" height="46" stroke="black" stroke-width="4" stroke-dasharray="8 8"/>
<rect x="358" y="77" width="463" height="202" fill="white" stroke="black" stroke-width="4" stroke-dasharray="8 8"/>
<path d="M291.091 627.303C296.592 616.98 306.414 607.52 315.214 600.168C332.76 585.509 352.362 577.185 374.901 573.962" stroke="black" stroke-width="3" stroke-linecap="round"/>
<path d="M4.68035 698.412L88.7001 638.393H288.521L251.848 667.223L212.174 698.412H4.68035Z" fill="#D9D9D9" stroke="black" stroke-width="3"/>
<path d="M2.09686 741.47L9.97534 574.946H219.39L210.795 741.47H2.09686Z" fill="white" stroke="black" stroke-width="4"/>
<path d="M211.191 738.287L218.356 573.034L295.799 513.192L290.232 666.179L211.191 738.287Z" fill="white" stroke="black" stroke-width="4"/>
<path d="M12.0947 571.446L96.1144 511.427H295.935L259.262 540.257L219.589 571.446H12.0947Z" fill="white" stroke="black" stroke-width="3"/>
<path d="M23.1905 613.303H127L121.81 702.303H18L23.1905 613.303Z" fill="#D9D9D9"/>
<circle cx="182.572" cy="630.405" r="11.1211" fill="#FF5E5E"/>
<circle cx="146.428" cy="630.405" r="11.1211" fill="#5ABE5E"/>
<path d="M12.0944 571.447L96.1142 511.428H295.935L259.262 540.258L219.588 571.447H12.0944Z" fill="white" stroke="black" stroke-width="3"/>
<path d="M12.0944 571.447L96.1142 511.428H295.935L259.262 540.258L219.588 571.447H12.0944Z" fill="white" stroke="black" stroke-width="3"/>
<rect opacity="0.8" x="29.5" y="633.803" width="87" height="37" fill="white" stroke="black"/>
<path d="M47.3071 656.653C47.3071 657.946 47.005 659.036 46.4009 659.924C45.7967 660.802 44.966 661.467 43.9087 661.92C42.8608 662.364 41.6714 662.586 40.3403 662.586C39.0093 662.586 37.8151 662.364 36.7578 661.92C35.7005 661.467 34.8651 660.802 34.2515 659.924C33.6379 659.036 33.3311 657.946 33.3311 656.653C33.3311 655.784 33.5057 655.001 33.855 654.302C34.2043 653.594 34.6904 652.99 35.3135 652.49C35.946 651.98 36.687 651.593 37.5366 651.329C38.3862 651.055 39.3114 650.918 40.312 650.918C41.6525 650.918 42.8514 651.154 43.9087 651.626C44.966 652.098 45.7967 652.764 46.4009 653.623C47.005 654.482 47.3071 655.492 47.3071 656.653ZM43.2007 656.384C43.2007 655.751 43.078 655.208 42.8325 654.755C42.5965 654.293 42.2614 653.939 41.8271 653.693C41.3929 653.448 40.8879 653.325 40.312 653.325C39.7362 653.325 39.2311 653.448 38.7969 653.693C38.3626 653.939 38.0228 654.293 37.7773 654.755C37.5413 655.208 37.4233 655.751 37.4233 656.384C37.4233 657.007 37.5413 657.545 37.7773 657.998C38.0228 658.451 38.3626 658.8 38.7969 659.046C39.2406 659.282 39.755 659.4 40.3403 659.4C40.9256 659.4 41.4307 659.282 41.8555 659.046C42.2897 658.8 42.6201 658.451 42.8467 657.998C43.0827 657.545 43.2007 657.007 43.2007 656.384ZM46.8682 647.151C46.8682 648.199 46.5897 649.129 46.0327 649.941C45.4757 650.743 44.7017 651.371 43.7104 651.824C42.7287 652.277 41.6053 652.504 40.3403 652.504C39.0659 652.504 37.9331 652.277 36.9419 651.824C35.9507 651.371 35.1766 650.743 34.6196 649.941C34.0627 649.129 33.7842 648.199 33.7842 647.151C33.7842 645.905 34.0627 644.857 34.6196 644.008C35.186 643.149 35.9601 642.497 36.9419 642.054C37.9331 641.61 39.0565 641.388 40.312 641.388C41.5864 641.388 42.7145 641.61 43.6963 642.054C44.6875 642.497 45.4616 643.149 46.0186 644.008C46.585 644.857 46.8682 645.905 46.8682 647.151ZM42.79 647.335C42.79 646.778 42.6909 646.297 42.4927 645.891C42.2944 645.476 42.0112 645.155 41.6431 644.928C41.2843 644.702 40.8407 644.588 40.312 644.588C39.8022 644.588 39.3633 644.697 38.9951 644.914C38.6364 645.131 38.3579 645.447 38.1597 645.863C37.9709 646.269 37.8765 646.76 37.8765 647.335C37.8765 647.892 37.9709 648.383 38.1597 648.808C38.3579 649.223 38.6411 649.549 39.0093 649.785C39.3774 650.021 39.8211 650.139 40.3403 650.139C40.8595 650.139 41.2985 650.021 41.6572 649.785C42.0254 649.549 42.3039 649.223 42.4927 648.808C42.6909 648.383 42.79 647.892 42.79 647.335ZM63.9453 650.182V653.75C63.9453 655.298 63.7801 656.634 63.4497 657.757C63.1193 658.871 62.6426 659.787 62.0195 660.504C61.4059 661.212 60.6743 661.736 59.8247 662.076C58.9751 662.416 58.0311 662.586 56.9927 662.586C56.1619 662.586 55.3879 662.482 54.6704 662.274C53.953 662.057 53.3063 661.722 52.7305 661.269C52.1641 660.816 51.6732 660.245 51.2578 659.556C50.8519 658.857 50.5404 658.026 50.3232 657.063C50.1061 656.101 49.9976 654.996 49.9976 653.75V650.182C49.9976 648.633 50.1628 647.307 50.4932 646.203C50.833 645.089 51.3097 644.178 51.9233 643.47C52.5464 642.762 53.2827 642.243 54.1323 641.912C54.9819 641.572 55.9259 641.402 56.9644 641.402C57.7951 641.402 58.5645 641.511 59.2725 641.728C59.9899 641.936 60.6366 642.261 61.2124 642.705C61.7882 643.149 62.2791 643.72 62.6851 644.418C63.091 645.108 63.4025 645.934 63.6196 646.896C63.8368 647.85 63.9453 648.945 63.9453 650.182ZM59.853 654.288V649.629C59.853 648.884 59.8105 648.232 59.7256 647.675C59.6501 647.118 59.5321 646.646 59.3716 646.259C59.2111 645.863 59.0129 645.542 58.7769 645.296C58.5409 645.051 58.2718 644.872 57.9697 644.758C57.6676 644.645 57.3325 644.588 56.9644 644.588C56.5018 644.588 56.0911 644.678 55.7324 644.857C55.3831 645.037 55.0858 645.325 54.8403 645.721C54.5949 646.108 54.4061 646.627 54.2739 647.279C54.1512 647.921 54.0898 648.704 54.0898 649.629V654.288C54.0898 655.034 54.1276 655.69 54.2031 656.256C54.2881 656.823 54.4108 657.309 54.5713 657.715C54.7412 658.111 54.9395 658.437 55.166 658.692C55.402 658.937 55.6711 659.117 55.9731 659.23C56.2847 659.343 56.6245 659.4 56.9927 659.4C57.4458 659.4 57.847 659.31 58.1963 659.131C58.555 658.942 58.8571 658.649 59.1025 658.253C59.3574 657.847 59.5462 657.318 59.6689 656.667C59.7917 656.016 59.853 655.223 59.853 654.288ZM80.5977 650.182V653.75C80.5977 655.298 80.4325 656.634 80.1021 657.757C79.7716 658.871 79.2949 659.787 78.6719 660.504C78.0583 661.212 77.3267 661.736 76.4771 662.076C75.6274 662.416 74.6834 662.586 73.645 662.586C72.8143 662.586 72.0402 662.482 71.3228 662.274C70.6053 662.057 69.9587 661.722 69.3828 661.269C68.8164 660.816 68.3255 660.245 67.9102 659.556C67.5042 658.857 67.1927 658.026 66.9756 657.063C66.7585 656.101 66.6499 654.996 66.6499 653.75V650.182C66.6499 648.633 66.8151 647.307 67.1455 646.203C67.4854 645.089 67.9621 644.178 68.5757 643.47C69.1987 642.762 69.9351 642.243 70.7847 641.912C71.6343 641.572 72.5783 641.402 73.6167 641.402C74.4474 641.402 75.2168 641.511 75.9248 641.728C76.6423 641.936 77.2889 642.261 77.8647 642.705C78.4406 643.149 78.9315 643.72 79.3374 644.418C79.7433 645.108 80.0549 645.934 80.272 646.896C80.4891 647.85 80.5977 648.945 80.5977 650.182ZM76.5054 654.288V649.629C76.5054 648.884 76.4629 648.232 76.3779 647.675C76.3024 647.118 76.1844 646.646 76.0239 646.259C75.8634 645.863 75.6652 645.542 75.4292 645.296C75.1932 645.051 74.9242 644.872 74.6221 644.758C74.32 644.645 73.9849 644.588 73.6167 644.588C73.1541 644.588 72.7435 644.678 72.3848 644.857C72.0355 645.037 71.7381 645.325 71.4927 645.721C71.2472 646.108 71.0584 646.627 70.9263 647.279C70.8035 647.921 70.7422 648.704 70.7422 649.629V654.288C70.7422 655.034 70.7799 655.69 70.8555 656.256C70.9404 656.823 71.0632 657.309 71.2236 657.715C71.3936 658.111 71.5918 658.437 71.8184 658.692C72.0544 658.937 72.3234 659.117 72.6255 659.23C72.937 659.343 73.2769 659.4 73.645 659.4C74.0981 659.4 74.4993 659.31 74.8486 659.131C75.2074 658.942 75.5094 658.649 75.7549 658.253C76.0098 657.847 76.1986 657.318 76.3213 656.667C76.444 656.016 76.5054 655.223 76.5054 654.288ZM83.7695 645.282C83.7695 644.574 83.9442 643.928 84.2935 643.342C84.6427 642.748 85.11 642.276 85.6953 641.926C86.2806 641.577 86.9225 641.402 87.6211 641.402C88.3102 641.402 88.9427 641.577 89.5186 641.926C90.0944 642.276 90.5522 642.748 90.8921 643.342C91.2319 643.928 91.4019 644.574 91.4019 645.282C91.4019 645.99 91.2319 646.637 90.8921 647.222C90.5522 647.798 90.0944 648.256 89.5186 648.596C88.9427 648.936 88.3102 649.105 87.6211 649.105C86.9225 649.105 86.2806 648.936 85.6953 648.596C85.11 648.256 84.6427 647.798 84.2935 647.222C83.9442 646.637 83.7695 645.99 83.7695 645.282ZM85.8086 645.282C85.8086 645.792 85.988 646.217 86.3467 646.557C86.7054 646.896 87.1302 647.066 87.6211 647.066C88.112 647.066 88.5226 646.896 88.853 646.557C89.1834 646.217 89.3486 645.792 89.3486 645.282C89.3486 644.763 89.1834 644.329 88.853 643.979C88.5226 643.63 88.112 643.456 87.6211 643.456C87.1302 643.456 86.7054 643.63 86.3467 643.979C85.988 644.329 85.8086 644.763 85.8086 645.282ZM107.049 655.463H111.283C111.198 656.851 110.815 658.083 110.136 659.159C109.465 660.235 108.526 661.076 107.318 661.68C106.119 662.284 104.675 662.586 102.985 662.586C101.663 662.586 100.479 662.359 99.4307 661.906C98.3828 661.444 97.486 660.783 96.7402 659.924C96.0039 659.065 95.4422 658.026 95.0552 656.809C94.6681 655.591 94.4746 654.227 94.4746 652.716V651.286C94.4746 649.776 94.6729 648.412 95.0693 647.194C95.4753 645.967 96.0511 644.924 96.7969 644.064C97.5521 643.205 98.4536 642.545 99.5015 642.082C100.549 641.619 101.72 641.388 103.013 641.388C104.731 641.388 106.18 641.7 107.36 642.323C108.55 642.946 109.47 643.805 110.122 644.9C110.782 645.995 111.179 647.241 111.311 648.638H107.063C107.016 647.807 106.851 647.104 106.567 646.528C106.284 645.943 105.855 645.504 105.279 645.211C104.712 644.909 103.957 644.758 103.013 644.758C102.305 644.758 101.687 644.89 101.158 645.155C100.63 645.419 100.186 645.82 99.8271 646.358C99.4684 646.896 99.1994 647.576 99.02 648.397C98.8501 649.209 98.7651 650.163 98.7651 651.258V652.716C98.7651 653.783 98.8454 654.722 99.0059 655.534C99.1663 656.337 99.4118 657.016 99.7422 657.573C100.082 658.121 100.516 658.536 101.045 658.819C101.583 659.093 102.23 659.23 102.985 659.23C103.872 659.23 104.604 659.088 105.18 658.805C105.756 658.522 106.194 658.102 106.497 657.545C106.808 656.988 106.992 656.294 107.049 655.463Z" fill="black"/>
<path d="M376.591 769.5V716.5H418.745L403.08 769.5H376.591Z" fill="white" stroke="black" stroke-width="5"/>
<path d="M801.591 769.5V716.5H759.437L775.102 769.5H801.591Z" fill="white" stroke="black" stroke-width="5"/>
<rect x="368.591" y="2.5" width="452" height="75" fill="white" stroke="black" stroke-width="5"/>
<mask id="path-19-inside-1_718_314" fill="white">
<path fill-rule="evenodd" clip-rule="evenodd" d="M837.091 75H351.091V716H837.091V75ZM812.091 94H374.091V563H812.091V94Z"/>
</mask>
<path fill-rule="evenodd" clip-rule="evenodd" d="M837.091 75H351.091V716H837.091V75ZM812.091 94H374.091V563H812.091V94Z" fill="white"/>
<path d="M351.091 75V70H346.091V75H351.091ZM837.091 75H842.091V70H837.091V75ZM351.091 716H346.091V721H351.091V716ZM837.091 716V721H842.091V716H837.091ZM374.091 94V89H369.091V94H374.091ZM812.091 94H817.091V89H812.091V94ZM374.091 563H369.091V568H374.091V563ZM812.091 563V568H817.091V563H812.091ZM351.091 80H837.091V70H351.091V80ZM356.091 716V75H346.091V716H356.091ZM837.091 711H351.091V721H837.091V711ZM832.091 75V716H842.091V75H832.091ZM374.091 99H812.091V89H374.091V99ZM379.091 563V94H369.091V563H379.091ZM812.091 558H374.091V568H812.091V558ZM807.091 94V563H817.091V94H807.091Z" fill="black" mask="url(#path-19-inside-1_718_314)"/>
<rect x="375.591" y="595.5" width="432" height="99" fill="white" stroke="black" stroke-width="5"/>
<rect x="296.785" y="253" width="56.9562" height="102.459" fill="white" stroke="black" stroke-width="4"/>
<rect x="253" y="282.19" width="43.2196" height="44.0781" fill="white" stroke="black" stroke-width="4"/>
<rect x="895.956" y="355.459" width="56.9562" height="102.459" transform="rotate(180 895.956 355.459)" fill="white" stroke="black" stroke-width="4"/>
<rect x="939.741" y="326.269" width="43.2196" height="44.0781" transform="rotate(180 939.741 326.269)" fill="white" stroke="black" stroke-width="4"/>
</svg>
