<svg width="1474" height="909" viewBox="0 0 1474 909" fill="none" xmlns="http://www.w3.org/2000/svg">
<path d="M503.092 723.303C508.593 712.98 518.414 703.519 527.214 696.168C544.761 681.509 564.362 673.184 586.901 669.961C605.108 667.358 621.945 668.572 638.444 658.922C650.711 651.747 660.113 642.04 670.092 632.303" stroke="black" stroke-width="3" stroke-linecap="round"/>
<path d="M216.68 794.412L300.7 734.393H500.521L463.848 763.223L424.174 794.412H216.68Z" fill="#D9D9D9" stroke="black" stroke-width="3"/>
<path d="M214.097 837.47L221.975 670.946H431.39L422.795 837.47H214.097Z" fill="white" stroke="black" stroke-width="4"/>
<path d="M423.191 834.287L430.356 669.034L507.799 609.192L502.232 762.179L423.191 834.287Z" fill="white" stroke="black" stroke-width="4"/>
<path d="M224.094 667.446L308.114 607.427H507.935L471.262 636.257L431.588 667.446H224.094Z" fill="white" stroke="black" stroke-width="3"/>
<path d="M235.19 709.303H339L333.81 798.303H230L235.19 709.303Z" fill="#D9D9D9"/>
<circle cx="394.572" cy="726.405" r="11.1211" fill="#FF5E5E"/>
<circle cx="358.428" cy="726.405" r="11.1211" fill="#5ABE5E"/>
<path d="M224.094 667.446L308.114 607.427H507.935L471.262 636.257L431.588 667.446H224.094Z" fill="white" stroke="black" stroke-width="3"/>
<path d="M224.094 667.446L308.114 607.427H507.935L471.262 636.257L431.588 667.446H224.094Z" fill="white" stroke="black" stroke-width="3"/>
<rect x="241" y="729.303" width="88" height="38" fill="white"/>
<path d="M256.891 752.766C256.891 754.193 256.557 755.396 255.891 756.375C255.224 757.344 254.307 758.078 253.141 758.578C251.984 759.068 250.672 759.312 249.203 759.312C247.734 759.312 246.417 759.068 245.25 758.578C244.083 758.078 243.161 757.344 242.484 756.375C241.807 755.396 241.469 754.193 241.469 752.766C241.469 751.807 241.661 750.943 242.047 750.172C242.432 749.391 242.969 748.724 243.656 748.172C244.354 747.609 245.172 747.182 246.109 746.891C247.047 746.589 248.068 746.438 249.172 746.438C250.651 746.438 251.974 746.698 253.141 747.219C254.307 747.74 255.224 748.474 255.891 749.422C256.557 750.37 256.891 751.484 256.891 752.766ZM252.359 752.469C252.359 751.771 252.224 751.172 251.953 750.672C251.693 750.161 251.323 749.771 250.844 749.5C250.365 749.229 249.807 749.094 249.172 749.094C248.536 749.094 247.979 749.229 247.5 749.5C247.021 749.771 246.646 750.161 246.375 750.672C246.115 751.172 245.984 751.771 245.984 752.469C245.984 753.156 246.115 753.75 246.375 754.25C246.646 754.75 247.021 755.135 247.5 755.406C247.99 755.667 248.557 755.797 249.203 755.797C249.849 755.797 250.406 755.667 250.875 755.406C251.354 755.135 251.719 754.75 251.969 754.25C252.229 753.75 252.359 753.156 252.359 752.469ZM256.406 742.281C256.406 743.438 256.099 744.464 255.484 745.359C254.87 746.245 254.016 746.938 252.922 747.438C251.839 747.938 250.599 748.188 249.203 748.188C247.797 748.188 246.547 747.938 245.453 747.438C244.359 746.938 243.505 746.245 242.891 745.359C242.276 744.464 241.969 743.438 241.969 742.281C241.969 740.906 242.276 739.75 242.891 738.812C243.516 737.865 244.37 737.146 245.453 736.656C246.547 736.167 247.786 735.922 249.172 735.922C250.578 735.922 251.823 736.167 252.906 736.656C254 737.146 254.854 737.865 255.469 738.812C256.094 739.75 256.406 740.906 256.406 742.281ZM251.906 742.484C251.906 741.87 251.797 741.339 251.578 740.891C251.359 740.432 251.047 740.078 250.641 739.828C250.245 739.578 249.755 739.453 249.172 739.453C248.609 739.453 248.125 739.573 247.719 739.812C247.323 740.052 247.016 740.401 246.797 740.859C246.589 741.307 246.484 741.849 246.484 742.484C246.484 743.099 246.589 743.641 246.797 744.109C247.016 744.568 247.328 744.927 247.734 745.188C248.141 745.448 248.63 745.578 249.203 745.578C249.776 745.578 250.26 745.448 250.656 745.188C251.062 744.927 251.37 744.568 251.578 744.109C251.797 743.641 251.906 743.099 251.906 742.484ZM275.25 745.625V749.562C275.25 751.271 275.068 752.745 274.703 753.984C274.339 755.214 273.812 756.224 273.125 757.016C272.448 757.797 271.641 758.375 270.703 758.75C269.766 759.125 268.724 759.312 267.578 759.312C266.661 759.312 265.807 759.198 265.016 758.969C264.224 758.729 263.51 758.359 262.875 757.859C262.25 757.359 261.708 756.729 261.25 755.969C260.802 755.198 260.458 754.281 260.219 753.219C259.979 752.156 259.859 750.938 259.859 749.562V745.625C259.859 743.917 260.042 742.453 260.406 741.234C260.781 740.005 261.307 739 261.984 738.219C262.672 737.438 263.484 736.865 264.422 736.5C265.359 736.125 266.401 735.938 267.547 735.938C268.464 735.938 269.312 736.057 270.094 736.297C270.885 736.526 271.599 736.885 272.234 737.375C272.87 737.865 273.411 738.495 273.859 739.266C274.307 740.026 274.651 740.938 274.891 742C275.13 743.052 275.25 744.26 275.25 745.625ZM270.734 750.156V745.016C270.734 744.193 270.688 743.474 270.594 742.859C270.51 742.245 270.38 741.724 270.203 741.297C270.026 740.859 269.807 740.505 269.547 740.234C269.286 739.964 268.99 739.766 268.656 739.641C268.323 739.516 267.953 739.453 267.547 739.453C267.036 739.453 266.583 739.552 266.188 739.75C265.802 739.948 265.474 740.266 265.203 740.703C264.932 741.13 264.724 741.703 264.578 742.422C264.443 743.13 264.375 743.995 264.375 745.016V750.156C264.375 750.979 264.417 751.703 264.5 752.328C264.594 752.953 264.729 753.49 264.906 753.938C265.094 754.375 265.312 754.734 265.562 755.016C265.823 755.286 266.12 755.484 266.453 755.609C266.797 755.734 267.172 755.797 267.578 755.797C268.078 755.797 268.521 755.698 268.906 755.5C269.302 755.292 269.635 754.969 269.906 754.531C270.188 754.083 270.396 753.5 270.531 752.781C270.667 752.062 270.734 751.188 270.734 750.156ZM293.625 745.625V749.562C293.625 751.271 293.443 752.745 293.078 753.984C292.714 755.214 292.188 756.224 291.5 757.016C290.823 757.797 290.016 758.375 289.078 758.75C288.141 759.125 287.099 759.312 285.953 759.312C285.036 759.312 284.182 759.198 283.391 758.969C282.599 758.729 281.885 758.359 281.25 757.859C280.625 757.359 280.083 756.729 279.625 755.969C279.177 755.198 278.833 754.281 278.594 753.219C278.354 752.156 278.234 750.938 278.234 749.562V745.625C278.234 743.917 278.417 742.453 278.781 741.234C279.156 740.005 279.682 739 280.359 738.219C281.047 737.438 281.859 736.865 282.797 736.5C283.734 736.125 284.776 735.938 285.922 735.938C286.839 735.938 287.688 736.057 288.469 736.297C289.26 736.526 289.974 736.885 290.609 737.375C291.245 737.865 291.786 738.495 292.234 739.266C292.682 740.026 293.026 740.938 293.266 742C293.505 743.052 293.625 744.26 293.625 745.625ZM289.109 750.156V745.016C289.109 744.193 289.062 743.474 288.969 742.859C288.885 742.245 288.755 741.724 288.578 741.297C288.401 740.859 288.182 740.505 287.922 740.234C287.661 739.964 287.365 739.766 287.031 739.641C286.698 739.516 286.328 739.453 285.922 739.453C285.411 739.453 284.958 739.552 284.562 739.75C284.177 739.948 283.849 740.266 283.578 740.703C283.307 741.13 283.099 741.703 282.953 742.422C282.818 743.13 282.75 743.995 282.75 745.016V750.156C282.75 750.979 282.792 751.703 282.875 752.328C282.969 752.953 283.104 753.49 283.281 753.938C283.469 754.375 283.688 754.734 283.938 755.016C284.198 755.286 284.495 755.484 284.828 755.609C285.172 755.734 285.547 755.797 285.953 755.797C286.453 755.797 286.896 755.698 287.281 755.5C287.677 755.292 288.01 754.969 288.281 754.531C288.562 754.083 288.771 753.5 288.906 752.781C289.042 752.062 289.109 751.188 289.109 750.156ZM297.125 740.219C297.125 739.438 297.318 738.724 297.703 738.078C298.089 737.422 298.604 736.901 299.25 736.516C299.896 736.13 300.604 735.938 301.375 735.938C302.135 735.938 302.833 736.13 303.469 736.516C304.104 736.901 304.609 737.422 304.984 738.078C305.359 738.724 305.547 739.438 305.547 740.219C305.547 741 305.359 741.714 304.984 742.359C304.609 742.995 304.104 743.5 303.469 743.875C302.833 744.25 302.135 744.438 301.375 744.438C300.604 744.438 299.896 744.25 299.25 743.875C298.604 743.5 298.089 742.995 297.703 742.359C297.318 741.714 297.125 741 297.125 740.219ZM299.375 740.219C299.375 740.781 299.573 741.25 299.969 741.625C300.365 742 300.833 742.188 301.375 742.188C301.917 742.188 302.37 742 302.734 741.625C303.099 741.25 303.281 740.781 303.281 740.219C303.281 739.646 303.099 739.167 302.734 738.781C302.37 738.396 301.917 738.203 301.375 738.203C300.833 738.203 300.365 738.396 299.969 738.781C299.573 739.167 299.375 739.646 299.375 740.219ZM322.812 751.453H327.484C327.391 752.984 326.969 754.344 326.219 755.531C325.479 756.719 324.443 757.646 323.109 758.312C321.786 758.979 320.193 759.312 318.328 759.312C316.87 759.312 315.562 759.062 314.406 758.562C313.25 758.052 312.26 757.323 311.438 756.375C310.625 755.427 310.005 754.281 309.578 752.938C309.151 751.594 308.938 750.089 308.938 748.422V746.844C308.938 745.177 309.156 743.672 309.594 742.328C310.042 740.974 310.677 739.823 311.5 738.875C312.333 737.927 313.328 737.198 314.484 736.688C315.641 736.177 316.932 735.922 318.359 735.922C320.255 735.922 321.854 736.266 323.156 736.953C324.469 737.641 325.484 738.589 326.203 739.797C326.932 741.005 327.37 742.38 327.516 743.922H322.828C322.776 743.005 322.594 742.229 322.281 741.594C321.969 740.948 321.495 740.464 320.859 740.141C320.234 739.807 319.401 739.641 318.359 739.641C317.578 739.641 316.896 739.786 316.312 740.078C315.729 740.37 315.24 740.812 314.844 741.406C314.448 742 314.151 742.75 313.953 743.656C313.766 744.552 313.672 745.604 313.672 746.812V748.422C313.672 749.599 313.76 750.635 313.938 751.531C314.115 752.417 314.385 753.167 314.75 753.781C315.125 754.385 315.604 754.844 316.188 755.156C316.781 755.458 317.495 755.609 318.328 755.609C319.307 755.609 320.115 755.453 320.75 755.141C321.385 754.828 321.87 754.365 322.203 753.75C322.547 753.135 322.75 752.37 322.812 751.453Z" fill="black"/>
<mask id="path-13-inside-1_718_278" fill="white">
<path fill-rule="evenodd" clip-rule="evenodd" d="M697.693 354.5L626.306 359.133V359.134C616.748 359.134 609 380.727 609 407.363C609 433.999 616.748 455.592 626.306 455.592C626.326 455.592 626.347 455.592 626.367 455.592H697.693V354.5Z"/>
</mask>
<path fill-rule="evenodd" clip-rule="evenodd" d="M697.693 354.5L626.306 359.133V359.134C616.748 359.134 609 380.727 609 407.363C609 433.999 616.748 455.592 626.306 455.592C626.326 455.592 626.347 455.592 626.367 455.592H697.693V354.5Z" fill="white"/>
<path d="M626.306 359.133L626.047 355.142L622.306 355.385V359.133H626.306ZM697.693 354.5H701.693V350.232L697.434 350.508L697.693 354.5ZM626.306 359.134L626.306 363.134L630.306 363.134V359.134H626.306ZM626.367 455.592V451.592H626.348L626.329 451.592L626.367 455.592ZM697.693 455.592V459.592H701.693V455.592H697.693ZM626.565 363.125L697.952 358.492L697.434 350.508L626.047 355.142L626.565 363.125ZM630.306 359.134V359.133H622.306V359.134H630.306ZM613 407.363C613 394.381 614.895 382.802 617.834 374.611C619.309 370.499 620.973 367.453 622.62 365.512C624.281 363.554 625.543 363.134 626.306 363.134L626.305 355.134C622.29 355.134 618.999 357.414 616.519 360.337C614.025 363.277 611.96 367.294 610.304 371.909C606.979 381.174 605 393.709 605 407.363H613ZM626.306 451.592C625.543 451.592 624.281 451.173 622.62 449.214C620.973 447.273 619.31 444.228 617.834 440.115C614.895 431.924 613 420.345 613 407.363H605C605 421.017 606.979 433.553 610.304 442.817C611.96 447.432 614.026 451.45 616.52 454.39C618.999 457.313 622.29 459.592 626.306 459.592V451.592ZM626.329 451.592C626.321 451.592 626.313 451.592 626.306 451.592V459.592C626.339 459.592 626.372 459.592 626.405 459.592L626.329 451.592ZM697.693 451.592H626.367V459.592H697.693V451.592ZM693.693 354.5V455.592H701.693V354.5H693.693Z" fill="black" mask="url(#path-13-inside-1_718_278)"/>
<path d="M685 407.954C685 421.755 683.105 434.165 680.098 443.055C678.591 447.51 676.841 450.972 674.996 453.279C673.136 455.606 671.401 456.5 669.903 456.5C668.406 456.5 666.671 455.606 664.811 453.279C662.965 450.972 661.216 447.51 659.709 443.055C656.702 434.165 654.807 421.755 654.807 407.954C654.807 394.154 656.702 381.744 659.709 372.854C661.216 368.398 662.965 364.937 664.811 362.629C666.671 360.303 668.406 359.408 669.903 359.408C671.401 359.408 673.136 360.303 674.996 362.629C676.841 364.937 678.591 368.398 680.098 372.854C683.105 381.744 685 394.154 685 407.954Z" fill="white" stroke="black" stroke-width="4"/>
<path d="M1095.4 173.44L1044.77 163.229L1244.12 110.039L1285.82 116.172L1095.4 173.44Z" fill="white" stroke="black" stroke-width="4"/>
<path d="M1091.5 777.084L655.5 791.914V157.092L1091.5 172.911V777.084Z" fill="white" stroke="black" stroke-width="5"/>
<path d="M682.201 836L676.839 794H714.782L704.058 836H682.201Z" fill="white" stroke="black" stroke-width="5"/>
<path d="M1064.58 828.148L1088 823.912V777.174L1049.34 779.781L1064.58 828.148Z" fill="white" stroke="black" stroke-width="5"/>
<path d="M1257.71 734.697L1272.5 731.875V690.545L1242.4 705.595L1257.71 734.697Z" fill="white" stroke="black" stroke-width="5"/>
<path d="M675.5 153.098V78.0567L1071.5 86.9445V168.898L675.5 153.098Z" fill="white" stroke="black" stroke-width="5"/>
<path d="M700.064 74.4819L920.648 41.5057L1242.38 51.3691L1071.78 87.9903L700.064 74.4819Z" fill="white" stroke="black" stroke-width="5"/>
<path d="M1072.5 88.0652V166.732L1262.91 115.111L1260.13 52.0013L1072.5 88.0652Z" fill="white" stroke="black" stroke-width="5"/>
<path d="M1067.5 628.062L676.5 637.936V174.103L1067.5 189.901V628.062Z" fill="white" stroke="black" stroke-width="5"/>
<path d="M676.5 771.917V673.944L1067.5 665.057V759.081L676.5 771.917Z" fill="white" stroke="black" stroke-width="5"/>
<path d="M1093.5 770.699V173.406L1292.5 118.779V684.856L1093.5 770.699Z" fill="white" stroke="black" stroke-width="5"/>
<path d="M1278.5 468.025L1205.59 472.278V309.777L1278.5 316.46L1278.5 468.025Z" fill="white" stroke="black" stroke-width="3"/>
<path d="M1114.5 417.568V337.076L1202.59 310.16V462.621L1114.5 488.315V417.568Z" fill="white" stroke="black" stroke-width="3"/>
<path d="M1190.41 423.894V343.401L1278.5 316.485V468.947L1190.41 494.64V423.894Z" fill="white" stroke="black" stroke-width="3"/>
<path d="M1187.41 494.616L1114.5 500.084V337.61L1187.41 344.293L1187.41 494.616Z" fill="white" stroke="black" stroke-width="3"/>
<path d="M1121.39 335.868L1204.25 309.024L1272.22 315.877L1189.38 343.295L1121.39 335.868Z" fill="white" stroke="black" stroke-width="3"/>
<mask id="path-32-inside-2_718_278" fill="white">
<path fill-rule="evenodd" clip-rule="evenodd" d="M1310 354.5L1229.51 359.28V359.28C1218.74 359.281 1210 381.557 1210 409.035C1210 436.514 1218.74 458.79 1229.51 458.79C1229.53 458.79 1229.55 458.79 1229.57 458.79H1310C1310 458.79 1293 433 1293 401C1293 369 1310 354.5 1310 354.5Z"/>
</mask>
<path fill-rule="evenodd" clip-rule="evenodd" d="M1310 354.5L1229.51 359.28V359.28C1218.74 359.281 1210 381.557 1210 409.035C1210 436.514 1218.74 458.79 1229.51 458.79C1229.53 458.79 1229.55 458.79 1229.57 458.79H1310C1310 458.79 1293 433 1293 401C1293 369 1310 354.5 1310 354.5Z" fill="white"/>
<path d="M1229.51 359.28L1229.27 355.287L1225.51 355.511V359.28H1229.51ZM1310 354.5L1312.6 357.543L1321.67 349.8L1309.76 350.507L1310 354.5ZM1229.51 359.28L1229.51 363.28L1233.51 363.28V359.28H1229.51ZM1229.57 458.79V454.79H1229.55L1229.54 454.79L1229.57 458.79ZM1310 458.79V462.79H1317.43L1313.34 456.589L1310 458.79ZM1229.75 363.273L1310.24 358.493L1309.76 350.507L1229.27 355.287L1229.75 363.273ZM1233.51 359.28V359.28H1225.51V359.28H1233.51ZM1214 409.035C1214 395.667 1216.13 383.746 1219.44 375.314C1221.1 371.086 1222.97 367.936 1224.85 365.91C1226.72 363.89 1228.3 363.28 1229.51 363.28L1229.51 355.28C1225.33 355.281 1221.78 357.456 1218.98 360.471C1216.19 363.481 1213.86 367.618 1211.99 372.393C1208.24 381.969 1206 394.926 1206 409.035H1214ZM1229.51 454.79C1228.3 454.79 1226.72 454.181 1224.85 452.161C1222.97 450.135 1221.1 446.985 1219.44 442.757C1216.13 434.325 1214 422.404 1214 409.035H1206C1206 423.145 1208.24 436.102 1211.99 445.678C1213.86 450.454 1216.19 454.59 1218.98 457.6C1221.78 460.615 1225.33 462.79 1229.51 462.79V454.79ZM1229.54 454.79C1229.53 454.79 1229.52 454.79 1229.51 454.79V462.79C1229.54 462.79 1229.57 462.79 1229.59 462.79L1229.54 454.79ZM1310 454.79H1229.57V462.79H1310V454.79ZM1289 401C1289 417.682 1293.42 432.658 1297.79 443.402C1299.99 448.789 1302.18 453.15 1303.83 456.178C1304.66 457.693 1305.35 458.877 1305.85 459.691C1306.09 460.099 1306.29 460.414 1306.43 460.632C1306.5 460.741 1306.55 460.826 1306.59 460.886C1306.61 460.916 1306.63 460.94 1306.64 460.958C1306.64 460.967 1306.65 460.974 1306.65 460.979C1306.65 460.982 1306.66 460.985 1306.66 460.987C1306.66 460.988 1306.66 460.989 1306.66 460.99C1306.66 460.991 1306.66 460.992 1310 458.79C1313.34 456.589 1313.34 456.59 1313.34 456.59C1313.34 456.591 1313.34 456.591 1313.34 456.591C1313.34 456.592 1313.34 456.592 1313.34 456.592C1313.34 456.591 1313.34 456.589 1313.34 456.585C1313.33 456.578 1313.32 456.564 1313.31 456.544C1313.29 456.505 1313.24 456.441 1313.19 456.354C1313.08 456.178 1312.91 455.908 1312.69 455.548C1312.25 454.827 1311.62 453.746 1310.85 452.343C1309.32 449.535 1307.26 445.449 1305.21 440.388C1301.08 430.237 1297 416.318 1297 401H1289ZM1310 354.5C1307.4 351.457 1307.4 351.458 1307.4 351.46C1307.4 351.46 1307.4 351.462 1307.4 351.463C1307.39 351.465 1307.39 351.468 1307.39 351.47C1307.38 351.476 1307.37 351.482 1307.37 351.49C1307.35 351.504 1307.33 351.523 1307.3 351.545C1307.25 351.589 1307.19 351.647 1307.11 351.721C1306.95 351.867 1306.73 352.073 1306.46 352.339C1305.92 352.871 1305.18 353.643 1304.31 354.662C1302.56 356.7 1300.28 359.731 1298.01 363.803C1293.46 371.967 1289 384.257 1289 401H1297C1297 385.743 1301.04 374.783 1304.99 367.697C1306.97 364.144 1308.94 361.55 1310.38 359.869C1311.1 359.029 1311.69 358.418 1312.08 358.032C1312.28 357.839 1312.42 357.702 1312.51 357.621C1312.55 357.58 1312.58 357.553 1312.6 357.54C1312.61 357.534 1312.61 357.531 1312.61 357.532C1312.61 357.532 1312.61 357.533 1312.61 357.535C1312.6 357.536 1312.6 357.537 1312.6 357.538C1312.6 357.539 1312.6 357.54 1312.6 357.541C1312.6 357.542 1312.6 357.543 1310 354.5Z" fill="black" mask="url(#path-32-inside-2_718_278)"/>
<path d="M1320 406.5C1320 420.88 1318.5 433.83 1316.11 443.125C1314.91 447.788 1313.52 451.418 1312.05 453.835C1310.5 456.371 1309.25 457 1308.5 457C1308.09 457 1307.47 456.835 1306.64 456.272C1305.8 455.715 1304.86 454.836 1303.85 453.606C1301.84 451.148 1299.72 447.491 1297.8 442.856C1293.96 433.601 1291 420.737 1291 406.5C1291 392.263 1293.96 379.399 1297.8 370.144C1299.72 365.509 1301.84 361.852 1303.85 359.394C1304.86 358.164 1305.8 357.285 1306.64 356.728C1307.47 356.165 1308.09 356 1308.5 356C1309.25 356 1310.5 356.629 1312.05 359.165C1313.52 361.582 1314.91 365.212 1316.11 369.875C1318.5 379.17 1320 392.12 1320 406.5Z" stroke="black" stroke-width="4"/>
</svg>
