<svg width="191" height="53" viewBox="0 0 191 53" fill="none" xmlns="http://www.w3.org/2000/svg">
<path d="M189.291 17.3929L189.218 17.1074L188.929 17.0519C188.393 16.9481 135.208 6.71062 123.105 6.24483C115.162 5.93966 97.8941 3.55386 85.2845 1.81179C78.5942 0.886391 73.3086 0.156229 71.5246 0.031442C68.2467 -0.194657 65.5471 0.844408 63.3776 1.68209C62.0581 2.19235 60.9177 2.63464 59.8687 2.73843C58.1266 2.91387 51.4549 2.65812 45.5701 2.43573C41.6115 2.285 37.8729 2.14291 35.9825 2.14291C33.5338 2.14291 27.8467 3.07699 22.3474 3.97892C17.1879 4.82524 11.853 5.7024 9.74025 5.7024C3.97164 5.7024 0.728416 6.77853 0.100776 8.90732C-0.00794949 9.29774 -0.0289523 9.71415 0.039001 10.1379C0.597453 13.8914 8.68512 16.6812 18.0318 16.3649C22.9046 16.203 26.5197 15.9597 29.1588 15.7805C31.8312 15.6014 33.5968 15.484 34.8656 15.5594C35.6934 15.61 36.945 15.7422 38.5067 16.0758C36.8956 17.0827 33.986 19.2943 34.1095 22.0989C34.2812 25.8882 43.0349 42.2538 44.0887 43.755C44.9153 44.9398 48.4303 45.7442 54.834 46.2136L54.9835 46.2248C56.1375 46.3162 57.3816 46.6572 58.585 46.9846C60.6557 47.5505 62.6128 48.0855 63.9027 47.2701C64.4339 46.9352 64.8071 46.3928 65.0183 45.654C66.3169 45.9011 69.7627 46.3533 70.8178 44.4827C72.0595 42.2625 70.866 37.8641 68.6878 36.6347C67.6253 36.0404 65.8881 35.7897 64.3561 35.571C63.359 35.4277 61.9926 35.2312 61.7949 35.0298C61.7331 34.8865 61.5466 34.4503 61.5713 34.3478C61.5713 34.3478 61.6652 34.2502 62.1445 34.202C63.3343 34.0822 66.5516 31.9139 67.4288 31.3085C68.7854 31.7199 76.2936 34.0513 80.3276 36.3432C84.6766 38.8142 91.9822 40.2054 99.8746 40.0732C107.123 39.9484 115.896 36.4333 119.721 34.9001C123.178 33.5274 132.333 33.8993 137.402 35.1669C142.205 36.3679 180.157 52.3184 180.54 52.479L180.756 52.5692L180.958 52.4481C181.042 52.3987 183.033 51.1854 185.247 48.3709C189.354 43.1434 193.386 33.5262 189.291 17.3929ZM64.2165 45.0251C64.088 45.7467 63.8248 46.2248 63.4109 46.4867C62.467 47.0822 60.7015 46.6028 58.8321 46.0913C57.588 45.7516 56.3006 45.3995 55.0576 45.3007L54.9044 45.2895C46.7117 44.689 45.1451 43.6451 44.8511 43.2225C43.7342 41.6324 35.1906 25.4335 35.0374 22.0569C34.9027 18.9879 39.4 16.5984 39.8472 16.3649L40.3674 16.1191L42.359 16.827C42.359 16.827 42.2725 17.6931 43.6588 21.0883C44.7053 23.6507 48.313 25.4929 50.0229 26.2428C49.6708 26.611 49.2149 27.1138 48.2055 26.9248C46.8266 26.6666 42.6593 25.226 42.6593 25.226C42.6593 25.226 48.2549 27.4746 49.4546 28.5743C50.6543 29.6739 51.7032 34.5196 51.7032 34.5196C49.6547 35.0694 48.3303 37.3476 48.3303 37.3476C49.3805 35.65 52.4507 35.2461 52.4507 35.2461C52.4507 35.2461 59.8848 37.0239 62.7944 39.7717C64.9751 41.8313 64.9417 43.7994 64.7873 44.6569C64.7873 44.6569 64.7824 44.6557 64.7799 44.6557L64.303 44.5432L64.2165 45.0251ZM64.2288 36.4877C65.6806 36.6965 67.3275 36.9325 68.2381 37.4427C69.9456 38.404 70.9908 42.2823 70.0148 44.0268C69.2586 45.3698 66.0092 44.9411 64.7997 44.6594C65.0332 43.7735 65.4557 41.7819 64.8491 40.7144C64.0546 39.3158 60.6965 37.4168 59.4981 37.0672C58.2984 36.7175 53.2525 34.7185 52.6027 34.0698C51.9528 33.4199 50.6543 29.4231 50.7037 28.174C50.7531 26.9249 50.9372 26.6172 50.9372 26.6172C50.9372 26.6172 53.5491 28.1085 55.0922 28.7929C54.9835 29.4626 52.3024 29.1228 53.4515 29.5725C54.6005 30.0223 57.1494 32.5699 57.2494 33.3693C57.3495 34.1686 56.3006 34.7184 56.3006 34.8618C56.3006 35.0051 57.5002 34.4689 58.3985 34.5183C59.0026 34.5516 60.1257 34.8482 60.8052 35.0397C60.851 35.1607 60.9004 35.2794 60.9473 35.3893C61.2142 36.0269 62.2557 36.2035 64.2288 36.4877ZM62.0556 33.2791C61.6553 33.3198 61.1895 33.4224 60.9041 33.735C59.8527 33.2284 57.2148 31.8743 56.4995 30.7215C56.0411 29.9839 56.1548 29.4996 56.3747 29.1994C57.8314 29.5762 62.9501 31.3986 64.6502 32.0077C63.5505 32.6749 62.5053 33.2346 62.0556 33.2791ZM184.523 47.7988C184.418 47.9323 184.317 48.0496 184.213 48.1757C179.796 48.2152 159.666 42.2822 144.783 35.162C141.852 33.7597 127.312 32.4525 120.872 28.4964C119.224 27.4845 118.195 32.8022 116.626 33.6547C115.069 34.5072 102.096 38.3249 99.4274 37.5836C96.7587 36.8547 100.898 35.3844 101.911 33.4323C102.924 31.4678 96.1162 37.3118 91.5201 37.1265C86.924 36.9411 81.6731 35.0137 78.7325 33.5435C75.792 32.0732 78.5472 30.7759 79.6592 30.0099C80.7588 29.2315 78.1766 30.2323 74.9642 30.8006C73.1962 31.1194 71.0835 31.0873 69.5317 30.9946C68.374 30.6215 67.5882 30.3868 67.4857 30.3559L67.2719 30.2916L67.0891 30.4201C66.9742 30.5004 66.8407 30.5906 66.7135 30.6771C64.2647 30.1816 55.3764 28.279 52.5878 26.2565C49.3434 23.9028 45.9865 22.6796 44.5323 18.8582C43.0781 15.0367 45.092 10.7087 48.3364 10.0379C51.5809 9.36698 56.9517 13.506 61.874 15.0726C66.7962 16.6392 78.3199 19.8836 81.0046 18.5406C83.6894 17.1976 88.9478 15.7434 88.9478 15.7434C86.7597 15.7867 80.9985 17.2594 79.8729 17.6931C78.7461 18.1267 77.0139 18.0391 71.7284 17C66.4441 15.9609 60.552 13.5343 56.7404 11.8886C52.9288 10.2429 49.4632 7.99058 47.1232 9.20262C44.7843 10.4159 43.5711 13.3614 43.2251 14.7477C43.0521 15.4408 40.9246 15.3012 40.103 15.4173C40.0066 15.4309 39.9312 15.4481 39.8682 15.4679C39.8275 15.4543 39.7929 15.416 39.7533 15.4123C39.4272 15.3308 39.1306 15.2703 38.8255 15.2048C37.5146 14.2399 35.1325 12.5447 33.6487 11.8478C31.5236 10.8471 31.956 13.7629 28.8796 13.7752C25.7908 13.8 18.526 13.8494 17.2534 12.6633C15.9808 11.4896 14.4364 14.5784 8.34536 13.5776C3.96175 12.8499 1.79837 10.7174 0.932276 9.58563C0.937218 9.4386 0.95575 9.29657 0.994051 9.1619C1.4759 7.52855 4.58198 6.62783 9.74148 6.62783C11.9308 6.62783 17.0644 5.78399 22.4994 4.89318C27.9616 3.9962 33.6104 3.06834 35.9838 3.06834C37.8556 3.06834 41.5868 3.21038 45.5355 3.35988C51.739 3.5971 58.1526 3.84173 59.9626 3.65888C61.1351 3.54027 62.3867 3.05718 63.7124 2.54568C65.903 1.69935 68.3814 0.741873 71.4603 0.954382C73.2135 1.07793 78.4842 1.80562 85.1584 2.72855C97.7866 4.47309 115.081 6.86382 123.069 7.17146C134.638 7.61501 184.195 17.0864 188.463 17.9068C192.348 33.5027 188.473 42.7666 184.523 47.7988Z" fill="black"/>
<path d="M52.4972 11.5538C50.9034 10.8557 49.7173 10.7322 48.8697 11.1745C47.8208 11.7243 47.5786 12.9783 47.3822 13.984L47.1981 14.8477C46.8274 16.4588 46.2665 18.8903 48.8759 20.4149C50.3202 21.2575 52.8765 22.0853 55.0498 22.0853C55.7824 22.0853 56.4706 21.9914 57.06 21.7715C57.9063 21.4565 58.4672 20.9165 58.7242 20.1641C59.704 17.2977 56.9698 13.5158 52.4972 11.5538ZM57.8458 19.8663C57.6814 20.3482 57.3182 20.688 56.7363 20.9042C54.7767 21.6356 51.1097 20.6472 49.3442 19.6156C47.3229 18.4369 47.7368 16.6416 48.1025 15.0589L48.2125 14.5648L48.2928 14.1632C48.4583 13.3095 48.6461 12.3408 49.3009 11.9974C49.873 11.6984 50.8243 11.8331 52.1253 12.4051C56.0926 14.1435 58.6587 17.4916 57.8458 19.8663Z" fill="black"/>
</svg>
