<svg width="1474" height="909" viewBox="0 0 1474 909" fill="none" xmlns="http://www.w3.org/2000/svg">
<rect x="672.592" y="173.5" width="481" height="636" fill="white" stroke="black" stroke-width="5"/>
<path d="M722.081 865.5H695.592V812.5H737.746L722.081 865.5Z" fill="white" stroke="black" stroke-width="5"/>
<path d="M1094.1 865.5H1120.59V812.5H1078.44L1094.1 865.5Z" fill="white" stroke="black" stroke-width="5"/>
<rect x="687.592" y="98.5" width="452" height="75" fill="white" stroke="black" stroke-width="5"/>
<rect x="695.592" y="192.5" width="433" height="464" fill="white" stroke="black" stroke-width="5"/>
<rect x="694.592" y="691.5" width="432" height="99" fill="white" stroke="black" stroke-width="5"/>
<rect x="615.785" y="349" width="56.9562" height="102.459" fill="white" stroke="black" stroke-width="4"/>
<rect x="572" y="378.19" width="43.2196" height="44.0781" fill="white" stroke="black" stroke-width="4"/>
<rect x="1215.31" y="451.151" width="56.9562" height="102.459" transform="rotate(180 1215.31 451.151)" fill="white" stroke="black" stroke-width="4"/>
<rect x="1259.09" y="421.961" width="43.2196" height="44.0781" transform="rotate(180 1259.09 421.961)" fill="white" stroke="black" stroke-width="4"/>
<path d="M503.092 723C508.593 712.677 518.414 703.216 527.214 695.865C544.761 681.206 564.362 672.881 586.901 669.659C605.108 667.056 621.945 668.269 638.444 658.619C650.711 651.444 660.113 641.737 670.092 632" stroke="black" stroke-width="3" stroke-linecap="round"/>
<path d="M216.68 794.11L300.7 734.09H500.521L463.848 762.921L424.174 794.11H216.68Z" fill="#D9D9D9" stroke="black" stroke-width="3"/>
<path d="M214.097 837.168L221.975 670.644H431.39L422.795 837.168H214.097Z" fill="white" stroke="black" stroke-width="4"/>
<path d="M423.191 833.984L430.356 668.732L507.799 608.89L502.232 761.877L423.191 833.984Z" fill="white" stroke="black" stroke-width="4"/>
<path d="M224.094 667.144L308.114 607.125H507.935L471.262 635.955L431.588 667.144H224.094Z" fill="white" stroke="black" stroke-width="3"/>
<path d="M235.19 709H339L333.81 798H230L235.19 709Z" fill="#D9D9D9"/>
<circle cx="394.572" cy="726.104" r="11.1211" fill="#FF5E5E"/>
<circle cx="358.428" cy="726.104" r="11.1211" fill="#5ABE5E"/>
<rect x="241" y="729" width="88" height="38" fill="white"/>
<path d="M265.875 745.625V749.562C265.875 751.271 265.693 752.745 265.328 753.984C264.964 755.214 264.438 756.224 263.75 757.016C263.073 757.797 262.266 758.375 261.328 758.75C260.391 759.125 259.349 759.312 258.203 759.312C257.286 759.312 256.432 759.198 255.641 758.969C254.849 758.729 254.135 758.359 253.5 757.859C252.875 757.359 252.333 756.729 251.875 755.969C251.427 755.198 251.083 754.281 250.844 753.219C250.604 752.156 250.484 750.938 250.484 749.562V745.625C250.484 743.917 250.667 742.453 251.031 741.234C251.406 740.005 251.932 739 252.609 738.219C253.297 737.438 254.109 736.865 255.047 736.5C255.984 736.125 257.026 735.938 258.172 735.938C259.089 735.938 259.938 736.057 260.719 736.297C261.51 736.526 262.224 736.885 262.859 737.375C263.495 737.865 264.036 738.495 264.484 739.266C264.932 740.026 265.276 740.938 265.516 742C265.755 743.052 265.875 744.26 265.875 745.625ZM261.359 750.156V745.016C261.359 744.193 261.312 743.474 261.219 742.859C261.135 742.245 261.005 741.724 260.828 741.297C260.651 740.859 260.432 740.505 260.172 740.234C259.911 739.964 259.615 739.766 259.281 739.641C258.948 739.516 258.578 739.453 258.172 739.453C257.661 739.453 257.208 739.552 256.812 739.75C256.427 739.948 256.099 740.266 255.828 740.703C255.557 741.13 255.349 741.703 255.203 742.422C255.068 743.13 255 743.995 255 745.016V750.156C255 750.979 255.042 751.703 255.125 752.328C255.219 752.953 255.354 753.49 255.531 753.938C255.719 754.375 255.938 754.734 256.188 755.016C256.448 755.286 256.745 755.484 257.078 755.609C257.422 755.734 257.797 755.797 258.203 755.797C258.703 755.797 259.146 755.698 259.531 755.5C259.927 755.292 260.26 754.969 260.531 754.531C260.812 754.083 261.021 753.5 261.156 752.781C261.292 752.062 261.359 751.188 261.359 750.156ZM284.25 745.625V749.562C284.25 751.271 284.068 752.745 283.703 753.984C283.339 755.214 282.812 756.224 282.125 757.016C281.448 757.797 280.641 758.375 279.703 758.75C278.766 759.125 277.724 759.312 276.578 759.312C275.661 759.312 274.807 759.198 274.016 758.969C273.224 758.729 272.51 758.359 271.875 757.859C271.25 757.359 270.708 756.729 270.25 755.969C269.802 755.198 269.458 754.281 269.219 753.219C268.979 752.156 268.859 750.938 268.859 749.562V745.625C268.859 743.917 269.042 742.453 269.406 741.234C269.781 740.005 270.307 739 270.984 738.219C271.672 737.438 272.484 736.865 273.422 736.5C274.359 736.125 275.401 735.938 276.547 735.938C277.464 735.938 278.312 736.057 279.094 736.297C279.885 736.526 280.599 736.885 281.234 737.375C281.87 737.865 282.411 738.495 282.859 739.266C283.307 740.026 283.651 740.938 283.891 742C284.13 743.052 284.25 744.26 284.25 745.625ZM279.734 750.156V745.016C279.734 744.193 279.688 743.474 279.594 742.859C279.51 742.245 279.38 741.724 279.203 741.297C279.026 740.859 278.807 740.505 278.547 740.234C278.286 739.964 277.99 739.766 277.656 739.641C277.323 739.516 276.953 739.453 276.547 739.453C276.036 739.453 275.583 739.552 275.188 739.75C274.802 739.948 274.474 740.266 274.203 740.703C273.932 741.13 273.724 741.703 273.578 742.422C273.443 743.13 273.375 743.995 273.375 745.016V750.156C273.375 750.979 273.417 751.703 273.5 752.328C273.594 752.953 273.729 753.49 273.906 753.938C274.094 754.375 274.312 754.734 274.562 755.016C274.823 755.286 275.12 755.484 275.453 755.609C275.797 755.734 276.172 755.797 276.578 755.797C277.078 755.797 277.521 755.698 277.906 755.5C278.302 755.292 278.635 754.969 278.906 754.531C279.188 754.083 279.396 753.5 279.531 752.781C279.667 752.062 279.734 751.188 279.734 750.156ZM302.625 745.625V749.562C302.625 751.271 302.443 752.745 302.078 753.984C301.714 755.214 301.188 756.224 300.5 757.016C299.823 757.797 299.016 758.375 298.078 758.75C297.141 759.125 296.099 759.312 294.953 759.312C294.036 759.312 293.182 759.198 292.391 758.969C291.599 758.729 290.885 758.359 290.25 757.859C289.625 757.359 289.083 756.729 288.625 755.969C288.177 755.198 287.833 754.281 287.594 753.219C287.354 752.156 287.234 750.938 287.234 749.562V745.625C287.234 743.917 287.417 742.453 287.781 741.234C288.156 740.005 288.682 739 289.359 738.219C290.047 737.438 290.859 736.865 291.797 736.5C292.734 736.125 293.776 735.938 294.922 735.938C295.839 735.938 296.688 736.057 297.469 736.297C298.26 736.526 298.974 736.885 299.609 737.375C300.245 737.865 300.786 738.495 301.234 739.266C301.682 740.026 302.026 740.938 302.266 742C302.505 743.052 302.625 744.26 302.625 745.625ZM298.109 750.156V745.016C298.109 744.193 298.062 743.474 297.969 742.859C297.885 742.245 297.755 741.724 297.578 741.297C297.401 740.859 297.182 740.505 296.922 740.234C296.661 739.964 296.365 739.766 296.031 739.641C295.698 739.516 295.328 739.453 294.922 739.453C294.411 739.453 293.958 739.552 293.562 739.75C293.177 739.948 292.849 740.266 292.578 740.703C292.307 741.13 292.099 741.703 291.953 742.422C291.818 743.13 291.75 743.995 291.75 745.016V750.156C291.75 750.979 291.792 751.703 291.875 752.328C291.969 752.953 292.104 753.49 292.281 753.938C292.469 754.375 292.688 754.734 292.938 755.016C293.198 755.286 293.495 755.484 293.828 755.609C294.172 755.734 294.547 755.797 294.953 755.797C295.453 755.797 295.896 755.698 296.281 755.5C296.677 755.292 297.01 754.969 297.281 754.531C297.562 754.083 297.771 753.5 297.906 752.781C298.042 752.062 298.109 751.188 298.109 750.156ZM321 745.625V749.562C321 751.271 320.818 752.745 320.453 753.984C320.089 755.214 319.562 756.224 318.875 757.016C318.198 757.797 317.391 758.375 316.453 758.75C315.516 759.125 314.474 759.312 313.328 759.312C312.411 759.312 311.557 759.198 310.766 758.969C309.974 758.729 309.26 758.359 308.625 757.859C308 757.359 307.458 756.729 307 755.969C306.552 755.198 306.208 754.281 305.969 753.219C305.729 752.156 305.609 750.938 305.609 749.562V745.625C305.609 743.917 305.792 742.453 306.156 741.234C306.531 740.005 307.057 739 307.734 738.219C308.422 737.438 309.234 736.865 310.172 736.5C311.109 736.125 312.151 735.938 313.297 735.938C314.214 735.938 315.062 736.057 315.844 736.297C316.635 736.526 317.349 736.885 317.984 737.375C318.62 737.865 319.161 738.495 319.609 739.266C320.057 740.026 320.401 740.938 320.641 742C320.88 743.052 321 744.26 321 745.625ZM316.484 750.156V745.016C316.484 744.193 316.438 743.474 316.344 742.859C316.26 742.245 316.13 741.724 315.953 741.297C315.776 740.859 315.557 740.505 315.297 740.234C315.036 739.964 314.74 739.766 314.406 739.641C314.073 739.516 313.703 739.453 313.297 739.453C312.786 739.453 312.333 739.552 311.938 739.75C311.552 739.948 311.224 740.266 310.953 740.703C310.682 741.13 310.474 741.703 310.328 742.422C310.193 743.13 310.125 743.995 310.125 745.016V750.156C310.125 750.979 310.167 751.703 310.25 752.328C310.344 752.953 310.479 753.49 310.656 753.938C310.844 754.375 311.062 754.734 311.312 755.016C311.573 755.286 311.87 755.484 312.203 755.609C312.547 755.734 312.922 755.797 313.328 755.797C313.828 755.797 314.271 755.698 314.656 755.5C315.052 755.292 315.385 754.969 315.656 754.531C315.938 754.083 316.146 753.5 316.281 752.781C316.417 752.062 316.484 751.188 316.484 750.156Z" fill="black"/>
</svg>
