<svg width="2460" height="1424" viewBox="0 0 2460 1424" fill="none" xmlns="http://www.w3.org/2000/svg">
<rect x="248" y="798" width="1963" height="38" fill="white" stroke="black" stroke-width="4"/>
<path d="M249.363 799L339.015 634H2098.36L2209.25 799H249.363Z" fill="white" stroke="black" stroke-width="4"/>
<rect x="281" y="835" width="35" height="513" fill="white" stroke="black" stroke-width="4"/>
<rect x="2155" y="835" width="37" height="513" fill="white" stroke="black" stroke-width="4"/>
<rect x="369" y="835" width="35" height="346" fill="white" stroke="black" stroke-width="4"/>
<rect x="2068" y="840" width="36" height="346" fill="white" stroke="black" stroke-width="4"/>
<g clip-path="url(#clip0_672_691)">
<path d="M648.178 633C654.002 622.677 664.399 613.216 673.716 605.865C692.293 591.206 713.044 582.881 736.906 579.659C756.182 577.055 774.007 578.269 791.474 568.619C804.461 561.444 814.415 551.737 824.98 542" stroke="black" stroke-width="3" stroke-linecap="round"/>
<path d="M344.955 704.11L433.906 644.09H645.456L606.63 672.921L564.628 704.11H344.955Z" fill="#D9D9D9" stroke="black" stroke-width="3"/>
<path d="M342.22 747.168L350.561 580.644H572.267L563.168 747.168H342.22Z" fill="white" stroke="black" stroke-width="4"/>
<path d="M563.587 743.984L571.172 578.732L653.161 518.89L647.267 671.877L563.587 743.984Z" fill="white" stroke="black" stroke-width="4"/>
<path d="M352.805 577.144L441.756 517.125H653.306L614.48 545.955L572.477 577.144H352.805Z" fill="white" stroke="black" stroke-width="3"/>
<path d="M364.552 619H474.454L468.96 708H359.057L364.552 619Z" fill="#D9D9D9"/>
<path d="M533.289 647.225C539.791 647.225 545.062 642.246 545.062 636.104C545.062 629.962 539.791 624.983 533.289 624.983C526.786 624.983 521.515 629.962 521.515 636.104C521.515 642.246 526.786 647.225 533.289 647.225Z" fill="#FF5E5E"/>
<path d="M495.023 647.225C501.525 647.225 506.797 642.246 506.797 636.104C506.797 629.962 501.525 624.983 495.023 624.983C488.52 624.983 483.249 629.962 483.249 636.104C483.249 642.246 488.52 647.225 495.023 647.225Z" fill="#5ABE5E"/>
<path d="M463.867 639H370.702V677H463.867V639Z" fill="white"/>
<path d="M397.037 655.625V659.562C397.037 661.271 396.844 662.745 396.458 663.984C396.072 665.214 395.515 666.224 394.787 667.016C394.071 667.797 393.216 668.375 392.223 668.75C391.231 669.125 390.128 669.312 388.915 669.312C387.945 669.312 387.04 669.198 386.202 668.969C385.364 668.729 384.608 668.359 383.936 667.859C383.274 667.359 382.701 666.729 382.215 665.969C381.741 665.198 381.377 664.281 381.124 663.219C380.87 662.156 380.743 660.938 380.743 659.562V655.625C380.743 653.917 380.936 652.453 381.322 651.234C381.719 650.005 382.276 649 382.993 648.219C383.721 647.438 384.581 646.865 385.573 646.5C386.566 646.125 387.669 645.938 388.882 645.938C389.852 645.938 390.751 646.057 391.578 646.297C392.416 646.526 393.172 646.885 393.845 647.375C394.517 647.865 395.091 648.495 395.565 649.266C396.039 650.026 396.403 650.938 396.657 652C396.91 653.052 397.037 654.26 397.037 655.625ZM392.256 660.156V655.016C392.256 654.193 392.207 653.474 392.108 652.859C392.019 652.245 391.881 651.724 391.694 651.297C391.506 650.859 391.275 650.505 390.999 650.234C390.724 649.964 390.409 649.766 390.056 649.641C389.703 649.516 389.312 649.453 388.882 649.453C388.342 649.453 387.862 649.552 387.443 649.75C387.035 649.948 386.687 650.266 386.401 650.703C386.114 651.13 385.893 651.703 385.739 652.422C385.595 653.13 385.524 653.995 385.524 655.016V660.156C385.524 660.979 385.568 661.703 385.656 662.328C385.755 662.953 385.899 663.49 386.086 663.938C386.285 664.375 386.516 664.734 386.781 665.016C387.057 665.286 387.371 665.484 387.724 665.609C388.088 665.734 388.485 665.797 388.915 665.797C389.444 665.797 389.913 665.698 390.321 665.5C390.74 665.292 391.093 664.969 391.38 664.531C391.677 664.083 391.898 663.5 392.041 662.781C392.185 662.062 392.256 661.188 392.256 660.156ZM416.491 655.625V659.562C416.491 661.271 416.298 662.745 415.912 663.984C415.526 665.214 414.969 666.224 414.241 667.016C413.524 667.797 412.669 668.375 411.677 668.75C410.684 669.125 409.582 669.312 408.368 669.312C407.398 669.312 406.494 669.198 405.656 668.969C404.817 668.729 404.062 668.359 403.389 667.859C402.728 667.359 402.154 666.729 401.669 665.969C401.195 665.198 400.831 664.281 400.577 663.219C400.324 662.156 400.197 660.938 400.197 659.562V655.625C400.197 653.917 400.39 652.453 400.776 651.234C401.173 650.005 401.73 649 402.446 648.219C403.174 647.438 404.034 646.865 405.027 646.5C406.02 646.125 407.122 645.938 408.335 645.938C409.306 645.938 410.205 646.057 411.032 646.297C411.87 646.526 412.625 646.885 413.298 647.375C413.971 647.865 414.544 648.495 415.018 649.266C415.493 650.026 415.857 650.938 416.11 652C416.364 653.052 416.491 654.26 416.491 655.625ZM411.71 660.156V655.016C411.71 654.193 411.66 653.474 411.561 652.859C411.473 652.245 411.335 651.724 411.148 651.297C410.96 650.859 410.728 650.505 410.453 650.234C410.177 649.964 409.863 649.766 409.51 649.641C409.157 649.516 408.765 649.453 408.335 649.453C407.795 649.453 407.315 649.552 406.896 649.75C406.488 649.948 406.141 650.266 405.854 650.703C405.567 651.13 405.347 651.703 405.192 652.422C405.049 653.13 404.977 653.995 404.977 655.016V660.156C404.977 660.979 405.021 661.703 405.11 662.328C405.209 662.953 405.352 663.49 405.54 663.938C405.738 664.375 405.97 664.734 406.235 665.016C406.51 665.286 406.825 665.484 407.177 665.609C407.541 665.734 407.938 665.797 408.368 665.797C408.898 665.797 409.366 665.698 409.774 665.5C410.194 665.292 410.547 664.969 410.833 664.531C411.131 664.083 411.352 663.5 411.495 662.781C411.638 662.062 411.71 661.188 411.71 660.156ZM435.944 655.625V659.562C435.944 661.271 435.751 662.745 435.365 663.984C434.979 665.214 434.422 666.224 433.694 667.016C432.978 667.797 432.123 668.375 431.13 668.75C430.138 669.125 429.035 669.312 427.822 669.312C426.852 669.312 425.947 669.198 425.109 668.969C424.271 668.729 423.516 668.359 422.843 667.859C422.181 667.359 421.608 666.729 421.122 665.969C420.648 665.198 420.284 664.281 420.031 663.219C419.777 662.156 419.65 660.938 419.65 659.562V655.625C419.65 653.917 419.843 652.453 420.229 651.234C420.626 650.005 421.183 649 421.9 648.219C422.628 647.438 423.488 646.865 424.481 646.5C425.473 646.125 426.576 645.938 427.789 645.938C428.759 645.938 429.658 646.057 430.485 646.297C431.323 646.526 432.079 646.885 432.752 647.375C433.424 647.865 433.998 648.495 434.472 649.266C434.946 650.026 435.31 650.938 435.564 652C435.817 653.052 435.944 654.26 435.944 655.625ZM431.164 660.156V655.016C431.164 654.193 431.114 653.474 431.015 652.859C430.926 652.245 430.789 651.724 430.601 651.297C430.414 650.859 430.182 650.505 429.906 650.234C429.631 649.964 429.316 649.766 428.963 649.641C428.61 649.516 428.219 649.453 427.789 649.453C427.249 649.453 426.769 649.552 426.35 649.75C425.942 649.948 425.594 650.266 425.308 650.703C425.021 651.13 424.8 651.703 424.646 652.422C424.503 653.13 424.431 653.995 424.431 655.016V660.156C424.431 660.979 424.475 661.703 424.563 662.328C424.663 662.953 424.806 663.49 424.993 663.938C425.192 664.375 425.423 664.734 425.688 665.016C425.964 665.286 426.278 665.484 426.631 665.609C426.995 665.734 427.392 665.797 427.822 665.797C428.351 665.797 428.82 665.698 429.228 665.5C429.647 665.292 430 664.969 430.287 664.531C430.585 664.083 430.805 663.5 430.948 662.781C431.092 662.062 431.164 661.188 431.164 660.156ZM455.398 655.625V659.562C455.398 661.271 455.205 662.745 454.819 663.984C454.433 665.214 453.875 666.224 453.148 667.016C452.431 667.797 451.577 668.375 450.584 668.75C449.592 669.125 448.489 669.312 447.275 669.312C446.305 669.312 445.401 669.198 444.563 668.969C443.725 668.729 442.969 668.359 442.296 667.859C441.635 667.359 441.061 666.729 440.576 665.969C440.102 665.198 439.738 664.281 439.484 663.219C439.231 662.156 439.104 660.938 439.104 659.562V655.625C439.104 653.917 439.297 652.453 439.683 651.234C440.08 650.005 440.637 649 441.353 648.219C442.081 647.438 442.942 646.865 443.934 646.5C444.927 646.125 446.029 645.938 447.243 645.938C448.213 645.938 449.111 646.057 449.939 646.297C450.777 646.526 451.532 646.885 452.205 647.375C452.878 647.865 453.451 648.495 453.925 649.266C454.399 650.026 454.764 650.938 455.018 652C455.271 653.052 455.398 654.26 455.398 655.625ZM450.617 660.156V655.016C450.617 654.193 450.568 653.474 450.468 652.859C450.38 652.245 450.242 651.724 450.054 651.297C449.867 650.859 449.635 650.505 449.36 650.234C449.084 649.964 448.77 649.766 448.417 649.641C448.064 649.516 447.672 649.453 447.243 649.453C446.702 649.453 446.222 649.552 445.803 649.75C445.395 649.948 445.048 650.266 444.761 650.703C444.474 651.13 444.254 651.703 444.099 652.422C443.956 653.13 443.884 653.995 443.884 655.016V660.156C443.884 660.979 443.929 661.703 444.017 662.328C444.116 662.953 444.259 663.49 444.447 663.938C444.645 664.375 444.877 664.734 445.142 665.016C445.417 665.286 445.732 665.484 446.084 665.609C446.449 665.734 446.846 665.797 447.275 665.797C447.805 665.797 448.274 665.698 448.681 665.5C449.101 665.292 449.453 664.969 449.74 664.531C450.039 664.083 450.259 663.5 450.402 662.781C450.546 662.062 450.617 661.188 450.617 660.156Z" fill="black"/>
</g>
<rect x="789.5" y="143.5" width="427" height="564" fill="white" stroke="black" stroke-width="5"/>
<path d="M809.5 757.5V710.5H846.655L832.774 757.5H809.5Z" fill="white" stroke="black" stroke-width="5"/>
<path d="M1187.5 757.5V710.5H1150.35L1164.23 757.5H1187.5Z" fill="white" stroke="black" stroke-width="5"/>
<rect x="802.5" y="76.5" width="401" height="65" fill="white" stroke="black" stroke-width="5"/>
<rect x="809.5" y="159.5" width="384" height="413" fill="white" stroke="black" stroke-width="5"/>
<rect x="808.5" y="603.5" width="384" height="88" fill="white" stroke="black" stroke-width="5"/>
<rect x="733.926" y="298.871" width="50.1911" height="90.6436" fill="white" stroke="black" stroke-width="4"/>
<rect x="695" y="324.821" width="37.979" height="38.7423" fill="white" stroke="black" stroke-width="4"/>
<rect x="1271.07" y="389.514" width="50.1911" height="90.6436" transform="rotate(180 1271.07 389.514)" fill="white" stroke="black" stroke-width="4"/>
<rect x="1310" y="363.563" width="37.979" height="38.7423" transform="rotate(180 1310 363.563)" fill="white" stroke="black" stroke-width="4"/>
<path d="M1993 585C1972.23 585 1959.26 593.517 1941.19 606.141C1913.92 625.196 1870.52 622.088 1840.4 613.035C1799.67 600.793 1761.02 580.583 1724.24 618.551C1710.95 632.271 1687 654.454 1687 676" stroke="black" stroke-width="3" stroke-linecap="round"/>
<path d="M1413.9 759.275V616.876L1700.5 601.395L1699.71 743.794L1413.9 759.275Z" fill="white" stroke="black"/>
<path d="M1270.5 727.934V585.556L1413.7 617.202L1412.9 759.579L1270.5 727.934Z" fill="white" stroke="black"/>
<path d="M1413.44 616.297L1273.65 585.232L1556.76 569.503L1696.56 600.569L1413.44 616.297Z" fill="white" stroke="black"/>
<path d="M1445.12 638.747L1630.23 625.003V683.769L1445.12 699.408V638.747Z" fill="#D9D9D9"/>
<path d="M1477.02 680.237C1474.67 680.237 1472.66 679.596 1471 678.315C1469.35 677.023 1468.08 675.153 1467.21 672.706C1466.33 670.247 1465.89 667.278 1465.89 663.799C1465.89 660.341 1466.33 657.388 1467.21 654.94C1468.09 652.482 1469.36 650.607 1471.02 649.315C1472.69 648.013 1474.69 647.362 1477.02 647.362C1479.35 647.362 1481.35 648.013 1483 649.315C1484.67 650.607 1485.94 652.482 1486.82 654.94C1487.7 657.388 1488.14 660.341 1488.14 663.799C1488.14 667.278 1487.71 670.247 1486.83 672.706C1485.96 675.153 1484.69 677.023 1483.04 678.315C1481.38 679.596 1479.37 680.237 1477.02 680.237ZM1477.02 676.799C1479.35 676.799 1481.17 675.674 1482.46 673.424C1483.75 671.174 1484.39 667.966 1484.39 663.799C1484.39 661.028 1484.1 658.669 1483.5 656.721C1482.92 654.773 1482.08 653.289 1480.97 652.268C1479.88 651.247 1478.56 650.737 1477.02 650.737C1474.71 650.737 1472.9 651.877 1471.6 654.159C1470.3 656.43 1469.64 659.643 1469.64 663.799C1469.64 666.57 1469.94 668.924 1470.52 670.862C1471.1 672.799 1471.94 674.273 1473.04 675.284C1474.14 676.294 1475.47 676.799 1477.02 676.799ZM1504.52 680.237C1502.17 680.237 1500.16 679.596 1498.5 678.315C1496.85 677.023 1495.58 675.153 1494.71 672.706C1493.83 670.247 1493.39 667.278 1493.39 663.799C1493.39 660.341 1493.83 657.388 1494.71 654.94C1495.59 652.482 1496.86 650.607 1498.52 649.315C1500.19 648.013 1502.19 647.362 1504.52 647.362C1506.85 647.362 1508.85 648.013 1510.5 649.315C1512.17 650.607 1513.44 652.482 1514.32 654.94C1515.2 657.388 1515.64 660.341 1515.64 663.799C1515.64 667.278 1515.21 670.247 1514.33 672.706C1513.46 675.153 1512.19 677.023 1510.54 678.315C1508.88 679.596 1506.87 680.237 1504.52 680.237ZM1504.52 676.799C1506.85 676.799 1508.67 675.674 1509.96 673.424C1511.25 671.174 1511.89 667.966 1511.89 663.799C1511.89 661.028 1511.6 658.669 1511 656.721C1510.42 654.773 1509.58 653.289 1508.47 652.268C1507.38 651.247 1506.06 650.737 1504.52 650.737C1502.21 650.737 1500.4 651.877 1499.1 654.159C1497.8 656.43 1497.14 659.643 1497.14 663.799C1497.14 666.57 1497.44 668.924 1498.02 670.862C1498.6 672.799 1499.44 674.273 1500.54 675.284C1501.64 676.294 1502.97 676.799 1504.52 676.799ZM1523.21 680.049C1522.44 680.049 1521.78 679.773 1521.23 679.221C1520.68 678.669 1520.4 678.008 1520.4 677.237C1520.4 676.466 1520.68 675.805 1521.23 675.252C1521.78 674.7 1522.44 674.424 1523.21 674.424C1523.99 674.424 1524.65 674.7 1525.2 675.252C1525.75 675.805 1526.03 676.466 1526.03 677.237C1526.03 677.747 1525.9 678.216 1525.64 678.643C1525.39 679.07 1525.05 679.414 1524.62 679.674C1524.2 679.924 1523.74 680.049 1523.21 680.049ZM1541.9 680.237C1539.55 680.237 1537.54 679.596 1535.89 678.315C1534.23 677.023 1532.96 675.153 1532.09 672.706C1531.21 670.247 1530.78 667.278 1530.78 663.799C1530.78 660.341 1531.21 657.388 1532.09 654.94C1532.98 652.482 1534.25 650.607 1535.9 649.315C1537.57 648.013 1539.57 647.362 1541.9 647.362C1544.24 647.362 1546.23 648.013 1547.89 649.315C1549.55 650.607 1550.82 652.482 1551.7 654.94C1552.58 657.388 1553.03 660.341 1553.03 663.799C1553.03 667.278 1552.59 670.247 1551.71 672.706C1550.84 675.153 1549.57 677.023 1547.92 678.315C1546.26 679.596 1544.26 680.237 1541.9 680.237ZM1541.9 676.799C1544.24 676.799 1546.05 675.674 1547.34 673.424C1548.63 671.174 1549.28 667.966 1549.28 663.799C1549.28 661.028 1548.98 658.669 1548.39 656.721C1547.8 654.773 1546.96 653.289 1545.86 652.268C1544.76 651.247 1543.44 650.737 1541.9 650.737C1539.59 650.737 1537.78 651.877 1536.48 654.159C1535.18 656.43 1534.53 659.643 1534.53 663.799C1534.53 666.57 1534.82 668.924 1535.4 670.862C1535.99 672.799 1536.82 674.273 1537.92 675.284C1539.02 676.294 1540.35 676.799 1541.9 676.799ZM1569.4 680.237C1567.05 680.237 1565.04 679.596 1563.39 678.315C1561.73 677.023 1560.46 675.153 1559.59 672.706C1558.71 670.247 1558.28 667.278 1558.28 663.799C1558.28 660.341 1558.71 657.388 1559.59 654.94C1560.48 652.482 1561.75 650.607 1563.4 649.315C1565.07 648.013 1567.07 647.362 1569.4 647.362C1571.74 647.362 1573.73 648.013 1575.39 649.315C1577.05 650.607 1578.32 652.482 1579.2 654.94C1580.08 657.388 1580.53 660.341 1580.53 663.799C1580.53 667.278 1580.09 670.247 1579.21 672.706C1578.34 675.153 1577.07 677.023 1575.42 678.315C1573.76 679.596 1571.76 680.237 1569.4 680.237ZM1569.4 676.799C1571.74 676.799 1573.55 675.674 1574.84 673.424C1576.13 671.174 1576.78 667.966 1576.78 663.799C1576.78 661.028 1576.48 658.669 1575.89 656.721C1575.3 654.773 1574.46 653.289 1573.36 652.268C1572.26 651.247 1570.94 650.737 1569.4 650.737C1567.09 650.737 1565.28 651.877 1563.98 654.159C1562.68 656.43 1562.03 659.643 1562.03 663.799C1562.03 666.57 1562.32 668.924 1562.9 670.862C1563.49 672.799 1564.32 674.273 1565.42 675.284C1566.52 676.294 1567.85 676.799 1569.4 676.799ZM1600.71 647.799L1610.21 674.737H1610.59L1620.09 647.799H1624.15L1612.4 679.799H1608.4L1596.65 647.799H1600.71Z" fill="black"/>
<g clip-path="url(#clip1_672_691)">
<path d="M1893 710.319L2135.61 702.486V733.817L1893 741.65V710.319Z" fill="#D9D9D9" stroke="black" stroke-width="4"/>
<path d="M1783.43 678.987L2026.04 671.154L2135.61 702.486L1893 710.319L1783.43 678.987Z" fill="white" stroke="black" stroke-width="4"/>
<path d="M1783.43 710.319L1893 741.65V710.319L1783.43 678.987V710.319Z" fill="#D9D9D9" stroke="black" stroke-width="4"/>
<path fill-rule="evenodd" clip-rule="evenodd" d="M2247.07 259.929H2228.63V335.765H2247.07C2250.35 335.765 2253 318.788 2253 297.847C2253 276.906 2250.35 259.929 2247.07 259.929Z" fill="white"/>
<mask id="mask0_672_691" style="mask-type:luminance" maskUnits="userSpaceOnUse" x="2228" y="259" width="26" height="77">
<path fill-rule="evenodd" clip-rule="evenodd" d="M2247.07 259.929H2228.63V335.765H2247.07C2250.35 335.765 2253 318.788 2253 297.847C2253 276.906 2250.35 259.929 2247.07 259.929Z" fill="white"/>
</mask>
<g mask="url(#mask0_672_691)">
<path d="M2228.63 259.929V257.579H2226.28V259.929H2228.63ZM2228.63 335.764H2226.28V338.114H2228.63V335.764ZM2228.63 262.279H2247.07V257.579H2228.63V262.279ZM2230.97 335.764V259.929H2226.28V335.764H2230.97ZM2247.07 333.415H2228.63V338.114H2247.07V333.415ZM2250.65 297.847C2250.65 308.235 2249.99 317.587 2248.94 324.295C2248.42 327.668 2247.81 330.266 2247.18 331.969C2246.86 332.834 2246.58 333.331 2246.4 333.567C2246.18 333.852 2246.39 333.415 2247.07 333.415V338.114C2248.57 338.114 2249.58 337.147 2250.13 336.422C2250.72 335.648 2251.19 334.654 2251.58 333.6C2252.37 331.466 2253.04 328.511 2253.58 325.022C2254.68 318.007 2255.35 308.4 2255.35 297.847H2250.65ZM2247.07 262.279C2246.39 262.279 2246.18 261.842 2246.4 262.127C2246.58 262.363 2246.86 262.859 2247.18 263.724C2247.81 265.427 2248.42 268.026 2248.94 271.399C2249.99 278.107 2250.65 287.459 2250.65 297.847H2255.35C2255.35 287.293 2254.68 277.687 2253.58 270.672C2253.04 267.183 2252.37 264.228 2251.58 262.093C2251.19 261.04 2250.72 260.046 2250.13 259.272C2249.58 258.547 2248.57 257.579 2247.07 257.579V262.279Z" fill="black"/>
</g>
<path d="M2234.04 297.847C2234.04 308.277 2233.38 317.693 2232.32 324.477C2231.79 327.879 2231.16 330.567 2230.49 332.378C2230.15 333.289 2229.83 333.91 2229.55 334.281C2229.43 334.439 2229.34 334.521 2229.29 334.561C2229.23 334.521 2229.14 334.439 2229.02 334.281C2228.74 333.91 2228.42 333.289 2228.08 332.378C2227.41 330.567 2226.78 327.879 2226.25 324.477C2225.19 317.693 2224.53 308.277 2224.53 297.847C2224.53 287.418 2225.19 278.002 2226.25 271.217C2226.78 267.815 2227.41 265.128 2228.08 263.317C2228.42 262.405 2228.74 261.784 2229.02 261.413C2229.14 261.255 2229.23 261.174 2229.29 261.133C2229.34 261.174 2229.43 261.255 2229.55 261.413C2229.83 261.784 2230.15 262.405 2230.49 263.317C2231.16 265.128 2231.79 267.815 2232.32 271.217C2233.38 278.002 2234.04 287.418 2234.04 297.847ZM2229.23 334.598C2229.23 334.597 2229.23 334.597 2229.23 334.597C2229.23 334.597 2229.23 334.598 2229.23 334.598ZM2229.34 334.597C2229.34 334.597 2229.34 334.597 2229.34 334.598C2229.34 334.598 2229.34 334.597 2229.34 334.597Z" fill="white"/>
<path d="M2229.34 261.096C2229.34 261.096 2229.34 261.097 2229.34 261.097M2229.23 261.097C2229.23 261.097 2229.23 261.096 2229.23 261.096M2234.04 297.847C2234.04 308.277 2233.38 317.693 2232.32 324.477C2231.79 327.879 2231.16 330.567 2230.49 332.378C2230.15 333.289 2229.83 333.91 2229.55 334.281C2229.43 334.439 2229.34 334.521 2229.29 334.561C2229.23 334.521 2229.14 334.439 2229.02 334.281C2228.74 333.91 2228.42 333.289 2228.08 332.378C2227.41 330.567 2226.78 327.879 2226.25 324.477C2225.19 317.693 2224.53 308.277 2224.53 297.847C2224.53 287.418 2225.19 278.002 2226.25 271.217C2226.78 267.815 2227.41 265.128 2228.08 263.317C2228.42 262.405 2228.74 261.784 2229.02 261.413C2229.14 261.255 2229.23 261.174 2229.29 261.133C2229.34 261.174 2229.43 261.255 2229.55 261.413C2229.83 261.784 2230.15 262.405 2230.49 263.317C2231.16 265.128 2231.79 267.815 2232.32 271.217C2233.38 278.002 2234.04 287.418 2234.04 297.847ZM2229.23 334.598C2229.23 334.597 2229.23 334.597 2229.23 334.597C2229.23 334.597 2229.23 334.598 2229.23 334.598ZM2229.34 334.597C2229.34 334.597 2229.34 334.597 2229.34 334.598C2229.34 334.598 2229.34 334.597 2229.34 334.597Z" stroke="black" stroke-width="3"/>
<path d="M2227.45 304.126H2153.61H1540.12C1536.84 304.126 1534.17 301.46 1534.17 298.171C1534.17 294.882 1536.84 292.216 1540.12 292.216H1880.81H2054.72H2133.26H2227.45V304.126Z" fill="white" stroke="black" stroke-width="3"/>
<path d="M1955.61 192.566H1963.43C1966.89 192.566 1969.7 195.372 1969.7 198.833V689.17H1949.35V198.833C1949.35 195.372 1952.15 192.566 1955.61 192.566Z" fill="#D9D9D9" stroke="black" stroke-width="4"/>
<path d="M2000.22 273.245H1918.83V321.809H2000.22V273.245Z" fill="#D9D9D9" stroke="black" stroke-width="4"/>
<path d="M1976.74 321.809H1942.3V356.273H1976.74V321.809Z" fill="#D9D9D9" stroke="black" stroke-width="4"/>
</g>
<path d="M2251.71 294C2249.47 344.047 2317.83 354.099 2336.33 390.331C2348.31 413.795 2329.89 461.64 2326.1 485.079C2325.09 491.322 2326.11 519.477 2315.01 513.055" stroke="black" stroke-width="3" stroke-linecap="round"/>
<defs>
<clipPath id="clip0_672_691">
<rect width="487" height="236" fill="white" transform="translate(340 514)"/>
</clipPath>
<clipPath id="clip1_672_691">
<rect width="720" height="553" fill="white" transform="translate(1533 191)"/>
</clipPath>
</defs>
</svg>
