<svg width="215" height="76" viewBox="0 0 864 304" fill="none" xmlns="http://www.w3.org/2000/svg">
<mask id="path-1-inside-1_702_220" fill="white">
<path fill-rule="evenodd" clip-rule="evenodd" d="M736.222 21.9756H717.257V99.9756H736.222C736.222 99.9756 736.222 99.9756 736.222 99.9756C739.589 99.9742 742.318 82.5138 742.318 60.9756C742.318 39.4373 739.589 21.977 736.222 21.9756C736.222 21.9756 736.222 21.9756 736.222 21.9756Z"/>
</mask>
<path fill-rule="evenodd" clip-rule="evenodd" d="M736.222 21.9756H717.257V99.9756H736.222C736.222 99.9756 736.222 99.9756 736.222 99.9756C739.589 99.9742 742.318 82.5138 742.318 60.9756C742.318 39.4373 739.589 21.977 736.222 21.9756C736.222 21.9756 736.222 21.9756 736.222 21.9756Z" fill="white"/>
<path d="M717.257 21.9756V18.9756H714.257V21.9756H717.257ZM717.257 99.9756H714.257V102.976H717.257V99.9756ZM736.222 99.9756L736.222 102.976L736.223 102.976L736.222 99.9756ZM736.222 21.9756L736.221 24.9756L736.221 24.9756L736.222 21.9756ZM717.257 24.9756H736.222V18.9756H717.257V24.9756ZM720.257 99.9756V21.9756H714.257V99.9756H720.257ZM736.222 96.9756H717.257V102.976H736.222V96.9756ZM736.222 96.9756C736.222 96.9756 736.222 96.9756 736.222 96.9756C736.222 96.9756 736.222 96.9756 736.222 96.9756C736.222 96.9756 736.222 96.9756 736.222 96.9756C736.222 96.9756 736.222 96.9756 736.222 96.9756C736.222 96.9756 736.222 96.9756 736.222 96.9756C736.222 96.9756 736.222 96.9756 736.222 96.9756C736.222 96.9756 736.222 96.9756 736.222 96.9756C736.222 96.9756 736.222 96.9756 736.222 96.9756C736.222 96.9756 736.222 96.9756 736.222 96.9756C736.222 96.9756 736.222 96.9756 736.222 96.9756C736.222 96.9756 736.222 96.9756 736.222 96.9756C736.222 96.9756 736.222 96.9756 736.222 96.9756C736.222 96.9756 736.222 96.9756 736.222 96.9756C736.222 96.9756 736.222 96.9756 736.222 96.9756C736.222 96.9756 736.222 96.9756 736.222 96.9756C736.222 96.9756 736.222 96.9756 736.222 96.9756C736.222 96.9756 736.222 96.9756 736.222 96.9756C736.222 96.9756 736.222 96.9756 736.222 96.9756C736.222 96.9756 736.222 96.9756 736.222 96.9756C736.222 96.9756 736.222 96.9756 736.222 96.9756C736.222 96.9756 736.222 96.9756 736.222 96.9756C736.222 96.9756 736.222 96.9756 736.222 96.9756C736.222 96.9756 736.222 96.9756 736.222 96.9756C736.222 96.9756 736.222 96.9756 736.222 96.9756C736.222 96.9756 736.222 96.9756 736.222 96.9756C736.222 96.9756 736.222 96.9756 736.222 96.9756C736.222 96.9756 736.222 96.9756 736.222 96.9756C736.222 96.9756 736.222 96.9756 736.222 96.9756C736.222 96.9756 736.222 96.9756 736.222 96.9756C736.222 96.9756 736.222 96.9756 736.222 96.9756C736.222 96.9756 736.222 96.9756 736.222 96.9756C736.222 96.9756 736.222 96.9756 736.222 96.9756C736.222 96.9756 736.222 96.9756 736.222 96.9756C736.222 96.9756 736.222 96.9756 736.222 96.9756C736.222 96.9756 736.222 96.9756 736.222 96.9756C736.222 96.9756 736.222 96.9756 736.222 96.9756C736.222 96.9756 736.222 96.9756 736.222 96.9756C736.222 96.9756 736.222 96.9756 736.222 96.9756C736.222 96.9756 736.222 96.9756 736.222 96.9756C736.222 96.9756 736.222 96.9756 736.222 96.9756C736.222 96.9756 736.222 96.9756 736.222 96.9756C736.222 96.9756 736.222 96.9756 736.222 96.9756C736.222 96.9756 736.222 96.9756 736.222 96.9756C736.222 96.9756 736.222 96.9756 736.222 96.9756C736.222 96.9756 736.222 96.9756 736.222 96.9756C736.222 96.9756 736.222 96.9756 736.222 96.9756C736.222 96.9756 736.222 96.9756 736.222 96.9756C736.222 96.9756 736.222 96.9756 736.222 96.9756C736.222 96.9756 736.222 96.9756 736.222 96.9756C736.222 96.9756 736.222 96.9756 736.222 96.9756C736.222 96.9756 736.222 96.9756 736.222 96.9756C736.222 96.9756 736.222 96.9756 736.222 96.9756C736.222 96.9756 736.222 96.9756 736.222 96.9756C736.222 96.9756 736.222 96.9756 736.222 96.9756C736.222 96.9756 736.222 96.9756 736.222 96.9756C736.222 96.9756 736.222 96.9756 736.222 96.9756C736.222 96.9756 736.222 96.9756 736.222 96.9756C736.222 96.9756 736.222 96.9756 736.222 96.9756C736.222 96.9756 736.222 96.9756 736.222 96.9756C736.222 96.9756 736.222 96.9756 736.222 96.9756C736.222 96.9756 736.222 96.9756 736.222 96.9756C736.222 96.9756 736.222 96.9756 736.222 96.9756C736.222 96.9756 736.222 96.9756 736.222 96.9756C736.222 96.9756 736.222 96.9756 736.222 96.9756C736.222 96.9756 736.222 96.9756 736.222 96.9756C736.222 96.9756 736.222 96.9756 736.222 96.9756C736.222 96.9756 736.222 96.9756 736.222 96.9756C736.222 96.9756 736.222 96.9756 736.222 96.9756C736.222 96.9756 736.222 96.9756 736.222 96.9756C736.222 96.9756 736.222 96.9756 736.222 96.9756C736.222 96.9756 736.222 96.9756 736.222 96.9756C736.222 96.9756 736.222 96.9756 736.222 96.9756C736.222 96.9756 736.222 96.9756 736.222 96.9756C736.222 96.9756 736.222 96.9756 736.222 96.9756C736.222 96.9756 736.222 96.9756 736.222 96.9756C736.222 96.9756 736.222 96.9756 736.222 96.9756C736.222 96.9756 736.222 96.9756 736.222 96.9756C736.222 96.9756 736.222 96.9756 736.222 96.9756C736.222 96.9756 736.222 96.9756 736.222 96.9756C736.222 96.9756 736.222 96.9756 736.222 96.9756C736.222 96.9756 736.222 96.9756 736.222 96.9756C736.222 96.9756 736.222 96.9756 736.222 96.9756C736.222 96.9756 736.222 96.9756 736.222 96.9756C736.222 96.9756 736.222 96.9756 736.222 96.9756C736.222 96.9756 736.222 96.9756 736.222 96.9756C736.222 96.9756 736.222 96.9756 736.222 96.9756C736.222 96.9756 736.222 96.9756 736.222 96.9756C736.222 96.9756 736.222 96.9756 736.222 96.9756C736.222 96.9756 736.222 96.9756 736.222 96.9756C736.222 96.9756 736.222 96.9756 736.222 96.9756C736.222 96.9756 736.222 96.9756 736.222 96.9756C736.222 96.9756 736.222 96.9756 736.222 96.9756C736.222 96.9756 736.222 96.9756 736.222 96.9756C736.222 96.9756 736.222 96.9756 736.222 96.9756C736.222 96.9756 736.222 96.9756 736.222 96.9756C736.222 96.9756 736.222 96.9756 736.222 96.9756C736.222 96.9756 736.222 96.9756 736.222 96.9756C736.222 96.9756 736.222 96.9756 736.222 96.9756C736.222 96.9756 736.222 96.9756 736.222 96.9756C736.222 96.9756 736.222 96.9756 736.222 96.9756C736.222 96.9756 736.222 96.9756 736.222 96.9756C736.222 96.9756 736.222 96.9756 736.222 96.9756C736.222 96.9756 736.222 96.9756 736.222 96.9756C736.222 96.9756 736.222 96.9756 736.222 96.9756C736.222 96.9756 736.222 96.9756 736.222 96.9756C736.222 96.9756 736.222 96.9756 736.222 96.9756C736.222 96.9756 736.222 96.9756 736.222 96.9756C736.222 96.9756 736.222 96.9756 736.222 96.9756C736.222 96.9756 736.222 96.9756 736.222 96.9756C736.222 96.9756 736.222 96.9756 736.222 96.9756C736.222 96.9756 736.222 96.9756 736.222 96.9756C736.222 96.9756 736.222 96.9756 736.222 96.9756C736.222 96.9756 736.222 96.9756 736.222 96.9756C736.222 96.9756 736.222 96.9756 736.222 96.9756C736.222 96.9756 736.222 96.9756 736.222 96.9756C736.222 96.9756 736.222 96.9756 736.222 96.9756C736.222 96.9756 736.222 96.9756 736.222 96.9756C736.222 96.9756 736.222 96.9756 736.222 96.9756C736.222 96.9756 736.222 96.9756 736.222 96.9756C736.222 96.9756 736.222 96.9756 736.222 96.9756C736.222 96.9756 736.222 96.9756 736.222 96.9756C736.222 96.9756 736.222 96.9756 736.222 96.9756C736.222 96.9756 736.222 96.9756 736.222 96.9756C736.222 96.9756 736.222 96.9756 736.222 96.9756C736.222 96.9756 736.222 96.9756 736.222 96.9756C736.222 96.9756 736.222 96.9756 736.222 96.9756C736.222 96.9756 736.222 96.9756 736.222 96.9756C736.222 96.9756 736.222 96.9756 736.222 96.9756C736.222 96.9756 736.222 96.9756 736.222 96.9756C736.222 96.9756 736.222 96.9756 736.222 96.9756C736.222 96.9756 736.222 96.9756 736.222 96.9756C736.222 96.9756 736.222 96.9756 736.222 96.9756C736.222 96.9756 736.222 96.9756 736.222 96.9756C736.222 96.9756 736.222 96.9756 736.222 96.9756C736.222 96.9756 736.222 96.9756 736.222 96.9756C736.222 96.9756 736.222 96.9756 736.222 96.9756C736.222 96.9756 736.222 96.9756 736.222 96.9756C736.222 96.9756 736.222 96.9756 736.222 96.9756C736.222 96.9756 736.222 96.9756 736.222 96.9756C736.222 96.9756 736.222 96.9756 736.222 96.9756C736.222 96.9756 736.222 96.9756 736.222 96.9756C736.222 96.9756 736.222 96.9756 736.222 96.9756C736.222 96.9756 736.222 96.9756 736.222 96.9756C736.222 96.9756 736.222 96.9756 736.222 96.9756C736.222 96.9756 736.222 96.9756 736.222 96.9756C736.222 96.9756 736.222 96.9756 736.222 96.9756C736.222 96.9756 736.222 96.9756 736.222 96.9756C736.222 96.9756 736.222 96.9756 736.222 96.9756C736.222 96.9756 736.222 96.9756 736.222 96.9756C736.222 96.9756 736.222 96.9756 736.222 96.9756C736.222 96.9756 736.222 96.9756 736.222 96.9756C736.222 96.9756 736.222 96.9756 736.222 96.9756C736.222 96.9756 736.222 96.9756 736.222 96.9756C736.222 96.9756 736.222 96.9756 736.222 96.9756C736.222 96.9756 736.222 96.9756 736.222 96.9756C736.222 96.9756 736.222 96.9756 736.222 96.9756C736.222 96.9756 736.222 96.9756 736.222 96.9756C736.222 96.9756 736.222 96.9756 736.222 96.9756C736.222 96.9756 736.222 96.9756 736.222 96.9756C736.222 96.9756 736.222 96.9756 736.222 96.9756C736.222 96.9756 736.222 96.9756 736.222 96.9756C736.222 96.9756 736.222 96.9756 736.222 96.9756C736.222 96.9756 736.222 96.9756 736.222 96.9756C736.222 96.9756 736.222 96.9756 736.222 96.9756C736.222 96.9756 736.222 96.9756 736.222 96.9756C736.222 96.9756 736.222 96.9756 736.222 96.9756C736.222 96.9756 736.222 96.9756 736.222 96.9756C736.222 96.9756 736.222 96.9756 736.222 96.9756C736.222 96.9756 736.222 96.9756 736.222 96.9756C736.222 96.9756 736.222 96.9756 736.222 96.9756C736.222 96.9756 736.222 96.9756 736.222 96.9756C736.222 96.9756 736.222 96.9756 736.222 96.9756C736.222 96.9756 736.222 96.9756 736.222 96.9756C736.222 96.9756 736.222 96.9756 736.222 96.9756C736.222 96.9756 736.222 96.9756 736.222 96.9756C736.222 96.9756 736.222 96.9756 736.222 96.9756C736.222 96.9756 736.222 96.9756 736.222 96.9756C736.222 96.9756 736.222 96.9756 736.222 96.9756C736.222 96.9756 736.222 96.9756 736.222 96.9756C736.222 96.9756 736.222 96.9756 736.222 96.9756C736.222 96.9756 736.222 96.9756 736.222 96.9756C736.222 96.9756 736.222 96.9756 736.222 96.9756C736.222 96.9756 736.222 96.9756 736.222 96.9756C736.222 96.9756 736.222 96.9756 736.222 96.9756C736.222 96.9756 736.222 96.9756 736.222 96.9756C736.222 96.9756 736.222 96.9756 736.222 96.9756C736.222 96.9756 736.222 96.9756 736.222 96.9756C736.222 96.9756 736.222 96.9756 736.222 96.9756C736.222 96.9756 736.222 96.9756 736.222 96.9756C736.222 96.9756 736.222 96.9756 736.222 96.9756C736.222 96.9756 736.222 96.9756 736.222 96.9756C736.222 96.9756 736.222 96.9756 736.222 96.9756C736.222 96.9756 736.222 96.9756 736.222 96.9756C736.222 96.9756 736.222 96.9756 736.222 96.9756C736.222 96.9756 736.222 96.9756 736.222 96.9756C736.222 96.9756 736.222 96.9756 736.222 96.9756C736.222 96.9756 736.222 96.9756 736.222 96.9756C736.222 96.9756 736.222 96.9756 736.222 96.9756C736.222 96.9756 736.222 96.9756 736.222 96.9756C736.222 96.9756 736.222 96.9756 736.222 96.9756C736.222 96.9756 736.222 96.9756 736.222 96.9756C736.222 96.9756 736.222 96.9756 736.222 96.9756C736.222 96.9756 736.222 96.9756 736.222 96.9756C736.222 96.9756 736.222 96.9756 736.222 96.9756C736.222 96.9756 736.222 96.9756 736.222 96.9756C736.222 96.9756 736.222 96.9756 736.222 96.9756C736.222 96.9756 736.222 96.9756 736.222 96.9756C736.222 96.9756 736.222 96.9756 736.222 96.9756C736.222 96.9756 736.222 96.9756 736.222 96.9756C736.222 96.9756 736.222 96.9756 736.222 96.9756C736.222 96.9756 736.222 96.9756 736.222 96.9756C736.222 96.9756 736.222 96.9756 736.222 96.9756C736.222 96.9756 736.222 96.9756 736.222 96.9756C736.222 96.9756 736.222 96.9756 736.222 96.9756C736.222 96.9756 736.222 96.9756 736.222 96.9756C736.222 96.9756 736.222 96.9756 736.222 96.9756C736.222 96.9756 736.222 96.9756 736.222 96.9756C736.222 96.9756 736.222 96.9756 736.222 96.9756C736.222 96.9756 736.222 96.9756 736.222 96.9756C736.222 96.9756 736.222 96.9756 736.222 96.9756C736.222 96.9756 736.222 96.9756 736.222 96.9756C736.222 96.9756 736.222 96.9756 736.222 96.9756C736.222 96.9756 736.222 96.9756 736.222 96.9756C736.222 96.9756 736.222 96.9756 736.222 96.9756C736.222 96.9756 736.222 96.9756 736.222 96.9756C736.222 96.9756 736.222 96.9756 736.222 96.9756C736.222 96.9756 736.222 96.9756 736.222 96.9756C736.222 96.9756 736.222 96.9756 736.222 96.9756C736.222 96.9756 736.222 96.9756 736.222 96.9756C736.222 96.9756 736.222 96.9756 736.222 96.9756C736.222 96.9756 736.222 96.9756 736.222 96.9756C736.222 96.9756 736.222 96.9756 736.222 96.9756C736.222 96.9756 736.222 96.9756 736.222 96.9756C736.222 96.9756 736.222 96.9756 736.222 96.9756C736.222 96.9756 736.222 96.9756 736.222 96.9756C736.222 96.9756 736.222 96.9756 736.222 96.9756C736.222 96.9756 736.222 96.9756 736.222 96.9756C736.222 96.9756 736.222 96.9756 736.222 96.9756C736.222 96.9756 736.222 96.9756 736.222 96.9756C736.222 96.9756 736.222 96.9756 736.222 96.9756C736.222 96.9756 736.222 96.9756 736.222 96.9756C736.222 96.9756 736.222 96.9756 736.222 96.9756C736.222 96.9756 736.222 96.9756 736.222 96.9756C736.222 96.9756 736.222 96.9756 736.222 96.9756C736.222 96.9756 736.222 96.9756 736.222 96.9756C736.222 96.9756 736.222 96.9756 736.222 96.9756C736.222 96.9756 736.222 96.9756 736.222 96.9756C736.222 96.9756 736.222 96.9756 736.222 96.9756C736.222 96.9756 736.222 96.9756 736.222 96.9756C736.222 96.9756 736.222 96.9756 736.222 96.9756C736.222 96.9756 736.222 96.9756 736.222 96.9756C736.222 96.9756 736.222 96.9756 736.222 96.9756C736.222 96.9756 736.222 96.9756 736.222 96.9756C736.222 96.9756 736.222 96.9756 736.222 96.9756C736.222 96.9756 736.222 96.9756 736.222 96.9756C736.222 96.9756 736.222 96.9756 736.222 96.9756C736.222 96.9756 736.222 96.9756 736.222 96.9756C736.222 96.9756 736.222 96.9756 736.222 96.9756C736.222 96.9756 736.222 96.9756 736.222 96.9756C736.222 96.9756 736.222 96.9756 736.222 96.9756C736.222 96.9756 736.222 96.9756 736.222 96.9756C736.222 96.9756 736.222 96.9756 736.222 96.9756C736.222 96.9756 736.222 96.9756 736.222 96.9756C736.222 96.9756 736.222 96.9756 736.222 96.9756C736.222 96.9756 736.222 96.9756 736.222 96.9756C736.222 96.9756 736.222 96.9756 736.222 96.9756C736.222 96.9756 736.222 96.9756 736.222 96.9756C736.222 96.9756 736.222 96.9756 736.222 96.9756C736.222 96.9756 736.222 96.9756 736.222 96.9756C736.222 96.9756 736.222 96.9756 736.222 96.9756C736.222 96.9756 736.222 96.9756 736.222 96.9756C736.222 96.9756 736.222 96.9756 736.222 96.9756C736.222 96.9756 736.222 96.9756 736.222 96.9756C736.222 96.9756 736.222 96.9756 736.222 96.9756C736.222 96.9756 736.222 96.9756 736.222 96.9756C736.222 96.9756 736.222 96.9756 736.222 96.9756C736.222 96.9756 736.222 96.9756 736.222 96.9756C736.222 96.9756 736.222 96.9756 736.222 96.9756C736.222 96.9756 736.222 96.9756 736.222 96.9756C736.222 96.9756 736.222 96.9756 736.222 96.9756C736.222 96.9756 736.222 96.9756 736.222 96.9756C736.222 96.9756 736.222 96.9756 736.222 96.9756C736.222 96.9756 736.222 96.9756 736.222 96.9756C736.222 96.9756 736.222 96.9756 736.222 96.9756C736.222 96.9756 736.222 96.9756 736.222 96.9756C736.222 96.9756 736.222 96.9756 736.222 96.9756C736.222 96.9756 736.222 96.9756 736.222 96.9756C736.222 96.9756 736.222 96.9756 736.222 96.9756C736.222 96.9756 736.222 96.9756 736.222 96.9756C736.222 96.9756 736.222 96.9756 736.222 96.9756C736.222 96.9756 736.222 96.9756 736.222 96.9756C736.222 96.9756 736.222 96.9756 736.222 96.9756C736.222 96.9756 736.222 96.9756 736.222 96.9756C736.222 96.9756 736.222 96.9756 736.222 96.9756C736.222 96.9756 736.222 96.9756 736.222 96.9756C736.222 96.9756 736.222 96.9756 736.222 96.9756C736.222 96.9756 736.222 96.9756 736.222 96.9756C736.222 96.9756 736.222 96.9756 736.222 96.9756C736.222 96.9756 736.222 96.9756 736.222 96.9756C736.222 96.9756 736.222 96.9756 736.222 96.9756C736.222 96.9756 736.222 96.9756 736.222 96.9756C736.222 96.9756 736.222 96.9756 736.222 96.9756C736.222 96.9756 736.222 96.9756 736.222 96.9756C736.222 96.9756 736.222 96.9756 736.222 96.9756C736.222 96.9756 736.222 96.9756 736.222 96.9756C736.222 96.9756 736.222 96.9756 736.222 96.9756C736.222 96.9756 736.222 96.9756 736.222 96.9756C736.222 96.9756 736.222 96.9756 736.222 96.9756C736.222 96.9756 736.222 96.9756 736.222 96.9756C736.222 96.9756 736.222 96.9756 736.222 96.9756C736.222 96.9756 736.222 96.9756 736.222 96.9756C736.222 96.9756 736.222 96.9756 736.222 96.9756C736.222 96.9756 736.222 96.9756 736.222 96.9756C736.222 96.9756 736.222 96.9756 736.222 96.9756C736.222 96.9756 736.222 96.9756 736.222 96.9756C736.222 96.9756 736.222 96.9756 736.222 96.9756C736.222 96.9756 736.222 96.9756 736.222 96.9756C736.222 96.9756 736.222 96.9756 736.222 96.9756C736.222 96.9756 736.222 96.9756 736.222 96.9756C736.222 96.9756 736.222 96.9756 736.222 96.9756C736.222 96.9756 736.222 96.9756 736.222 96.9756C736.222 96.9756 736.222 96.9756 736.222 96.9756C736.222 96.9756 736.222 96.9756 736.222 96.9756C736.222 96.9756 736.222 96.9756 736.222 96.9756C736.222 96.9756 736.222 96.9756 736.222 96.9756C736.222 96.9756 736.222 96.9756 736.222 96.9756C736.222 96.9756 736.222 96.9756 736.222 96.9756C736.222 96.9756 736.222 96.9756 736.222 96.9756C736.222 96.9756 736.222 96.9756 736.222 96.9756C736.222 96.9756 736.222 96.9756 736.222 96.9756C736.222 96.9756 736.222 96.9756 736.222 96.9756C736.222 96.9756 736.222 96.9756 736.222 96.9756C736.222 96.9756 736.222 96.9756 736.222 96.9756C736.222 96.9756 736.222 96.9756 736.222 96.9756C736.222 96.9756 736.222 96.9756 736.222 96.9756C736.222 96.9756 736.222 96.9756 736.222 96.9756C736.222 96.9756 736.222 96.9756 736.222 96.9756C736.222 96.9756 736.222 96.9756 736.222 96.9756C736.222 96.9756 736.222 96.9756 736.222 96.9756C736.222 96.9756 736.222 96.9756 736.222 96.9756C736.222 96.9756 736.222 96.9756 736.222 96.9756C736.222 96.9756 736.222 96.9756 736.222 96.9756C736.222 96.9756 736.222 96.9756 736.222 96.9756C736.222 96.9756 736.222 96.9756 736.222 96.9756C736.222 96.9756 736.222 96.9756 736.222 96.9756C736.222 96.9756 736.222 96.9756 736.222 96.9756C736.222 96.9756 736.222 96.9756 736.222 96.9756C736.222 96.9756 736.222 96.9756 736.222 96.9756C736.222 96.9756 736.222 96.9756 736.222 96.9756C736.222 96.9756 736.222 96.9756 736.222 96.9756C736.222 96.9756 736.222 96.9756 736.222 96.9756C736.222 96.9756 736.222 96.9756 736.222 96.9756C736.222 96.9756 736.222 96.9756 736.222 96.9756C736.222 96.9756 736.222 96.9756 736.222 96.9756C736.222 96.9756 736.222 96.9756 736.222 96.9756C736.222 96.9756 736.222 96.9756 736.222 96.9756C736.222 96.9756 736.222 96.9756 736.222 96.9756C736.222 96.9756 736.222 96.9756 736.222 96.9756C736.222 96.9756 736.222 96.9756 736.222 96.9756C736.222 96.9756 736.222 96.9756 736.222 96.9756C736.222 96.9756 736.222 96.9756 736.222 96.9756C736.222 96.9756 736.222 96.9756 736.222 96.9756C736.222 96.9756 736.222 96.9756 736.222 96.9756C736.222 96.9756 736.222 96.9756 736.222 96.9756C736.222 96.9756 736.222 96.9756 736.222 96.9756C736.222 96.9756 736.222 96.9756 736.222 96.9756C736.222 96.9756 736.222 96.9756 736.222 96.9756C736.222 96.9756 736.222 96.9756 736.222 96.9756C736.222 96.9756 736.222 96.9756 736.222 96.9756C736.222 96.9756 736.222 96.9756 736.222 96.9756C736.222 96.9756 736.222 96.9756 736.222 96.9756C736.222 96.9756 736.222 96.9756 736.222 96.9756C736.222 96.9756 736.222 96.9756 736.222 96.9756C736.222 96.9756 736.222 96.9756 736.222 96.9756C736.222 96.9756 736.222 96.9756 736.222 96.9756C736.222 96.9756 736.222 96.9756 736.222 96.9756C736.222 96.9756 736.222 96.9756 736.222 96.9756C736.222 96.9756 736.222 96.9756 736.222 96.9756C736.222 96.9756 736.222 96.9756 736.222 96.9756C736.222 96.9756 736.222 96.9756 736.222 96.9756C736.222 96.9756 736.222 96.9756 736.222 96.9756C736.222 96.9756 736.222 96.9756 736.222 96.9756C736.222 96.9756 736.222 96.9756 736.222 96.9756C736.222 96.9756 736.222 96.9756 736.222 96.9756C736.222 96.9756 736.222 96.9756 736.222 96.9756C736.222 96.9756 736.222 96.9756 736.222 96.9756C736.222 96.9756 736.222 96.9756 736.222 96.9756C736.222 96.9756 736.222 96.9756 736.222 96.9756C736.222 96.9756 736.222 96.9756 736.222 96.9756C736.222 96.9756 736.222 96.9756 736.222 96.9756C736.222 96.9756 736.222 96.9756 736.222 96.9756C736.222 96.9756 736.222 96.9756 736.222 96.9756C736.222 96.9756 736.222 96.9756 736.222 96.9756C736.222 96.9756 736.222 96.9756 736.222 96.9756C736.222 96.9756 736.222 96.9756 736.222 96.9756C736.222 96.9756 736.222 96.9756 736.222 96.9756C736.222 96.9756 736.222 96.9756 736.222 96.9756C736.222 96.9756 736.222 96.9756 736.222 96.9756C736.222 96.9756 736.222 96.9756 736.222 96.9756C736.222 96.9756 736.222 96.9756 736.222 96.9756C736.222 96.9756 736.222 96.9756 736.222 96.9756C736.222 96.9756 736.222 96.9756 736.222 96.9756C736.222 96.9756 736.222 96.9756 736.222 96.9756C736.222 96.9756 736.222 96.9756 736.222 96.9756C736.222 96.9756 736.222 96.9756 736.222 96.9756C736.222 96.9756 736.222 96.9756 736.222 96.9756C736.222 96.9756 736.222 96.9756 736.222 96.9756C736.222 96.9756 736.222 96.9756 736.222 96.9756C736.222 96.9756 736.222 96.9756 736.222 96.9756C736.222 96.9756 736.222 96.9756 736.222 96.9756C736.222 96.9756 736.222 96.9756 736.222 96.9756C736.222 96.9756 736.222 96.9756 736.222 96.9756C736.222 96.9756 736.222 96.9756 736.222 96.9756C736.222 96.9756 736.222 96.9756 736.222 96.9756C736.222 96.9756 736.222 96.9756 736.222 96.9756C736.222 96.9756 736.222 96.9756 736.222 96.9756C736.222 96.9756 736.222 96.9756 736.222 96.9756C736.222 96.9756 736.222 96.9756 736.222 96.9756C736.222 96.9756 736.222 96.9756 736.222 96.9756C736.222 96.9756 736.222 96.9756 736.222 96.9756C736.222 96.9756 736.222 96.9756 736.222 96.9756C736.222 96.9756 736.222 96.9756 736.222 96.9756C736.222 96.9756 736.222 96.9756 736.222 96.9756C736.222 96.9756 736.222 96.9756 736.222 96.9756C736.222 96.9756 736.222 96.9756 736.222 96.9756C736.222 96.9756 736.222 96.9756 736.222 96.9756C736.222 96.9756 736.222 96.9756 736.222 96.9756C736.222 96.9756 736.222 96.9756 736.222 96.9756C736.222 96.9756 736.222 96.9756 736.222 96.9756C736.222 96.9756 736.222 96.9756 736.222 96.9756C736.222 96.9756 736.222 96.9756 736.222 96.9756C736.222 96.9756 736.222 96.9756 736.222 96.9756C736.222 96.9756 736.222 96.9756 736.222 96.9756C736.222 96.9756 736.222 96.9756 736.222 96.9756C736.222 96.9756 736.222 96.9756 736.222 96.9756C736.222 96.9756 736.222 96.9756 736.222 96.9756C736.222 96.9756 736.222 96.9756 736.222 96.9756C736.222 96.9756 736.222 96.9756 736.222 96.9756C736.222 96.9756 736.222 96.9756 736.222 96.9756C736.222 96.9756 736.222 96.9756 736.222 96.9756C736.222 96.9756 736.222 96.9756 736.222 96.9756C736.222 96.9756 736.222 96.9756 736.222 96.9756C736.222 96.9756 736.222 96.9756 736.222 96.9756C736.222 96.9756 736.222 96.9756 736.222 96.9756C736.222 96.9756 736.222 96.9756 736.222 96.9756C736.222 96.9756 736.222 96.9756 736.222 96.9756C736.222 96.9756 736.222 96.9756 736.222 96.9756C736.222 96.9756 736.222 96.9756 736.222 96.9756C736.222 96.9756 736.222 96.9756 736.222 96.9756C736.222 96.9756 736.222 96.9756 736.222 96.9756C736.222 96.9756 736.222 96.9756 736.222 96.9756C736.222 96.9756 736.222 96.9756 736.222 96.9756C736.222 96.9756 736.222 96.9756 736.222 96.9756C736.222 96.9756 736.222 96.9756 736.222 96.9756C736.222 96.9756 736.222 96.9756 736.222 96.9756C736.222 96.9756 736.222 96.9756 736.222 96.9756C736.222 96.9756 736.222 96.9756 736.222 96.9756C736.222 96.9756 736.222 96.9756 736.222 96.9756C736.222 96.9756 736.222 96.9756 736.222 96.9756C736.222 96.9756 736.222 96.9756 736.222 96.9756C736.222 96.9756 736.222 96.9756 736.222 96.9756C736.222 96.9756 736.222 96.9756 736.222 96.9756C736.222 96.9756 736.222 96.9756 736.222 96.9756C736.222 96.9756 736.222 96.9756 736.222 96.9756C736.222 96.9756 736.222 96.9756 736.222 96.9756C736.222 96.9756 736.222 96.9756 736.222 96.9756C736.222 96.9756 736.222 96.9756 736.222 96.9756C736.222 96.9756 736.222 96.9756 736.222 96.9756C736.222 96.9756 736.222 96.9756 736.222 96.9756C736.222 96.9756 736.222 96.9756 736.222 96.9756C736.222 96.9756 736.222 96.9756 736.222 96.9756C736.222 96.9756 736.222 96.9756 736.222 96.9756C736.222 96.9756 736.222 96.9756 736.222 96.9756C736.222 96.9756 736.222 96.9756 736.222 96.9756C736.222 96.9756 736.222 96.9756 736.222 96.9756C736.222 96.9756 736.222 96.9756 736.222 96.9756C736.222 96.9756 736.222 96.9756 736.222 96.9756C736.222 96.9756 736.222 96.9756 736.222 96.9756C736.222 96.9756 736.222 96.9756 736.222 96.9756C736.222 96.9756 736.222 96.9756 736.222 96.9756C736.222 96.9756 736.222 96.9756 736.222 96.9756C736.222 96.9756 736.222 96.9756 736.222 96.9756C736.222 96.9756 736.222 96.9756 736.222 96.9756C736.222 96.9756 736.222 96.9756 736.222 96.9756C736.222 96.9756 736.222 96.9756 736.222 96.9756C736.222 96.9756 736.222 96.9756 736.222 96.9756C736.222 96.9756 736.222 96.9756 736.222 96.9756C736.222 96.9756 736.222 96.9756 736.222 96.9756C736.222 96.9756 736.222 96.9756 736.222 96.9756C736.222 96.9756 736.222 96.9756 736.222 96.9756C736.222 96.9756 736.222 96.9756 736.222 96.9756C736.222 96.9756 736.222 96.9756 736.222 96.9756C736.222 96.9756 736.222 96.9756 736.222 96.9756C736.222 96.9756 736.222 96.9756 736.222 96.9756C736.222 96.9756 736.222 96.9756 736.222 96.9756C736.222 96.9756 736.222 96.9756 736.222 96.9756C736.222 96.9756 736.222 96.9756 736.222 96.9756C736.222 96.9756 736.222 96.9756 736.222 96.9756C736.222 96.9756 736.222 96.9756 736.222 96.9756C736.222 96.9756 736.222 96.9756 736.222 96.9756C736.222 96.9756 736.222 96.9756 736.222 96.9756C736.222 96.9756 736.222 96.9756 736.222 96.9756C736.222 96.9756 736.222 96.9756 736.222 96.9756C736.222 96.9756 736.222 96.9756 736.222 96.9756C736.222 96.9756 736.222 96.9756 736.222 96.9756C736.222 96.9756 736.222 96.9756 736.222 96.9756C736.222 96.9756 736.222 96.9756 736.222 96.9756C736.222 96.9756 736.222 96.9756 736.222 96.9756C736.222 96.9756 736.222 96.9756 736.222 96.9756C736.222 96.9756 736.222 96.9756 736.222 96.9756C736.222 96.9756 736.222 96.9756 736.222 96.9756C736.222 96.9756 736.222 96.9756 736.222 96.9756V102.976C736.222 102.976 736.222 102.976 736.222 102.976C736.222 102.976 736.222 102.976 736.222 102.976C736.222 102.976 736.222 102.976 736.222 102.976C736.222 102.976 736.222 102.976 736.222 102.976C736.222 102.976 736.222 102.976 736.222 102.976C736.222 102.976 736.222 102.976 736.222 102.976C736.222 102.976 736.222 102.976 736.222 102.976C736.222 102.976 736.222 102.976 736.222 102.976C736.222 102.976 736.222 102.976 736.222 102.976C736.222 102.976 736.222 102.976 736.222 102.976C736.222 102.976 736.222 102.976 736.222 102.976C736.222 102.976 736.222 102.976 736.222 102.976C736.222 102.976 736.222 102.976 736.222 102.976C736.222 102.976 736.222 102.976 736.222 102.976C736.222 102.976 736.222 102.976 736.222 102.976C736.222 102.976 736.222 102.976 736.222 102.976C736.222 102.976 736.222 102.976 736.222 102.976C736.222 102.976 736.222 102.976 736.222 102.976C736.222 102.976 736.222 102.976 736.222 102.976C736.222 102.976 736.222 102.976 736.222 102.976C736.222 102.976 736.222 102.976 736.222 102.976C736.222 102.976 736.222 102.976 736.222 102.976C736.222 102.976 736.222 102.976 736.222 102.976C736.222 102.976 736.222 102.976 736.222 102.976C736.222 102.976 736.222 102.976 736.222 102.976C736.222 102.976 736.222 102.976 736.222 102.976C736.222 102.976 736.222 102.976 736.222 102.976C736.222 102.976 736.222 102.976 736.222 102.976C736.222 102.976 736.222 102.976 736.222 102.976C736.222 102.976 736.222 102.976 736.222 102.976C736.222 102.976 736.222 102.976 736.222 102.976C736.222 102.976 736.222 102.976 736.222 102.976C736.222 102.976 736.222 102.976 736.222 102.976C736.222 102.976 736.222 102.976 736.222 102.976C736.222 102.976 736.222 102.976 736.222 102.976C736.222 102.976 736.222 102.976 736.222 102.976C736.222 102.976 736.222 102.976 736.222 102.976C736.222 102.976 736.222 102.976 736.222 102.976C736.222 102.976 736.222 102.976 736.222 102.976C736.222 102.976 736.222 102.976 736.222 102.976C736.222 102.976 736.222 102.976 736.222 102.976C736.222 102.976 736.222 102.976 736.222 102.976C736.222 102.976 736.222 102.976 736.222 102.976C736.222 102.976 736.222 102.976 736.222 102.976C736.222 102.976 736.222 102.976 736.222 102.976C736.222 102.976 736.222 102.976 736.222 102.976C736.222 102.976 736.222 102.976 736.222 102.976C736.222 102.976 736.222 102.976 736.222 102.976C736.222 102.976 736.222 102.976 736.222 102.976C736.222 102.976 736.222 102.976 736.222 102.976C736.222 102.976 736.222 102.976 736.222 102.976C736.222 102.976 736.222 102.976 736.222 102.976C736.222 102.976 736.222 102.976 736.222 102.976C736.222 102.976 736.222 102.976 736.222 102.976C736.222 102.976 736.222 102.976 736.222 102.976C736.222 102.976 736.222 102.976 736.222 102.976C736.222 102.976 736.222 102.976 736.222 102.976C736.222 102.976 736.222 102.976 736.222 102.976C736.222 102.976 736.222 102.976 736.222 102.976C736.222 102.976 736.222 102.976 736.222 102.976C736.222 102.976 736.222 102.976 736.222 102.976C736.222 102.976 736.222 102.976 736.222 102.976C736.222 102.976 736.222 102.976 736.222 102.976C736.222 102.976 736.222 102.976 736.222 102.976C736.222 102.976 736.222 102.976 736.222 102.976C736.222 102.976 736.222 102.976 736.222 102.976C736.222 102.976 736.222 102.976 736.222 102.976C736.222 102.976 736.222 102.976 736.222 102.976C736.222 102.976 736.222 102.976 736.222 102.976C736.222 102.976 736.222 102.976 736.222 102.976C736.222 102.976 736.222 102.976 736.222 102.976C736.222 102.976 736.222 102.976 736.222 102.976C736.222 102.976 736.222 102.976 736.222 102.976C736.222 102.976 736.222 102.976 736.222 102.976C736.222 102.976 736.222 102.976 736.222 102.976C736.222 102.976 736.222 102.976 736.222 102.976C736.222 102.976 736.222 102.976 736.222 102.976C736.222 102.976 736.222 102.976 736.222 102.976C736.222 102.976 736.222 102.976 736.222 102.976C736.222 102.976 736.222 102.976 736.222 102.976C736.222 102.976 736.222 102.976 736.222 102.976C736.222 102.976 736.222 102.976 736.222 102.976C736.222 102.976 736.222 102.976 736.222 102.976C736.222 102.976 736.222 102.976 736.222 102.976C736.222 102.976 736.222 102.976 736.222 102.976C736.222 102.976 736.222 102.976 736.222 102.976C736.222 102.976 736.222 102.976 736.222 102.976C736.222 102.976 736.222 102.976 736.222 102.976C736.222 102.976 736.222 102.976 736.222 102.976C736.222 102.976 736.222 102.976 736.222 102.976C736.222 102.976 736.222 102.976 736.222 102.976C736.222 102.976 736.222 102.976 736.222 102.976C736.222 102.976 736.222 102.976 736.222 102.976C736.222 102.976 736.222 102.976 736.222 102.976C736.222 102.976 736.222 102.976 736.222 102.976C736.222 102.976 736.222 102.976 736.222 102.976C736.222 102.976 736.222 102.976 736.222 102.976C736.222 102.976 736.222 102.976 736.222 102.976C736.222 102.976 736.222 102.976 736.222 102.976C736.222 102.976 736.222 102.976 736.222 102.976C736.222 102.976 736.222 102.976 736.222 102.976C736.222 102.976 736.222 102.976 736.222 102.976C736.222 102.976 736.222 102.976 736.222 102.976C736.222 102.976 736.222 102.976 736.222 102.976C736.222 102.976 736.222 102.976 736.222 102.976C736.222 102.976 736.222 102.976 736.222 102.976C736.222 102.976 736.222 102.976 736.222 102.976C736.222 102.976 736.222 102.976 736.222 102.976C736.222 102.976 736.222 102.976 736.222 102.976C736.222 102.976 736.222 102.976 736.222 102.976C736.222 102.976 736.222 102.976 736.222 102.976C736.222 102.976 736.222 102.976 736.222 102.976C736.222 102.976 736.222 102.976 736.222 102.976C736.222 102.976 736.222 102.976 736.222 102.976C736.222 102.976 736.222 102.976 736.222 102.976C736.222 102.976 736.222 102.976 736.222 102.976C736.222 102.976 736.222 102.976 736.222 102.976C736.222 102.976 736.222 102.976 736.222 102.976C736.222 102.976 736.222 102.976 736.222 102.976C736.222 102.976 736.222 102.976 736.222 102.976C736.222 102.976 736.222 102.976 736.222 102.976C736.222 102.976 736.222 102.976 736.222 102.976C736.222 102.976 736.222 102.976 736.222 102.976C736.222 102.976 736.222 102.976 736.222 102.976C736.222 102.976 736.222 102.976 736.222 102.976C736.222 102.976 736.222 102.976 736.222 102.976C736.222 102.976 736.222 102.976 736.222 102.976C736.222 102.976 736.222 102.976 736.222 102.976C736.222 102.976 736.222 102.976 736.222 102.976C736.222 102.976 736.222 102.976 736.222 102.976C736.222 102.976 736.222 102.976 736.222 102.976C736.222 102.976 736.222 102.976 736.222 102.976C736.222 102.976 736.222 102.976 736.222 102.976C736.222 102.976 736.222 102.976 736.222 102.976C736.222 102.976 736.222 102.976 736.222 102.976C736.222 102.976 736.222 102.976 736.222 102.976C736.222 102.976 736.222 102.976 736.222 102.976C736.222 102.976 736.222 102.976 736.222 102.976C736.222 102.976 736.222 102.976 736.222 102.976C736.222 102.976 736.222 102.976 736.222 102.976C736.222 102.976 736.222 102.976 736.222 102.976C736.222 102.976 736.222 102.976 736.222 102.976C736.222 102.976 736.222 102.976 736.222 102.976C736.222 102.976 736.222 102.976 736.222 102.976C736.222 102.976 736.222 102.976 736.222 102.976C736.222 102.976 736.222 102.976 736.222 102.976C736.222 102.976 736.222 102.976 736.222 102.976C736.222 102.976 736.222 102.976 736.222 102.976C736.222 102.976 736.222 102.976 736.222 102.976C736.222 102.976 736.222 102.976 736.222 102.976C736.222 102.976 736.222 102.976 736.222 102.976C736.222 102.976 736.222 102.976 736.222 102.976C736.222 102.976 736.222 102.976 736.222 102.976C736.222 102.976 736.222 102.976 736.222 102.976C736.222 102.976 736.222 102.976 736.222 102.976C736.222 102.976 736.222 102.976 736.222 102.976C736.222 102.976 736.222 102.976 736.222 102.976C736.222 102.976 736.222 102.976 736.222 102.976C736.222 102.976 736.222 102.976 736.222 102.976C736.222 102.976 736.222 102.976 736.222 102.976C736.222 102.976 736.222 102.976 736.222 102.976C736.222 102.976 736.222 102.976 736.222 102.976C736.222 102.976 736.222 102.976 736.222 102.976C736.222 102.976 736.222 102.976 736.222 102.976C736.222 102.976 736.222 102.976 736.222 102.976C736.222 102.976 736.222 102.976 736.222 102.976C736.222 102.976 736.222 102.976 736.222 102.976C736.222 102.976 736.222 102.976 736.222 102.976C736.222 102.976 736.222 102.976 736.222 102.976C736.222 102.976 736.222 102.976 736.222 102.976C736.222 102.976 736.222 102.976 736.222 102.976C736.222 102.976 736.222 102.976 736.222 102.976C736.222 102.976 736.222 102.976 736.222 102.976C736.222 102.976 736.222 102.976 736.222 102.976C736.222 102.976 736.222 102.976 736.222 102.976C736.222 102.976 736.222 102.976 736.222 102.976C736.222 102.976 736.222 102.976 736.222 102.976C736.222 102.976 736.222 102.976 736.222 102.976C736.222 102.976 736.222 102.976 736.222 102.976C736.222 102.976 736.222 102.976 736.222 102.976C736.222 102.976 736.222 102.976 736.222 102.976C736.222 102.976 736.222 102.976 736.222 102.976C736.222 102.976 736.222 102.976 736.222 102.976C736.222 102.976 736.222 102.976 736.222 102.976C736.222 102.976 736.222 102.976 736.222 102.976C736.222 102.976 736.222 102.976 736.222 102.976C736.222 102.976 736.222 102.976 736.222 102.976C736.222 102.976 736.222 102.976 736.222 102.976C736.222 102.976 736.222 102.976 736.222 102.976C736.222 102.976 736.222 102.976 736.222 102.976C736.222 102.976 736.222 102.976 736.222 102.976C736.222 102.976 736.222 102.976 736.222 102.976C736.222 102.976 736.222 102.976 736.222 102.976C736.222 102.976 736.222 102.976 736.222 102.976C736.222 102.976 736.222 102.976 736.222 102.976C736.222 102.976 736.222 102.976 736.222 102.976C736.222 102.976 736.222 102.976 736.222 102.976C736.222 102.976 736.222 102.976 736.222 102.976C736.222 102.976 736.222 102.976 736.222 102.976C736.222 102.976 736.222 102.976 736.222 102.976C736.222 102.976 736.222 102.976 736.222 102.976C736.222 102.976 736.222 102.976 736.222 102.976C736.222 102.976 736.222 102.976 736.222 102.976C736.222 102.976 736.222 102.976 736.222 102.976C736.222 102.976 736.222 102.976 736.222 102.976C736.222 102.976 736.222 102.976 736.222 102.976C736.222 102.976 736.222 102.976 736.222 102.976C736.222 102.976 736.222 102.976 736.222 102.976C736.222 102.976 736.222 102.976 736.222 102.976C736.222 102.976 736.222 102.976 736.222 102.976C736.222 102.976 736.222 102.976 736.222 102.976C736.222 102.976 736.222 102.976 736.222 102.976C736.222 102.976 736.222 102.976 736.222 102.976C736.222 102.976 736.222 102.976 736.222 102.976C736.222 102.976 736.222 102.976 736.222 102.976C736.222 102.976 736.222 102.976 736.222 102.976C736.222 102.976 736.222 102.976 736.222 102.976C736.222 102.976 736.222 102.976 736.222 102.976C736.222 102.976 736.222 102.976 736.222 102.976C736.222 102.976 736.222 102.976 736.222 102.976C736.222 102.976 736.222 102.976 736.222 102.976C736.222 102.976 736.222 102.976 736.222 102.976C736.222 102.976 736.222 102.976 736.222 102.976C736.222 102.976 736.222 102.976 736.222 102.976C736.222 102.976 736.222 102.976 736.222 102.976C736.222 102.976 736.222 102.976 736.222 102.976C736.222 102.976 736.222 102.976 736.222 102.976C736.222 102.976 736.222 102.976 736.222 102.976C736.222 102.976 736.222 102.976 736.222 102.976C736.222 102.976 736.222 102.976 736.222 102.976C736.222 102.976 736.222 102.976 736.222 102.976C736.222 102.976 736.222 102.976 736.222 102.976C736.222 102.976 736.222 102.976 736.222 102.976C736.222 102.976 736.222 102.976 736.222 102.976C736.222 102.976 736.222 102.976 736.222 102.976C736.222 102.976 736.222 102.976 736.222 102.976C736.222 102.976 736.222 102.976 736.222 102.976C736.222 102.976 736.222 102.976 736.222 102.976C736.222 102.976 736.222 102.976 736.222 102.976C736.222 102.976 736.222 102.976 736.222 102.976C736.222 102.976 736.222 102.976 736.222 102.976C736.222 102.976 736.222 102.976 736.222 102.976C736.222 102.976 736.222 102.976 736.222 102.976C736.222 102.976 736.222 102.976 736.222 102.976C736.222 102.976 736.222 102.976 736.222 102.976C736.222 102.976 736.222 102.976 736.222 102.976C736.222 102.976 736.222 102.976 736.222 102.976C736.222 102.976 736.222 102.976 736.222 102.976C736.222 102.976 736.222 102.976 736.222 102.976C736.222 102.976 736.222 102.976 736.222 102.976C736.222 102.976 736.222 102.976 736.222 102.976C736.222 102.976 736.222 102.976 736.222 102.976C736.222 102.976 736.222 102.976 736.222 102.976C736.222 102.976 736.222 102.976 736.222 102.976C736.222 102.976 736.222 102.976 736.222 102.976C736.222 102.976 736.222 102.976 736.222 102.976C736.222 102.976 736.222 102.976 736.222 102.976C736.222 102.976 736.222 102.976 736.222 102.976C736.222 102.976 736.222 102.976 736.222 102.976C736.222 102.976 736.222 102.976 736.222 102.976C736.222 102.976 736.222 102.976 736.222 102.976C736.222 102.976 736.222 102.976 736.222 102.976C736.222 102.976 736.222 102.976 736.222 102.976C736.222 102.976 736.222 102.976 736.222 102.976C736.222 102.976 736.222 102.976 736.222 102.976C736.222 102.976 736.222 102.976 736.222 102.976C736.222 102.976 736.222 102.976 736.222 102.976C736.222 102.976 736.222 102.976 736.222 102.976C736.222 102.976 736.222 102.976 736.222 102.976C736.222 102.976 736.222 102.976 736.222 102.976C736.222 102.976 736.222 102.976 736.222 102.976C736.222 102.976 736.222 102.976 736.222 102.976C736.222 102.976 736.222 102.976 736.222 102.976C736.222 102.976 736.222 102.976 736.222 102.976C736.222 102.976 736.222 102.976 736.222 102.976C736.222 102.976 736.222 102.976 736.222 102.976C736.222 102.976 736.222 102.976 736.222 102.976C736.222 102.976 736.222 102.976 736.222 102.976C736.222 102.976 736.222 102.976 736.222 102.976C736.222 102.976 736.222 102.976 736.222 102.976C736.222 102.976 736.222 102.976 736.222 102.976C736.222 102.976 736.222 102.976 736.222 102.976C736.222 102.976 736.222 102.976 736.222 102.976C736.222 102.976 736.222 102.976 736.222 102.976C736.222 102.976 736.222 102.976 736.222 102.976C736.222 102.976 736.222 102.976 736.222 102.976C736.222 102.976 736.222 102.976 736.222 102.976C736.222 102.976 736.222 102.976 736.222 102.976C736.222 102.976 736.222 102.976 736.222 102.976C736.222 102.976 736.222 102.976 736.222 102.976C736.222 102.976 736.222 102.976 736.222 102.976C736.222 102.976 736.222 102.976 736.222 102.976C736.222 102.976 736.222 102.976 736.222 102.976C736.222 102.976 736.222 102.976 736.222 102.976C736.222 102.976 736.222 102.976 736.222 102.976C736.222 102.976 736.222 102.976 736.222 102.976C736.222 102.976 736.222 102.976 736.222 102.976C736.222 102.976 736.222 102.976 736.222 102.976C736.222 102.976 736.222 102.976 736.222 102.976C736.222 102.976 736.222 102.976 736.222 102.976C736.222 102.976 736.222 102.976 736.222 102.976C736.222 102.976 736.222 102.976 736.222 102.976C736.222 102.976 736.222 102.976 736.222 102.976C736.222 102.976 736.222 102.976 736.222 102.976C736.222 102.976 736.222 102.976 736.222 102.976C736.222 102.976 736.222 102.976 736.222 102.976C736.222 102.976 736.222 102.976 736.222 102.976C736.222 102.976 736.222 102.976 736.222 102.976C736.222 102.976 736.222 102.976 736.222 102.976C736.222 102.976 736.222 102.976 736.222 102.976C736.222 102.976 736.222 102.976 736.222 102.976C736.222 102.976 736.222 102.976 736.222 102.976C736.222 102.976 736.222 102.976 736.222 102.976C736.222 102.976 736.222 102.976 736.222 102.976C736.222 102.976 736.222 102.976 736.222 102.976C736.222 102.976 736.222 102.976 736.222 102.976C736.222 102.976 736.222 102.976 736.222 102.976C736.222 102.976 736.222 102.976 736.222 102.976C736.222 102.976 736.222 102.976 736.222 102.976C736.222 102.976 736.222 102.976 736.222 102.976C736.222 102.976 736.222 102.976 736.222 102.976C736.222 102.976 736.222 102.976 736.222 102.976C736.222 102.976 736.222 102.976 736.222 102.976C736.222 102.976 736.222 102.976 736.222 102.976C736.222 102.976 736.222 102.976 736.222 102.976C736.222 102.976 736.222 102.976 736.222 102.976C736.222 102.976 736.222 102.976 736.222 102.976C736.222 102.976 736.222 102.976 736.222 102.976C736.222 102.976 736.222 102.976 736.222 102.976C736.222 102.976 736.222 102.976 736.222 102.976C736.222 102.976 736.222 102.976 736.222 102.976C736.222 102.976 736.222 102.976 736.222 102.976C736.222 102.976 736.222 102.976 736.222 102.976C736.222 102.976 736.222 102.976 736.222 102.976C736.222 102.976 736.222 102.976 736.222 102.976C736.222 102.976 736.222 102.976 736.222 102.976C736.222 102.976 736.222 102.976 736.222 102.976C736.222 102.976 736.222 102.976 736.222 102.976C736.222 102.976 736.222 102.976 736.222 102.976C736.222 102.976 736.222 102.976 736.222 102.976C736.222 102.976 736.222 102.976 736.222 102.976C736.222 102.976 736.222 102.976 736.222 102.976C736.222 102.976 736.222 102.976 736.222 102.976C736.222 102.976 736.222 102.976 736.222 102.976C736.222 102.976 736.222 102.976 736.222 102.976C736.222 102.976 736.222 102.976 736.222 102.976C736.222 102.976 736.222 102.976 736.222 102.976C736.222 102.976 736.222 102.976 736.222 102.976C736.222 102.976 736.222 102.976 736.222 102.976C736.222 102.976 736.222 102.976 736.222 102.976C736.222 102.976 736.222 102.976 736.222 102.976C736.222 102.976 736.222 102.976 736.222 102.976C736.222 102.976 736.222 102.976 736.222 102.976C736.222 102.976 736.222 102.976 736.222 102.976C736.222 102.976 736.222 102.976 736.222 102.976C736.222 102.976 736.222 102.976 736.222 102.976C736.222 102.976 736.222 102.976 736.222 102.976C736.222 102.976 736.222 102.976 736.222 102.976C736.222 102.976 736.222 102.976 736.222 102.976C736.222 102.976 736.222 102.976 736.222 102.976C736.222 102.976 736.222 102.976 736.222 102.976C736.222 102.976 736.222 102.976 736.222 102.976C736.222 102.976 736.222 102.976 736.222 102.976C736.222 102.976 736.222 102.976 736.222 102.976C736.222 102.976 736.222 102.976 736.222 102.976C736.222 102.976 736.222 102.976 736.222 102.976C736.222 102.976 736.222 102.976 736.222 102.976C736.222 102.976 736.222 102.976 736.222 102.976C736.222 102.976 736.222 102.976 736.222 102.976C736.222 102.976 736.222 102.976 736.222 102.976C736.222 102.976 736.222 102.976 736.222 102.976C736.222 102.976 736.222 102.976 736.222 102.976C736.222 102.976 736.222 102.976 736.222 102.976C736.222 102.976 736.222 102.976 736.222 102.976C736.222 102.976 736.222 102.976 736.222 102.976C736.222 102.976 736.222 102.976 736.222 102.976C736.222 102.976 736.222 102.976 736.222 102.976C736.222 102.976 736.222 102.976 736.222 102.976C736.222 102.976 736.222 102.976 736.222 102.976C736.222 102.976 736.222 102.976 736.222 102.976C736.222 102.976 736.222 102.976 736.222 102.976C736.222 102.976 736.222 102.976 736.222 102.976C736.222 102.976 736.222 102.976 736.222 102.976C736.222 102.976 736.222 102.976 736.222 102.976C736.222 102.976 736.222 102.976 736.222 102.976C736.222 102.976 736.222 102.976 736.222 102.976C736.222 102.976 736.222 102.976 736.222 102.976C736.222 102.976 736.222 102.976 736.222 102.976C736.222 102.976 736.222 102.976 736.222 102.976C736.222 102.976 736.222 102.976 736.222 102.976C736.222 102.976 736.222 102.976 736.222 102.976C736.222 102.976 736.222 102.976 736.222 102.976C736.222 102.976 736.222 102.976 736.222 102.976C736.222 102.976 736.222 102.976 736.222 102.976C736.222 102.976 736.222 102.976 736.222 102.976C736.222 102.976 736.222 102.976 736.222 102.976C736.222 102.976 736.222 102.976 736.222 102.976C736.222 102.976 736.222 102.976 736.222 102.976C736.222 102.976 736.222 102.976 736.222 102.976C736.222 102.976 736.222 102.976 736.222 102.976C736.222 102.976 736.222 102.976 736.222 102.976C736.222 102.976 736.222 102.976 736.222 102.976C736.222 102.976 736.222 102.976 736.222 102.976C736.222 102.976 736.222 102.976 736.222 102.976C736.222 102.976 736.222 102.976 736.222 102.976C736.222 102.976 736.222 102.976 736.222 102.976C736.222 102.976 736.222 102.976 736.222 102.976C736.222 102.976 736.222 102.976 736.222 102.976C736.222 102.976 736.222 102.976 736.222 102.976C736.222 102.976 736.222 102.976 736.222 102.976C736.222 102.976 736.222 102.976 736.222 102.976C736.222 102.976 736.222 102.976 736.222 102.976C736.222 102.976 736.222 102.976 736.222 102.976C736.222 102.976 736.222 102.976 736.222 102.976C736.222 102.976 736.222 102.976 736.222 102.976C736.222 102.976 736.222 102.976 736.222 102.976C736.222 102.976 736.222 102.976 736.222 102.976C736.222 102.976 736.222 102.976 736.222 102.976C736.222 102.976 736.222 102.976 736.222 102.976C736.222 102.976 736.222 102.976 736.222 102.976C736.222 102.976 736.222 102.976 736.222 102.976C736.222 102.976 736.222 102.976 736.222 102.976C736.222 102.976 736.222 102.976 736.222 102.976C736.222 102.976 736.222 102.976 736.222 102.976C736.222 102.976 736.222 102.976 736.222 102.976C736.222 102.976 736.222 102.976 736.222 102.976C736.222 102.976 736.222 102.976 736.222 102.976C736.222 102.976 736.222 102.976 736.222 102.976C736.222 102.976 736.222 102.976 736.222 102.976C736.222 102.976 736.222 102.976 736.222 102.976C736.222 102.976 736.222 102.976 736.222 102.976C736.222 102.976 736.222 102.976 736.222 102.976C736.222 102.976 736.222 102.976 736.222 102.976C736.222 102.976 736.222 102.976 736.222 102.976C736.222 102.976 736.222 102.976 736.222 102.976C736.222 102.976 736.222 102.976 736.222 102.976C736.222 102.976 736.222 102.976 736.222 102.976C736.222 102.976 736.222 102.976 736.222 102.976C736.222 102.976 736.222 102.976 736.222 102.976C736.222 102.976 736.222 102.976 736.222 102.976C736.222 102.976 736.222 102.976 736.222 102.976C736.222 102.976 736.222 102.976 736.222 102.976C736.222 102.976 736.222 102.976 736.222 102.976C736.222 102.976 736.222 102.976 736.222 102.976C736.222 102.976 736.222 102.976 736.222 102.976C736.222 102.976 736.222 102.976 736.222 102.976C736.222 102.976 736.222 102.976 736.222 102.976C736.222 102.976 736.222 102.976 736.222 102.976C736.222 102.976 736.222 102.976 736.222 102.976C736.222 102.976 736.222 102.976 736.222 102.976C736.222 102.976 736.222 102.976 736.222 102.976C736.222 102.976 736.222 102.976 736.222 102.976C736.222 102.976 736.222 102.976 736.222 102.976C736.222 102.976 736.222 102.976 736.222 102.976C736.222 102.976 736.222 102.976 736.222 102.976C736.222 102.976 736.222 102.976 736.222 102.976C736.222 102.976 736.222 102.976 736.222 102.976C736.222 102.976 736.222 102.976 736.222 102.976C736.222 102.976 736.222 102.976 736.222 102.976C736.222 102.976 736.222 102.976 736.222 102.976C736.222 102.976 736.222 102.976 736.222 102.976C736.222 102.976 736.222 102.976 736.222 102.976C736.222 102.976 736.222 102.976 736.222 102.976C736.222 102.976 736.222 102.976 736.222 102.976C736.222 102.976 736.222 102.976 736.222 102.976C736.222 102.976 736.222 102.976 736.222 102.976C736.222 102.976 736.222 102.976 736.222 102.976C736.222 102.976 736.222 102.976 736.222 102.976C736.222 102.976 736.222 102.976 736.222 102.976C736.222 102.976 736.222 102.976 736.222 102.976C736.222 102.976 736.222 102.976 736.222 102.976C736.222 102.976 736.222 102.976 736.222 102.976C736.222 102.976 736.222 102.976 736.222 102.976C736.222 102.976 736.222 102.976 736.222 102.976C736.222 102.976 736.222 102.976 736.222 102.976C736.222 102.976 736.222 102.976 736.222 102.976C736.222 102.976 736.222 102.976 736.222 102.976C736.222 102.976 736.222 102.976 736.222 102.976C736.222 102.976 736.222 102.976 736.222 102.976C736.222 102.976 736.222 102.976 736.222 102.976C736.222 102.976 736.222 102.976 736.222 102.976C736.222 102.976 736.222 102.976 736.222 102.976C736.222 102.976 736.222 102.976 736.222 102.976C736.222 102.976 736.222 102.976 736.222 102.976C736.222 102.976 736.222 102.976 736.222 102.976C736.222 102.976 736.222 102.976 736.222 102.976C736.222 102.976 736.222 102.976 736.222 102.976C736.222 102.976 736.222 102.976 736.222 102.976C736.222 102.976 736.222 102.976 736.222 102.976C736.222 102.976 736.222 102.976 736.222 102.976C736.222 102.976 736.222 102.976 736.222 102.976C736.222 102.976 736.222 102.976 736.222 102.976C736.222 102.976 736.222 102.976 736.222 102.976C736.222 102.976 736.222 102.976 736.222 102.976C736.222 102.976 736.222 102.976 736.222 102.976C736.222 102.976 736.222 102.976 736.222 102.976C736.222 102.976 736.222 102.976 736.222 102.976C736.222 102.976 736.222 102.976 736.222 102.976C736.222 102.976 736.222 102.976 736.222 102.976C736.222 102.976 736.222 102.976 736.222 102.976C736.222 102.976 736.222 102.976 736.222 102.976C736.222 102.976 736.222 102.976 736.222 102.976C736.222 102.976 736.222 102.976 736.222 102.976C736.222 102.976 736.222 102.976 736.222 102.976C736.222 102.976 736.222 102.976 736.222 102.976C736.222 102.976 736.222 102.976 736.222 102.976C736.222 102.976 736.222 102.976 736.222 102.976C736.222 102.976 736.222 102.976 736.222 102.976C736.222 102.976 736.222 102.976 736.222 102.976C736.222 102.976 736.222 102.976 736.222 102.976C736.222 102.976 736.222 102.976 736.222 102.976C736.222 102.976 736.222 102.976 736.222 102.976V96.9756ZM739.318 60.9756C739.318 71.6392 738.641 81.2266 737.568 88.0886C737.028 91.5432 736.408 94.1718 735.781 95.8703C735.461 96.7366 735.201 97.1853 735.066 97.3621C734.883 97.6016 735.248 96.976 736.221 96.9756L736.223 102.976C738.038 102.975 739.224 101.803 739.835 101.004C740.493 100.141 741 99.0572 741.409 97.9499C742.24 95.7011 742.933 92.6182 743.496 89.0152C744.63 81.7621 745.318 71.8502 745.318 60.9756H739.318ZM736.221 24.9756C735.248 24.9752 734.883 24.3496 735.066 24.5891C735.201 24.7659 735.461 25.2146 735.781 26.0809C736.408 27.7794 737.028 30.408 737.568 33.8625C738.641 40.7246 739.318 50.312 739.318 60.9756H745.318C745.318 50.1009 744.63 40.189 743.496 32.936C742.933 29.333 742.24 26.2501 741.409 24.0013C741 22.894 740.493 21.8101 739.835 20.9476C739.224 20.1478 738.038 18.9763 736.223 18.9756L736.221 24.9756ZM736.222 24.9756L736.221 24.9756L736.223 18.9756C736.222 18.9756 736.222 18.9756 736.222 18.9756C736.221 18.9756 736.222 18.9756 736.222 18.9756V24.9756Z" fill="black" mask="url(#path-1-inside-1_702_220)"/>
<path d="M722.531 60.9751C722.531 71.6919 721.851 81.3608 720.763 88.3206C720.218 91.8123 719.579 94.5544 718.901 96.3903C718.558 97.3168 718.237 97.9242 717.971 98.2722C717.959 98.2888 717.946 98.3044 717.935 98.3189C717.923 98.3044 717.911 98.2888 717.898 98.2722C717.632 97.9242 717.311 97.3168 716.969 96.3903C716.291 94.5544 715.652 91.8123 715.106 88.3206C714.018 81.3608 713.339 71.6919 713.339 60.9751C713.339 50.2583 714.018 40.5894 715.106 33.6296C715.652 30.1379 716.291 27.3958 716.969 25.5599C717.311 24.6334 717.632 24.026 717.898 23.678C717.911 23.6614 717.923 23.6458 717.935 23.6313C717.946 23.6458 717.959 23.6614 717.971 23.678C718.237 24.026 718.558 24.6334 718.901 25.5599C719.579 27.3958 720.218 30.1379 720.763 33.6296C721.851 40.5894 722.531 50.2583 722.531 60.9751ZM717.74 98.5161C717.74 98.5158 717.743 98.5135 717.75 98.5103C717.744 98.5147 717.74 98.5164 717.74 98.5161ZM718.12 98.5103C718.126 98.5135 718.129 98.5158 718.129 98.5161C718.129 98.5164 718.126 98.5147 718.12 98.5103ZM718.129 23.4341C718.129 23.4344 718.126 23.4367 718.12 23.4399C718.126 23.4355 718.129 23.4338 718.129 23.4341ZM717.75 23.4399C717.743 23.4367 717.74 23.4344 717.74 23.4341C717.74 23.4338 717.744 23.4355 717.75 23.4399Z" fill="white" stroke="black" stroke-width="3"/>
<path d="M549.595 53.9749H538.444H359.629H9.33333C5.28324 53.9749 2 57.2581 2 61.3082V61.3082C2 65.3583 5.28322 68.6415 9.33331 68.6415H568.908M619.201 53.9749H717.258V68.6415H640.123" stroke="black" stroke-width="3"/>
<path d="M620.811 54.6033H716.167V67.4935H638.514L620.811 54.6033Z" fill="white"/>
<path d="M2 61.0484C2 57.2664 5.06592 54.2004 8.84793 54.2004H546.853C548.37 54.2004 549.843 54.704 551.043 55.6321V55.6321C556.207 59.6273 553.382 67.8963 546.853 67.8963H8.84796C5.06595 67.8963 2 64.8304 2 61.0484V61.0484Z" fill="white"/>
<mask id="path-7-inside-2_702_220" fill="white">
<path d="M863.291 233.47C862.967 233.244 830.829 210.535 817.462 199.898C803.947 189.151 791.576 173.341 788.735 167.877C786.754 164.074 781.962 141.461 778.788 126.495C777.455 120.208 776.304 114.78 775.659 112.115C773.63 103.74 758.124 43.2327 753.051 36.4472C748.444 30.2839 731.475 25.4428 723.321 23.1155L721.125 22.4834C719.468 21.9972 716.363 21.2542 712.429 20.3147C700.57 17.4786 680.721 12.7333 672.564 8.22476C659.691 1.10933 643.361 0.134638 638.666 0.00366382C631.379 -0.149979 616.176 4.5701 610.409 6.36092C609.44 6.66317 608.74 6.88229 608.392 6.978C606.105 7.61272 597.16 9.18691 594.067 9.63525C590.729 10.1188 576.972 15.5141 574.121 16.7281L572.492 17.4434C567.976 19.4383 557.398 24.113 551.692 24.8258C544.689 25.6998 537.283 30.0144 537.007 35.7269C536.771 40.5981 542.529 44.0942 544.177 44.9933C546.318 52.4463 551.183 56.1034 555.481 59.335C556.384 60.015 557.274 60.6825 558.125 61.3751C562.484 64.924 574.815 73.6541 578.289 76.1023C577.581 76.7949 576.572 77.8502 575.397 79.1297L575.236 79.0341L574.558 79.7216C570.259 84.0765 564.716 90.2752 562.669 95.2371L562.39 96.2068C562.248 96.5645 562.157 96.8818 562.117 97.1538L561.939 97.7684L562.117 97.9045C562.393 101.398 565.94 104.803 569.493 106.43C575.378 109.135 581.797 108.911 589.106 105.743C597.154 102.252 603.721 94.7157 605.781 92.1692L608.576 93.8543C606.265 96.305 599.362 103.965 596.781 110.717C594.122 117.674 593.877 123.608 593.716 127.535C593.692 128.147 593.668 128.711 593.637 129.225C593.634 129.29 593.625 129.378 593.622 129.446C593.531 130.557 593.446 131.651 593.368 132.688C593.131 135.801 592.925 138.494 592.638 140.073L592.374 141.511L592.832 141.408C592.801 142.539 592.789 143.62 592.835 144.549C592.947 146.881 594.231 149.017 596.457 150.569C598.538 152.017 602.376 153.601 608.782 152.856C614.813 152.171 617.878 149.375 619.384 147.181C619.563 147.75 619.753 148.362 619.944 148.974C620.062 149.367 620.177 149.758 620.311 150.166C620.353 150.302 620.399 150.448 620.438 150.579C620.635 151.226 620.965 152.11 621.389 153.108C622.425 155.684 623.773 158.284 625.514 160.488C625.836 160.908 626.166 161.293 626.496 161.651C626.569 161.729 626.632 161.815 626.705 161.89C629.398 164.651 631.13 166.099 636.546 165.971C642.232 165.85 647.926 158.644 649.032 152.521C649.701 148.813 648.414 145.836 647.381 143.443C646.693 141.851 646.1 140.476 646.233 139.3C646.448 137.398 648.347 135.96 649.544 135.232C651.785 138.846 660.033 152.032 664.664 158.13C668.62 163.339 672.982 167.094 678.034 171.439C679.967 173.099 681.999 174.849 684.147 176.799C691.565 183.534 692.458 186.259 694.17 193.858C695.684 200.591 698.516 207.452 702.584 214.255C704.996 218.285 709.063 221.534 713.777 225.295C716.166 227.201 718.635 229.173 721.228 231.496C728.994 238.445 799.937 302.965 800.654 303.617L801.075 304L801.69 303.909C815.842 301.831 836.778 292.024 849.412 277.299C862.546 261.995 863.652 235.352 863.691 234.223L863.706 233.768L863.291 233.47ZM548.86 37.0139C550.971 33.6539 555.196 31.6641 561.418 31.0974C566.864 33.6917 580.349 40.9457 582.3 45.764C583.775 49.4011 581.87 53.8064 579.792 56.4737C578.047 58.7129 576.217 59.796 575.176 59.8816C571.619 60.1108 551.749 52.2321 549.035 48.1971C547.487 45.9025 546.409 40.9129 548.86 37.0139ZM576.484 82.7542C577.411 84.9355 567.582 95.7282 565.683 96.6224L566.228 97.451L565.671 96.6274C565.186 96.8566 564.801 96.8918 564.529 96.8994L564.686 96.3604C566.052 93.3681 571.535 86.6305 575.778 81.8399C576.105 82.1421 576.36 82.447 576.484 82.7542ZM588.058 104.065C578.28 108.312 572.495 105.655 570.593 104.778C568.012 103.594 565.322 101.229 564.565 98.7809C564.58 98.7809 564.586 98.786 564.601 98.786C565.243 98.786 565.986 98.645 566.785 98.2722V98.2696C568.657 97.3906 580.246 85.9329 578.629 82.1296C578.365 81.4874 577.859 80.8778 577.153 80.301C577.332 80.1045 577.49 79.9358 577.659 79.7494C580.316 80.3615 586.292 81.8852 589.863 83.9506C593.668 86.1494 599.677 91.5371 601.819 93.4992C598.871 96.7231 593.798 101.577 588.058 104.065ZM595.621 133.187C595.73 131.807 595.83 130.555 595.894 129.517C595.967 128.633 596.039 127.736 596.124 126.822C597.136 130.008 598.051 133.844 597.378 135.567C596.842 136.95 596.003 137.837 595.24 138.401C595.346 136.628 595.488 134.819 595.621 133.187ZM595.103 144.476C595.052 143.393 595.067 142.108 595.118 140.746C596.385 140.194 598.466 138.92 599.538 136.152C601.086 132.205 596.633 121.691 596.588 121.586L596.466 121.309C596.845 118.357 597.539 114.971 598.947 111.292C600.347 107.632 603.167 103.604 605.738 100.38C608.537 99.9244 612.257 99.5365 614.298 100.322C617.812 101.682 625.081 106.745 626.475 109.062C627.898 111.405 628.595 113.747 624.566 114.327C620.538 114.906 618.296 110.825 617.6 111.808C616.873 112.765 620.629 120.371 620.386 124.074C620.174 127.777 618.054 140.799 613.359 146.844C610.688 150.304 606.199 150.987 602.842 150.944C600.543 150.591 598.953 149.846 597.917 149.123C596.188 147.919 595.188 146.267 595.103 144.476ZM642.407 135.154C639.045 136.086 631.2 131.124 630.534 130.721C631.17 131.376 641.499 141.703 642.165 145.481C642.862 149.385 642.862 156.185 639.136 159.888C636.755 162.235 634.271 163.293 632.769 163.754C631.809 163.49 631.052 163.049 630.279 162.412L630.143 162.223C630.082 162.14 628.689 160.142 630.143 158.16C630.861 157.163 631.878 156.634 632.86 156.12C634.09 155.478 635.483 154.75 635.483 153.191C635.483 151.234 632.421 143.229 628.477 142.856L627.777 142.786C625.614 142.552 622.849 142.287 620.98 144.811C620.82 144.302 620.711 143.967 620.711 143.967L620.477 143.244C621.501 139.499 624.088 130.064 624.836 127.575C625.775 124.452 628.107 118.608 630.5 117.828C632.893 117.047 634.68 118.029 638.194 120.749C641.711 123.492 645.921 134.197 642.407 135.154ZM623.661 152.788C623.188 151.644 622.791 150.541 622.461 149.528C622.325 149.088 622.186 148.637 622.043 148.183C622.001 148.04 621.952 147.881 621.913 147.743C622.991 144.171 624.788 144.37 627.486 144.657L628.225 144.735C630.064 144.907 633.214 151.093 633.214 153.191C633.214 153.664 632.811 153.919 631.654 154.521C630.558 155.095 629.192 155.805 628.198 157.183C627.677 157.896 627.402 158.603 627.283 159.271C625.908 157.41 624.588 154.926 623.661 152.788ZM847.565 276.198C841.87 282.833 834.846 288.117 827.779 292.162C821.209 291.051 800.906 286.946 789.859 277.11C776.592 265.272 737.778 225.755 724.693 219.182C711.578 212.582 713.316 182.783 691.992 173.162C679.612 167.575 669.075 158.135 662.393 151.186C657.174 143.466 651.07 133.57 650.991 133.439L650.464 132.582L649.665 132.938C647.414 126.948 638.182 116.447 633.987 112.385C632.381 110.848 628.958 108.027 625.172 105.03C619.653 100.642 613.411 95.8517 611.196 94.1591L611.854 93.4941L605.166 89.4666L604.551 90.2828L580.876 76.5682L581.642 75.9864L580.652 75.2937C580.491 75.1803 564.641 64.04 559.709 60.0277C558.837 59.3199 557.925 58.6322 557.002 57.9371C554.666 56.184 552.304 54.3731 550.307 51.9778C557.035 56.4738 571.014 61.7731 575.091 61.7731C575.197 61.7731 575.297 61.7681 575.391 61.7605C577.414 61.6018 579.713 60.0478 581.697 57.5039C584.163 54.3378 586.183 49.4339 584.453 45.1621C581.779 38.5656 563.02 29.6793 562.224 29.3066L561.912 29.1581L561.554 29.1882C552.549 29.9186 548.584 33.3718 546.845 36.1424C545.388 38.4596 545.013 40.9961 545.191 43.2806C545.104 43.2302 545.01 43.1772 544.904 43.1143C544.277 38.704 547.684 32.4249 551.84 30.9816C556.444 29.42 562.623 27.6316 572.074 29.6466C579.468 31.2284 588.664 36.271 592.289 38.3741H590.445L609.009 49.8293L609.682 49.4363C609.688 49.4313 609.767 49.3885 609.876 49.323C613.574 52.1894 628.519 63.6572 635.48 67.3345C635.474 67.3446 635.459 67.3572 635.453 67.3673L634.907 68.1733L635.862 68.6417C636.383 68.9011 648.692 74.9587 653.036 75.941C655.596 76.538 660.836 76.9762 665.216 77.2407C668.326 78.757 675.366 82.4947 677.525 83.1848C680.243 84.0538 700.092 91.8721 704.687 103.514C704.687 103.514 702.257 90.0182 694.697 85.1243C689.884 82.0112 685.952 79.4169 683.717 77.9334C684.198 77.9233 684.662 77.9007 685.083 77.8528C689.626 77.3239 699.561 67.7778 702.469 65.4857C704.983 63.5211 714.222 56.2671 721.461 54.7559C717.463 55.1841 710.678 56.2169 706.619 58.6349C700.622 62.1863 697.926 62.3625 695.654 59.7682C693.352 57.1739 698.35 50.8267 698.35 50.8267C698.35 50.8267 692.08 51.746 688.654 53.358C683.117 53.4638 676.147 46.3735 676.147 44.3535C676.147 40.1472 688.627 35.0342 684.114 34.5808C679.6 34.1274 671.998 42.9935 666.939 42.389C661.881 41.7845 649.583 36.8477 645.251 34.7319C640.92 32.6162 637.285 28.4099 638.194 24.0525C639.103 19.6951 644.343 15.1866 640.193 16.3956C636.043 17.6046 632.59 29.3167 627.532 30.0723C622.473 30.8279 609.842 33.674 602.967 32.8429C596.091 32.0117 597.181 24.3547 595.364 24.3547C593.577 24.3547 594.819 34.1274 588.155 32.8429C581.461 31.5583 568.981 26.9239 560.682 27.075C552.352 27.2261 550.898 29.3166 545.476 32.8429C543.541 34.1224 541.787 36.5328 540.357 39.107C539.676 38.1121 539.212 37.0039 539.27 35.805C539.497 31.1352 546.067 27.4428 552.022 26.6998C558.116 25.9391 568.933 21.1586 573.552 19.1159L575.151 18.4156C578.689 16.9069 591.723 11.8945 594.452 11.4991C597.29 11.0911 606.553 9.48418 609.106 8.77389C609.467 8.67566 610.194 8.449 611.199 8.13667C616.849 6.3786 631.785 1.61812 638.585 1.89518C643.131 2.02111 658.924 2.9607 671.301 9.80159C679.749 14.4713 699.81 19.267 711.796 22.1333C715.694 23.0652 718.771 23.8006 720.362 24.2691L722.579 24.9063C730.485 27.1631 746.935 31.8581 751.118 37.4497C755.637 43.4947 770.567 100.688 773.427 112.493C774.066 115.135 775.217 120.55 776.547 126.825C779.927 142.776 784.558 164.623 786.642 168.631C789.547 174.217 802.151 190.345 815.884 201.266C828.461 211.273 857.536 231.886 861.392 234.614C861.195 238.208 859.39 262.416 847.565 276.198ZM687.476 56.912C687.821 57.1689 688.26 57.4334 688.812 57.7029C692.746 59.6247 696.899 64.9316 689.417 67.1733C682.021 69.3973 679.14 69.0673 679.098 69.0623C679.061 66.4151 679.007 60.884 679.119 58.0554C679.27 54.2522 676.623 66.8056 675.281 67.5487C674.472 67.997 664.549 68.3068 656.353 67.9113C652.703 67.1078 648.898 66.1834 646.178 65.521C645.782 65.4252 645.445 65.3448 645.094 65.2591C643.561 61.4055 643.891 49.6127 643.27 48.6606C642.598 47.6304 643.495 62.894 639.018 64.1987C635.041 65.3573 617.173 50.6177 613.235 47.3131C616.836 45.1344 622.392 41.6937 626.102 39.0213C626.414 38.7972 626.666 38.6058 626.935 38.4043C632.366 38.7518 650.807 40.0919 658.618 42.7416C666.588 45.4392 677.492 52.7561 687.476 56.912ZM659.164 70.4502C662.287 71.0748 664.916 71.4954 666.461 71.4954C668.036 71.4954 669.889 71.3367 671.683 71.1806C674.133 70.969 676.662 70.7474 677.862 71.0093C677.992 71.0395 678.08 71.0648 678.125 71.0673C678.056 71.3267 677.677 72.0093 676.45 73.0822C674.657 74.6489 672.676 75.6514 672.095 75.6514C669.789 75.6514 657.58 75.0418 653.654 74.125L653.642 74.1225C651.143 73.5583 645.43 71.0017 641.402 69.1152C646.078 69.8733 652.733 70.2613 659.164 70.4502ZM600.11 37.8376C601.258 37.6185 622.213 35.0544 627.559 35.2408C627.099 35.6916 626.232 36.4322 624.612 37.5933L624.609 37.5958C619.696 41.1346 611.436 46.0764 609.04 47.497L596.039 39.4748C597.62 38.8174 599.816 37.9283 600.11 37.8376Z"/>
</mask>
<path d="M863.291 233.47C862.967 233.244 830.829 210.535 817.462 199.898C803.947 189.151 791.576 173.341 788.735 167.877C786.754 164.074 781.962 141.461 778.788 126.495C777.455 120.208 776.304 114.78 775.659 112.115C773.63 103.74 758.124 43.2327 753.051 36.4472C748.444 30.2839 731.475 25.4428 723.321 23.1155L721.125 22.4834C719.468 21.9972 716.363 21.2542 712.429 20.3147C700.57 17.4786 680.721 12.7333 672.564 8.22476C659.691 1.10933 643.361 0.134638 638.666 0.00366382C631.379 -0.149979 616.176 4.5701 610.409 6.36092C609.44 6.66317 608.74 6.88229 608.392 6.978C606.105 7.61272 597.16 9.18691 594.067 9.63525C590.729 10.1188 576.972 15.5141 574.121 16.7281L572.492 17.4434C567.976 19.4383 557.398 24.113 551.692 24.8258C544.689 25.6998 537.283 30.0144 537.007 35.7269C536.771 40.5981 542.529 44.0942 544.177 44.9933C546.318 52.4463 551.183 56.1034 555.481 59.335C556.384 60.015 557.274 60.6825 558.125 61.3751C562.484 64.924 574.815 73.6541 578.289 76.1023C577.581 76.7949 576.572 77.8502 575.397 79.1297L575.236 79.0341L574.558 79.7216C570.259 84.0765 564.716 90.2752 562.669 95.2371L562.39 96.2068C562.248 96.5645 562.157 96.8818 562.117 97.1538L561.939 97.7684L562.117 97.9045C562.393 101.398 565.94 104.803 569.493 106.43C575.378 109.135 581.797 108.911 589.106 105.743C597.154 102.252 603.721 94.7157 605.781 92.1692L608.576 93.8543C606.265 96.305 599.362 103.965 596.781 110.717C594.122 117.674 593.877 123.608 593.716 127.535C593.692 128.147 593.668 128.711 593.637 129.225C593.634 129.29 593.625 129.378 593.622 129.446C593.531 130.557 593.446 131.651 593.368 132.688C593.131 135.801 592.925 138.494 592.638 140.073L592.374 141.511L592.832 141.408C592.801 142.539 592.789 143.62 592.835 144.549C592.947 146.881 594.231 149.017 596.457 150.569C598.538 152.017 602.376 153.601 608.782 152.856C614.813 152.171 617.878 149.375 619.384 147.181C619.563 147.75 619.753 148.362 619.944 148.974C620.062 149.367 620.177 149.758 620.311 150.166C620.353 150.302 620.399 150.448 620.438 150.579C620.635 151.226 620.965 152.11 621.389 153.108C622.425 155.684 623.773 158.284 625.514 160.488C625.836 160.908 626.166 161.293 626.496 161.651C626.569 161.729 626.632 161.815 626.705 161.89C629.398 164.651 631.13 166.099 636.546 165.971C642.232 165.85 647.926 158.644 649.032 152.521C649.701 148.813 648.414 145.836 647.381 143.443C646.693 141.851 646.1 140.476 646.233 139.3C646.448 137.398 648.347 135.96 649.544 135.232C651.785 138.846 660.033 152.032 664.664 158.13C668.62 163.339 672.982 167.094 678.034 171.439C679.967 173.099 681.999 174.849 684.147 176.799C691.565 183.534 692.458 186.259 694.17 193.858C695.684 200.591 698.516 207.452 702.584 214.255C704.996 218.285 709.063 221.534 713.777 225.295C716.166 227.201 718.635 229.173 721.228 231.496C728.994 238.445 799.937 302.965 800.654 303.617L801.075 304L801.69 303.909C815.842 301.831 836.778 292.024 849.412 277.299C862.546 261.995 863.652 235.352 863.691 234.223L863.706 233.768L863.291 233.47ZM548.86 37.0139C550.971 33.6539 555.196 31.6641 561.418 31.0974C566.864 33.6917 580.349 40.9457 582.3 45.764C583.775 49.4011 581.87 53.8064 579.792 56.4737C578.047 58.7129 576.217 59.796 575.176 59.8816C571.619 60.1108 551.749 52.2321 549.035 48.1971C547.487 45.9025 546.409 40.9129 548.86 37.0139ZM576.484 82.7542C577.411 84.9355 567.582 95.7282 565.683 96.6224L566.228 97.451L565.671 96.6274C565.186 96.8566 564.801 96.8918 564.529 96.8994L564.686 96.3604C566.052 93.3681 571.535 86.6305 575.778 81.8399C576.105 82.1421 576.36 82.447 576.484 82.7542ZM588.058 104.065C578.28 108.312 572.495 105.655 570.593 104.778C568.012 103.594 565.322 101.229 564.565 98.7809C564.58 98.7809 564.586 98.786 564.601 98.786C565.243 98.786 565.986 98.645 566.785 98.2722V98.2696C568.657 97.3906 580.246 85.9329 578.629 82.1296C578.365 81.4874 577.859 80.8778 577.153 80.301C577.332 80.1045 577.49 79.9358 577.659 79.7494C580.316 80.3615 586.292 81.8852 589.863 83.9506C593.668 86.1494 599.677 91.5371 601.819 93.4992C598.871 96.7231 593.798 101.577 588.058 104.065ZM595.621 133.187C595.73 131.807 595.83 130.555 595.894 129.517C595.967 128.633 596.039 127.736 596.124 126.822C597.136 130.008 598.051 133.844 597.378 135.567C596.842 136.95 596.003 137.837 595.24 138.401C595.346 136.628 595.488 134.819 595.621 133.187ZM595.103 144.476C595.052 143.393 595.067 142.108 595.118 140.746C596.385 140.194 598.466 138.92 599.538 136.152C601.086 132.205 596.633 121.691 596.588 121.586L596.466 121.309C596.845 118.357 597.539 114.971 598.947 111.292C600.347 107.632 603.167 103.604 605.738 100.38C608.537 99.9244 612.257 99.5365 614.298 100.322C617.812 101.682 625.081 106.745 626.475 109.062C627.898 111.405 628.595 113.747 624.566 114.327C620.538 114.906 618.296 110.825 617.6 111.808C616.873 112.765 620.629 120.371 620.386 124.074C620.174 127.777 618.054 140.799 613.359 146.844C610.688 150.304 606.199 150.987 602.842 150.944C600.543 150.591 598.953 149.846 597.917 149.123C596.188 147.919 595.188 146.267 595.103 144.476ZM642.407 135.154C639.045 136.086 631.2 131.124 630.534 130.721C631.17 131.376 641.499 141.703 642.165 145.481C642.862 149.385 642.862 156.185 639.136 159.888C636.755 162.235 634.271 163.293 632.769 163.754C631.809 163.49 631.052 163.049 630.279 162.412L630.143 162.223C630.082 162.14 628.689 160.142 630.143 158.16C630.861 157.163 631.878 156.634 632.86 156.12C634.09 155.478 635.483 154.75 635.483 153.191C635.483 151.234 632.421 143.229 628.477 142.856L627.777 142.786C625.614 142.552 622.849 142.287 620.98 144.811C620.82 144.302 620.711 143.967 620.711 143.967L620.477 143.244C621.501 139.499 624.088 130.064 624.836 127.575C625.775 124.452 628.107 118.608 630.5 117.828C632.893 117.047 634.68 118.029 638.194 120.749C641.711 123.492 645.921 134.197 642.407 135.154ZM623.661 152.788C623.188 151.644 622.791 150.541 622.461 149.528C622.325 149.088 622.186 148.637 622.043 148.183C622.001 148.04 621.952 147.881 621.913 147.743C622.991 144.171 624.788 144.37 627.486 144.657L628.225 144.735C630.064 144.907 633.214 151.093 633.214 153.191C633.214 153.664 632.811 153.919 631.654 154.521C630.558 155.095 629.192 155.805 628.198 157.183C627.677 157.896 627.402 158.603 627.283 159.271C625.908 157.41 624.588 154.926 623.661 152.788ZM847.565 276.198C841.87 282.833 834.846 288.117 827.779 292.162C821.209 291.051 800.906 286.946 789.859 277.11C776.592 265.272 737.778 225.755 724.693 219.182C711.578 212.582 713.316 182.783 691.992 173.162C679.612 167.575 669.075 158.135 662.393 151.186C657.174 143.466 651.07 133.57 650.991 133.439L650.464 132.582L649.665 132.938C647.414 126.948 638.182 116.447 633.987 112.385C632.381 110.848 628.958 108.027 625.172 105.03C619.653 100.642 613.411 95.8517 611.196 94.1591L611.854 93.4941L605.166 89.4666L604.551 90.2828L580.876 76.5682L581.642 75.9864L580.652 75.2937C580.491 75.1803 564.641 64.04 559.709 60.0277C558.837 59.3199 557.925 58.6322 557.002 57.9371C554.666 56.184 552.304 54.3731 550.307 51.9778C557.035 56.4738 571.014 61.7731 575.091 61.7731C575.197 61.7731 575.297 61.7681 575.391 61.7605C577.414 61.6018 579.713 60.0478 581.697 57.5039C584.163 54.3378 586.183 49.4339 584.453 45.1621C581.779 38.5656 563.02 29.6793 562.224 29.3066L561.912 29.1581L561.554 29.1882C552.549 29.9186 548.584 33.3718 546.845 36.1424C545.388 38.4596 545.013 40.9961 545.191 43.2806C545.104 43.2302 545.01 43.1772 544.904 43.1143C544.277 38.704 547.684 32.4249 551.84 30.9816C556.444 29.42 562.623 27.6316 572.074 29.6466C579.468 31.2284 588.664 36.271 592.289 38.3741H590.445L609.009 49.8293L609.682 49.4363C609.688 49.4313 609.767 49.3885 609.876 49.323C613.574 52.1894 628.519 63.6572 635.48 67.3345C635.474 67.3446 635.459 67.3572 635.453 67.3673L634.907 68.1733L635.862 68.6417C636.383 68.9011 648.692 74.9587 653.036 75.941C655.596 76.538 660.836 76.9762 665.216 77.2407C668.326 78.757 675.366 82.4947 677.525 83.1848C680.243 84.0538 700.092 91.8721 704.687 103.514C704.687 103.514 702.257 90.0182 694.697 85.1243C689.884 82.0112 685.952 79.4169 683.717 77.9334C684.198 77.9233 684.662 77.9007 685.083 77.8528C689.626 77.3239 699.561 67.7778 702.469 65.4857C704.983 63.5211 714.222 56.2671 721.461 54.7559C717.463 55.1841 710.678 56.2169 706.619 58.6349C700.622 62.1863 697.926 62.3625 695.654 59.7682C693.352 57.1739 698.35 50.8267 698.35 50.8267C698.35 50.8267 692.08 51.746 688.654 53.358C683.117 53.4638 676.147 46.3735 676.147 44.3535C676.147 40.1472 688.627 35.0342 684.114 34.5808C679.6 34.1274 671.998 42.9935 666.939 42.389C661.881 41.7845 649.583 36.8477 645.251 34.7319C640.92 32.6162 637.285 28.4099 638.194 24.0525C639.103 19.6951 644.343 15.1866 640.193 16.3956C636.043 17.6046 632.59 29.3167 627.532 30.0723C622.473 30.8279 609.842 33.674 602.967 32.8429C596.091 32.0117 597.181 24.3547 595.364 24.3547C593.577 24.3547 594.819 34.1274 588.155 32.8429C581.461 31.5583 568.981 26.9239 560.682 27.075C552.352 27.2261 550.898 29.3166 545.476 32.8429C543.541 34.1224 541.787 36.5328 540.357 39.107C539.676 38.1121 539.212 37.0039 539.27 35.805C539.497 31.1352 546.067 27.4428 552.022 26.6998C558.116 25.9391 568.933 21.1586 573.552 19.1159L575.151 18.4156C578.689 16.9069 591.723 11.8945 594.452 11.4991C597.29 11.0911 606.553 9.48418 609.106 8.77389C609.467 8.67566 610.194 8.449 611.199 8.13667C616.849 6.3786 631.785 1.61812 638.585 1.89518C643.131 2.02111 658.924 2.9607 671.301 9.80159C679.749 14.4713 699.81 19.267 711.796 22.1333C715.694 23.0652 718.771 23.8006 720.362 24.2691L722.579 24.9063C730.485 27.1631 746.935 31.8581 751.118 37.4497C755.637 43.4947 770.567 100.688 773.427 112.493C774.066 115.135 775.217 120.55 776.547 126.825C779.927 142.776 784.558 164.623 786.642 168.631C789.547 174.217 802.151 190.345 815.884 201.266C828.461 211.273 857.536 231.886 861.392 234.614C861.195 238.208 859.39 262.416 847.565 276.198ZM687.476 56.912C687.821 57.1689 688.26 57.4334 688.812 57.7029C692.746 59.6247 696.899 64.9316 689.417 67.1733C682.021 69.3973 679.14 69.0673 679.098 69.0623C679.061 66.4151 679.007 60.884 679.119 58.0554C679.27 54.2522 676.623 66.8056 675.281 67.5487C674.472 67.997 664.549 68.3068 656.353 67.9113C652.703 67.1078 648.898 66.1834 646.178 65.521C645.782 65.4252 645.445 65.3448 645.094 65.2591C643.561 61.4055 643.891 49.6127 643.27 48.6606C642.598 47.6304 643.495 62.894 639.018 64.1987C635.041 65.3573 617.173 50.6177 613.235 47.3131C616.836 45.1344 622.392 41.6937 626.102 39.0213C626.414 38.7972 626.666 38.6058 626.935 38.4043C632.366 38.7518 650.807 40.0919 658.618 42.7416C666.588 45.4392 677.492 52.7561 687.476 56.912ZM659.164 70.4502C662.287 71.0748 664.916 71.4954 666.461 71.4954C668.036 71.4954 669.889 71.3367 671.683 71.1806C674.133 70.969 676.662 70.7474 677.862 71.0093C677.992 71.0395 678.08 71.0648 678.125 71.0673C678.056 71.3267 677.677 72.0093 676.45 73.0822C674.657 74.6489 672.676 75.6514 672.095 75.6514C669.789 75.6514 657.58 75.0418 653.654 74.125L653.642 74.1225C651.143 73.5583 645.43 71.0017 641.402 69.1152C646.078 69.8733 652.733 70.2613 659.164 70.4502ZM600.11 37.8376C601.258 37.6185 622.213 35.0544 627.559 35.2408C627.099 35.6916 626.232 36.4322 624.612 37.5933L624.609 37.5958C619.696 41.1346 611.436 46.0764 609.04 47.497L596.039 39.4748C597.62 38.8174 599.816 37.9283 600.11 37.8376Z" fill="black" stroke="black" stroke-width="2" mask="url(#path-7-inside-2_702_220)"/>
<path d="M566.206 65L557.706 58.5H563.706L573.206 62H576.206L580.706 58.5H622.206L628.706 63.5L566.206 65Z" fill="white"/>
</svg>
