<svg width="1324" height="378" viewBox="0 0 1324 378" fill="none" xmlns="http://www.w3.org/2000/svg">
<mask id="path-1-inside-1_737_224" fill="white">
<path fill-rule="evenodd" clip-rule="evenodd" d="M152.576 31H176.144V127.817H152.576C152.576 127.817 152.576 127.817 152.575 127.817C148.392 127.816 145 106.143 145 79.4087C145 52.6744 148.392 31.0017 152.575 31C152.576 31 152.576 31 152.576 31Z"/>
</mask>
<path fill-rule="evenodd" clip-rule="evenodd" d="M152.576 31H176.144V127.817H152.576C152.576 127.817 152.576 127.817 152.575 127.817C148.392 127.816 145 106.143 145 79.4087C145 52.6744 148.392 31.0017 152.575 31C152.576 31 152.576 31 152.576 31Z" fill="white"/>
<path d="M176.144 31V28H179.144V31H176.144ZM176.144 127.817H179.144V130.817H176.144V127.817ZM152.575 127.817L152.575 130.817L152.574 130.817L152.575 127.817ZM152.575 31L152.574 28H152.575V31ZM176.144 34H152.576V28H176.144V34ZM173.144 127.817V31H179.144V127.817H173.144ZM152.576 124.817H176.144V130.817H152.576V124.817ZM152.575 124.817C152.575 124.817 152.575 124.817 152.575 124.817C152.575 124.817 152.575 124.817 152.575 124.817C152.575 124.817 152.575 124.817 152.575 124.817C152.575 124.817 152.575 124.817 152.575 124.817C152.575 124.817 152.575 124.817 152.575 124.817C152.575 124.817 152.575 124.817 152.575 124.817C152.575 124.817 152.575 124.817 152.575 124.817C152.575 124.817 152.575 124.817 152.575 124.817C152.575 124.817 152.575 124.817 152.575 124.817C152.575 124.817 152.575 124.817 152.575 124.817C152.575 124.817 152.575 124.817 152.575 124.817C152.575 124.817 152.575 124.817 152.575 124.817C152.575 124.817 152.575 124.817 152.575 124.817C152.575 124.817 152.575 124.817 152.575 124.817C152.575 124.817 152.575 124.817 152.575 124.817C152.575 124.817 152.575 124.817 152.575 124.817C152.575 124.817 152.575 124.817 152.575 124.817C152.575 124.817 152.575 124.817 152.575 124.817C152.575 124.817 152.575 124.817 152.575 124.817C152.575 124.817 152.575 124.817 152.575 124.817C152.575 124.817 152.575 124.817 152.575 124.817C152.575 124.817 152.575 124.817 152.575 124.817C152.575 124.817 152.575 124.817 152.575 124.817C152.575 124.817 152.575 124.817 152.575 124.817C152.575 124.817 152.575 124.817 152.575 124.817C152.575 124.817 152.575 124.817 152.575 124.817C152.575 124.817 152.575 124.817 152.575 124.817C152.575 124.817 152.575 124.817 152.575 124.817C152.575 124.817 152.575 124.817 152.575 124.817C152.575 124.817 152.575 124.817 152.575 124.817C152.575 124.817 152.575 124.817 152.575 124.817C152.575 124.817 152.575 124.817 152.575 124.817C152.575 124.817 152.575 124.817 152.575 124.817C152.575 124.817 152.575 124.817 152.575 124.817C152.575 124.817 152.575 124.817 152.575 124.817C152.575 124.817 152.575 124.817 152.575 124.817C152.575 124.817 152.575 124.817 152.575 124.817C152.575 124.817 152.575 124.817 152.575 124.817C152.575 124.817 152.575 124.817 152.575 124.817C152.575 124.817 152.575 124.817 152.575 124.817C152.575 124.817 152.575 124.817 152.575 124.817C152.575 124.817 152.575 124.817 152.575 124.817C152.575 124.817 152.575 124.817 152.575 124.817C152.575 124.817 152.575 124.817 152.575 124.817C152.575 124.817 152.575 124.817 152.575 124.817C152.575 124.817 152.575 124.817 152.575 124.817C152.575 124.817 152.575 124.817 152.575 124.817C152.575 124.817 152.575 124.817 152.575 124.817C152.575 124.817 152.575 124.817 152.575 124.817C152.575 124.817 152.575 124.817 152.575 124.817C152.575 124.817 152.575 124.817 152.575 124.817C152.575 124.817 152.575 124.817 152.575 124.817C152.575 124.817 152.575 124.817 152.575 124.817C152.575 124.817 152.575 124.817 152.575 124.817C152.575 124.817 152.575 124.817 152.575 124.817C152.575 124.817 152.575 124.817 152.575 124.817C152.575 124.817 152.575 124.817 152.575 124.817C152.575 124.817 152.575 124.817 152.575 124.817C152.575 124.817 152.575 124.817 152.575 124.817C152.575 124.817 152.575 124.817 152.575 124.817C152.575 124.817 152.575 124.817 152.575 124.817C152.575 124.817 152.575 124.817 152.575 124.817C152.575 124.817 152.575 124.817 152.575 124.817C152.575 124.817 152.575 124.817 152.575 124.817C152.575 124.817 152.575 124.817 152.575 124.817C152.575 124.817 152.575 124.817 152.575 124.817C152.575 124.817 152.575 124.817 152.575 124.817C152.575 124.817 152.575 124.817 152.575 124.817C152.575 124.817 152.575 124.817 152.575 124.817C152.575 124.817 152.575 124.817 152.575 124.817C152.575 124.817 152.575 124.817 152.575 124.817C152.575 124.817 152.575 124.817 152.575 124.817C152.575 124.817 152.575 124.817 152.575 124.817C152.575 124.817 152.575 124.817 152.575 124.817C152.575 124.817 152.575 124.817 152.575 124.817C152.575 124.817 152.575 124.817 152.575 124.817C152.575 124.817 152.575 124.817 152.575 124.817C152.575 124.817 152.575 124.817 152.575 124.817C152.575 124.817 152.575 124.817 152.575 124.817C152.575 124.817 152.575 124.817 152.575 124.817C152.575 124.817 152.575 124.817 152.575 124.817C152.575 124.817 152.575 124.817 152.575 124.817C152.575 124.817 152.575 124.817 152.575 124.817C152.575 124.817 152.575 124.817 152.575 124.817C152.575 124.817 152.575 124.817 152.575 124.817C152.575 124.817 152.575 124.817 152.575 124.817C152.575 124.817 152.575 124.817 152.575 124.817C152.575 124.817 152.575 124.817 152.575 124.817C152.575 124.817 152.575 124.817 152.575 124.817C152.575 124.817 152.575 124.817 152.575 124.817C152.575 124.817 152.575 124.817 152.575 124.817C152.575 124.817 152.575 124.817 152.575 124.817C152.575 124.817 152.575 124.817 152.575 124.817C152.575 124.817 152.575 124.817 152.575 124.817C152.575 124.817 152.575 124.817 152.575 124.817C152.575 124.817 152.575 124.817 152.575 124.817C152.575 124.817 152.575 124.817 152.575 124.817C152.575 124.817 152.575 124.817 152.575 124.817C152.575 124.817 152.575 124.817 152.575 124.817C152.575 124.817 152.575 124.817 152.575 124.817C152.575 124.817 152.575 124.817 152.575 124.817C152.575 124.817 152.575 124.817 152.575 124.817C152.575 124.817 152.575 124.817 152.575 124.817C152.575 124.817 152.575 124.817 152.575 124.817C152.575 124.817 152.575 124.817 152.575 124.817C152.575 124.817 152.575 124.817 152.575 124.817C152.575 124.817 152.575 124.817 152.575 124.817C152.575 124.817 152.575 124.817 152.575 124.817C152.575 124.817 152.575 124.817 152.575 124.817C152.575 124.817 152.575 124.817 152.575 124.817C152.575 124.817 152.576 124.817 152.576 124.817C152.576 124.817 152.576 124.817 152.576 124.817C152.576 124.817 152.576 124.817 152.576 124.817C152.576 124.817 152.576 124.817 152.576 124.817C152.576 124.817 152.576 124.817 152.576 124.817C152.576 124.817 152.576 124.817 152.576 124.817C152.576 124.817 152.576 124.817 152.576 124.817C152.576 124.817 152.576 124.817 152.576 124.817C152.576 124.817 152.576 124.817 152.576 124.817C152.576 124.817 152.576 124.817 152.576 124.817C152.576 124.817 152.576 124.817 152.576 124.817C152.576 124.817 152.576 124.817 152.576 124.817C152.576 124.817 152.576 124.817 152.576 124.817C152.576 124.817 152.576 124.817 152.576 124.817C152.576 124.817 152.576 124.817 152.576 124.817C152.576 124.817 152.576 124.817 152.576 124.817C152.576 124.817 152.576 124.817 152.576 124.817C152.576 124.817 152.576 124.817 152.576 124.817C152.576 124.817 152.576 124.817 152.576 124.817C152.576 124.817 152.576 124.817 152.576 124.817C152.576 124.817 152.576 124.817 152.576 124.817C152.576 124.817 152.576 124.817 152.576 124.817C152.576 124.817 152.576 124.817 152.576 124.817C152.576 124.817 152.576 124.817 152.576 124.817C152.576 124.817 152.576 124.817 152.576 124.817C152.576 124.817 152.576 124.817 152.576 124.817C152.576 124.817 152.576 124.817 152.576 124.817C152.576 124.817 152.576 124.817 152.576 124.817C152.576 124.817 152.576 124.817 152.576 124.817C152.576 124.817 152.576 124.817 152.576 124.817C152.576 124.817 152.576 124.817 152.576 124.817C152.576 124.817 152.576 124.817 152.576 124.817C152.576 124.817 152.576 124.817 152.576 124.817C152.576 124.817 152.576 124.817 152.576 124.817C152.576 124.817 152.576 124.817 152.576 124.817C152.576 124.817 152.576 124.817 152.576 124.817C152.576 124.817 152.576 124.817 152.576 124.817C152.576 124.817 152.576 124.817 152.576 124.817C152.576 124.817 152.576 124.817 152.576 124.817C152.576 124.817 152.576 124.817 152.576 124.817C152.576 124.817 152.576 124.817 152.576 124.817C152.576 124.817 152.576 124.817 152.576 124.817C152.576 124.817 152.576 124.817 152.576 124.817C152.576 124.817 152.576 124.817 152.576 124.817C152.576 124.817 152.576 124.817 152.576 124.817C152.576 124.817 152.576 124.817 152.576 124.817C152.576 124.817 152.576 124.817 152.576 124.817C152.576 124.817 152.576 124.817 152.576 124.817C152.576 124.817 152.576 124.817 152.576 124.817C152.576 124.817 152.576 124.817 152.576 124.817C152.576 124.817 152.576 124.817 152.576 124.817C152.576 124.817 152.576 124.817 152.576 124.817C152.576 124.817 152.576 124.817 152.576 124.817C152.576 124.817 152.576 124.817 152.576 124.817C152.576 124.817 152.576 124.817 152.576 124.817C152.576 124.817 152.576 124.817 152.576 124.817C152.576 124.817 152.576 124.817 152.576 124.817C152.576 124.817 152.576 124.817 152.576 124.817C152.576 124.817 152.576 124.817 152.576 124.817C152.576 124.817 152.576 124.817 152.576 124.817C152.576 124.817 152.576 124.817 152.576 124.817C152.576 124.817 152.576 124.817 152.576 124.817C152.576 124.817 152.576 124.817 152.576 124.817C152.576 124.817 152.576 124.817 152.576 124.817C152.576 124.817 152.576 124.817 152.576 124.817C152.576 124.817 152.576 124.817 152.576 124.817C152.576 124.817 152.576 124.817 152.576 124.817C152.576 124.817 152.576 124.817 152.576 124.817C152.576 124.817 152.576 124.817 152.576 124.817C152.576 124.817 152.576 124.817 152.576 124.817C152.576 124.817 152.576 124.817 152.576 124.817C152.576 124.817 152.576 124.817 152.576 124.817C152.576 124.817 152.576 124.817 152.576 124.817C152.576 124.817 152.576 124.817 152.576 124.817C152.576 124.817 152.576 124.817 152.576 124.817C152.576 124.817 152.576 124.817 152.576 124.817C152.576 124.817 152.576 124.817 152.576 124.817C152.576 124.817 152.576 124.817 152.576 124.817C152.576 124.817 152.576 124.817 152.576 124.817C152.576 124.817 152.576 124.817 152.576 124.817C152.576 124.817 152.576 124.817 152.576 124.817C152.576 124.817 152.576 124.817 152.576 124.817C152.576 124.817 152.576 124.817 152.576 124.817C152.576 124.817 152.576 124.817 152.576 124.817C152.576 124.817 152.576 124.817 152.576 124.817C152.576 124.817 152.576 124.817 152.576 124.817C152.576 124.817 152.576 124.817 152.576 124.817C152.576 124.817 152.576 124.817 152.576 124.817C152.576 124.817 152.576 124.817 152.576 124.817C152.576 124.817 152.576 124.817 152.576 124.817C152.576 124.817 152.576 124.817 152.576 124.817C152.576 124.817 152.576 124.817 152.576 124.817C152.576 124.817 152.576 124.817 152.576 124.817C152.576 124.817 152.576 124.817 152.576 124.817C152.576 124.817 152.576 124.817 152.576 124.817C152.576 124.817 152.576 124.817 152.576 124.817C152.576 124.817 152.576 124.817 152.576 124.817C152.576 124.817 152.576 124.817 152.576 124.817C152.576 124.817 152.576 124.817 152.576 124.817C152.576 124.817 152.576 124.817 152.576 124.817C152.576 124.817 152.576 124.817 152.576 124.817C152.576 124.817 152.576 124.817 152.576 124.817C152.576 124.817 152.576 124.817 152.576 124.817C152.576 124.817 152.576 124.817 152.576 124.817C152.576 124.817 152.576 124.817 152.576 124.817C152.576 124.817 152.576 124.817 152.576 124.817C152.576 124.817 152.576 124.817 152.576 124.817C152.576 124.817 152.576 124.817 152.576 124.817C152.576 124.817 152.576 124.817 152.576 124.817C152.576 124.817 152.576 124.817 152.576 124.817C152.576 124.817 152.576 124.817 152.576 124.817C152.576 124.817 152.576 124.817 152.576 124.817C152.576 124.817 152.576 124.817 152.576 124.817C152.576 124.817 152.576 124.817 152.576 124.817C152.576 124.817 152.576 124.817 152.576 124.817C152.576 124.817 152.576 124.817 152.576 124.817C152.576 124.817 152.576 124.817 152.576 124.817C152.576 124.817 152.576 124.817 152.576 124.817C152.576 124.817 152.576 124.817 152.576 124.817C152.576 124.817 152.576 124.817 152.576 124.817C152.576 124.817 152.576 124.817 152.576 124.817C152.576 124.817 152.576 124.817 152.576 124.817C152.576 124.817 152.576 124.817 152.576 124.817C152.576 124.817 152.576 124.817 152.576 124.817C152.576 124.817 152.576 124.817 152.576 124.817C152.576 124.817 152.576 124.817 152.576 124.817C152.576 124.817 152.576 124.817 152.576 124.817C152.576 124.817 152.576 124.817 152.576 124.817C152.576 124.817 152.576 124.817 152.576 124.817C152.576 124.817 152.576 124.817 152.576 124.817C152.576 124.817 152.576 124.817 152.576 124.817C152.576 124.817 152.576 124.817 152.576 124.817C152.576 124.817 152.576 124.817 152.576 124.817C152.576 124.817 152.576 124.817 152.576 124.817C152.576 124.817 152.576 124.817 152.576 124.817C152.576 124.817 152.576 124.817 152.576 124.817C152.576 124.817 152.576 124.817 152.576 124.817C152.576 124.817 152.576 124.817 152.576 124.817C152.576 124.817 152.576 124.817 152.576 124.817C152.576 124.817 152.576 124.817 152.576 124.817C152.576 124.817 152.576 124.817 152.576 124.817C152.576 124.817 152.576 124.817 152.576 124.817C152.576 124.817 152.576 124.817 152.576 124.817C152.576 124.817 152.576 124.817 152.576 124.817C152.576 124.817 152.576 124.817 152.576 124.817C152.576 124.817 152.576 124.817 152.576 124.817C152.576 124.817 152.576 124.817 152.576 124.817C152.576 124.817 152.576 124.817 152.576 124.817C152.576 124.817 152.576 124.817 152.576 124.817C152.576 124.817 152.576 124.817 152.576 124.817C152.576 124.817 152.576 124.817 152.576 124.817C152.576 124.817 152.576 124.817 152.576 124.817C152.576 124.817 152.576 124.817 152.576 124.817C152.576 124.817 152.576 124.817 152.576 124.817C152.576 124.817 152.576 124.817 152.576 124.817C152.576 124.817 152.576 124.817 152.576 124.817C152.576 124.817 152.576 124.817 152.576 124.817C152.576 124.817 152.576 124.817 152.576 124.817C152.576 124.817 152.576 124.817 152.576 124.817C152.576 124.817 152.576 124.817 152.576 124.817C152.576 124.817 152.576 124.817 152.576 124.817C152.576 124.817 152.576 124.817 152.576 124.817C152.576 124.817 152.576 124.817 152.576 124.817C152.576 124.817 152.576 124.817 152.576 124.817C152.576 124.817 152.576 124.817 152.576 124.817C152.576 124.817 152.576 124.817 152.576 124.817C152.576 124.817 152.576 124.817 152.576 124.817C152.576 124.817 152.576 124.817 152.576 124.817C152.576 124.817 152.576 124.817 152.576 124.817C152.576 124.817 152.576 124.817 152.576 124.817C152.576 124.817 152.576 124.817 152.576 124.817C152.576 124.817 152.576 124.817 152.576 124.817C152.576 124.817 152.576 124.817 152.576 124.817C152.576 124.817 152.576 124.817 152.576 124.817C152.576 124.817 152.576 124.817 152.576 124.817C152.576 124.817 152.576 124.817 152.576 124.817C152.576 124.817 152.576 124.817 152.576 124.817C152.576 124.817 152.576 124.817 152.576 124.817C152.576 124.817 152.576 124.817 152.576 124.817C152.576 124.817 152.576 124.817 152.576 124.817C152.576 124.817 152.576 124.817 152.576 124.817C152.576 124.817 152.576 124.817 152.576 124.817C152.576 124.817 152.576 124.817 152.576 124.817C152.576 124.817 152.576 124.817 152.576 124.817C152.576 124.817 152.576 124.817 152.576 124.817C152.576 124.817 152.576 124.817 152.576 124.817C152.576 124.817 152.576 124.817 152.576 124.817C152.576 124.817 152.576 124.817 152.576 124.817C152.576 124.817 152.576 124.817 152.576 124.817C152.576 124.817 152.576 124.817 152.576 124.817C152.576 124.817 152.576 124.817 152.576 124.817C152.576 124.817 152.576 124.817 152.576 124.817C152.576 124.817 152.576 124.817 152.576 124.817C152.576 124.817 152.576 124.817 152.576 124.817C152.576 124.817 152.576 124.817 152.576 124.817C152.576 124.817 152.576 124.817 152.576 124.817C152.576 124.817 152.576 124.817 152.576 124.817C152.576 124.817 152.576 124.817 152.576 124.817C152.576 124.817 152.576 124.817 152.576 124.817C152.576 124.817 152.576 124.817 152.576 124.817C152.576 124.817 152.576 124.817 152.576 124.817C152.576 124.817 152.576 124.817 152.576 124.817C152.576 124.817 152.576 124.817 152.576 124.817C152.576 124.817 152.576 124.817 152.576 124.817C152.576 124.817 152.576 124.817 152.576 124.817C152.576 124.817 152.576 124.817 152.576 124.817C152.576 124.817 152.576 124.817 152.576 124.817C152.576 124.817 152.576 124.817 152.576 124.817C152.576 124.817 152.576 124.817 152.576 124.817C152.576 124.817 152.576 124.817 152.576 124.817C152.576 124.817 152.576 124.817 152.576 124.817C152.576 124.817 152.576 124.817 152.576 124.817C152.576 124.817 152.576 124.817 152.576 124.817C152.576 124.817 152.576 124.817 152.576 124.817C152.576 124.817 152.576 124.817 152.576 124.817C152.576 124.817 152.576 124.817 152.576 124.817C152.576 124.817 152.576 124.817 152.576 124.817C152.576 124.817 152.576 124.817 152.576 124.817C152.576 124.817 152.576 124.817 152.576 124.817C152.576 124.817 152.576 124.817 152.576 124.817C152.576 124.817 152.576 124.817 152.576 124.817C152.576 124.817 152.576 124.817 152.576 124.817C152.576 124.817 152.576 124.817 152.576 124.817C152.576 124.817 152.576 124.817 152.576 124.817C152.576 124.817 152.576 124.817 152.576 124.817C152.576 124.817 152.576 124.817 152.576 124.817C152.576 124.817 152.576 124.817 152.576 124.817C152.576 124.817 152.576 124.817 152.576 124.817C152.576 124.817 152.576 124.817 152.576 124.817C152.576 124.817 152.576 124.817 152.576 124.817C152.576 124.817 152.576 124.817 152.576 124.817C152.576 124.817 152.576 124.817 152.576 124.817C152.576 124.817 152.576 124.817 152.576 124.817C152.576 124.817 152.576 124.817 152.576 124.817C152.576 124.817 152.576 124.817 152.576 124.817C152.576 124.817 152.576 124.817 152.576 124.817C152.576 124.817 152.576 124.817 152.576 124.817C152.576 124.817 152.576 124.817 152.576 124.817C152.576 124.817 152.576 124.817 152.576 124.817C152.576 124.817 152.576 124.817 152.576 124.817C152.576 124.817 152.576 124.817 152.576 124.817C152.576 124.817 152.576 124.817 152.576 124.817C152.576 124.817 152.576 124.817 152.576 124.817C152.576 124.817 152.576 124.817 152.576 124.817C152.576 124.817 152.576 124.817 152.576 124.817C152.576 124.817 152.576 124.817 152.576 124.817C152.576 124.817 152.576 124.817 152.576 124.817C152.576 124.817 152.576 124.817 152.576 124.817C152.576 124.817 152.576 124.817 152.576 124.817C152.576 124.817 152.576 124.817 152.576 124.817C152.576 124.817 152.576 124.817 152.576 124.817C152.576 124.817 152.576 124.817 152.576 124.817C152.576 124.817 152.576 124.817 152.576 124.817C152.576 124.817 152.576 124.817 152.576 124.817C152.576 124.817 152.576 124.817 152.576 124.817C152.576 124.817 152.576 124.817 152.576 124.817C152.576 124.817 152.576 124.817 152.576 124.817C152.576 124.817 152.576 124.817 152.576 124.817C152.576 124.817 152.576 124.817 152.576 124.817C152.576 124.817 152.576 124.817 152.576 124.817C152.576 124.817 152.576 124.817 152.576 124.817C152.576 124.817 152.576 124.817 152.576 124.817C152.576 124.817 152.576 124.817 152.576 124.817C152.576 124.817 152.576 124.817 152.576 124.817C152.576 124.817 152.576 124.817 152.576 124.817C152.576 124.817 152.576 124.817 152.576 124.817C152.576 124.817 152.576 124.817 152.576 124.817C152.576 124.817 152.576 124.817 152.576 124.817C152.576 124.817 152.576 124.817 152.576 124.817C152.576 124.817 152.576 124.817 152.576 124.817C152.576 124.817 152.576 124.817 152.576 124.817C152.576 124.817 152.576 124.817 152.576 124.817C152.576 124.817 152.576 124.817 152.576 124.817C152.576 124.817 152.576 124.817 152.576 124.817C152.576 124.817 152.576 124.817 152.576 124.817C152.576 124.817 152.576 124.817 152.576 124.817C152.576 124.817 152.576 124.817 152.576 124.817C152.576 124.817 152.576 124.817 152.576 124.817C152.576 124.817 152.576 124.817 152.576 124.817C152.576 124.817 152.576 124.817 152.576 124.817C152.576 124.817 152.576 124.817 152.576 124.817C152.576 124.817 152.576 124.817 152.576 124.817C152.576 124.817 152.576 124.817 152.576 124.817C152.576 124.817 152.576 124.817 152.576 124.817C152.576 124.817 152.576 124.817 152.576 124.817C152.576 124.817 152.576 124.817 152.576 124.817C152.576 124.817 152.576 124.817 152.576 124.817C152.576 124.817 152.576 124.817 152.576 124.817C152.576 124.817 152.576 124.817 152.576 124.817C152.576 124.817 152.576 124.817 152.576 124.817C152.576 124.817 152.576 124.817 152.576 124.817C152.576 124.817 152.576 124.817 152.576 124.817C152.576 124.817 152.576 124.817 152.576 124.817C152.576 124.817 152.576 124.817 152.576 124.817C152.576 124.817 152.576 124.817 152.576 124.817C152.576 124.817 152.576 124.817 152.576 124.817C152.576 124.817 152.576 124.817 152.576 124.817C152.576 124.817 152.576 124.817 152.576 124.817C152.576 124.817 152.576 124.817 152.576 124.817C152.576 124.817 152.576 124.817 152.576 124.817C152.576 124.817 152.576 124.817 152.576 124.817C152.576 124.817 152.576 124.817 152.576 124.817C152.576 124.817 152.576 124.817 152.576 124.817C152.576 124.817 152.576 124.817 152.576 124.817C152.576 124.817 152.576 124.817 152.576 124.817C152.576 124.817 152.576 124.817 152.576 124.817C152.576 124.817 152.576 124.817 152.576 124.817C152.576 124.817 152.576 124.817 152.576 124.817C152.576 124.817 152.576 124.817 152.576 124.817C152.576 124.817 152.576 124.817 152.576 124.817C152.576 124.817 152.576 124.817 152.576 124.817C152.576 124.817 152.576 124.817 152.576 124.817C152.576 124.817 152.576 124.817 152.576 124.817C152.576 124.817 152.576 124.817 152.576 124.817C152.576 124.817 152.576 124.817 152.576 124.817C152.576 124.817 152.576 124.817 152.576 124.817C152.576 124.817 152.576 124.817 152.576 124.817C152.576 124.817 152.576 124.817 152.576 124.817C152.576 124.817 152.576 124.817 152.576 124.817C152.576 124.817 152.576 124.817 152.576 124.817C152.576 124.817 152.576 124.817 152.576 124.817C152.576 124.817 152.576 124.817 152.576 124.817C152.576 124.817 152.576 124.817 152.576 124.817C152.576 124.817 152.576 124.817 152.576 124.817C152.576 124.817 152.576 124.817 152.576 124.817C152.576 124.817 152.576 124.817 152.576 124.817C152.576 124.817 152.576 124.817 152.576 124.817C152.576 124.817 152.576 124.817 152.576 124.817C152.576 124.817 152.576 124.817 152.576 124.817C152.576 124.817 152.576 124.817 152.576 124.817C152.576 124.817 152.576 124.817 152.576 124.817C152.576 124.817 152.576 124.817 152.576 124.817C152.576 124.817 152.576 124.817 152.576 124.817C152.576 124.817 152.576 124.817 152.576 124.817C152.576 124.817 152.576 124.817 152.576 124.817C152.576 124.817 152.576 124.817 152.576 124.817C152.576 124.817 152.576 124.817 152.576 124.817C152.576 124.817 152.576 124.817 152.576 124.817C152.576 124.817 152.576 124.817 152.576 124.817C152.576 124.817 152.576 124.817 152.576 124.817C152.576 124.817 152.576 124.817 152.576 124.817C152.576 124.817 152.576 124.817 152.576 124.817C152.576 124.817 152.576 124.817 152.576 124.817C152.576 124.817 152.576 124.817 152.576 124.817C152.576 124.817 152.576 124.817 152.576 124.817C152.576 124.817 152.576 124.817 152.576 124.817C152.576 124.817 152.576 124.817 152.576 124.817C152.576 124.817 152.576 124.817 152.576 124.817C152.576 124.817 152.576 124.817 152.576 124.817C152.576 124.817 152.576 124.817 152.576 124.817C152.576 124.817 152.576 124.817 152.576 124.817C152.576 124.817 152.576 124.817 152.576 124.817C152.576 124.817 152.576 124.817 152.576 124.817C152.576 124.817 152.576 124.817 152.576 124.817C152.576 124.817 152.576 124.817 152.576 124.817C152.576 124.817 152.576 124.817 152.576 124.817C152.576 124.817 152.576 124.817 152.576 124.817C152.576 124.817 152.576 124.817 152.576 124.817C152.576 124.817 152.576 124.817 152.576 124.817C152.576 124.817 152.576 124.817 152.576 124.817C152.576 124.817 152.576 124.817 152.576 124.817C152.576 124.817 152.576 124.817 152.576 124.817C152.576 124.817 152.576 124.817 152.576 124.817C152.576 124.817 152.576 124.817 152.576 124.817C152.576 124.817 152.576 124.817 152.576 124.817C152.576 124.817 152.576 124.817 152.576 124.817C152.576 124.817 152.576 124.817 152.576 124.817C152.576 124.817 152.576 124.817 152.576 124.817C152.576 124.817 152.576 124.817 152.576 124.817C152.576 124.817 152.576 124.817 152.576 124.817C152.576 124.817 152.576 124.817 152.576 124.817C152.576 124.817 152.576 124.817 152.576 124.817C152.576 124.817 152.576 124.817 152.576 124.817C152.576 124.817 152.576 124.817 152.576 124.817C152.576 124.817 152.576 124.817 152.576 124.817C152.576 124.817 152.576 124.817 152.576 124.817C152.576 124.817 152.576 124.817 152.576 124.817C152.576 124.817 152.576 124.817 152.576 124.817C152.576 124.817 152.576 124.817 152.576 124.817C152.576 124.817 152.576 124.817 152.576 124.817C152.576 124.817 152.576 124.817 152.576 124.817C152.576 124.817 152.576 124.817 152.576 124.817C152.576 124.817 152.576 124.817 152.576 124.817C152.576 124.817 152.576 124.817 152.576 124.817C152.576 124.817 152.576 124.817 152.576 124.817C152.576 124.817 152.576 124.817 152.576 124.817C152.576 124.817 152.576 124.817 152.576 124.817C152.576 124.817 152.576 124.817 152.576 124.817C152.576 124.817 152.576 124.817 152.576 124.817C152.576 124.817 152.576 124.817 152.576 124.817C152.576 124.817 152.576 124.817 152.576 124.817C152.576 124.817 152.576 124.817 152.576 124.817C152.576 124.817 152.576 124.817 152.576 124.817C152.576 124.817 152.576 124.817 152.576 124.817C152.576 124.817 152.576 124.817 152.576 124.817C152.576 124.817 152.576 124.817 152.576 124.817C152.576 124.817 152.576 124.817 152.576 124.817C152.576 124.817 152.576 124.817 152.576 124.817C152.576 124.817 152.576 124.817 152.576 124.817C152.576 124.817 152.576 124.817 152.576 124.817C152.576 124.817 152.576 124.817 152.576 124.817C152.576 124.817 152.576 124.817 152.576 124.817V130.817C152.576 130.817 152.576 130.817 152.576 130.817C152.576 130.817 152.576 130.817 152.576 130.817C152.576 130.817 152.576 130.817 152.576 130.817C152.576 130.817 152.576 130.817 152.576 130.817C152.576 130.817 152.576 130.817 152.576 130.817C152.576 130.817 152.576 130.817 152.576 130.817C152.576 130.817 152.576 130.817 152.576 130.817C152.576 130.817 152.576 130.817 152.576 130.817C152.576 130.817 152.576 130.817 152.576 130.817C152.576 130.817 152.576 130.817 152.576 130.817C152.576 130.817 152.576 130.817 152.576 130.817C152.576 130.817 152.576 130.817 152.576 130.817C152.576 130.817 152.576 130.817 152.576 130.817C152.576 130.817 152.576 130.817 152.576 130.817C152.576 130.817 152.576 130.817 152.576 130.817C152.576 130.817 152.576 130.817 152.576 130.817C152.576 130.817 152.576 130.817 152.576 130.817C152.576 130.817 152.576 130.817 152.576 130.817C152.576 130.817 152.576 130.817 152.576 130.817C152.576 130.817 152.576 130.817 152.576 130.817C152.576 130.817 152.576 130.817 152.576 130.817C152.576 130.817 152.576 130.817 152.576 130.817C152.576 130.817 152.576 130.817 152.576 130.817C152.576 130.817 152.576 130.817 152.576 130.817C152.576 130.817 152.576 130.817 152.576 130.817C152.576 130.817 152.576 130.817 152.576 130.817C152.576 130.817 152.576 130.817 152.576 130.817C152.576 130.817 152.576 130.817 152.576 130.817C152.576 130.817 152.576 130.817 152.576 130.817C152.576 130.817 152.576 130.817 152.576 130.817C152.576 130.817 152.576 130.817 152.576 130.817C152.576 130.817 152.576 130.817 152.576 130.817C152.576 130.817 152.576 130.817 152.576 130.817C152.576 130.817 152.576 130.817 152.576 130.817C152.576 130.817 152.576 130.817 152.576 130.817C152.576 130.817 152.576 130.817 152.576 130.817C152.576 130.817 152.576 130.817 152.576 130.817C152.576 130.817 152.576 130.817 152.576 130.817C152.576 130.817 152.576 130.817 152.576 130.817C152.576 130.817 152.576 130.817 152.576 130.817C152.576 130.817 152.576 130.817 152.576 130.817C152.576 130.817 152.576 130.817 152.576 130.817C152.576 130.817 152.576 130.817 152.576 130.817C152.576 130.817 152.576 130.817 152.576 130.817C152.576 130.817 152.576 130.817 152.576 130.817C152.576 130.817 152.576 130.817 152.576 130.817C152.576 130.817 152.576 130.817 152.576 130.817C152.576 130.817 152.576 130.817 152.576 130.817C152.576 130.817 152.576 130.817 152.576 130.817C152.576 130.817 152.576 130.817 152.576 130.817C152.576 130.817 152.576 130.817 152.576 130.817C152.576 130.817 152.576 130.817 152.576 130.817C152.576 130.817 152.576 130.817 152.576 130.817C152.576 130.817 152.576 130.817 152.576 130.817C152.576 130.817 152.576 130.817 152.576 130.817C152.576 130.817 152.576 130.817 152.576 130.817C152.576 130.817 152.576 130.817 152.576 130.817C152.576 130.817 152.576 130.817 152.576 130.817C152.576 130.817 152.576 130.817 152.576 130.817C152.576 130.817 152.576 130.817 152.576 130.817C152.576 130.817 152.576 130.817 152.576 130.817C152.576 130.817 152.576 130.817 152.576 130.817C152.576 130.817 152.576 130.817 152.576 130.817C152.576 130.817 152.576 130.817 152.576 130.817C152.576 130.817 152.576 130.817 152.576 130.817C152.576 130.817 152.576 130.817 152.576 130.817C152.576 130.817 152.576 130.817 152.576 130.817C152.576 130.817 152.576 130.817 152.576 130.817C152.576 130.817 152.576 130.817 152.576 130.817C152.576 130.817 152.576 130.817 152.576 130.817C152.576 130.817 152.576 130.817 152.576 130.817C152.576 130.817 152.576 130.817 152.576 130.817C152.576 130.817 152.576 130.817 152.576 130.817C152.576 130.817 152.576 130.817 152.576 130.817C152.576 130.817 152.576 130.817 152.576 130.817C152.576 130.817 152.576 130.817 152.576 130.817C152.576 130.817 152.576 130.817 152.576 130.817C152.576 130.817 152.576 130.817 152.576 130.817C152.576 130.817 152.576 130.817 152.576 130.817C152.576 130.817 152.576 130.817 152.576 130.817C152.576 130.817 152.576 130.817 152.576 130.817C152.576 130.817 152.576 130.817 152.576 130.817C152.576 130.817 152.576 130.817 152.576 130.817C152.576 130.817 152.576 130.817 152.576 130.817C152.576 130.817 152.576 130.817 152.576 130.817C152.576 130.817 152.576 130.817 152.576 130.817C152.576 130.817 152.576 130.817 152.576 130.817C152.576 130.817 152.576 130.817 152.576 130.817C152.576 130.817 152.576 130.817 152.576 130.817C152.576 130.817 152.576 130.817 152.576 130.817C152.576 130.817 152.576 130.817 152.576 130.817C152.576 130.817 152.576 130.817 152.576 130.817C152.576 130.817 152.576 130.817 152.576 130.817C152.576 130.817 152.576 130.817 152.576 130.817C152.576 130.817 152.576 130.817 152.576 130.817C152.576 130.817 152.576 130.817 152.576 130.817C152.576 130.817 152.576 130.817 152.576 130.817C152.576 130.817 152.576 130.817 152.576 130.817C152.576 130.817 152.576 130.817 152.576 130.817C152.576 130.817 152.576 130.817 152.576 130.817C152.576 130.817 152.576 130.817 152.576 130.817C152.576 130.817 152.576 130.817 152.576 130.817C152.576 130.817 152.576 130.817 152.576 130.817C152.576 130.817 152.576 130.817 152.576 130.817C152.576 130.817 152.576 130.817 152.576 130.817C152.576 130.817 152.576 130.817 152.576 130.817C152.576 130.817 152.576 130.817 152.576 130.817C152.576 130.817 152.576 130.817 152.576 130.817C152.576 130.817 152.576 130.817 152.576 130.817C152.576 130.817 152.576 130.817 152.576 130.817C152.576 130.817 152.576 130.817 152.576 130.817C152.576 130.817 152.576 130.817 152.576 130.817C152.576 130.817 152.576 130.817 152.576 130.817C152.576 130.817 152.576 130.817 152.576 130.817C152.576 130.817 152.576 130.817 152.576 130.817C152.576 130.817 152.576 130.817 152.576 130.817C152.576 130.817 152.576 130.817 152.576 130.817C152.576 130.817 152.576 130.817 152.576 130.817C152.576 130.817 152.576 130.817 152.576 130.817C152.576 130.817 152.576 130.817 152.576 130.817C152.576 130.817 152.576 130.817 152.576 130.817C152.576 130.817 152.576 130.817 152.576 130.817C152.576 130.817 152.576 130.817 152.576 130.817C152.576 130.817 152.576 130.817 152.576 130.817C152.576 130.817 152.576 130.817 152.576 130.817C152.576 130.817 152.576 130.817 152.576 130.817C152.576 130.817 152.576 130.817 152.576 130.817C152.576 130.817 152.576 130.817 152.576 130.817C152.576 130.817 152.576 130.817 152.576 130.817C152.576 130.817 152.576 130.817 152.576 130.817C152.576 130.817 152.576 130.817 152.576 130.817C152.576 130.817 152.576 130.817 152.576 130.817C152.576 130.817 152.576 130.817 152.576 130.817C152.576 130.817 152.576 130.817 152.576 130.817C152.576 130.817 152.576 130.817 152.576 130.817C152.576 130.817 152.576 130.817 152.576 130.817C152.576 130.817 152.576 130.817 152.576 130.817C152.576 130.817 152.576 130.817 152.576 130.817C152.576 130.817 152.576 130.817 152.576 130.817C152.576 130.817 152.576 130.817 152.576 130.817C152.576 130.817 152.576 130.817 152.576 130.817C152.576 130.817 152.576 130.817 152.576 130.817C152.576 130.817 152.576 130.817 152.576 130.817C152.576 130.817 152.576 130.817 152.576 130.817C152.576 130.817 152.576 130.817 152.576 130.817C152.576 130.817 152.576 130.817 152.576 130.817C152.576 130.817 152.576 130.817 152.576 130.817C152.576 130.817 152.576 130.817 152.576 130.817C152.576 130.817 152.576 130.817 152.576 130.817C152.576 130.817 152.576 130.817 152.576 130.817C152.576 130.817 152.576 130.817 152.576 130.817C152.576 130.817 152.576 130.817 152.576 130.817C152.576 130.817 152.576 130.817 152.576 130.817C152.576 130.817 152.576 130.817 152.576 130.817C152.576 130.817 152.576 130.817 152.576 130.817C152.576 130.817 152.576 130.817 152.576 130.817C152.576 130.817 152.576 130.817 152.576 130.817C152.576 130.817 152.576 130.817 152.576 130.817C152.576 130.817 152.576 130.817 152.576 130.817C152.576 130.817 152.576 130.817 152.576 130.817C152.576 130.817 152.576 130.817 152.576 130.817C152.576 130.817 152.576 130.817 152.576 130.817C152.576 130.817 152.576 130.817 152.576 130.817C152.576 130.817 152.576 130.817 152.576 130.817C152.576 130.817 152.576 130.817 152.576 130.817C152.576 130.817 152.576 130.817 152.576 130.817C152.576 130.817 152.576 130.817 152.576 130.817C152.576 130.817 152.576 130.817 152.576 130.817C152.576 130.817 152.576 130.817 152.576 130.817C152.576 130.817 152.576 130.817 152.576 130.817C152.576 130.817 152.576 130.817 152.576 130.817C152.576 130.817 152.576 130.817 152.576 130.817C152.576 130.817 152.576 130.817 152.576 130.817C152.576 130.817 152.576 130.817 152.576 130.817C152.576 130.817 152.576 130.817 152.576 130.817C152.576 130.817 152.576 130.817 152.576 130.817C152.576 130.817 152.576 130.817 152.576 130.817C152.576 130.817 152.576 130.817 152.576 130.817C152.576 130.817 152.576 130.817 152.576 130.817C152.576 130.817 152.576 130.817 152.576 130.817C152.576 130.817 152.576 130.817 152.576 130.817C152.576 130.817 152.576 130.817 152.576 130.817C152.576 130.817 152.576 130.817 152.576 130.817C152.576 130.817 152.576 130.817 152.576 130.817C152.576 130.817 152.576 130.817 152.576 130.817C152.576 130.817 152.576 130.817 152.576 130.817C152.576 130.817 152.576 130.817 152.576 130.817C152.576 130.817 152.576 130.817 152.576 130.817C152.576 130.817 152.576 130.817 152.576 130.817C152.576 130.817 152.576 130.817 152.576 130.817C152.576 130.817 152.576 130.817 152.576 130.817C152.576 130.817 152.576 130.817 152.576 130.817C152.576 130.817 152.576 130.817 152.576 130.817C152.576 130.817 152.576 130.817 152.576 130.817C152.576 130.817 152.576 130.817 152.576 130.817C152.576 130.817 152.576 130.817 152.576 130.817C152.576 130.817 152.576 130.817 152.576 130.817C152.576 130.817 152.576 130.817 152.576 130.817C152.576 130.817 152.576 130.817 152.576 130.817C152.576 130.817 152.576 130.817 152.576 130.817C152.576 130.817 152.576 130.817 152.576 130.817C152.576 130.817 152.576 130.817 152.576 130.817C152.576 130.817 152.576 130.817 152.576 130.817C152.576 130.817 152.576 130.817 152.576 130.817C152.576 130.817 152.576 130.817 152.576 130.817C152.576 130.817 152.576 130.817 152.576 130.817C152.576 130.817 152.576 130.817 152.576 130.817C152.576 130.817 152.576 130.817 152.576 130.817C152.576 130.817 152.576 130.817 152.576 130.817C152.576 130.817 152.576 130.817 152.576 130.817C152.576 130.817 152.576 130.817 152.576 130.817C152.576 130.817 152.576 130.817 152.576 130.817C152.576 130.817 152.576 130.817 152.576 130.817C152.576 130.817 152.576 130.817 152.576 130.817C152.576 130.817 152.576 130.817 152.576 130.817C152.576 130.817 152.576 130.817 152.576 130.817C152.576 130.817 152.576 130.817 152.576 130.817C152.576 130.817 152.576 130.817 152.576 130.817C152.576 130.817 152.576 130.817 152.576 130.817C152.576 130.817 152.576 130.817 152.576 130.817C152.576 130.817 152.576 130.817 152.576 130.817C152.576 130.817 152.576 130.817 152.576 130.817C152.576 130.817 152.576 130.817 152.576 130.817C152.576 130.817 152.576 130.817 152.576 130.817C152.576 130.817 152.576 130.817 152.576 130.817C152.576 130.817 152.576 130.817 152.576 130.817C152.576 130.817 152.576 130.817 152.576 130.817C152.576 130.817 152.576 130.817 152.576 130.817C152.576 130.817 152.576 130.817 152.576 130.817C152.576 130.817 152.576 130.817 152.576 130.817C152.576 130.817 152.576 130.817 152.576 130.817C152.576 130.817 152.576 130.817 152.576 130.817C152.576 130.817 152.576 130.817 152.576 130.817C152.576 130.817 152.576 130.817 152.576 130.817C152.576 130.817 152.576 130.817 152.576 130.817C152.576 130.817 152.576 130.817 152.576 130.817C152.576 130.817 152.576 130.817 152.576 130.817C152.576 130.817 152.576 130.817 152.576 130.817C152.576 130.817 152.576 130.817 152.576 130.817C152.576 130.817 152.576 130.817 152.576 130.817C152.576 130.817 152.576 130.817 152.576 130.817C152.576 130.817 152.576 130.817 152.576 130.817C152.576 130.817 152.576 130.817 152.576 130.817C152.576 130.817 152.576 130.817 152.576 130.817C152.576 130.817 152.576 130.817 152.576 130.817C152.576 130.817 152.576 130.817 152.576 130.817C152.576 130.817 152.576 130.817 152.576 130.817C152.576 130.817 152.576 130.817 152.576 130.817C152.576 130.817 152.576 130.817 152.576 130.817C152.576 130.817 152.576 130.817 152.576 130.817C152.576 130.817 152.576 130.817 152.576 130.817C152.576 130.817 152.576 130.817 152.576 130.817C152.576 130.817 152.576 130.817 152.576 130.817C152.576 130.817 152.576 130.817 152.576 130.817C152.576 130.817 152.576 130.817 152.576 130.817C152.576 130.817 152.576 130.817 152.576 130.817C152.576 130.817 152.576 130.817 152.576 130.817C152.576 130.817 152.576 130.817 152.576 130.817C152.576 130.817 152.576 130.817 152.576 130.817C152.576 130.817 152.576 130.817 152.576 130.817C152.576 130.817 152.576 130.817 152.576 130.817C152.576 130.817 152.576 130.817 152.576 130.817C152.576 130.817 152.576 130.817 152.576 130.817C152.576 130.817 152.576 130.817 152.576 130.817C152.576 130.817 152.576 130.817 152.576 130.817C152.576 130.817 152.576 130.817 152.576 130.817C152.576 130.817 152.576 130.817 152.576 130.817C152.576 130.817 152.576 130.817 152.576 130.817C152.576 130.817 152.576 130.817 152.576 130.817C152.576 130.817 152.576 130.817 152.576 130.817C152.576 130.817 152.576 130.817 152.576 130.817C152.576 130.817 152.576 130.817 152.576 130.817C152.576 130.817 152.576 130.817 152.576 130.817C152.576 130.817 152.576 130.817 152.576 130.817C152.576 130.817 152.576 130.817 152.576 130.817C152.576 130.817 152.576 130.817 152.576 130.817C152.576 130.817 152.576 130.817 152.576 130.817C152.576 130.817 152.576 130.817 152.576 130.817C152.576 130.817 152.576 130.817 152.576 130.817C152.576 130.817 152.576 130.817 152.576 130.817C152.576 130.817 152.576 130.817 152.576 130.817C152.576 130.817 152.576 130.817 152.576 130.817C152.576 130.817 152.576 130.817 152.576 130.817C152.576 130.817 152.576 130.817 152.576 130.817C152.576 130.817 152.576 130.817 152.576 130.817C152.576 130.817 152.576 130.817 152.576 130.817C152.576 130.817 152.576 130.817 152.576 130.817C152.576 130.817 152.576 130.817 152.576 130.817C152.576 130.817 152.576 130.817 152.576 130.817C152.576 130.817 152.576 130.817 152.576 130.817C152.576 130.817 152.576 130.817 152.576 130.817C152.576 130.817 152.576 130.817 152.576 130.817C152.576 130.817 152.576 130.817 152.576 130.817C152.576 130.817 152.576 130.817 152.576 130.817C152.576 130.817 152.576 130.817 152.576 130.817C152.576 130.817 152.576 130.817 152.576 130.817C152.576 130.817 152.576 130.817 152.576 130.817C152.576 130.817 152.576 130.817 152.576 130.817C152.576 130.817 152.576 130.817 152.576 130.817C152.576 130.817 152.576 130.817 152.576 130.817C152.576 130.817 152.576 130.817 152.576 130.817C152.576 130.817 152.576 130.817 152.576 130.817C152.576 130.817 152.576 130.817 152.576 130.817C152.576 130.817 152.576 130.817 152.576 130.817C152.576 130.817 152.576 130.817 152.576 130.817C152.576 130.817 152.576 130.817 152.576 130.817C152.576 130.817 152.576 130.817 152.576 130.817C152.576 130.817 152.576 130.817 152.576 130.817C152.576 130.817 152.576 130.817 152.576 130.817C152.576 130.817 152.576 130.817 152.576 130.817C152.576 130.817 152.576 130.817 152.576 130.817C152.576 130.817 152.576 130.817 152.576 130.817C152.576 130.817 152.576 130.817 152.576 130.817C152.576 130.817 152.576 130.817 152.576 130.817C152.576 130.817 152.576 130.817 152.576 130.817C152.576 130.817 152.576 130.817 152.576 130.817C152.576 130.817 152.576 130.817 152.576 130.817C152.576 130.817 152.576 130.817 152.576 130.817C152.576 130.817 152.576 130.817 152.576 130.817C152.576 130.817 152.576 130.817 152.576 130.817C152.576 130.817 152.576 130.817 152.576 130.817C152.576 130.817 152.576 130.817 152.576 130.817C152.576 130.817 152.576 130.817 152.576 130.817C152.576 130.817 152.576 130.817 152.576 130.817C152.576 130.817 152.576 130.817 152.576 130.817C152.576 130.817 152.576 130.817 152.576 130.817C152.576 130.817 152.576 130.817 152.576 130.817C152.576 130.817 152.576 130.817 152.576 130.817C152.576 130.817 152.576 130.817 152.576 130.817C152.576 130.817 152.576 130.817 152.576 130.817C152.576 130.817 152.576 130.817 152.576 130.817C152.576 130.817 152.576 130.817 152.576 130.817C152.576 130.817 152.576 130.817 152.576 130.817C152.576 130.817 152.576 130.817 152.576 130.817C152.576 130.817 152.576 130.817 152.576 130.817C152.576 130.817 152.576 130.817 152.576 130.817C152.576 130.817 152.576 130.817 152.576 130.817C152.576 130.817 152.576 130.817 152.576 130.817C152.576 130.817 152.576 130.817 152.576 130.817C152.576 130.817 152.576 130.817 152.576 130.817C152.576 130.817 152.576 130.817 152.576 130.817C152.576 130.817 152.576 130.817 152.576 130.817C152.576 130.817 152.576 130.817 152.576 130.817C152.576 130.817 152.576 130.817 152.576 130.817C152.576 130.817 152.576 130.817 152.576 130.817C152.576 130.817 152.576 130.817 152.576 130.817C152.576 130.817 152.576 130.817 152.576 130.817C152.576 130.817 152.576 130.817 152.576 130.817C152.576 130.817 152.576 130.817 152.576 130.817C152.576 130.817 152.576 130.817 152.576 130.817C152.576 130.817 152.576 130.817 152.576 130.817C152.576 130.817 152.576 130.817 152.576 130.817C152.576 130.817 152.576 130.817 152.576 130.817C152.576 130.817 152.576 130.817 152.576 130.817C152.576 130.817 152.576 130.817 152.576 130.817C152.576 130.817 152.576 130.817 152.576 130.817C152.576 130.817 152.576 130.817 152.576 130.817C152.576 130.817 152.576 130.817 152.576 130.817C152.576 130.817 152.576 130.817 152.576 130.817C152.576 130.817 152.576 130.817 152.576 130.817C152.576 130.817 152.576 130.817 152.576 130.817C152.576 130.817 152.576 130.817 152.576 130.817C152.576 130.817 152.576 130.817 152.576 130.817C152.576 130.817 152.576 130.817 152.576 130.817C152.576 130.817 152.576 130.817 152.576 130.817C152.576 130.817 152.576 130.817 152.576 130.817C152.576 130.817 152.576 130.817 152.576 130.817C152.576 130.817 152.576 130.817 152.576 130.817C152.576 130.817 152.576 130.817 152.576 130.817C152.576 130.817 152.576 130.817 152.576 130.817C152.576 130.817 152.576 130.817 152.576 130.817C152.576 130.817 152.576 130.817 152.576 130.817C152.576 130.817 152.576 130.817 152.576 130.817C152.576 130.817 152.576 130.817 152.576 130.817C152.576 130.817 152.576 130.817 152.576 130.817C152.576 130.817 152.576 130.817 152.576 130.817C152.576 130.817 152.576 130.817 152.576 130.817C152.576 130.817 152.576 130.817 152.576 130.817C152.576 130.817 152.576 130.817 152.576 130.817C152.576 130.817 152.576 130.817 152.576 130.817C152.576 130.817 152.576 130.817 152.576 130.817C152.576 130.817 152.576 130.817 152.576 130.817C152.576 130.817 152.576 130.817 152.576 130.817C152.576 130.817 152.576 130.817 152.576 130.817C152.576 130.817 152.576 130.817 152.576 130.817C152.576 130.817 152.576 130.817 152.576 130.817C152.576 130.817 152.576 130.817 152.576 130.817C152.576 130.817 152.576 130.817 152.576 130.817C152.576 130.817 152.576 130.817 152.576 130.817C152.576 130.817 152.576 130.817 152.576 130.817C152.576 130.817 152.576 130.817 152.576 130.817C152.576 130.817 152.576 130.817 152.576 130.817C152.576 130.817 152.576 130.817 152.576 130.817C152.576 130.817 152.576 130.817 152.576 130.817C152.576 130.817 152.576 130.817 152.576 130.817C152.576 130.817 152.576 130.817 152.576 130.817C152.576 130.817 152.576 130.817 152.576 130.817C152.576 130.817 152.576 130.817 152.576 130.817C152.576 130.817 152.576 130.817 152.576 130.817C152.576 130.817 152.576 130.817 152.576 130.817C152.576 130.817 152.576 130.817 152.576 130.817C152.576 130.817 152.575 130.817 152.575 130.817C152.575 130.817 152.575 130.817 152.575 130.817C152.575 130.817 152.575 130.817 152.575 130.817C152.575 130.817 152.575 130.817 152.575 130.817C152.575 130.817 152.575 130.817 152.575 130.817C152.575 130.817 152.575 130.817 152.575 130.817C152.575 130.817 152.575 130.817 152.575 130.817C152.575 130.817 152.575 130.817 152.575 130.817C152.575 130.817 152.575 130.817 152.575 130.817C152.575 130.817 152.575 130.817 152.575 130.817C152.575 130.817 152.575 130.817 152.575 130.817C152.575 130.817 152.575 130.817 152.575 130.817C152.575 130.817 152.575 130.817 152.575 130.817C152.575 130.817 152.575 130.817 152.575 130.817C152.575 130.817 152.575 130.817 152.575 130.817C152.575 130.817 152.575 130.817 152.575 130.817C152.575 130.817 152.575 130.817 152.575 130.817C152.575 130.817 152.575 130.817 152.575 130.817C152.575 130.817 152.575 130.817 152.575 130.817C152.575 130.817 152.575 130.817 152.575 130.817C152.575 130.817 152.575 130.817 152.575 130.817C152.575 130.817 152.575 130.817 152.575 130.817C152.575 130.817 152.575 130.817 152.575 130.817C152.575 130.817 152.575 130.817 152.575 130.817C152.575 130.817 152.575 130.817 152.575 130.817C152.575 130.817 152.575 130.817 152.575 130.817C152.575 130.817 152.575 130.817 152.575 130.817C152.575 130.817 152.575 130.817 152.575 130.817C152.575 130.817 152.575 130.817 152.575 130.817C152.575 130.817 152.575 130.817 152.575 130.817C152.575 130.817 152.575 130.817 152.575 130.817C152.575 130.817 152.575 130.817 152.575 130.817C152.575 130.817 152.575 130.817 152.575 130.817C152.575 130.817 152.575 130.817 152.575 130.817C152.575 130.817 152.575 130.817 152.575 130.817C152.575 130.817 152.575 130.817 152.575 130.817C152.575 130.817 152.575 130.817 152.575 130.817C152.575 130.817 152.575 130.817 152.575 130.817C152.575 130.817 152.575 130.817 152.575 130.817C152.575 130.817 152.575 130.817 152.575 130.817C152.575 130.817 152.575 130.817 152.575 130.817C152.575 130.817 152.575 130.817 152.575 130.817C152.575 130.817 152.575 130.817 152.575 130.817C152.575 130.817 152.575 130.817 152.575 130.817C152.575 130.817 152.575 130.817 152.575 130.817C152.575 130.817 152.575 130.817 152.575 130.817C152.575 130.817 152.575 130.817 152.575 130.817C152.575 130.817 152.575 130.817 152.575 130.817C152.575 130.817 152.575 130.817 152.575 130.817C152.575 130.817 152.575 130.817 152.575 130.817C152.575 130.817 152.575 130.817 152.575 130.817C152.575 130.817 152.575 130.817 152.575 130.817C152.575 130.817 152.575 130.817 152.575 130.817C152.575 130.817 152.575 130.817 152.575 130.817C152.575 130.817 152.575 130.817 152.575 130.817C152.575 130.817 152.575 130.817 152.575 130.817C152.575 130.817 152.575 130.817 152.575 130.817C152.575 130.817 152.575 130.817 152.575 130.817C152.575 130.817 152.575 130.817 152.575 130.817C152.575 130.817 152.575 130.817 152.575 130.817C152.575 130.817 152.575 130.817 152.575 130.817C152.575 130.817 152.575 130.817 152.575 130.817C152.575 130.817 152.575 130.817 152.575 130.817C152.575 130.817 152.575 130.817 152.575 130.817C152.575 130.817 152.575 130.817 152.575 130.817C152.575 130.817 152.575 130.817 152.575 130.817C152.575 130.817 152.575 130.817 152.575 130.817C152.575 130.817 152.575 130.817 152.575 130.817C152.575 130.817 152.575 130.817 152.575 130.817C152.575 130.817 152.575 130.817 152.575 130.817C152.575 130.817 152.575 130.817 152.575 130.817C152.575 130.817 152.575 130.817 152.575 130.817C152.575 130.817 152.575 130.817 152.575 130.817C152.575 130.817 152.575 130.817 152.575 130.817C152.575 130.817 152.575 130.817 152.575 130.817C152.575 130.817 152.575 130.817 152.575 130.817C152.575 130.817 152.575 130.817 152.575 130.817C152.575 130.817 152.575 130.817 152.575 130.817C152.575 130.817 152.575 130.817 152.575 130.817C152.575 130.817 152.575 130.817 152.575 130.817C152.575 130.817 152.575 130.817 152.575 130.817C152.575 130.817 152.575 130.817 152.575 130.817C152.575 130.817 152.575 130.817 152.575 130.817C152.575 130.817 152.575 130.817 152.575 130.817C152.575 130.817 152.575 130.817 152.575 130.817C152.575 130.817 152.575 130.817 152.575 130.817C152.575 130.817 152.575 130.817 152.575 130.817C152.575 130.817 152.575 130.817 152.575 130.817C152.575 130.817 152.575 130.817 152.575 130.817C152.575 130.817 152.575 130.817 152.575 130.817C152.575 130.817 152.575 130.817 152.575 130.817C152.575 130.817 152.575 130.817 152.575 130.817C152.575 130.817 152.575 130.817 152.575 130.817C152.575 130.817 152.575 130.817 152.575 130.817C152.575 130.817 152.575 130.817 152.575 130.817C152.575 130.817 152.575 130.817 152.575 130.817C152.575 130.817 152.575 130.817 152.575 130.817C152.575 130.817 152.575 130.817 152.575 130.817C152.575 130.817 152.575 130.817 152.575 130.817C152.575 130.817 152.575 130.817 152.575 130.817C152.575 130.817 152.575 130.817 152.575 130.817C152.575 130.817 152.575 130.817 152.575 130.817C152.575 130.817 152.575 130.817 152.575 130.817C152.575 130.817 152.575 130.817 152.575 130.817C152.575 130.817 152.575 130.817 152.575 130.817C152.575 130.817 152.575 130.817 152.575 130.817C152.575 130.817 152.575 130.817 152.575 130.817C152.575 130.817 152.575 130.817 152.575 130.817C152.575 130.817 152.575 130.817 152.575 130.817C152.575 130.817 152.575 130.817 152.575 130.817C152.575 130.817 152.575 130.817 152.575 130.817V124.817ZM148 79.4087C148 92.6703 148.843 104.61 150.183 113.174C150.857 117.48 151.636 120.797 152.44 122.972C152.849 124.076 153.201 124.709 153.432 125.011C153.711 125.376 153.446 124.818 152.577 124.817L152.574 130.817C150.659 130.817 149.373 129.581 148.665 128.656C147.91 127.668 147.311 126.399 146.813 125.053C145.805 122.328 144.952 118.556 144.255 114.102C142.854 105.146 142 92.8816 142 79.4087H148ZM152.577 34C153.446 33.9996 153.711 33.4418 153.432 33.8061C153.201 34.1083 152.849 34.7417 152.44 35.8459C151.636 38.0203 150.857 41.3376 150.183 45.6434C148.843 54.2079 148 66.1472 148 79.4087H142C142 65.9359 142.854 53.6717 144.255 44.7158C144.952 40.2614 145.805 36.4894 146.813 33.7642C147.311 32.4187 147.91 31.1498 148.665 30.1619C149.373 29.2363 150.659 28.0008 152.574 28L152.577 34ZM152.576 34C152.576 34 152.576 34 152.576 34C152.576 34 152.576 34 152.576 34C152.576 34 152.576 34 152.576 34C152.576 34 152.576 34 152.576 34C152.576 34 152.576 34 152.576 34C152.576 34 152.576 34 152.576 34C152.576 34 152.576 34 152.576 34C152.576 34 152.576 34 152.576 34C152.576 34 152.576 34 152.576 34C152.576 34 152.576 34 152.576 34C152.576 34 152.576 34 152.576 34C152.576 34 152.576 34 152.576 34C152.576 34 152.576 34 152.576 34C152.576 34 152.576 34 152.576 34C152.576 34 152.576 34 152.576 34C152.576 34 152.576 34 152.576 34C152.576 34 152.576 34 152.576 34C152.576 34 152.576 34 152.576 34C152.576 34 152.576 34 152.576 34C152.576 34 152.576 34 152.576 34C152.576 34 152.576 34 152.576 34C152.576 34 152.576 34 152.576 34C152.576 34 152.576 34 152.576 34C152.576 34 152.576 34 152.576 34C152.576 34 152.576 34 152.576 34C152.576 34 152.576 34 152.576 34C152.576 34 152.576 34 152.576 34C152.576 34 152.576 34 152.576 34C152.576 34 152.576 34 152.576 34C152.576 34 152.576 34 152.576 34C152.576 34 152.576 34 152.576 34C152.576 34 152.576 34 152.576 34C152.576 34 152.576 34 152.576 34C152.576 34 152.576 34 152.576 34C152.576 34 152.576 34 152.576 34C152.576 34 152.576 34 152.576 34C152.576 34 152.576 34 152.576 34C152.576 34 152.576 34 152.576 34C152.576 34 152.576 34 152.576 34C152.576 34 152.576 34 152.576 34C152.576 34 152.576 34 152.576 34C152.576 34 152.576 34 152.576 34C152.576 34 152.576 34 152.576 34C152.576 34 152.576 34 152.576 34C152.576 34 152.576 34 152.576 34C152.576 34 152.576 34 152.576 34C152.576 34 152.576 34 152.576 34C152.576 34 152.576 34 152.576 34C152.576 34 152.576 34 152.576 34C152.576 34 152.576 34 152.576 34C152.576 34 152.576 34 152.576 34C152.576 34 152.576 34 152.576 34C152.576 34 152.576 34 152.576 34C152.576 34 152.576 34 152.576 34C152.576 34 152.576 34 152.576 34C152.576 34 152.576 34 152.576 34C152.576 34 152.576 34 152.576 34C152.576 34 152.576 34 152.576 34C152.576 34 152.576 34 152.576 34C152.576 34 152.576 34 152.576 34C152.576 34 152.576 34 152.576 34C152.576 34 152.576 34 152.576 34C152.576 34 152.576 34 152.576 34C152.576 34 152.576 34 152.576 34C152.576 34 152.576 34 152.576 34C152.576 34 152.576 34 152.576 34C152.576 34 152.576 34 152.576 34C152.576 34 152.576 34 152.576 34C152.576 34 152.576 34 152.576 34C152.576 34 152.576 34 152.576 34C152.576 34 152.576 34 152.576 34C152.576 34 152.576 34 152.576 34C152.576 34 152.576 34 152.576 34C152.576 34 152.576 34 152.576 34C152.576 34 152.576 34 152.576 34C152.576 34 152.576 34 152.576 34C152.576 34 152.576 34 152.576 34C152.576 34 152.576 34 152.576 34C152.576 34 152.576 34 152.576 34C152.576 34 152.576 34 152.576 34C152.576 34 152.576 34 152.576 34C152.576 34 152.576 34 152.576 34C152.576 34 152.576 34 152.576 34C152.576 34 152.576 34 152.576 34C152.576 34 152.576 34 152.576 34C152.576 34 152.576 34 152.576 34C152.576 34 152.576 34 152.576 34C152.576 34 152.576 34 152.576 34C152.576 34 152.576 34 152.576 34C152.576 34 152.576 34 152.576 34C152.576 34 152.576 34 152.576 34C152.576 34 152.576 34 152.576 34C152.576 34 152.576 34 152.576 34C152.576 34 152.576 34 152.576 34C152.576 34 152.576 34 152.576 34C152.576 34 152.576 34 152.576 34C152.576 34 152.576 34 152.576 34C152.576 34 152.576 34 152.576 34C152.576 34 152.576 34 152.576 34C152.576 34 152.576 34 152.576 34C152.576 34 152.576 34 152.576 34C152.576 34 152.576 34 152.576 34C152.576 34 152.576 34 152.576 34C152.576 34 152.576 34 152.576 34C152.576 34 152.576 34 152.576 34C152.576 34 152.576 34 152.576 34C152.576 34 152.576 34 152.576 34C152.576 34 152.576 34 152.576 34C152.576 34 152.576 34 152.576 34C152.576 34 152.576 34 152.576 34C152.576 34 152.576 34 152.576 34C152.576 34 152.576 34 152.576 34C152.576 34 152.576 34 152.576 34C152.576 34 152.576 34 152.576 34C152.576 34 152.576 34 152.576 34C152.576 34 152.576 34 152.576 34C152.576 34 152.576 34 152.576 34C152.576 34 152.576 34 152.576 34C152.576 34 152.576 34 152.576 34C152.576 34 152.576 34 152.576 34C152.576 34 152.576 34 152.576 34C152.576 34 152.576 34 152.576 34C152.576 34 152.576 34 152.576 34C152.576 34 152.576 34 152.576 34C152.576 34 152.576 34 152.576 34C152.576 34 152.576 34 152.576 34C152.576 34 152.576 34 152.576 34C152.576 34 152.576 34 152.576 34C152.576 34 152.576 34 152.576 34C152.576 34 152.576 34 152.576 34C152.576 34 152.576 34 152.576 34C152.576 34 152.576 34 152.576 34C152.576 34 152.576 34 152.576 34C152.576 34 152.576 34 152.576 34C152.576 34 152.576 34 152.576 34C152.576 34 152.576 34 152.576 34C152.576 34 152.576 34 152.576 34C152.576 34 152.576 34 152.576 34C152.576 34 152.576 34 152.576 34C152.576 34 152.576 34 152.576 34C152.576 34 152.576 34 152.576 34C152.576 34 152.576 34 152.576 34C152.576 34 152.576 34 152.576 34C152.576 34 152.576 34 152.576 34C152.576 34 152.576 34 152.576 34C152.576 34 152.576 34 152.576 34C152.576 34 152.576 34 152.576 34C152.576 34 152.576 34 152.576 34C152.576 34 152.576 34 152.576 34C152.576 34 152.576 34 152.576 34C152.576 34 152.576 34 152.576 34C152.576 34 152.576 34 152.576 34C152.576 34 152.576 34 152.576 34C152.576 34 152.576 34 152.576 34C152.576 34 152.576 34 152.576 34C152.576 34 152.576 34 152.576 34C152.576 34 152.576 34 152.576 34C152.576 34 152.576 34 152.576 34C152.576 34 152.576 34 152.576 34C152.576 34 152.576 34 152.576 34C152.576 34 152.576 34 152.576 34C152.576 34 152.576 34 152.576 34C152.576 34 152.576 34 152.576 34C152.576 34 152.576 34 152.576 34C152.576 34 152.576 34 152.576 34C152.576 34 152.576 34 152.576 34C152.576 34 152.576 34 152.576 34C152.576 34 152.576 34 152.576 34C152.576 34 152.576 34 152.576 34C152.576 34 152.576 34 152.576 34C152.576 34 152.576 34 152.576 34C152.576 34 152.576 34 152.576 34C152.576 34 152.576 34 152.576 34C152.576 34 152.576 34 152.576 34C152.576 34 152.576 34 152.576 34C152.576 34 152.576 34 152.576 34C152.576 34 152.576 34 152.576 34C152.576 34 152.576 34 152.576 34C152.576 34 152.576 34 152.576 34C152.576 34 152.576 34 152.576 34C152.576 34 152.576 34 152.576 34C152.576 34 152.576 34 152.576 34C152.576 34 152.576 34 152.576 34C152.576 34 152.576 34 152.576 34C152.576 34 152.576 34 152.576 34C152.576 34 152.576 34 152.576 34C152.576 34 152.576 34 152.576 34C152.576 34 152.576 34 152.576 34C152.576 34 152.576 34 152.576 34C152.576 34 152.576 34 152.576 34C152.576 34 152.576 34 152.576 34C152.576 34 152.576 34 152.576 34C152.576 34 152.576 34 152.576 34C152.576 34 152.576 34 152.576 34C152.576 34 152.576 34 152.576 34C152.576 34 152.576 34 152.576 34C152.576 34 152.576 34 152.576 34C152.576 34 152.576 34 152.576 34C152.576 34 152.576 34 152.576 34C152.576 34 152.576 34 152.576 34C152.576 34 152.576 34 152.576 34C152.576 34 152.576 34 152.576 34C152.576 34 152.576 34 152.576 34C152.576 34 152.576 34 152.576 34C152.576 34 152.576 34 152.576 34C152.576 34 152.576 34 152.576 34C152.576 34 152.576 34 152.576 34C152.576 34 152.576 34 152.576 34C152.576 34 152.576 34 152.576 34C152.576 34 152.576 34 152.576 34C152.576 34 152.576 34 152.576 34C152.576 34 152.576 34 152.576 34C152.576 34 152.576 34 152.576 34C152.576 34 152.576 34 152.576 34C152.576 34 152.576 34 152.576 34C152.576 34 152.576 34 152.576 34C152.576 34 152.576 34 152.576 34C152.576 34 152.576 34 152.576 34C152.576 34 152.576 34 152.576 34C152.576 34 152.576 34 152.576 34C152.576 34 152.576 34 152.576 34C152.576 34 152.576 34 152.576 34C152.576 34 152.576 34 152.576 34C152.576 34 152.576 34 152.576 34C152.576 34 152.576 34 152.576 34C152.576 34 152.576 34 152.576 34C152.576 34 152.576 34 152.576 34C152.576 34 152.576 34 152.576 34C152.576 34 152.576 34 152.576 34C152.576 34 152.576 34 152.576 34C152.576 34 152.576 34 152.576 34C152.576 34 152.576 34 152.576 34C152.576 34 152.576 34 152.576 34C152.576 34 152.576 34 152.576 34C152.576 34 152.576 34 152.576 34C152.576 34 152.576 34 152.576 34C152.576 34 152.576 34 152.576 34C152.576 34 152.576 34 152.576 34C152.576 34 152.576 34 152.576 34C152.576 34 152.576 34 152.576 34C152.576 34 152.576 34 152.576 34C152.576 34 152.576 34 152.576 34C152.576 34 152.576 34 152.576 34C152.576 34 152.576 34 152.576 34C152.576 34 152.576 34 152.576 34C152.576 34 152.576 34 152.576 34C152.576 34 152.576 34 152.576 34C152.576 34 152.576 34 152.576 34C152.576 34 152.576 34 152.576 34C152.576 34 152.576 34 152.576 34C152.576 34 152.576 34 152.576 34C152.576 34 152.576 34 152.576 34C152.576 34 152.576 34 152.576 34C152.576 34 152.576 34 152.576 34C152.576 34 152.576 34 152.576 34C152.576 34 152.576 34 152.576 34C152.576 34 152.576 34 152.576 34C152.576 34 152.576 34 152.576 34C152.576 34 152.576 34 152.576 34C152.576 34 152.576 34 152.576 34C152.576 34 152.576 34 152.576 34C152.576 34 152.576 34 152.576 34C152.576 34 152.576 34 152.576 34C152.576 34 152.576 34 152.576 34C152.576 34 152.576 34 152.576 34C152.576 34 152.576 34 152.576 34C152.576 34 152.576 34 152.576 34C152.576 34 152.576 34 152.576 34C152.576 34 152.576 34 152.576 34C152.576 34 152.576 34 152.576 34C152.576 34 152.576 34 152.576 34C152.576 34 152.576 34 152.576 34C152.576 34 152.576 34 152.576 34C152.576 34 152.576 34 152.576 34C152.576 34 152.576 34 152.576 34C152.576 34 152.576 34 152.576 34C152.576 34 152.576 34 152.576 34C152.576 34 152.576 34 152.576 34C152.576 34 152.576 34 152.576 34C152.576 34 152.576 34 152.576 34C152.576 34 152.576 34 152.576 34C152.576 34 152.576 34 152.576 34C152.576 34 152.576 34 152.576 34C152.576 34 152.576 34 152.576 34C152.576 34 152.576 34 152.576 34C152.576 34 152.576 34 152.576 34C152.576 34 152.576 34 152.576 34C152.576 34 152.576 34 152.576 34C152.576 34 152.576 34 152.576 34C152.576 34 152.576 34 152.576 34C152.576 34 152.576 34 152.576 34C152.576 34 152.576 34 152.576 34C152.576 34 152.576 34 152.576 34C152.576 34 152.576 34 152.576 34C152.576 34 152.576 34 152.576 34C152.576 34 152.576 34 152.576 34C152.576 34 152.576 34 152.576 34C152.576 34 152.576 34 152.576 34C152.576 34 152.576 34 152.576 34C152.576 34 152.576 34 152.576 34C152.576 34 152.576 34 152.576 34C152.576 34 152.576 34 152.576 34C152.576 34 152.576 34 152.576 34C152.576 34 152.576 34 152.576 34C152.576 34 152.576 34 152.576 34C152.576 34 152.576 34 152.576 34C152.576 34 152.576 34 152.576 34C152.576 34 152.576 34 152.576 34C152.576 34 152.576 34 152.576 34C152.576 34 152.576 34 152.576 34C152.576 34 152.576 34 152.576 34C152.576 34 152.576 34 152.576 34C152.576 34 152.576 34 152.576 34C152.576 34 152.576 34 152.576 34C152.576 34 152.576 34 152.576 34C152.576 34 152.576 34 152.576 34C152.576 34 152.576 34 152.576 34C152.576 34 152.576 34 152.576 34C152.576 34 152.576 34 152.576 34C152.576 34 152.576 34 152.576 34C152.576 34 152.576 34 152.576 34C152.576 34 152.576 34 152.576 34C152.576 34 152.576 34 152.576 34C152.576 34 152.576 34 152.576 34C152.576 34 152.576 34 152.576 34C152.576 34 152.576 34 152.576 34C152.576 34 152.576 34 152.576 34C152.576 34 152.576 34 152.576 34C152.576 34 152.576 34 152.576 34C152.576 34 152.576 34 152.576 34C152.576 34 152.576 34 152.576 34C152.576 34 152.576 34 152.576 34C152.576 34 152.576 34 152.576 34C152.576 34 152.576 34 152.576 34C152.576 34 152.576 34 152.576 34C152.576 34 152.576 34 152.576 34C152.576 34 152.576 34 152.576 34C152.576 34 152.576 34 152.576 34C152.576 34 152.576 34 152.576 34C152.576 34 152.576 34 152.576 34C152.576 34 152.576 34 152.576 34C152.576 34 152.576 34 152.576 34C152.576 34 152.576 34 152.576 34C152.576 34 152.576 34 152.576 34C152.576 34 152.576 34 152.576 34C152.576 34 152.576 34 152.576 34C152.576 34 152.576 34 152.576 34C152.576 34 152.576 34 152.576 34C152.576 34 152.576 34 152.576 34C152.576 34 152.576 34 152.576 34C152.576 34 152.576 34 152.576 34C152.576 34 152.576 34 152.576 34C152.576 34 152.576 34 152.576 34C152.576 34 152.576 34 152.576 34C152.576 34 152.576 34 152.576 34C152.576 34 152.576 34 152.576 34C152.576 34 152.576 34 152.576 34C152.576 34 152.576 34 152.576 34C152.576 34 152.576 34 152.576 34C152.576 34 152.576 34 152.576 34C152.576 34 152.576 34 152.576 34C152.576 34 152.576 34 152.576 34C152.576 34 152.576 34 152.576 34C152.576 34 152.576 34 152.576 34C152.576 34 152.576 34 152.576 34C152.576 34 152.576 34 152.576 34C152.576 34 152.576 34 152.576 34C152.576 34 152.576 34 152.576 34C152.576 34 152.576 34 152.576 34C152.576 34 152.576 34 152.576 34C152.576 34 152.576 34 152.576 34C152.576 34 152.576 34 152.576 34C152.576 34 152.576 34 152.576 34C152.576 34 152.576 34 152.576 34C152.576 34 152.576 34 152.576 34C152.576 34 152.576 34 152.576 34C152.576 34 152.576 34 152.576 34C152.576 34 152.576 34 152.576 34C152.576 34 152.576 34 152.576 34C152.576 34 152.576 34 152.576 34C152.576 34 152.576 34 152.576 34C152.576 34 152.576 34 152.576 34C152.576 34 152.576 34 152.576 34C152.576 34 152.576 34 152.576 34C152.576 34 152.576 34 152.576 34C152.576 34 152.576 34 152.576 34C152.576 34 152.576 34 152.576 34C152.576 34 152.576 34 152.576 34C152.576 34 152.576 34 152.576 34C152.576 34 152.576 34 152.576 34C152.576 34 152.576 34 152.576 34C152.576 34 152.576 34 152.576 34C152.576 34 152.576 34 152.576 34C152.576 34 152.576 34 152.576 34C152.576 34 152.576 34 152.576 34C152.576 34 152.576 34 152.576 34C152.576 34 152.576 34 152.576 34C152.576 34 152.576 34 152.576 34C152.576 34 152.576 34 152.576 34C152.576 34 152.576 34 152.576 34C152.576 34 152.576 34 152.576 34C152.576 34 152.575 34 152.575 34C152.575 34 152.575 34 152.575 34C152.575 34 152.575 34 152.575 34C152.575 34 152.575 34 152.575 34C152.575 34 152.575 34 152.575 34C152.575 34 152.575 34 152.575 34C152.575 34 152.575 34 152.575 34C152.575 34 152.575 34 152.575 34C152.575 34 152.575 34 152.575 34C152.575 34 152.575 34 152.575 34C152.575 34 152.575 34 152.575 34C152.575 34 152.575 34 152.575 34C152.575 34 152.575 34 152.575 34C152.575 34 152.575 34 152.575 34C152.575 34 152.575 34 152.575 34C152.575 34 152.575 34 152.575 34C152.575 34 152.575 34 152.575 34C152.575 34 152.575 34 152.575 34C152.575 34 152.575 34 152.575 34C152.575 34 152.575 34 152.575 34C152.575 34 152.575 34 152.575 34C152.575 34 152.575 34 152.575 34C152.575 34 152.575 34 152.575 34C152.575 34 152.575 34 152.575 34C152.575 34 152.575 34 152.575 34C152.575 34 152.575 34 152.575 34C152.575 34 152.575 34 152.575 34C152.575 34 152.575 34 152.575 34C152.575 34 152.575 34 152.575 34C152.575 34 152.575 34 152.575 34C152.575 34 152.575 34 152.575 34C152.575 34 152.575 34 152.575 34C152.575 34 152.575 34 152.575 34C152.575 34 152.575 34 152.575 34C152.575 34 152.575 34 152.575 34C152.575 34 152.575 34 152.575 34C152.575 34 152.575 34 152.575 34C152.575 34 152.575 34 152.575 34C152.575 34 152.575 34 152.575 34C152.575 34 152.575 34 152.575 34C152.575 34 152.575 34 152.575 34C152.575 34 152.575 34 152.575 34C152.575 34 152.575 34 152.575 34C152.575 34 152.575 34 152.575 34C152.575 34 152.575 34 152.575 34C152.575 34 152.575 34 152.575 34C152.575 34 152.575 34 152.575 34C152.575 34 152.575 34 152.575 34C152.575 34 152.575 34 152.575 34C152.575 34 152.575 34 152.575 34C152.575 34 152.575 34 152.575 34C152.575 34 152.575 34 152.575 34C152.575 34 152.575 34 152.575 34C152.575 34 152.575 34 152.575 34C152.575 34 152.575 34 152.575 34C152.575 34 152.575 34 152.575 34C152.575 34 152.575 34 152.575 34C152.575 34 152.575 34 152.575 34C152.575 34 152.575 34 152.575 34C152.575 34 152.575 34 152.575 34C152.575 34 152.575 34 152.575 34C152.575 34 152.575 34 152.575 34C152.575 34 152.575 34 152.575 34C152.575 34 152.575 34 152.575 34C152.575 34 152.575 34 152.575 34C152.575 34 152.575 34 152.575 34C152.575 34 152.575 34 152.575 34C152.575 34 152.575 34 152.575 34C152.575 34 152.575 34 152.575 34C152.575 34 152.575 34 152.575 34C152.575 34 152.575 34 152.575 34C152.575 34 152.575 34 152.575 34C152.575 34 152.575 34 152.575 34C152.575 34 152.575 34 152.575 34C152.575 34 152.575 34 152.575 34C152.575 34 152.575 34 152.575 34C152.575 34 152.575 34 152.575 34C152.575 34 152.575 34 152.575 34C152.575 34 152.575 34 152.575 34C152.575 34 152.575 34 152.575 34C152.575 34 152.575 34 152.575 34C152.575 34 152.575 34 152.575 34C152.575 34 152.575 34 152.575 34C152.575 34 152.575 34 152.575 34C152.575 34 152.575 34 152.575 34C152.575 34 152.575 34 152.575 34C152.575 34 152.575 34 152.575 34C152.575 34 152.575 34 152.575 34C152.575 34 152.575 34 152.575 34C152.575 34 152.575 34 152.575 34C152.575 34 152.575 34 152.575 34C152.575 34 152.575 34 152.575 34C152.575 34 152.575 34 152.575 34C152.575 34 152.575 34 152.575 34C152.575 34 152.575 34 152.575 34C152.575 34 152.575 34 152.575 34C152.575 34 152.575 34 152.575 34C152.575 34 152.575 34 152.575 34C152.575 34 152.575 34 152.575 34C152.575 34 152.575 34 152.575 34C152.575 34 152.575 34 152.575 34C152.575 34 152.575 34 152.575 34C152.575 34 152.575 34 152.575 34C152.575 34 152.575 34 152.575 34C152.575 34 152.575 34 152.575 34C152.575 34 152.575 34 152.575 34C152.575 34 152.575 34 152.575 34C152.575 34 152.575 34 152.575 34C152.575 34 152.575 34 152.575 34C152.575 34 152.575 34 152.575 34C152.575 34 152.575 34 152.575 34V28C152.575 28 152.575 28 152.575 28C152.575 28 152.575 28 152.575 28C152.575 28 152.575 28 152.575 28C152.575 28 152.575 28 152.575 28C152.575 28 152.575 28 152.575 28C152.575 28 152.575 28 152.575 28C152.575 28 152.575 28 152.575 28C152.575 28 152.575 28 152.575 28C152.575 28 152.575 28 152.575 28C152.575 28 152.575 28 152.575 28C152.575 28 152.575 28 152.575 28C152.575 28 152.575 28 152.575 28C152.575 28 152.575 28 152.575 28C152.575 28 152.575 28 152.575 28C152.575 28 152.575 28 152.575 28C152.575 28 152.575 28 152.575 28C152.575 28 152.575 28 152.575 28C152.575 28 152.575 28 152.575 28C152.575 28 152.575 28 152.575 28C152.575 28 152.575 28 152.575 28C152.575 28 152.575 28 152.575 28C152.575 28 152.575 28 152.575 28C152.575 28 152.575 28 152.575 28C152.575 28 152.575 28 152.575 28C152.575 28 152.575 28 152.575 28C152.575 28 152.575 28 152.575 28C152.575 28 152.575 28 152.575 28C152.575 28 152.575 28 152.575 28C152.575 28 152.575 28 152.575 28C152.575 28 152.575 28 152.575 28C152.575 28 152.575 28 152.575 28C152.575 28 152.575 28 152.575 28C152.575 28 152.575 28 152.575 28C152.575 28 152.575 28 152.575 28C152.575 28 152.575 28 152.575 28C152.575 28 152.575 28 152.575 28C152.575 28 152.575 28 152.575 28C152.575 28 152.575 28 152.575 28C152.575 28 152.575 28 152.575 28C152.575 28 152.575 28 152.575 28C152.575 28 152.575 28 152.575 28C152.575 28 152.575 28 152.575 28C152.575 28 152.575 28 152.575 28C152.575 28 152.575 28 152.575 28C152.575 28 152.575 28 152.575 28C152.575 28 152.575 28 152.575 28C152.575 28 152.575 28 152.575 28C152.575 28 152.575 28 152.575 28C152.575 28 152.575 28 152.575 28C152.575 28 152.575 28 152.575 28C152.575 28 152.575 28 152.575 28C152.575 28 152.575 28 152.575 28C152.575 28 152.575 28 152.575 28C152.575 28 152.575 28 152.575 28C152.575 28 152.575 28 152.575 28C152.575 28 152.575 28 152.575 28C152.575 28 152.575 28 152.575 28C152.575 28 152.575 28 152.575 28C152.575 28 152.575 28 152.575 28C152.575 28 152.575 28 152.575 28C152.575 28 152.575 28 152.575 28C152.575 28 152.575 28 152.575 28C152.575 28 152.575 28 152.575 28C152.575 28 152.575 28 152.575 28C152.575 28 152.575 28 152.575 28C152.575 28 152.575 28 152.575 28C152.575 28 152.575 28 152.575 28C152.575 28 152.575 28 152.575 28C152.575 28 152.575 28 152.575 28C152.575 28 152.575 28 152.575 28C152.575 28 152.575 28 152.575 28C152.575 28 152.575 28 152.575 28C152.575 28 152.575 28 152.575 28C152.575 28 152.575 28 152.575 28C152.575 28 152.575 28 152.575 28C152.575 28 152.575 28 152.575 28C152.575 28 152.575 28 152.575 28C152.575 28 152.575 28 152.575 28C152.575 28 152.575 28 152.575 28C152.575 28 152.575 28 152.575 28C152.575 28 152.575 28 152.575 28C152.575 28 152.575 28 152.575 28C152.575 28 152.575 28 152.575 28C152.575 28 152.575 28 152.575 28C152.575 28 152.575 28 152.575 28C152.575 28 152.575 28 152.575 28C152.575 28 152.575 28 152.575 28C152.575 28 152.575 28 152.575 28C152.575 28 152.575 28 152.575 28C152.575 28 152.575 28 152.575 28C152.575 28 152.575 28 152.575 28C152.575 28 152.575 28 152.575 28C152.575 28 152.575 28 152.575 28C152.575 28 152.575 28 152.575 28C152.575 28 152.575 28 152.575 28C152.575 28 152.575 28 152.575 28C152.575 28 152.575 28 152.575 28C152.575 28 152.575 28 152.575 28C152.575 28 152.575 28 152.575 28C152.575 28 152.575 28 152.575 28C152.575 28 152.575 28 152.575 28C152.575 28 152.575 28 152.575 28C152.575 28 152.575 28 152.575 28C152.575 28 152.575 28 152.575 28C152.575 28 152.575 28 152.575 28C152.575 28 152.575 28 152.575 28C152.575 28 152.575 28 152.575 28C152.575 28 152.575 28 152.575 28C152.575 28 152.575 28 152.575 28C152.575 28 152.575 28 152.575 28C152.575 28 152.576 28 152.576 28C152.576 28 152.576 28 152.576 28C152.576 28 152.576 28 152.576 28C152.576 28 152.576 28 152.576 28C152.576 28 152.576 28 152.576 28C152.576 28 152.576 28 152.576 28C152.576 28 152.576 28 152.576 28C152.576 28 152.576 28 152.576 28C152.576 28 152.576 28 152.576 28C152.576 28 152.576 28 152.576 28C152.576 28 152.576 28 152.576 28C152.576 28 152.576 28 152.576 28C152.576 28 152.576 28 152.576 28C152.576 28 152.576 28 152.576 28C152.576 28 152.576 28 152.576 28C152.576 28 152.576 28 152.576 28C152.576 28 152.576 28 152.576 28C152.576 28 152.576 28 152.576 28C152.576 28 152.576 28 152.576 28C152.576 28 152.576 28 152.576 28C152.576 28 152.576 28 152.576 28C152.576 28 152.576 28 152.576 28C152.576 28 152.576 28 152.576 28C152.576 28 152.576 28 152.576 28C152.576 28 152.576 28 152.576 28C152.576 28 152.576 28 152.576 28C152.576 28 152.576 28 152.576 28C152.576 28 152.576 28 152.576 28C152.576 28 152.576 28 152.576 28C152.576 28 152.576 28 152.576 28C152.576 28 152.576 28 152.576 28C152.576 28 152.576 28 152.576 28C152.576 28 152.576 28 152.576 28C152.576 28 152.576 28 152.576 28C152.576 28 152.576 28 152.576 28C152.576 28 152.576 28 152.576 28C152.576 28 152.576 28 152.576 28C152.576 28 152.576 28 152.576 28C152.576 28 152.576 28 152.576 28C152.576 28 152.576 28 152.576 28C152.576 28 152.576 28 152.576 28C152.576 28 152.576 28 152.576 28C152.576 28 152.576 28 152.576 28C152.576 28 152.576 28 152.576 28C152.576 28 152.576 28 152.576 28C152.576 28 152.576 28 152.576 28C152.576 28 152.576 28 152.576 28C152.576 28 152.576 28 152.576 28C152.576 28 152.576 28 152.576 28C152.576 28 152.576 28 152.576 28C152.576 28 152.576 28 152.576 28C152.576 28 152.576 28 152.576 28C152.576 28 152.576 28 152.576 28C152.576 28 152.576 28 152.576 28C152.576 28 152.576 28 152.576 28C152.576 28 152.576 28 152.576 28C152.576 28 152.576 28 152.576 28C152.576 28 152.576 28 152.576 28C152.576 28 152.576 28 152.576 28C152.576 28 152.576 28 152.576 28C152.576 28 152.576 28 152.576 28C152.576 28 152.576 28 152.576 28C152.576 28 152.576 28 152.576 28C152.576 28 152.576 28 152.576 28C152.576 28 152.576 28 152.576 28C152.576 28 152.576 28 152.576 28C152.576 28 152.576 28 152.576 28C152.576 28 152.576 28 152.576 28C152.576 28 152.576 28 152.576 28C152.576 28 152.576 28 152.576 28C152.576 28 152.576 28 152.576 28C152.576 28 152.576 28 152.576 28C152.576 28 152.576 28 152.576 28C152.576 28 152.576 28 152.576 28C152.576 28 152.576 28 152.576 28C152.576 28 152.576 28 152.576 28C152.576 28 152.576 28 152.576 28C152.576 28 152.576 28 152.576 28C152.576 28 152.576 28 152.576 28C152.576 28 152.576 28 152.576 28C152.576 28 152.576 28 152.576 28C152.576 28 152.576 28 152.576 28C152.576 28 152.576 28 152.576 28C152.576 28 152.576 28 152.576 28C152.576 28 152.576 28 152.576 28C152.576 28 152.576 28 152.576 28C152.576 28 152.576 28 152.576 28C152.576 28 152.576 28 152.576 28C152.576 28 152.576 28 152.576 28C152.576 28 152.576 28 152.576 28C152.576 28 152.576 28 152.576 28C152.576 28 152.576 28 152.576 28C152.576 28 152.576 28 152.576 28C152.576 28 152.576 28 152.576 28C152.576 28 152.576 28 152.576 28C152.576 28 152.576 28 152.576 28C152.576 28 152.576 28 152.576 28C152.576 28 152.576 28 152.576 28C152.576 28 152.576 28 152.576 28C152.576 28 152.576 28 152.576 28C152.576 28 152.576 28 152.576 28C152.576 28 152.576 28 152.576 28C152.576 28 152.576 28 152.576 28C152.576 28 152.576 28 152.576 28C152.576 28 152.576 28 152.576 28C152.576 28 152.576 28 152.576 28C152.576 28 152.576 28 152.576 28C152.576 28 152.576 28 152.576 28C152.576 28 152.576 28 152.576 28C152.576 28 152.576 28 152.576 28C152.576 28 152.576 28 152.576 28C152.576 28 152.576 28 152.576 28C152.576 28 152.576 28 152.576 28C152.576 28 152.576 28 152.576 28C152.576 28 152.576 28 152.576 28C152.576 28 152.576 28 152.576 28C152.576 28 152.576 28 152.576 28C152.576 28 152.576 28 152.576 28C152.576 28 152.576 28 152.576 28C152.576 28 152.576 28 152.576 28C152.576 28 152.576 28 152.576 28C152.576 28 152.576 28 152.576 28C152.576 28 152.576 28 152.576 28C152.576 28 152.576 28 152.576 28C152.576 28 152.576 28 152.576 28C152.576 28 152.576 28 152.576 28C152.576 28 152.576 28 152.576 28C152.576 28 152.576 28 152.576 28C152.576 28 152.576 28 152.576 28C152.576 28 152.576 28 152.576 28C152.576 28 152.576 28 152.576 28C152.576 28 152.576 28 152.576 28C152.576 28 152.576 28 152.576 28C152.576 28 152.576 28 152.576 28C152.576 28 152.576 28 152.576 28C152.576 28 152.576 28 152.576 28C152.576 28 152.576 28 152.576 28C152.576 28 152.576 28 152.576 28C152.576 28 152.576 28 152.576 28C152.576 28 152.576 28 152.576 28C152.576 28 152.576 28 152.576 28C152.576 28 152.576 28 152.576 28C152.576 28 152.576 28 152.576 28C152.576 28 152.576 28 152.576 28C152.576 28 152.576 28 152.576 28C152.576 28 152.576 28 152.576 28C152.576 28 152.576 28 152.576 28C152.576 28 152.576 28 152.576 28C152.576 28 152.576 28 152.576 28C152.576 28 152.576 28 152.576 28C152.576 28 152.576 28 152.576 28C152.576 28 152.576 28 152.576 28C152.576 28 152.576 28 152.576 28C152.576 28 152.576 28 152.576 28C152.576 28 152.576 28 152.576 28C152.576 28 152.576 28 152.576 28C152.576 28 152.576 28 152.576 28C152.576 28 152.576 28 152.576 28C152.576 28 152.576 28 152.576 28C152.576 28 152.576 28 152.576 28C152.576 28 152.576 28 152.576 28C152.576 28 152.576 28 152.576 28C152.576 28 152.576 28 152.576 28C152.576 28 152.576 28 152.576 28C152.576 28 152.576 28 152.576 28C152.576 28 152.576 28 152.576 28C152.576 28 152.576 28 152.576 28C152.576 28 152.576 28 152.576 28C152.576 28 152.576 28 152.576 28C152.576 28 152.576 28 152.576 28C152.576 28 152.576 28 152.576 28C152.576 28 152.576 28 152.576 28C152.576 28 152.576 28 152.576 28C152.576 28 152.576 28 152.576 28C152.576 28 152.576 28 152.576 28C152.576 28 152.576 28 152.576 28C152.576 28 152.576 28 152.576 28C152.576 28 152.576 28 152.576 28C152.576 28 152.576 28 152.576 28C152.576 28 152.576 28 152.576 28C152.576 28 152.576 28 152.576 28C152.576 28 152.576 28 152.576 28C152.576 28 152.576 28 152.576 28C152.576 28 152.576 28 152.576 28C152.576 28 152.576 28 152.576 28C152.576 28 152.576 28 152.576 28C152.576 28 152.576 28 152.576 28C152.576 28 152.576 28 152.576 28C152.576 28 152.576 28 152.576 28C152.576 28 152.576 28 152.576 28C152.576 28 152.576 28 152.576 28C152.576 28 152.576 28 152.576 28C152.576 28 152.576 28 152.576 28C152.576 28 152.576 28 152.576 28C152.576 28 152.576 28 152.576 28C152.576 28 152.576 28 152.576 28C152.576 28 152.576 28 152.576 28C152.576 28 152.576 28 152.576 28C152.576 28 152.576 28 152.576 28C152.576 28 152.576 28 152.576 28C152.576 28 152.576 28 152.576 28C152.576 28 152.576 28 152.576 28C152.576 28 152.576 28 152.576 28C152.576 28 152.576 28 152.576 28C152.576 28 152.576 28 152.576 28C152.576 28 152.576 28 152.576 28C152.576 28 152.576 28 152.576 28C152.576 28 152.576 28 152.576 28C152.576 28 152.576 28 152.576 28C152.576 28 152.576 28 152.576 28C152.576 28 152.576 28 152.576 28C152.576 28 152.576 28 152.576 28C152.576 28 152.576 28 152.576 28C152.576 28 152.576 28 152.576 28C152.576 28 152.576 28 152.576 28C152.576 28 152.576 28 152.576 28C152.576 28 152.576 28 152.576 28C152.576 28 152.576 28 152.576 28C152.576 28 152.576 28 152.576 28C152.576 28 152.576 28 152.576 28C152.576 28 152.576 28 152.576 28C152.576 28 152.576 28 152.576 28C152.576 28 152.576 28 152.576 28C152.576 28 152.576 28 152.576 28C152.576 28 152.576 28 152.576 28C152.576 28 152.576 28 152.576 28C152.576 28 152.576 28 152.576 28C152.576 28 152.576 28 152.576 28C152.576 28 152.576 28 152.576 28C152.576 28 152.576 28 152.576 28C152.576 28 152.576 28 152.576 28C152.576 28 152.576 28 152.576 28C152.576 28 152.576 28 152.576 28C152.576 28 152.576 28 152.576 28C152.576 28 152.576 28 152.576 28C152.576 28 152.576 28 152.576 28C152.576 28 152.576 28 152.576 28C152.576 28 152.576 28 152.576 28C152.576 28 152.576 28 152.576 28C152.576 28 152.576 28 152.576 28C152.576 28 152.576 28 152.576 28C152.576 28 152.576 28 152.576 28C152.576 28 152.576 28 152.576 28C152.576 28 152.576 28 152.576 28C152.576 28 152.576 28 152.576 28C152.576 28 152.576 28 152.576 28C152.576 28 152.576 28 152.576 28C152.576 28 152.576 28 152.576 28C152.576 28 152.576 28 152.576 28C152.576 28 152.576 28 152.576 28C152.576 28 152.576 28 152.576 28C152.576 28 152.576 28 152.576 28C152.576 28 152.576 28 152.576 28C152.576 28 152.576 28 152.576 28C152.576 28 152.576 28 152.576 28C152.576 28 152.576 28 152.576 28C152.576 28 152.576 28 152.576 28C152.576 28 152.576 28 152.576 28C152.576 28 152.576 28 152.576 28C152.576 28 152.576 28 152.576 28C152.576 28 152.576 28 152.576 28C152.576 28 152.576 28 152.576 28C152.576 28 152.576 28 152.576 28C152.576 28 152.576 28 152.576 28C152.576 28 152.576 28 152.576 28C152.576 28 152.576 28 152.576 28C152.576 28 152.576 28 152.576 28C152.576 28 152.576 28 152.576 28C152.576 28 152.576 28 152.576 28C152.576 28 152.576 28 152.576 28C152.576 28 152.576 28 152.576 28C152.576 28 152.576 28 152.576 28C152.576 28 152.576 28 152.576 28C152.576 28 152.576 28 152.576 28C152.576 28 152.576 28 152.576 28C152.576 28 152.576 28 152.576 28C152.576 28 152.576 28 152.576 28C152.576 28 152.576 28 152.576 28C152.576 28 152.576 28 152.576 28C152.576 28 152.576 28 152.576 28C152.576 28 152.576 28 152.576 28C152.576 28 152.576 28 152.576 28C152.576 28 152.576 28 152.576 28C152.576 28 152.576 28 152.576 28C152.576 28 152.576 28 152.576 28C152.576 28 152.576 28 152.576 28C152.576 28 152.576 28 152.576 28C152.576 28 152.576 28 152.576 28C152.576 28 152.576 28 152.576 28C152.576 28 152.576 28 152.576 28C152.576 28 152.576 28 152.576 28C152.576 28 152.576 28 152.576 28C152.576 28 152.576 28 152.576 28C152.576 28 152.576 28 152.576 28C152.576 28 152.576 28 152.576 28C152.576 28 152.576 28 152.576 28C152.576 28 152.576 28 152.576 28C152.576 28 152.576 28 152.576 28C152.576 28 152.576 28 152.576 28C152.576 28 152.576 28 152.576 28C152.576 28 152.576 28 152.576 28C152.576 28 152.576 28 152.576 28C152.576 28 152.576 28 152.576 28C152.576 28 152.576 28 152.576 28C152.576 28 152.576 28 152.576 28C152.576 28 152.576 28 152.576 28C152.576 28 152.576 28 152.576 28C152.576 28 152.576 28 152.576 28C152.576 28 152.576 28 152.576 28C152.576 28 152.576 28 152.576 28C152.576 28 152.576 28 152.576 28C152.576 28 152.576 28 152.576 28C152.576 28 152.576 28 152.576 28C152.576 28 152.576 28 152.576 28C152.576 28 152.576 28 152.576 28C152.576 28 152.576 28 152.576 28C152.576 28 152.576 28 152.576 28C152.576 28 152.576 28 152.576 28C152.576 28 152.576 28 152.576 28C152.576 28 152.576 28 152.576 28C152.576 28 152.576 28 152.576 28C152.576 28 152.576 28 152.576 28C152.576 28 152.576 28 152.576 28C152.576 28 152.576 28 152.576 28C152.576 28 152.576 28 152.576 28C152.576 28 152.576 28 152.576 28C152.576 28 152.576 28 152.576 28C152.576 28 152.576 28 152.576 28C152.576 28 152.576 28 152.576 28C152.576 28 152.576 28 152.576 28C152.576 28 152.576 28 152.576 28C152.576 28 152.576 28 152.576 28C152.576 28 152.576 28 152.576 28C152.576 28 152.576 28 152.576 28C152.576 28 152.576 28 152.576 28C152.576 28 152.576 28 152.576 28C152.576 28 152.576 28 152.576 28C152.576 28 152.576 28 152.576 28C152.576 28 152.576 28 152.576 28C152.576 28 152.576 28 152.576 28C152.576 28 152.576 28 152.576 28C152.576 28 152.576 28 152.576 28C152.576 28 152.576 28 152.576 28C152.576 28 152.576 28 152.576 28C152.576 28 152.576 28 152.576 28C152.576 28 152.576 28 152.576 28C152.576 28 152.576 28 152.576 28C152.576 28 152.576 28 152.576 28C152.576 28 152.576 28 152.576 28C152.576 28 152.576 28 152.576 28C152.576 28 152.576 28 152.576 28C152.576 28 152.576 28 152.576 28C152.576 28 152.576 28 152.576 28C152.576 28 152.576 28 152.576 28C152.576 28 152.576 28 152.576 28C152.576 28 152.576 28 152.576 28C152.576 28 152.576 28 152.576 28C152.576 28 152.576 28 152.576 28C152.576 28 152.576 28 152.576 28C152.576 28 152.576 28 152.576 28C152.576 28 152.576 28 152.576 28C152.576 28 152.576 28 152.576 28C152.576 28 152.576 28 152.576 28C152.576 28 152.576 28 152.576 28C152.576 28 152.576 28 152.576 28C152.576 28 152.576 28 152.576 28C152.576 28 152.576 28 152.576 28C152.576 28 152.576 28 152.576 28C152.576 28 152.576 28 152.576 28C152.576 28 152.576 28 152.576 28C152.576 28 152.576 28 152.576 28C152.576 28 152.576 28 152.576 28C152.576 28 152.576 28 152.576 28C152.576 28 152.576 28 152.576 28C152.576 28 152.576 28 152.576 28C152.576 28 152.576 28 152.576 28C152.576 28 152.576 28 152.576 28C152.576 28 152.576 28 152.576 28C152.576 28 152.576 28 152.576 28C152.576 28 152.576 28 152.576 28C152.576 28 152.576 28 152.576 28C152.576 28 152.576 28 152.576 28C152.576 28 152.576 28 152.576 28C152.576 28 152.576 28 152.576 28C152.576 28 152.576 28 152.576 28C152.576 28 152.576 28 152.576 28C152.576 28 152.576 28 152.576 28C152.576 28 152.576 28 152.576 28C152.576 28 152.576 28 152.576 28C152.576 28 152.576 28 152.576 28C152.576 28 152.576 28 152.576 28C152.576 28 152.576 28 152.576 28C152.576 28 152.576 28 152.576 28C152.576 28 152.576 28 152.576 28C152.576 28 152.576 28 152.576 28C152.576 28 152.576 28 152.576 28C152.576 28 152.576 28 152.576 28C152.576 28 152.576 28 152.576 28C152.576 28 152.576 28 152.576 28C152.576 28 152.576 28 152.576 28C152.576 28 152.576 28 152.576 28C152.576 28 152.576 28 152.576 28V34Z" fill="black" mask="url(#path-1-inside-1_737_224)"/>
<path d="M169.226 79.4087C169.226 92.7236 170.071 104.745 171.427 113.407C172.106 117.75 172.904 121.181 173.76 123.493C174.19 124.657 174.604 125.449 174.966 125.923C175.121 126.125 175.234 126.229 175.301 126.28C175.369 126.229 175.482 126.125 175.637 125.923C175.999 125.449 176.413 124.657 176.843 123.493C177.699 121.181 178.497 117.75 179.176 113.407C180.532 104.745 181.377 92.7236 181.377 79.4087C181.377 66.0939 180.532 54.0729 179.176 45.4105C178.497 41.0675 177.699 37.6366 176.843 35.3247C176.413 34.1602 175.999 33.3681 175.637 32.8947C175.482 32.6923 175.369 32.5887 175.301 32.5373C175.234 32.5887 175.121 32.6923 174.966 32.8947C174.604 33.3681 174.19 34.1602 173.76 35.3247C172.904 37.6366 172.106 41.0675 171.427 45.4105C170.071 54.0729 169.226 66.0939 169.226 79.4087ZM175.378 126.328C175.378 126.327 175.377 126.327 175.374 126.326C175.377 126.327 175.378 126.328 175.378 126.328ZM175.229 126.326C175.226 126.327 175.225 126.327 175.225 126.328C175.225 126.328 175.226 126.327 175.229 126.326ZM175.225 32.4899C175.225 32.49 175.226 32.4906 175.229 32.4915C175.226 32.4903 175.225 32.4898 175.225 32.4899ZM175.374 32.4915C175.377 32.4906 175.378 32.49 175.378 32.4899C175.378 32.4898 175.377 32.4903 175.374 32.4915Z" fill="white" stroke="black" stroke-width="3"/>
<path d="M298.499 72H176.999V88H271.999H359.999H1315C1319.42 88 1323 84.4183 1323 80C1323 75.5817 1319.42 72 1315 72H749.999H462.999H385.499H298.499Z" fill="white" stroke="black" stroke-width="2"/>
<line y1="-0.5" x2="17" y2="-0.5" transform="matrix(0 1 1 0 1283 73)" stroke="black"/>
<line y1="-0.5" x2="17" y2="-0.5" transform="matrix(0 1 1 0 1242 73)" stroke="black"/>
<line y1="-0.5" x2="17" y2="-0.5" transform="matrix(0 1 1 0 1201 73)" stroke="black"/>
<line y1="-0.5" x2="17" y2="-0.5" transform="matrix(0 1 1 0 1160 73)" stroke="black"/>
<line y1="-0.5" x2="17" y2="-0.5" transform="matrix(0 1 1 0 1119 73)" stroke="black"/>
<line y1="-0.5" x2="17" y2="-0.5" transform="matrix(0 1 1 0 1078 73)" stroke="black"/>
<line y1="-0.5" x2="17" y2="-0.5" transform="matrix(0 1 1 0 1037 73)" stroke="black"/>
<line y1="-0.5" x2="17" y2="-0.5" transform="matrix(0 1 1 0 995.999 73)" stroke="black"/>
<line y1="-0.5" x2="17" y2="-0.5" transform="matrix(0 1 1 0 954.999 73)" stroke="black"/>
<line y1="-0.5" x2="17" y2="-0.5" transform="matrix(0 1 1 0 913.999 73)" stroke="black"/>
<line y1="-0.5" x2="17" y2="-0.5" transform="matrix(0 1 1 0 872.999 73)" stroke="black"/>
<line y1="-0.5" x2="17" y2="-0.5" transform="matrix(0 1 1 0 831.999 73)" stroke="black"/>
<line y1="-0.5" x2="17" y2="-0.5" transform="matrix(0 1 1 0 790.999 73)" stroke="black"/>
<line y1="-0.5" x2="17" y2="-0.5" transform="matrix(0 1 1 0 749.999 73)" stroke="black"/>
<line y1="-0.5" x2="17" y2="-0.5" transform="matrix(0 1 1 0 708.999 73)" stroke="black"/>
<line y1="-0.5" x2="17" y2="-0.5" transform="matrix(0 1 1 0 667.999 73)" stroke="black"/>
<line y1="-0.5" x2="17" y2="-0.5" transform="matrix(0 1 1 0 626.999 73)" stroke="black"/>
<line y1="-0.5" x2="17" y2="-0.5" transform="matrix(0 1 1 0 585.999 73)" stroke="black"/>
<line y1="-0.5" x2="17" y2="-0.5" transform="matrix(0 1 1 0 544.999 73)" stroke="black"/>
<line y1="-0.5" x2="17" y2="-0.5" transform="matrix(0 1 1 0 503.999 73)" stroke="black"/>
<line y1="-0.5" x2="17" y2="-0.5" transform="matrix(0 1 1 0 462.999 73)" stroke="black"/>
<line y1="-0.5" x2="17" y2="-0.5" transform="matrix(0 1 1 0 421.999 73)" stroke="black"/>
<line y1="-0.5" x2="17" y2="-0.5" transform="matrix(0 1 1 0 380.999 73)" stroke="black"/>
<line y1="-0.5" x2="17" y2="-0.5" transform="matrix(0 1 1 0 339.999 73)" stroke="black"/>
<line y1="-0.5" x2="17" y2="-0.5" transform="matrix(0 1 1 0 298.999 73)" stroke="black"/>
<line y1="-0.5" x2="17" y2="-0.5" transform="matrix(0 1 1 0 257.999 73)" stroke="black"/>
<line y1="-0.5" x2="17" y2="-0.5" transform="matrix(0 1 1 0 216.999 73)" stroke="black"/>
</svg>
