<svg width="1324" height="378" viewBox="0 0 1324 378" fill="none" xmlns="http://www.w3.org/2000/svg">
<mask id="path-1-inside-1_737_224" fill="white">
<path fill-rule="evenodd" clip-rule="evenodd" d="M1171.42 31H1147.86V127.817H1171.42C1171.42 127.817 1171.42 127.817 1171.42 127.817C1175.61 127.817 1179 106.144 1179 79.4087C1179 52.6735 1175.61 31.0003 1171.42 31C1171.42 31 1171.42 31 1171.42 31Z"/>
</mask>
<path fill-rule="evenodd" clip-rule="evenodd" d="M1171.42 31H1147.86V127.817H1171.42C1171.42 127.817 1171.42 127.817 1171.42 127.817C1175.61 127.817 1179 106.144 1179 79.4087C1179 52.6735 1175.61 31.0003 1171.42 31C1171.42 31 1171.42 31 1171.42 31Z" fill="white"/>
<path d="M1147.86 31V28H1144.86V31H1147.86ZM1147.86 127.817H1144.86V130.817H1147.86V127.817ZM1171.42 127.817L1171.42 130.817L1171.42 130.817L1171.42 127.817ZM1171.42 31L1171.42 28H1171.42V31ZM1147.86 34H1171.42V28H1147.86V34ZM1150.86 127.817V31H1144.86V127.817H1150.86ZM1171.42 124.817H1147.86V130.817H1171.42V124.817ZM1171.42 124.817C1171.42 124.817 1171.42 124.817 1171.42 124.817C1171.42 124.817 1171.42 124.817 1171.42 124.817C1171.42 124.817 1171.42 124.817 1171.42 124.817C1171.42 124.817 1171.42 124.817 1171.42 124.817C1171.42 124.817 1171.42 124.817 1171.42 124.817C1171.42 124.817 1171.42 124.817 1171.42 124.817C1171.42 124.817 1171.42 124.817 1171.42 124.817C1171.42 124.817 1171.42 124.817 1171.42 124.817C1171.42 124.817 1171.42 124.817 1171.42 124.817C1171.42 124.817 1171.42 124.817 1171.42 124.817C1171.42 124.817 1171.42 124.817 1171.42 124.817C1171.42 124.817 1171.42 124.817 1171.42 124.817C1171.42 124.817 1171.42 124.817 1171.42 124.817C1171.42 124.817 1171.42 124.817 1171.42 124.817C1171.42 124.817 1171.42 124.817 1171.42 124.817C1171.42 124.817 1171.42 124.817 1171.42 124.817C1171.42 124.817 1171.42 124.817 1171.42 124.817C1171.42 124.817 1171.42 124.817 1171.42 124.817C1171.42 124.817 1171.42 124.817 1171.42 124.817C1171.42 124.817 1171.42 124.817 1171.42 124.817C1171.42 124.817 1171.42 124.817 1171.42 124.817C1171.42 124.817 1171.42 124.817 1171.42 124.817C1171.42 124.817 1171.42 124.817 1171.42 124.817C1171.42 124.817 1171.42 124.817 1171.42 124.817C1171.42 124.817 1171.42 124.817 1171.42 124.817C1171.42 124.817 1171.42 124.817 1171.42 124.817C1171.42 124.817 1171.42 124.817 1171.42 124.817C1171.42 124.817 1171.42 124.817 1171.42 124.817C1171.42 124.817 1171.42 124.817 1171.42 124.817C1171.42 124.817 1171.42 124.817 1171.42 124.817C1171.42 124.817 1171.42 124.817 1171.42 124.817C1171.42 124.817 1171.42 124.817 1171.42 124.817C1171.42 124.817 1171.42 124.817 1171.42 124.817C1171.42 124.817 1171.42 124.817 1171.42 124.817C1171.42 124.817 1171.42 124.817 1171.42 124.817C1171.42 124.817 1171.42 124.817 1171.42 124.817C1171.42 124.817 1171.42 124.817 1171.42 124.817C1171.42 124.817 1171.42 124.817 1171.42 124.817C1171.42 124.817 1171.42 124.817 1171.42 124.817C1171.42 124.817 1171.42 124.817 1171.42 124.817C1171.42 124.817 1171.42 124.817 1171.42 124.817C1171.42 124.817 1171.42 124.817 1171.42 124.817C1171.42 124.817 1171.42 124.817 1171.42 124.817C1171.42 124.817 1171.42 124.817 1171.42 124.817C1171.42 124.817 1171.42 124.817 1171.42 124.817C1171.42 124.817 1171.42 124.817 1171.42 124.817C1171.42 124.817 1171.42 124.817 1171.42 124.817C1171.42 124.817 1171.42 124.817 1171.42 124.817C1171.42 124.817 1171.42 124.817 1171.42 124.817C1171.42 124.817 1171.42 124.817 1171.42 124.817C1171.42 124.817 1171.42 124.817 1171.42 124.817C1171.42 124.817 1171.42 124.817 1171.42 124.817C1171.42 124.817 1171.42 124.817 1171.42 124.817C1171.42 124.817 1171.42 124.817 1171.42 124.817C1171.42 124.817 1171.42 124.817 1171.42 124.817C1171.42 124.817 1171.42 124.817 1171.42 124.817C1171.42 124.817 1171.42 124.817 1171.42 124.817C1171.42 124.817 1171.42 124.817 1171.42 124.817C1171.42 124.817 1171.42 124.817 1171.42 124.817C1171.42 124.817 1171.42 124.817 1171.42 124.817C1171.42 124.817 1171.42 124.817 1171.42 124.817C1171.42 124.817 1171.42 124.817 1171.42 124.817C1171.42 124.817 1171.42 124.817 1171.42 124.817C1171.42 124.817 1171.42 124.817 1171.42 124.817C1171.42 124.817 1171.42 124.817 1171.42 124.817C1171.42 124.817 1171.42 124.817 1171.42 124.817C1171.42 124.817 1171.42 124.817 1171.42 124.817C1171.42 124.817 1171.42 124.817 1171.42 124.817C1171.42 124.817 1171.42 124.817 1171.42 124.817C1171.42 124.817 1171.42 124.817 1171.42 124.817C1171.42 124.817 1171.42 124.817 1171.42 124.817C1171.42 124.817 1171.42 124.817 1171.42 124.817C1171.42 124.817 1171.42 124.817 1171.42 124.817C1171.42 124.817 1171.42 124.817 1171.42 124.817C1171.42 124.817 1171.42 124.817 1171.42 124.817C1171.42 124.817 1171.42 124.817 1171.42 124.817C1171.42 124.817 1171.42 124.817 1171.42 124.817C1171.42 124.817 1171.42 124.817 1171.42 124.817C1171.42 124.817 1171.42 124.817 1171.42 124.817C1171.42 124.817 1171.42 124.817 1171.42 124.817C1171.42 124.817 1171.42 124.817 1171.42 124.817C1171.42 124.817 1171.42 124.817 1171.42 124.817C1171.42 124.817 1171.42 124.817 1171.42 124.817C1171.42 124.817 1171.42 124.817 1171.42 124.817C1171.42 124.817 1171.42 124.817 1171.42 124.817C1171.42 124.817 1171.42 124.817 1171.42 124.817C1171.42 124.817 1171.42 124.817 1171.42 124.817C1171.42 124.817 1171.42 124.817 1171.42 124.817C1171.42 124.817 1171.42 124.817 1171.42 124.817C1171.42 124.817 1171.42 124.817 1171.42 124.817C1171.42 124.817 1171.42 124.817 1171.42 124.817C1171.42 124.817 1171.42 124.817 1171.42 124.817C1171.42 124.817 1171.42 124.817 1171.42 124.817C1171.42 124.817 1171.42 124.817 1171.42 124.817C1171.42 124.817 1171.42 124.817 1171.42 124.817C1171.42 124.817 1171.42 124.817 1171.42 124.817C1171.42 124.817 1171.42 124.817 1171.42 124.817C1171.42 124.817 1171.42 124.817 1171.42 124.817C1171.42 124.817 1171.42 124.817 1171.42 124.817C1171.42 124.817 1171.42 124.817 1171.42 124.817C1171.42 124.817 1171.42 124.817 1171.42 124.817C1171.42 124.817 1171.42 124.817 1171.42 124.817C1171.42 124.817 1171.42 124.817 1171.42 124.817C1171.42 124.817 1171.42 124.817 1171.42 124.817C1171.42 124.817 1171.42 124.817 1171.42 124.817C1171.42 124.817 1171.42 124.817 1171.42 124.817C1171.42 124.817 1171.42 124.817 1171.42 124.817C1171.42 124.817 1171.42 124.817 1171.42 124.817C1171.42 124.817 1171.42 124.817 1171.42 124.817C1171.42 124.817 1171.42 124.817 1171.42 124.817C1171.42 124.817 1171.42 124.817 1171.42 124.817C1171.42 124.817 1171.42 124.817 1171.42 124.817C1171.42 124.817 1171.42 124.817 1171.42 124.817C1171.42 124.817 1171.42 124.817 1171.42 124.817C1171.42 124.817 1171.42 124.817 1171.42 124.817C1171.42 124.817 1171.42 124.817 1171.42 124.817C1171.42 124.817 1171.42 124.817 1171.42 124.817C1171.42 124.817 1171.42 124.817 1171.42 124.817C1171.42 124.817 1171.42 124.817 1171.42 124.817C1171.42 124.817 1171.42 124.817 1171.42 124.817C1171.42 124.817 1171.42 124.817 1171.42 124.817C1171.42 124.817 1171.42 124.817 1171.42 124.817C1171.42 124.817 1171.42 124.817 1171.42 124.817C1171.42 124.817 1171.42 124.817 1171.42 124.817C1171.42 124.817 1171.42 124.817 1171.42 124.817C1171.42 124.817 1171.42 124.817 1171.42 124.817C1171.42 124.817 1171.42 124.817 1171.42 124.817C1171.42 124.817 1171.42 124.817 1171.42 124.817C1171.42 124.817 1171.42 124.817 1171.42 124.817C1171.42 124.817 1171.42 124.817 1171.42 124.817C1171.42 124.817 1171.42 124.817 1171.42 124.817C1171.42 124.817 1171.42 124.817 1171.42 124.817C1171.42 124.817 1171.42 124.817 1171.42 124.817C1171.42 124.817 1171.42 124.817 1171.42 124.817C1171.42 124.817 1171.42 124.817 1171.42 124.817C1171.42 124.817 1171.42 124.817 1171.42 124.817C1171.42 124.817 1171.42 124.817 1171.42 124.817C1171.42 124.817 1171.42 124.817 1171.42 124.817C1171.42 124.817 1171.42 124.817 1171.42 124.817C1171.42 124.817 1171.42 124.817 1171.42 124.817C1171.42 124.817 1171.42 124.817 1171.42 124.817C1171.42 124.817 1171.42 124.817 1171.42 124.817C1171.42 124.817 1171.42 124.817 1171.42 124.817C1171.42 124.817 1171.42 124.817 1171.42 124.817C1171.42 124.817 1171.42 124.817 1171.42 124.817C1171.42 124.817 1171.42 124.817 1171.42 124.817C1171.42 124.817 1171.42 124.817 1171.42 124.817C1171.42 124.817 1171.42 124.817 1171.42 124.817C1171.42 124.817 1171.42 124.817 1171.42 124.817C1171.42 124.817 1171.42 124.817 1171.42 124.817C1171.42 124.817 1171.42 124.817 1171.42 124.817C1171.42 124.817 1171.42 124.817 1171.42 124.817C1171.42 124.817 1171.42 124.817 1171.42 124.817C1171.42 124.817 1171.42 124.817 1171.42 124.817C1171.42 124.817 1171.42 124.817 1171.42 124.817C1171.42 124.817 1171.42 124.817 1171.42 124.817C1171.42 124.817 1171.42 124.817 1171.42 124.817C1171.42 124.817 1171.42 124.817 1171.42 124.817C1171.42 124.817 1171.42 124.817 1171.42 124.817C1171.42 124.817 1171.42 124.817 1171.42 124.817C1171.42 124.817 1171.42 124.817 1171.42 124.817C1171.42 124.817 1171.42 124.817 1171.42 124.817C1171.42 124.817 1171.42 124.817 1171.42 124.817C1171.42 124.817 1171.42 124.817 1171.42 124.817C1171.42 124.817 1171.42 124.817 1171.42 124.817C1171.42 124.817 1171.42 124.817 1171.42 124.817C1171.42 124.817 1171.42 124.817 1171.42 124.817C1171.42 124.817 1171.42 124.817 1171.42 124.817C1171.42 124.817 1171.42 124.817 1171.42 124.817C1171.42 124.817 1171.42 124.817 1171.42 124.817C1171.42 124.817 1171.42 124.817 1171.42 124.817C1171.42 124.817 1171.42 124.817 1171.42 124.817C1171.42 124.817 1171.42 124.817 1171.42 124.817C1171.42 124.817 1171.42 124.817 1171.42 124.817C1171.42 124.817 1171.42 124.817 1171.42 124.817C1171.42 124.817 1171.42 124.817 1171.42 124.817C1171.42 124.817 1171.42 124.817 1171.42 124.817C1171.42 124.817 1171.42 124.817 1171.42 124.817C1171.42 124.817 1171.42 124.817 1171.42 124.817C1171.42 124.817 1171.42 124.817 1171.42 124.817C1171.42 124.817 1171.42 124.817 1171.42 124.817C1171.42 124.817 1171.42 124.817 1171.42 124.817C1171.42 124.817 1171.42 124.817 1171.42 124.817C1171.42 124.817 1171.42 124.817 1171.42 124.817C1171.42 124.817 1171.42 124.817 1171.42 124.817C1171.42 124.817 1171.42 124.817 1171.42 124.817C1171.42 124.817 1171.42 124.817 1171.42 124.817C1171.42 124.817 1171.42 124.817 1171.42 124.817C1171.42 124.817 1171.42 124.817 1171.42 124.817C1171.42 124.817 1171.42 124.817 1171.42 124.817C1171.42 124.817 1171.42 124.817 1171.42 124.817C1171.42 124.817 1171.42 124.817 1171.42 124.817C1171.42 124.817 1171.42 124.817 1171.42 124.817C1171.42 124.817 1171.42 124.817 1171.42 124.817C1171.42 124.817 1171.42 124.817 1171.42 124.817C1171.42 124.817 1171.42 124.817 1171.42 124.817C1171.42 124.817 1171.42 124.817 1171.42 124.817C1171.42 124.817 1171.42 124.817 1171.42 124.817C1171.42 124.817 1171.42 124.817 1171.42 124.817C1171.42 124.817 1171.42 124.817 1171.42 124.817C1171.42 124.817 1171.42 124.817 1171.42 124.817C1171.42 124.817 1171.42 124.817 1171.42 124.817C1171.42 124.817 1171.42 124.817 1171.42 124.817C1171.42 124.817 1171.42 124.817 1171.42 124.817C1171.42 124.817 1171.42 124.817 1171.42 124.817C1171.42 124.817 1171.42 124.817 1171.42 124.817C1171.42 124.817 1171.42 124.817 1171.42 124.817C1171.42 124.817 1171.42 124.817 1171.42 124.817C1171.42 124.817 1171.42 124.817 1171.42 124.817C1171.42 124.817 1171.42 124.817 1171.42 124.817C1171.42 124.817 1171.42 124.817 1171.42 124.817C1171.42 124.817 1171.42 124.817 1171.42 124.817C1171.42 124.817 1171.42 124.817 1171.42 124.817C1171.42 124.817 1171.42 124.817 1171.42 124.817C1171.42 124.817 1171.42 124.817 1171.42 124.817C1171.42 124.817 1171.42 124.817 1171.42 124.817C1171.42 124.817 1171.42 124.817 1171.42 124.817C1171.42 124.817 1171.42 124.817 1171.42 124.817C1171.42 124.817 1171.42 124.817 1171.42 124.817C1171.42 124.817 1171.42 124.817 1171.42 124.817C1171.42 124.817 1171.42 124.817 1171.42 124.817C1171.42 124.817 1171.42 124.817 1171.42 124.817C1171.42 124.817 1171.42 124.817 1171.42 124.817C1171.42 124.817 1171.42 124.817 1171.42 124.817C1171.42 124.817 1171.42 124.817 1171.42 124.817C1171.42 124.817 1171.42 124.817 1171.42 124.817C1171.42 124.817 1171.42 124.817 1171.42 124.817C1171.42 124.817 1171.42 124.817 1171.42 124.817C1171.42 124.817 1171.42 124.817 1171.42 124.817C1171.42 124.817 1171.42 124.817 1171.42 124.817C1171.42 124.817 1171.42 124.817 1171.42 124.817C1171.42 124.817 1171.42 124.817 1171.42 124.817C1171.42 124.817 1171.42 124.817 1171.42 124.817C1171.42 124.817 1171.42 124.817 1171.42 124.817C1171.42 124.817 1171.42 124.817 1171.42 124.817C1171.42 124.817 1171.42 124.817 1171.42 124.817C1171.42 124.817 1171.42 124.817 1171.42 124.817C1171.42 124.817 1171.42 124.817 1171.42 124.817C1171.42 124.817 1171.42 124.817 1171.42 124.817C1171.42 124.817 1171.42 124.817 1171.42 124.817C1171.42 124.817 1171.42 124.817 1171.42 124.817C1171.42 124.817 1171.42 124.817 1171.42 124.817C1171.42 124.817 1171.42 124.817 1171.42 124.817C1171.42 124.817 1171.42 124.817 1171.42 124.817C1171.42 124.817 1171.42 124.817 1171.42 124.817C1171.42 124.817 1171.42 124.817 1171.42 124.817C1171.42 124.817 1171.42 124.817 1171.42 124.817C1171.42 124.817 1171.42 124.817 1171.42 124.817C1171.42 124.817 1171.42 124.817 1171.42 124.817C1171.42 124.817 1171.42 124.817 1171.42 124.817C1171.42 124.817 1171.42 124.817 1171.42 124.817C1171.42 124.817 1171.42 124.817 1171.42 124.817C1171.42 124.817 1171.42 124.817 1171.42 124.817C1171.42 124.817 1171.42 124.817 1171.42 124.817C1171.42 124.817 1171.42 124.817 1171.42 124.817C1171.42 124.817 1171.42 124.817 1171.42 124.817C1171.42 124.817 1171.42 124.817 1171.42 124.817C1171.42 124.817 1171.42 124.817 1171.42 124.817C1171.42 124.817 1171.42 124.817 1171.42 124.817C1171.42 124.817 1171.42 124.817 1171.42 124.817C1171.42 124.817 1171.42 124.817 1171.42 124.817C1171.42 124.817 1171.42 124.817 1171.42 124.817C1171.42 124.817 1171.42 124.817 1171.42 124.817C1171.42 124.817 1171.42 124.817 1171.42 124.817C1171.42 124.817 1171.42 124.817 1171.42 124.817C1171.42 124.817 1171.42 124.817 1171.42 124.817C1171.42 124.817 1171.42 124.817 1171.42 124.817C1171.42 124.817 1171.42 124.817 1171.42 124.817C1171.42 124.817 1171.42 124.817 1171.42 124.817C1171.42 124.817 1171.42 124.817 1171.42 124.817C1171.42 124.817 1171.42 124.817 1171.42 124.817C1171.42 124.817 1171.42 124.817 1171.42 124.817C1171.42 124.817 1171.42 124.817 1171.42 124.817C1171.42 124.817 1171.42 124.817 1171.42 124.817C1171.42 124.817 1171.42 124.817 1171.42 124.817C1171.42 124.817 1171.42 124.817 1171.42 124.817C1171.42 124.817 1171.42 124.817 1171.42 124.817C1171.42 124.817 1171.42 124.817 1171.42 124.817C1171.42 124.817 1171.42 124.817 1171.42 124.817C1171.42 124.817 1171.42 124.817 1171.42 124.817C1171.42 124.817 1171.42 124.817 1171.42 124.817C1171.42 124.817 1171.42 124.817 1171.42 124.817C1171.42 124.817 1171.42 124.817 1171.42 124.817C1171.42 124.817 1171.42 124.817 1171.42 124.817C1171.42 124.817 1171.42 124.817 1171.42 124.817C1171.42 124.817 1171.42 124.817 1171.42 124.817C1171.42 124.817 1171.42 124.817 1171.42 124.817C1171.42 124.817 1171.42 124.817 1171.42 124.817C1171.42 124.817 1171.42 124.817 1171.42 124.817C1171.42 124.817 1171.42 124.817 1171.42 124.817C1171.42 124.817 1171.42 124.817 1171.42 124.817C1171.42 124.817 1171.42 124.817 1171.42 124.817C1171.42 124.817 1171.42 124.817 1171.42 124.817C1171.42 124.817 1171.42 124.817 1171.42 124.817C1171.42 124.817 1171.42 124.817 1171.42 124.817C1171.42 124.817 1171.42 124.817 1171.42 124.817C1171.42 124.817 1171.42 124.817 1171.42 124.817C1171.42 124.817 1171.42 124.817 1171.42 124.817C1171.42 124.817 1171.42 124.817 1171.42 124.817C1171.42 124.817 1171.42 124.817 1171.42 124.817C1171.42 124.817 1171.42 124.817 1171.42 124.817C1171.42 124.817 1171.42 124.817 1171.42 124.817C1171.42 124.817 1171.42 124.817 1171.42 124.817C1171.42 124.817 1171.42 124.817 1171.42 124.817C1171.42 124.817 1171.42 124.817 1171.42 124.817C1171.42 124.817 1171.42 124.817 1171.42 124.817C1171.42 124.817 1171.42 124.817 1171.42 124.817C1171.42 124.817 1171.42 124.817 1171.42 124.817C1171.42 124.817 1171.42 124.817 1171.42 124.817C1171.42 124.817 1171.42 124.817 1171.42 124.817C1171.42 124.817 1171.42 124.817 1171.42 124.817C1171.42 124.817 1171.42 124.817 1171.42 124.817C1171.42 124.817 1171.42 124.817 1171.42 124.817C1171.42 124.817 1171.42 124.817 1171.42 124.817C1171.42 124.817 1171.42 124.817 1171.42 124.817C1171.42 124.817 1171.42 124.817 1171.42 124.817C1171.42 124.817 1171.42 124.817 1171.42 124.817C1171.42 124.817 1171.42 124.817 1171.42 124.817C1171.42 124.817 1171.42 124.817 1171.42 124.817C1171.42 124.817 1171.42 124.817 1171.42 124.817C1171.42 124.817 1171.42 124.817 1171.42 124.817C1171.42 124.817 1171.42 124.817 1171.42 124.817C1171.42 124.817 1171.42 124.817 1171.42 124.817C1171.42 124.817 1171.42 124.817 1171.42 124.817C1171.42 124.817 1171.42 124.817 1171.42 124.817C1171.42 124.817 1171.42 124.817 1171.42 124.817C1171.42 124.817 1171.42 124.817 1171.42 124.817C1171.42 124.817 1171.42 124.817 1171.42 124.817C1171.42 124.817 1171.42 124.817 1171.42 124.817C1171.42 124.817 1171.42 124.817 1171.42 124.817C1171.42 124.817 1171.42 124.817 1171.42 124.817C1171.42 124.817 1171.42 124.817 1171.42 124.817C1171.42 124.817 1171.42 124.817 1171.42 124.817C1171.42 124.817 1171.42 124.817 1171.42 124.817C1171.42 124.817 1171.42 124.817 1171.42 124.817C1171.42 124.817 1171.42 124.817 1171.42 124.817C1171.42 124.817 1171.42 124.817 1171.42 124.817C1171.42 124.817 1171.42 124.817 1171.42 124.817C1171.42 124.817 1171.42 124.817 1171.42 124.817C1171.42 124.817 1171.42 124.817 1171.42 124.817C1171.42 124.817 1171.42 124.817 1171.42 124.817C1171.42 124.817 1171.42 124.817 1171.42 124.817C1171.42 124.817 1171.42 124.817 1171.42 124.817C1171.42 124.817 1171.42 124.817 1171.42 124.817C1171.42 124.817 1171.42 124.817 1171.42 124.817C1171.42 124.817 1171.42 124.817 1171.42 124.817C1171.42 124.817 1171.42 124.817 1171.42 124.817C1171.42 124.817 1171.42 124.817 1171.42 124.817C1171.42 124.817 1171.42 124.817 1171.42 124.817C1171.42 124.817 1171.42 124.817 1171.42 124.817C1171.42 124.817 1171.42 124.817 1171.42 124.817C1171.42 124.817 1171.42 124.817 1171.42 124.817C1171.42 124.817 1171.42 124.817 1171.42 124.817C1171.42 124.817 1171.42 124.817 1171.42 124.817C1171.42 124.817 1171.42 124.817 1171.42 124.817C1171.42 124.817 1171.42 124.817 1171.42 124.817C1171.42 124.817 1171.42 124.817 1171.42 124.817C1171.42 124.817 1171.42 124.817 1171.42 124.817C1171.42 124.817 1171.42 124.817 1171.42 124.817C1171.42 124.817 1171.42 124.817 1171.42 124.817C1171.42 124.817 1171.42 124.817 1171.42 124.817C1171.42 124.817 1171.42 124.817 1171.42 124.817C1171.42 124.817 1171.42 124.817 1171.42 124.817C1171.42 124.817 1171.42 124.817 1171.42 124.817C1171.42 124.817 1171.42 124.817 1171.42 124.817C1171.42 124.817 1171.42 124.817 1171.42 124.817C1171.42 124.817 1171.42 124.817 1171.42 124.817C1171.42 124.817 1171.42 124.817 1171.42 124.817C1171.42 124.817 1171.42 124.817 1171.42 124.817C1171.42 124.817 1171.42 124.817 1171.42 124.817C1171.42 124.817 1171.42 124.817 1171.42 124.817C1171.42 124.817 1171.42 124.817 1171.42 124.817C1171.42 124.817 1171.42 124.817 1171.42 124.817C1171.42 124.817 1171.42 124.817 1171.42 124.817C1171.42 124.817 1171.42 124.817 1171.42 124.817C1171.42 124.817 1171.42 124.817 1171.42 124.817C1171.42 124.817 1171.42 124.817 1171.42 124.817C1171.42 124.817 1171.42 124.817 1171.42 124.817C1171.42 124.817 1171.42 124.817 1171.42 124.817C1171.42 124.817 1171.42 124.817 1171.42 124.817C1171.42 124.817 1171.42 124.817 1171.42 124.817C1171.42 124.817 1171.42 124.817 1171.42 124.817C1171.42 124.817 1171.42 124.817 1171.42 124.817C1171.42 124.817 1171.42 124.817 1171.42 124.817C1171.42 124.817 1171.42 124.817 1171.42 124.817C1171.42 124.817 1171.42 124.817 1171.42 124.817C1171.42 124.817 1171.42 124.817 1171.42 124.817C1171.42 124.817 1171.42 124.817 1171.42 124.817C1171.42 124.817 1171.42 124.817 1171.42 124.817C1171.42 124.817 1171.42 124.817 1171.42 124.817C1171.42 124.817 1171.42 124.817 1171.42 124.817C1171.42 124.817 1171.42 124.817 1171.42 124.817C1171.42 124.817 1171.42 124.817 1171.42 124.817C1171.42 124.817 1171.42 124.817 1171.42 124.817C1171.42 124.817 1171.42 124.817 1171.42 124.817C1171.42 124.817 1171.42 124.817 1171.42 124.817C1171.42 124.817 1171.42 124.817 1171.42 124.817C1171.42 124.817 1171.42 124.817 1171.42 124.817C1171.42 124.817 1171.42 124.817 1171.42 124.817C1171.42 124.817 1171.42 124.817 1171.42 124.817C1171.42 124.817 1171.42 124.817 1171.42 124.817C1171.42 124.817 1171.42 124.817 1171.42 124.817C1171.42 124.817 1171.42 124.817 1171.42 124.817C1171.42 124.817 1171.42 124.817 1171.42 124.817C1171.42 124.817 1171.42 124.817 1171.42 124.817C1171.42 124.817 1171.42 124.817 1171.42 124.817C1171.42 124.817 1171.42 124.817 1171.42 124.817C1171.42 124.817 1171.42 124.817 1171.42 124.817C1171.42 124.817 1171.42 124.817 1171.42 124.817C1171.42 124.817 1171.42 124.817 1171.42 124.817C1171.42 124.817 1171.42 124.817 1171.42 124.817C1171.42 124.817 1171.42 124.817 1171.42 124.817C1171.42 124.817 1171.42 124.817 1171.42 124.817C1171.42 124.817 1171.42 124.817 1171.42 124.817C1171.42 124.817 1171.42 124.817 1171.42 124.817C1171.42 124.817 1171.42 124.817 1171.42 124.817C1171.42 124.817 1171.42 124.817 1171.42 124.817C1171.42 124.817 1171.42 124.817 1171.42 124.817C1171.42 124.817 1171.42 124.817 1171.42 124.817C1171.42 124.817 1171.42 124.817 1171.42 124.817C1171.42 124.817 1171.42 124.817 1171.42 124.817C1171.42 124.817 1171.42 124.817 1171.42 124.817C1171.42 124.817 1171.42 124.817 1171.42 124.817C1171.42 124.817 1171.42 124.817 1171.42 124.817C1171.42 124.817 1171.42 124.817 1171.42 124.817C1171.42 124.817 1171.42 124.817 1171.42 124.817C1171.42 124.817 1171.42 124.817 1171.42 124.817C1171.42 124.817 1171.42 124.817 1171.42 124.817C1171.42 124.817 1171.42 124.817 1171.42 124.817C1171.42 124.817 1171.42 124.817 1171.42 124.817C1171.42 124.817 1171.42 124.817 1171.42 124.817C1171.42 124.817 1171.42 124.817 1171.42 124.817C1171.42 124.817 1171.42 124.817 1171.42 124.817C1171.42 124.817 1171.42 124.817 1171.42 124.817C1171.42 124.817 1171.42 124.817 1171.42 124.817C1171.42 124.817 1171.42 124.817 1171.42 124.817C1171.42 124.817 1171.42 124.817 1171.42 124.817C1171.42 124.817 1171.42 124.817 1171.42 124.817C1171.42 124.817 1171.42 124.817 1171.42 124.817C1171.42 124.817 1171.42 124.817 1171.42 124.817C1171.42 124.817 1171.42 124.817 1171.42 124.817C1171.42 124.817 1171.42 124.817 1171.42 124.817C1171.42 124.817 1171.42 124.817 1171.42 124.817C1171.42 124.817 1171.42 124.817 1171.42 124.817C1171.42 124.817 1171.42 124.817 1171.42 124.817C1171.42 124.817 1171.42 124.817 1171.42 124.817C1171.42 124.817 1171.42 124.817 1171.42 124.817C1171.42 124.817 1171.42 124.817 1171.42 124.817C1171.42 124.817 1171.42 124.817 1171.42 124.817C1171.42 124.817 1171.42 124.817 1171.42 124.817C1171.42 124.817 1171.42 124.817 1171.42 124.817C1171.42 124.817 1171.42 124.817 1171.42 124.817C1171.42 124.817 1171.42 124.817 1171.42 124.817C1171.42 124.817 1171.42 124.817 1171.42 124.817C1171.42 124.817 1171.42 124.817 1171.42 124.817C1171.42 124.817 1171.42 124.817 1171.42 124.817C1171.42 124.817 1171.42 124.817 1171.42 124.817C1171.42 124.817 1171.42 124.817 1171.42 124.817C1171.42 124.817 1171.42 124.817 1171.42 124.817C1171.42 124.817 1171.42 124.817 1171.42 124.817C1171.42 124.817 1171.42 124.817 1171.42 124.817C1171.42 124.817 1171.42 124.817 1171.42 124.817C1171.42 124.817 1171.42 124.817 1171.42 124.817C1171.42 124.817 1171.42 124.817 1171.42 124.817C1171.42 124.817 1171.42 124.817 1171.42 124.817C1171.42 124.817 1171.42 124.817 1171.42 124.817C1171.42 124.817 1171.42 124.817 1171.42 124.817C1171.42 124.817 1171.42 124.817 1171.42 124.817C1171.42 124.817 1171.42 124.817 1171.42 124.817C1171.42 124.817 1171.42 124.817 1171.42 124.817C1171.42 124.817 1171.42 124.817 1171.42 124.817C1171.42 124.817 1171.42 124.817 1171.42 124.817C1171.42 124.817 1171.42 124.817 1171.42 124.817C1171.42 124.817 1171.42 124.817 1171.42 124.817C1171.42 124.817 1171.42 124.817 1171.42 124.817C1171.42 124.817 1171.42 124.817 1171.42 124.817C1171.42 124.817 1171.42 124.817 1171.42 124.817C1171.42 124.817 1171.42 124.817 1171.42 124.817C1171.42 124.817 1171.42 124.817 1171.42 124.817C1171.42 124.817 1171.42 124.817 1171.42 124.817C1171.42 124.817 1171.42 124.817 1171.42 124.817C1171.42 124.817 1171.42 124.817 1171.42 124.817C1171.42 124.817 1171.42 124.817 1171.42 124.817C1171.42 124.817 1171.42 124.817 1171.42 124.817C1171.42 124.817 1171.42 124.817 1171.42 124.817C1171.42 124.817 1171.42 124.817 1171.42 124.817C1171.42 124.817 1171.42 124.817 1171.42 124.817C1171.42 124.817 1171.42 124.817 1171.42 124.817C1171.42 124.817 1171.42 124.817 1171.42 124.817C1171.42 124.817 1171.42 124.817 1171.42 124.817C1171.42 124.817 1171.42 124.817 1171.42 124.817C1171.42 124.817 1171.42 124.817 1171.42 124.817C1171.42 124.817 1171.42 124.817 1171.42 124.817C1171.42 124.817 1171.42 124.817 1171.42 124.817C1171.42 124.817 1171.42 124.817 1171.42 124.817C1171.42 124.817 1171.42 124.817 1171.42 124.817C1171.42 124.817 1171.42 124.817 1171.42 124.817C1171.42 124.817 1171.42 124.817 1171.42 124.817C1171.42 124.817 1171.42 124.817 1171.42 124.817C1171.42 124.817 1171.42 124.817 1171.42 124.817C1171.42 124.817 1171.42 124.817 1171.42 124.817C1171.42 124.817 1171.42 124.817 1171.42 124.817C1171.42 124.817 1171.42 124.817 1171.42 124.817C1171.42 124.817 1171.42 124.817 1171.42 124.817C1171.42 124.817 1171.42 124.817 1171.42 124.817C1171.42 124.817 1171.42 124.817 1171.42 124.817C1171.42 124.817 1171.42 124.817 1171.42 124.817C1171.42 124.817 1171.42 124.817 1171.42 124.817C1171.42 124.817 1171.42 124.817 1171.42 124.817C1171.42 124.817 1171.42 124.817 1171.42 124.817C1171.42 124.817 1171.42 124.817 1171.42 124.817C1171.42 124.817 1171.42 124.817 1171.42 124.817V130.817C1171.42 130.817 1171.42 130.817 1171.42 130.817C1171.42 130.817 1171.42 130.817 1171.42 130.817C1171.42 130.817 1171.42 130.817 1171.42 130.817C1171.42 130.817 1171.42 130.817 1171.42 130.817C1171.42 130.817 1171.42 130.817 1171.42 130.817C1171.42 130.817 1171.42 130.817 1171.42 130.817C1171.42 130.817 1171.42 130.817 1171.42 130.817C1171.42 130.817 1171.42 130.817 1171.42 130.817C1171.42 130.817 1171.42 130.817 1171.42 130.817C1171.42 130.817 1171.42 130.817 1171.42 130.817C1171.42 130.817 1171.42 130.817 1171.42 130.817C1171.42 130.817 1171.42 130.817 1171.42 130.817C1171.42 130.817 1171.42 130.817 1171.42 130.817C1171.42 130.817 1171.42 130.817 1171.42 130.817C1171.42 130.817 1171.42 130.817 1171.42 130.817C1171.42 130.817 1171.42 130.817 1171.42 130.817C1171.42 130.817 1171.42 130.817 1171.42 130.817C1171.42 130.817 1171.42 130.817 1171.42 130.817C1171.42 130.817 1171.42 130.817 1171.42 130.817C1171.42 130.817 1171.42 130.817 1171.42 130.817C1171.42 130.817 1171.42 130.817 1171.42 130.817C1171.42 130.817 1171.42 130.817 1171.42 130.817C1171.42 130.817 1171.42 130.817 1171.42 130.817C1171.42 130.817 1171.42 130.817 1171.42 130.817C1171.42 130.817 1171.42 130.817 1171.42 130.817C1171.42 130.817 1171.42 130.817 1171.42 130.817C1171.42 130.817 1171.42 130.817 1171.42 130.817C1171.42 130.817 1171.42 130.817 1171.42 130.817C1171.42 130.817 1171.42 130.817 1171.42 130.817C1171.42 130.817 1171.42 130.817 1171.42 130.817C1171.42 130.817 1171.42 130.817 1171.42 130.817C1171.42 130.817 1171.42 130.817 1171.42 130.817C1171.42 130.817 1171.42 130.817 1171.42 130.817C1171.42 130.817 1171.42 130.817 1171.42 130.817C1171.42 130.817 1171.42 130.817 1171.42 130.817C1171.42 130.817 1171.42 130.817 1171.42 130.817C1171.42 130.817 1171.42 130.817 1171.42 130.817C1171.42 130.817 1171.42 130.817 1171.42 130.817C1171.42 130.817 1171.42 130.817 1171.42 130.817C1171.42 130.817 1171.42 130.817 1171.42 130.817C1171.42 130.817 1171.42 130.817 1171.42 130.817C1171.42 130.817 1171.42 130.817 1171.42 130.817C1171.42 130.817 1171.42 130.817 1171.42 130.817C1171.42 130.817 1171.42 130.817 1171.42 130.817C1171.42 130.817 1171.42 130.817 1171.42 130.817C1171.42 130.817 1171.42 130.817 1171.42 130.817C1171.42 130.817 1171.42 130.817 1171.42 130.817C1171.42 130.817 1171.42 130.817 1171.42 130.817C1171.42 130.817 1171.42 130.817 1171.42 130.817C1171.42 130.817 1171.42 130.817 1171.42 130.817C1171.42 130.817 1171.42 130.817 1171.42 130.817C1171.42 130.817 1171.42 130.817 1171.42 130.817C1171.42 130.817 1171.42 130.817 1171.42 130.817C1171.42 130.817 1171.42 130.817 1171.42 130.817C1171.42 130.817 1171.42 130.817 1171.42 130.817C1171.42 130.817 1171.42 130.817 1171.42 130.817C1171.42 130.817 1171.42 130.817 1171.42 130.817C1171.42 130.817 1171.42 130.817 1171.42 130.817C1171.42 130.817 1171.42 130.817 1171.42 130.817C1171.42 130.817 1171.42 130.817 1171.42 130.817C1171.42 130.817 1171.42 130.817 1171.42 130.817C1171.42 130.817 1171.42 130.817 1171.42 130.817C1171.42 130.817 1171.42 130.817 1171.42 130.817C1171.42 130.817 1171.42 130.817 1171.42 130.817C1171.42 130.817 1171.42 130.817 1171.42 130.817C1171.42 130.817 1171.42 130.817 1171.42 130.817C1171.42 130.817 1171.42 130.817 1171.42 130.817C1171.42 130.817 1171.42 130.817 1171.42 130.817C1171.42 130.817 1171.42 130.817 1171.42 130.817C1171.42 130.817 1171.42 130.817 1171.42 130.817C1171.42 130.817 1171.42 130.817 1171.42 130.817C1171.42 130.817 1171.42 130.817 1171.42 130.817C1171.42 130.817 1171.42 130.817 1171.42 130.817C1171.42 130.817 1171.42 130.817 1171.42 130.817C1171.42 130.817 1171.42 130.817 1171.42 130.817C1171.42 130.817 1171.42 130.817 1171.42 130.817C1171.42 130.817 1171.42 130.817 1171.42 130.817C1171.42 130.817 1171.42 130.817 1171.42 130.817C1171.42 130.817 1171.42 130.817 1171.42 130.817C1171.42 130.817 1171.42 130.817 1171.42 130.817C1171.42 130.817 1171.42 130.817 1171.42 130.817C1171.42 130.817 1171.42 130.817 1171.42 130.817C1171.42 130.817 1171.42 130.817 1171.42 130.817C1171.42 130.817 1171.42 130.817 1171.42 130.817C1171.42 130.817 1171.42 130.817 1171.42 130.817C1171.42 130.817 1171.42 130.817 1171.42 130.817C1171.42 130.817 1171.42 130.817 1171.42 130.817C1171.42 130.817 1171.42 130.817 1171.42 130.817C1171.42 130.817 1171.42 130.817 1171.42 130.817C1171.42 130.817 1171.42 130.817 1171.42 130.817C1171.42 130.817 1171.42 130.817 1171.42 130.817C1171.42 130.817 1171.42 130.817 1171.42 130.817C1171.42 130.817 1171.42 130.817 1171.42 130.817C1171.42 130.817 1171.42 130.817 1171.42 130.817C1171.42 130.817 1171.42 130.817 1171.42 130.817C1171.42 130.817 1171.42 130.817 1171.42 130.817C1171.42 130.817 1171.42 130.817 1171.42 130.817C1171.42 130.817 1171.42 130.817 1171.42 130.817C1171.42 130.817 1171.42 130.817 1171.42 130.817C1171.42 130.817 1171.42 130.817 1171.42 130.817C1171.42 130.817 1171.42 130.817 1171.42 130.817C1171.42 130.817 1171.42 130.817 1171.42 130.817C1171.42 130.817 1171.42 130.817 1171.42 130.817C1171.42 130.817 1171.42 130.817 1171.42 130.817C1171.42 130.817 1171.42 130.817 1171.42 130.817C1171.42 130.817 1171.42 130.817 1171.42 130.817C1171.42 130.817 1171.42 130.817 1171.42 130.817C1171.42 130.817 1171.42 130.817 1171.42 130.817C1171.42 130.817 1171.42 130.817 1171.42 130.817C1171.42 130.817 1171.42 130.817 1171.42 130.817C1171.42 130.817 1171.42 130.817 1171.42 130.817C1171.42 130.817 1171.42 130.817 1171.42 130.817C1171.42 130.817 1171.42 130.817 1171.42 130.817C1171.42 130.817 1171.42 130.817 1171.42 130.817C1171.42 130.817 1171.42 130.817 1171.42 130.817C1171.42 130.817 1171.42 130.817 1171.42 130.817C1171.42 130.817 1171.42 130.817 1171.42 130.817C1171.42 130.817 1171.42 130.817 1171.42 130.817C1171.42 130.817 1171.42 130.817 1171.42 130.817C1171.42 130.817 1171.42 130.817 1171.42 130.817C1171.42 130.817 1171.42 130.817 1171.42 130.817C1171.42 130.817 1171.42 130.817 1171.42 130.817C1171.42 130.817 1171.42 130.817 1171.42 130.817C1171.42 130.817 1171.42 130.817 1171.42 130.817C1171.42 130.817 1171.42 130.817 1171.42 130.817C1171.42 130.817 1171.42 130.817 1171.42 130.817C1171.42 130.817 1171.42 130.817 1171.42 130.817C1171.42 130.817 1171.42 130.817 1171.42 130.817C1171.42 130.817 1171.42 130.817 1171.42 130.817C1171.42 130.817 1171.42 130.817 1171.42 130.817C1171.42 130.817 1171.42 130.817 1171.42 130.817C1171.42 130.817 1171.42 130.817 1171.42 130.817C1171.42 130.817 1171.42 130.817 1171.42 130.817C1171.42 130.817 1171.42 130.817 1171.42 130.817C1171.42 130.817 1171.42 130.817 1171.42 130.817C1171.42 130.817 1171.42 130.817 1171.42 130.817C1171.42 130.817 1171.42 130.817 1171.42 130.817C1171.42 130.817 1171.42 130.817 1171.42 130.817C1171.42 130.817 1171.42 130.817 1171.42 130.817C1171.42 130.817 1171.42 130.817 1171.42 130.817C1171.42 130.817 1171.42 130.817 1171.42 130.817C1171.42 130.817 1171.42 130.817 1171.42 130.817C1171.42 130.817 1171.42 130.817 1171.42 130.817C1171.42 130.817 1171.42 130.817 1171.42 130.817C1171.42 130.817 1171.42 130.817 1171.42 130.817C1171.42 130.817 1171.42 130.817 1171.42 130.817C1171.42 130.817 1171.42 130.817 1171.42 130.817C1171.42 130.817 1171.42 130.817 1171.42 130.817C1171.42 130.817 1171.42 130.817 1171.42 130.817C1171.42 130.817 1171.42 130.817 1171.42 130.817C1171.42 130.817 1171.42 130.817 1171.42 130.817C1171.42 130.817 1171.42 130.817 1171.42 130.817C1171.42 130.817 1171.42 130.817 1171.42 130.817C1171.42 130.817 1171.42 130.817 1171.42 130.817C1171.42 130.817 1171.42 130.817 1171.42 130.817C1171.42 130.817 1171.42 130.817 1171.42 130.817C1171.42 130.817 1171.42 130.817 1171.42 130.817C1171.42 130.817 1171.42 130.817 1171.42 130.817C1171.42 130.817 1171.42 130.817 1171.42 130.817C1171.42 130.817 1171.42 130.817 1171.42 130.817C1171.42 130.817 1171.42 130.817 1171.42 130.817C1171.42 130.817 1171.42 130.817 1171.42 130.817C1171.42 130.817 1171.42 130.817 1171.42 130.817C1171.42 130.817 1171.42 130.817 1171.42 130.817C1171.42 130.817 1171.42 130.817 1171.42 130.817C1171.42 130.817 1171.42 130.817 1171.42 130.817C1171.42 130.817 1171.42 130.817 1171.42 130.817C1171.42 130.817 1171.42 130.817 1171.42 130.817C1171.42 130.817 1171.42 130.817 1171.42 130.817C1171.42 130.817 1171.42 130.817 1171.42 130.817C1171.42 130.817 1171.42 130.817 1171.42 130.817C1171.42 130.817 1171.42 130.817 1171.42 130.817C1171.42 130.817 1171.42 130.817 1171.42 130.817C1171.42 130.817 1171.42 130.817 1171.42 130.817C1171.42 130.817 1171.42 130.817 1171.42 130.817C1171.42 130.817 1171.42 130.817 1171.42 130.817C1171.42 130.817 1171.42 130.817 1171.42 130.817C1171.42 130.817 1171.42 130.817 1171.42 130.817C1171.42 130.817 1171.42 130.817 1171.42 130.817C1171.42 130.817 1171.42 130.817 1171.42 130.817C1171.42 130.817 1171.42 130.817 1171.42 130.817C1171.42 130.817 1171.42 130.817 1171.42 130.817C1171.42 130.817 1171.42 130.817 1171.42 130.817C1171.42 130.817 1171.42 130.817 1171.42 130.817C1171.42 130.817 1171.42 130.817 1171.42 130.817C1171.42 130.817 1171.42 130.817 1171.42 130.817C1171.42 130.817 1171.42 130.817 1171.42 130.817C1171.42 130.817 1171.42 130.817 1171.42 130.817C1171.42 130.817 1171.42 130.817 1171.42 130.817C1171.42 130.817 1171.42 130.817 1171.42 130.817C1171.42 130.817 1171.42 130.817 1171.42 130.817C1171.42 130.817 1171.42 130.817 1171.42 130.817C1171.42 130.817 1171.42 130.817 1171.42 130.817C1171.42 130.817 1171.42 130.817 1171.42 130.817C1171.42 130.817 1171.42 130.817 1171.42 130.817C1171.42 130.817 1171.42 130.817 1171.42 130.817C1171.42 130.817 1171.42 130.817 1171.42 130.817C1171.42 130.817 1171.42 130.817 1171.42 130.817C1171.42 130.817 1171.42 130.817 1171.42 130.817C1171.42 130.817 1171.42 130.817 1171.42 130.817C1171.42 130.817 1171.42 130.817 1171.42 130.817C1171.42 130.817 1171.42 130.817 1171.42 130.817C1171.42 130.817 1171.42 130.817 1171.42 130.817C1171.42 130.817 1171.42 130.817 1171.42 130.817C1171.42 130.817 1171.42 130.817 1171.42 130.817C1171.42 130.817 1171.42 130.817 1171.42 130.817C1171.42 130.817 1171.42 130.817 1171.42 130.817C1171.42 130.817 1171.42 130.817 1171.42 130.817C1171.42 130.817 1171.42 130.817 1171.42 130.817C1171.42 130.817 1171.42 130.817 1171.42 130.817C1171.42 130.817 1171.42 130.817 1171.42 130.817C1171.42 130.817 1171.42 130.817 1171.42 130.817C1171.42 130.817 1171.42 130.817 1171.42 130.817C1171.42 130.817 1171.42 130.817 1171.42 130.817C1171.42 130.817 1171.42 130.817 1171.42 130.817C1171.42 130.817 1171.42 130.817 1171.42 130.817C1171.42 130.817 1171.42 130.817 1171.42 130.817C1171.42 130.817 1171.42 130.817 1171.42 130.817C1171.42 130.817 1171.42 130.817 1171.42 130.817C1171.42 130.817 1171.42 130.817 1171.42 130.817C1171.42 130.817 1171.42 130.817 1171.42 130.817C1171.42 130.817 1171.42 130.817 1171.42 130.817C1171.42 130.817 1171.42 130.817 1171.42 130.817C1171.42 130.817 1171.42 130.817 1171.42 130.817C1171.42 130.817 1171.42 130.817 1171.42 130.817C1171.42 130.817 1171.42 130.817 1171.42 130.817C1171.42 130.817 1171.42 130.817 1171.42 130.817C1171.42 130.817 1171.42 130.817 1171.42 130.817C1171.42 130.817 1171.42 130.817 1171.42 130.817C1171.42 130.817 1171.42 130.817 1171.42 130.817C1171.42 130.817 1171.42 130.817 1171.42 130.817C1171.42 130.817 1171.42 130.817 1171.42 130.817C1171.42 130.817 1171.42 130.817 1171.42 130.817C1171.42 130.817 1171.42 130.817 1171.42 130.817C1171.42 130.817 1171.42 130.817 1171.42 130.817C1171.42 130.817 1171.42 130.817 1171.42 130.817C1171.42 130.817 1171.42 130.817 1171.42 130.817C1171.42 130.817 1171.42 130.817 1171.42 130.817C1171.42 130.817 1171.42 130.817 1171.42 130.817C1171.42 130.817 1171.42 130.817 1171.42 130.817C1171.42 130.817 1171.42 130.817 1171.42 130.817C1171.42 130.817 1171.42 130.817 1171.42 130.817C1171.42 130.817 1171.42 130.817 1171.42 130.817C1171.42 130.817 1171.42 130.817 1171.42 130.817C1171.42 130.817 1171.42 130.817 1171.42 130.817C1171.42 130.817 1171.42 130.817 1171.42 130.817C1171.42 130.817 1171.42 130.817 1171.42 130.817C1171.42 130.817 1171.42 130.817 1171.42 130.817C1171.42 130.817 1171.42 130.817 1171.42 130.817C1171.42 130.817 1171.42 130.817 1171.42 130.817C1171.42 130.817 1171.42 130.817 1171.42 130.817C1171.42 130.817 1171.42 130.817 1171.42 130.817C1171.42 130.817 1171.42 130.817 1171.42 130.817C1171.42 130.817 1171.42 130.817 1171.42 130.817C1171.42 130.817 1171.42 130.817 1171.42 130.817C1171.42 130.817 1171.42 130.817 1171.42 130.817C1171.42 130.817 1171.42 130.817 1171.42 130.817C1171.42 130.817 1171.42 130.817 1171.42 130.817C1171.42 130.817 1171.42 130.817 1171.42 130.817C1171.42 130.817 1171.42 130.817 1171.42 130.817C1171.42 130.817 1171.42 130.817 1171.42 130.817C1171.42 130.817 1171.42 130.817 1171.42 130.817C1171.42 130.817 1171.42 130.817 1171.42 130.817C1171.42 130.817 1171.42 130.817 1171.42 130.817C1171.42 130.817 1171.42 130.817 1171.42 130.817C1171.42 130.817 1171.42 130.817 1171.42 130.817C1171.42 130.817 1171.42 130.817 1171.42 130.817C1171.42 130.817 1171.42 130.817 1171.42 130.817C1171.42 130.817 1171.42 130.817 1171.42 130.817C1171.42 130.817 1171.42 130.817 1171.42 130.817C1171.42 130.817 1171.42 130.817 1171.42 130.817C1171.42 130.817 1171.42 130.817 1171.42 130.817C1171.42 130.817 1171.42 130.817 1171.42 130.817C1171.42 130.817 1171.42 130.817 1171.42 130.817C1171.42 130.817 1171.42 130.817 1171.42 130.817C1171.42 130.817 1171.42 130.817 1171.42 130.817C1171.42 130.817 1171.42 130.817 1171.42 130.817C1171.42 130.817 1171.42 130.817 1171.42 130.817C1171.42 130.817 1171.42 130.817 1171.42 130.817C1171.42 130.817 1171.42 130.817 1171.42 130.817C1171.42 130.817 1171.42 130.817 1171.42 130.817C1171.42 130.817 1171.42 130.817 1171.42 130.817C1171.42 130.817 1171.42 130.817 1171.42 130.817C1171.42 130.817 1171.42 130.817 1171.42 130.817C1171.42 130.817 1171.42 130.817 1171.42 130.817C1171.42 130.817 1171.42 130.817 1171.42 130.817C1171.42 130.817 1171.42 130.817 1171.42 130.817C1171.42 130.817 1171.42 130.817 1171.42 130.817C1171.42 130.817 1171.42 130.817 1171.42 130.817C1171.42 130.817 1171.42 130.817 1171.42 130.817C1171.42 130.817 1171.42 130.817 1171.42 130.817C1171.42 130.817 1171.42 130.817 1171.42 130.817C1171.42 130.817 1171.42 130.817 1171.42 130.817C1171.42 130.817 1171.42 130.817 1171.42 130.817C1171.42 130.817 1171.42 130.817 1171.42 130.817C1171.42 130.817 1171.42 130.817 1171.42 130.817C1171.42 130.817 1171.42 130.817 1171.42 130.817C1171.42 130.817 1171.42 130.817 1171.42 130.817C1171.42 130.817 1171.42 130.817 1171.42 130.817C1171.42 130.817 1171.42 130.817 1171.42 130.817C1171.42 130.817 1171.42 130.817 1171.42 130.817C1171.42 130.817 1171.42 130.817 1171.42 130.817C1171.42 130.817 1171.42 130.817 1171.42 130.817C1171.42 130.817 1171.42 130.817 1171.42 130.817C1171.42 130.817 1171.42 130.817 1171.42 130.817C1171.42 130.817 1171.42 130.817 1171.42 130.817C1171.42 130.817 1171.42 130.817 1171.42 130.817C1171.42 130.817 1171.42 130.817 1171.42 130.817C1171.42 130.817 1171.42 130.817 1171.42 130.817C1171.42 130.817 1171.42 130.817 1171.42 130.817C1171.42 130.817 1171.42 130.817 1171.42 130.817C1171.42 130.817 1171.42 130.817 1171.42 130.817C1171.42 130.817 1171.42 130.817 1171.42 130.817C1171.42 130.817 1171.42 130.817 1171.42 130.817C1171.42 130.817 1171.42 130.817 1171.42 130.817C1171.42 130.817 1171.42 130.817 1171.42 130.817C1171.42 130.817 1171.42 130.817 1171.42 130.817C1171.42 130.817 1171.42 130.817 1171.42 130.817C1171.42 130.817 1171.42 130.817 1171.42 130.817C1171.42 130.817 1171.42 130.817 1171.42 130.817C1171.42 130.817 1171.42 130.817 1171.42 130.817C1171.42 130.817 1171.42 130.817 1171.42 130.817C1171.42 130.817 1171.42 130.817 1171.42 130.817C1171.42 130.817 1171.42 130.817 1171.42 130.817C1171.42 130.817 1171.42 130.817 1171.42 130.817C1171.42 130.817 1171.42 130.817 1171.42 130.817C1171.42 130.817 1171.42 130.817 1171.42 130.817C1171.42 130.817 1171.42 130.817 1171.42 130.817C1171.42 130.817 1171.42 130.817 1171.42 130.817C1171.42 130.817 1171.42 130.817 1171.42 130.817C1171.42 130.817 1171.42 130.817 1171.42 130.817C1171.42 130.817 1171.42 130.817 1171.42 130.817C1171.42 130.817 1171.42 130.817 1171.42 130.817C1171.42 130.817 1171.42 130.817 1171.42 130.817C1171.42 130.817 1171.42 130.817 1171.42 130.817C1171.42 130.817 1171.42 130.817 1171.42 130.817C1171.42 130.817 1171.42 130.817 1171.42 130.817C1171.42 130.817 1171.42 130.817 1171.42 130.817C1171.42 130.817 1171.42 130.817 1171.42 130.817C1171.42 130.817 1171.42 130.817 1171.42 130.817C1171.42 130.817 1171.42 130.817 1171.42 130.817C1171.42 130.817 1171.42 130.817 1171.42 130.817C1171.42 130.817 1171.42 130.817 1171.42 130.817C1171.42 130.817 1171.42 130.817 1171.42 130.817C1171.42 130.817 1171.42 130.817 1171.42 130.817C1171.42 130.817 1171.42 130.817 1171.42 130.817C1171.42 130.817 1171.42 130.817 1171.42 130.817C1171.42 130.817 1171.42 130.817 1171.42 130.817C1171.42 130.817 1171.42 130.817 1171.42 130.817C1171.42 130.817 1171.42 130.817 1171.42 130.817C1171.42 130.817 1171.42 130.817 1171.42 130.817C1171.42 130.817 1171.42 130.817 1171.42 130.817C1171.42 130.817 1171.42 130.817 1171.42 130.817C1171.42 130.817 1171.42 130.817 1171.42 130.817C1171.42 130.817 1171.42 130.817 1171.42 130.817C1171.42 130.817 1171.42 130.817 1171.42 130.817C1171.42 130.817 1171.42 130.817 1171.42 130.817C1171.42 130.817 1171.42 130.817 1171.42 130.817C1171.42 130.817 1171.42 130.817 1171.42 130.817C1171.42 130.817 1171.42 130.817 1171.42 130.817C1171.42 130.817 1171.42 130.817 1171.42 130.817C1171.42 130.817 1171.42 130.817 1171.42 130.817C1171.42 130.817 1171.42 130.817 1171.42 130.817C1171.42 130.817 1171.42 130.817 1171.42 130.817C1171.42 130.817 1171.42 130.817 1171.42 130.817C1171.42 130.817 1171.42 130.817 1171.42 130.817C1171.42 130.817 1171.42 130.817 1171.42 130.817C1171.42 130.817 1171.42 130.817 1171.42 130.817C1171.42 130.817 1171.42 130.817 1171.42 130.817C1171.42 130.817 1171.42 130.817 1171.42 130.817C1171.42 130.817 1171.42 130.817 1171.42 130.817C1171.42 130.817 1171.42 130.817 1171.42 130.817C1171.42 130.817 1171.42 130.817 1171.42 130.817C1171.42 130.817 1171.42 130.817 1171.42 130.817C1171.42 130.817 1171.42 130.817 1171.42 130.817C1171.42 130.817 1171.42 130.817 1171.42 130.817C1171.42 130.817 1171.42 130.817 1171.42 130.817C1171.42 130.817 1171.42 130.817 1171.42 130.817C1171.42 130.817 1171.42 130.817 1171.42 130.817C1171.42 130.817 1171.42 130.817 1171.42 130.817C1171.42 130.817 1171.42 130.817 1171.42 130.817C1171.42 130.817 1171.42 130.817 1171.42 130.817C1171.42 130.817 1171.42 130.817 1171.42 130.817C1171.42 130.817 1171.42 130.817 1171.42 130.817C1171.42 130.817 1171.42 130.817 1171.42 130.817C1171.42 130.817 1171.42 130.817 1171.42 130.817C1171.42 130.817 1171.42 130.817 1171.42 130.817C1171.42 130.817 1171.42 130.817 1171.42 130.817C1171.42 130.817 1171.42 130.817 1171.42 130.817C1171.42 130.817 1171.42 130.817 1171.42 130.817C1171.42 130.817 1171.42 130.817 1171.42 130.817C1171.42 130.817 1171.42 130.817 1171.42 130.817C1171.42 130.817 1171.42 130.817 1171.42 130.817C1171.42 130.817 1171.42 130.817 1171.42 130.817C1171.42 130.817 1171.42 130.817 1171.42 130.817C1171.42 130.817 1171.42 130.817 1171.42 130.817C1171.42 130.817 1171.42 130.817 1171.42 130.817C1171.42 130.817 1171.42 130.817 1171.42 130.817C1171.42 130.817 1171.42 130.817 1171.42 130.817C1171.42 130.817 1171.42 130.817 1171.42 130.817C1171.42 130.817 1171.42 130.817 1171.42 130.817C1171.42 130.817 1171.42 130.817 1171.42 130.817C1171.42 130.817 1171.42 130.817 1171.42 130.817C1171.42 130.817 1171.42 130.817 1171.42 130.817C1171.42 130.817 1171.42 130.817 1171.42 130.817C1171.42 130.817 1171.42 130.817 1171.42 130.817C1171.42 130.817 1171.42 130.817 1171.42 130.817C1171.42 130.817 1171.42 130.817 1171.42 130.817C1171.42 130.817 1171.42 130.817 1171.42 130.817C1171.42 130.817 1171.42 130.817 1171.42 130.817C1171.42 130.817 1171.42 130.817 1171.42 130.817C1171.42 130.817 1171.42 130.817 1171.42 130.817C1171.42 130.817 1171.42 130.817 1171.42 130.817C1171.42 130.817 1171.42 130.817 1171.42 130.817C1171.42 130.817 1171.42 130.817 1171.42 130.817C1171.42 130.817 1171.42 130.817 1171.42 130.817C1171.42 130.817 1171.42 130.817 1171.42 130.817C1171.42 130.817 1171.42 130.817 1171.42 130.817C1171.42 130.817 1171.42 130.817 1171.42 130.817C1171.42 130.817 1171.42 130.817 1171.42 130.817C1171.42 130.817 1171.42 130.817 1171.42 130.817C1171.42 130.817 1171.42 130.817 1171.42 130.817C1171.42 130.817 1171.42 130.817 1171.42 130.817C1171.42 130.817 1171.42 130.817 1171.42 130.817C1171.42 130.817 1171.42 130.817 1171.42 130.817C1171.42 130.817 1171.42 130.817 1171.42 130.817C1171.42 130.817 1171.42 130.817 1171.42 130.817C1171.42 130.817 1171.42 130.817 1171.42 130.817C1171.42 130.817 1171.42 130.817 1171.42 130.817C1171.42 130.817 1171.42 130.817 1171.42 130.817C1171.42 130.817 1171.42 130.817 1171.42 130.817C1171.42 130.817 1171.42 130.817 1171.42 130.817C1171.42 130.817 1171.42 130.817 1171.42 130.817C1171.42 130.817 1171.42 130.817 1171.42 130.817C1171.42 130.817 1171.42 130.817 1171.42 130.817C1171.42 130.817 1171.42 130.817 1171.42 130.817C1171.42 130.817 1171.42 130.817 1171.42 130.817C1171.42 130.817 1171.42 130.817 1171.42 130.817C1171.42 130.817 1171.42 130.817 1171.42 130.817C1171.42 130.817 1171.42 130.817 1171.42 130.817C1171.42 130.817 1171.42 130.817 1171.42 130.817C1171.42 130.817 1171.42 130.817 1171.42 130.817C1171.42 130.817 1171.42 130.817 1171.42 130.817C1171.42 130.817 1171.42 130.817 1171.42 130.817C1171.42 130.817 1171.42 130.817 1171.42 130.817C1171.42 130.817 1171.42 130.817 1171.42 130.817C1171.42 130.817 1171.42 130.817 1171.42 130.817C1171.42 130.817 1171.42 130.817 1171.42 130.817C1171.42 130.817 1171.42 130.817 1171.42 130.817C1171.42 130.817 1171.42 130.817 1171.42 130.817C1171.42 130.817 1171.42 130.817 1171.42 130.817C1171.42 130.817 1171.42 130.817 1171.42 130.817C1171.42 130.817 1171.42 130.817 1171.42 130.817C1171.42 130.817 1171.42 130.817 1171.42 130.817C1171.42 130.817 1171.42 130.817 1171.42 130.817C1171.42 130.817 1171.42 130.817 1171.42 130.817C1171.42 130.817 1171.42 130.817 1171.42 130.817C1171.42 130.817 1171.42 130.817 1171.42 130.817C1171.42 130.817 1171.42 130.817 1171.42 130.817C1171.42 130.817 1171.42 130.817 1171.42 130.817C1171.42 130.817 1171.42 130.817 1171.42 130.817C1171.42 130.817 1171.42 130.817 1171.42 130.817C1171.42 130.817 1171.42 130.817 1171.42 130.817C1171.42 130.817 1171.42 130.817 1171.42 130.817C1171.42 130.817 1171.42 130.817 1171.42 130.817C1171.42 130.817 1171.42 130.817 1171.42 130.817C1171.42 130.817 1171.42 130.817 1171.42 130.817C1171.42 130.817 1171.42 130.817 1171.42 130.817C1171.42 130.817 1171.42 130.817 1171.42 130.817C1171.42 130.817 1171.42 130.817 1171.42 130.817C1171.42 130.817 1171.42 130.817 1171.42 130.817C1171.42 130.817 1171.42 130.817 1171.42 130.817C1171.42 130.817 1171.42 130.817 1171.42 130.817C1171.42 130.817 1171.42 130.817 1171.42 130.817C1171.42 130.817 1171.42 130.817 1171.42 130.817C1171.42 130.817 1171.42 130.817 1171.42 130.817C1171.42 130.817 1171.42 130.817 1171.42 130.817C1171.42 130.817 1171.42 130.817 1171.42 130.817C1171.42 130.817 1171.42 130.817 1171.42 130.817C1171.42 130.817 1171.42 130.817 1171.42 130.817C1171.42 130.817 1171.42 130.817 1171.42 130.817C1171.42 130.817 1171.42 130.817 1171.42 130.817C1171.42 130.817 1171.42 130.817 1171.42 130.817C1171.42 130.817 1171.42 130.817 1171.42 130.817C1171.42 130.817 1171.42 130.817 1171.42 130.817C1171.42 130.817 1171.42 130.817 1171.42 130.817C1171.42 130.817 1171.42 130.817 1171.42 130.817C1171.42 130.817 1171.42 130.817 1171.42 130.817C1171.42 130.817 1171.42 130.817 1171.42 130.817C1171.42 130.817 1171.42 130.817 1171.42 130.817C1171.42 130.817 1171.42 130.817 1171.42 130.817C1171.42 130.817 1171.42 130.817 1171.42 130.817C1171.42 130.817 1171.42 130.817 1171.42 130.817C1171.42 130.817 1171.42 130.817 1171.42 130.817C1171.42 130.817 1171.42 130.817 1171.42 130.817C1171.42 130.817 1171.42 130.817 1171.42 130.817C1171.42 130.817 1171.42 130.817 1171.42 130.817C1171.42 130.817 1171.42 130.817 1171.42 130.817C1171.42 130.817 1171.42 130.817 1171.42 130.817C1171.42 130.817 1171.42 130.817 1171.42 130.817C1171.42 130.817 1171.42 130.817 1171.42 130.817C1171.42 130.817 1171.42 130.817 1171.42 130.817C1171.42 130.817 1171.42 130.817 1171.42 130.817C1171.42 130.817 1171.42 130.817 1171.42 130.817C1171.42 130.817 1171.42 130.817 1171.42 130.817C1171.42 130.817 1171.42 130.817 1171.42 130.817C1171.42 130.817 1171.42 130.817 1171.42 130.817C1171.42 130.817 1171.42 130.817 1171.42 130.817C1171.42 130.817 1171.42 130.817 1171.42 130.817C1171.42 130.817 1171.42 130.817 1171.42 130.817C1171.42 130.817 1171.42 130.817 1171.42 130.817C1171.42 130.817 1171.42 130.817 1171.42 130.817V124.817ZM1176 79.4087C1176 92.6707 1175.16 104.61 1173.82 113.175C1173.14 117.481 1172.36 120.798 1171.56 122.972C1171.15 124.076 1170.8 124.71 1170.57 125.012C1170.29 125.376 1170.55 124.818 1171.42 124.817L1171.42 130.817C1173.34 130.817 1174.63 129.582 1175.33 128.656C1176.09 127.668 1176.69 126.4 1177.19 125.054C1178.19 122.329 1179.05 118.557 1179.74 114.103C1181.15 105.147 1182 92.882 1182 79.4087H1176ZM1171.42 34C1170.55 33.9999 1170.29 33.4419 1170.57 33.8059C1170.8 34.1079 1171.15 34.7412 1171.56 35.8453C1172.36 38.0195 1173.14 41.3368 1173.82 45.6426C1175.16 54.2071 1176 66.1468 1176 79.4087H1182C1182 65.9355 1181.15 53.6709 1179.74 44.715C1179.05 40.2605 1178.19 36.4885 1177.19 33.7634C1176.69 32.4179 1176.09 31.149 1175.33 30.1612C1174.63 29.2355 1173.34 28.0001 1171.42 28L1171.42 34ZM1171.42 34C1171.42 34 1171.42 34 1171.42 34C1171.42 34 1171.42 34 1171.42 34C1171.42 34 1171.42 34 1171.42 34C1171.42 34 1171.42 34 1171.42 34C1171.42 34 1171.42 34 1171.42 34C1171.42 34 1171.42 34 1171.42 34C1171.42 34 1171.42 34 1171.42 34C1171.42 34 1171.42 34 1171.42 34C1171.42 34 1171.42 34 1171.42 34C1171.42 34 1171.42 34 1171.42 34C1171.42 34 1171.42 34 1171.42 34C1171.42 34 1171.42 34 1171.42 34C1171.42 34 1171.42 34 1171.42 34C1171.42 34 1171.42 34 1171.42 34C1171.42 34 1171.42 34 1171.42 34C1171.42 34 1171.42 34 1171.42 34C1171.42 34 1171.42 34 1171.42 34C1171.42 34 1171.42 34 1171.42 34C1171.42 34 1171.42 34 1171.42 34C1171.42 34 1171.42 34 1171.42 34C1171.42 34 1171.42 34 1171.42 34C1171.42 34 1171.42 34 1171.42 34C1171.42 34 1171.42 34 1171.42 34C1171.42 34 1171.42 34 1171.42 34C1171.42 34 1171.42 34 1171.42 34C1171.42 34 1171.42 34 1171.42 34C1171.42 34 1171.42 34 1171.42 34C1171.42 34 1171.42 34 1171.42 34C1171.42 34 1171.42 34 1171.42 34C1171.42 34 1171.42 34 1171.42 34C1171.42 34 1171.42 34 1171.42 34C1171.42 34 1171.42 34 1171.42 34C1171.42 34 1171.42 34 1171.42 34C1171.42 34 1171.42 34 1171.42 34C1171.42 34 1171.42 34 1171.42 34C1171.42 34 1171.42 34 1171.42 34C1171.42 34 1171.42 34 1171.42 34C1171.42 34 1171.42 34 1171.42 34C1171.42 34 1171.42 34 1171.42 34C1171.42 34 1171.42 34 1171.42 34C1171.42 34 1171.42 34 1171.42 34C1171.42 34 1171.42 34 1171.42 34C1171.42 34 1171.42 34 1171.42 34C1171.42 34 1171.42 34 1171.42 34C1171.42 34 1171.42 34 1171.42 34C1171.42 34 1171.42 34 1171.42 34C1171.42 34 1171.42 34 1171.42 34C1171.42 34 1171.42 34 1171.42 34C1171.42 34 1171.42 34 1171.42 34C1171.42 34 1171.42 34 1171.42 34C1171.42 34 1171.42 34 1171.42 34C1171.42 34 1171.42 34 1171.42 34C1171.42 34 1171.42 34 1171.42 34C1171.42 34 1171.42 34 1171.42 34C1171.42 34 1171.42 34 1171.42 34C1171.42 34 1171.42 34 1171.42 34C1171.42 34 1171.42 34 1171.42 34C1171.42 34 1171.42 34 1171.42 34C1171.42 34 1171.42 34 1171.42 34C1171.42 34 1171.42 34 1171.42 34C1171.42 34 1171.42 34 1171.42 34C1171.42 34 1171.42 34 1171.42 34C1171.42 34 1171.42 34 1171.42 34C1171.42 34 1171.42 34 1171.42 34C1171.42 34 1171.42 34 1171.42 34C1171.42 34 1171.42 34 1171.42 34C1171.42 34 1171.42 34 1171.42 34C1171.42 34 1171.42 34 1171.42 34C1171.42 34 1171.42 34 1171.42 34C1171.42 34 1171.42 34 1171.42 34C1171.42 34 1171.42 34 1171.42 34C1171.42 34 1171.42 34 1171.42 34C1171.42 34 1171.42 34 1171.42 34C1171.42 34 1171.42 34 1171.42 34C1171.42 34 1171.42 34 1171.42 34C1171.42 34 1171.42 34 1171.42 34C1171.42 34 1171.42 34 1171.42 34C1171.42 34 1171.42 34 1171.42 34C1171.42 34 1171.42 34 1171.42 34C1171.42 34 1171.42 34 1171.42 34C1171.42 34 1171.42 34 1171.42 34C1171.42 34 1171.42 34 1171.42 34C1171.42 34 1171.42 34 1171.42 34C1171.42 34 1171.42 34 1171.42 34C1171.42 34 1171.42 34 1171.42 34C1171.42 34 1171.42 34 1171.42 34C1171.42 34 1171.42 34 1171.42 34C1171.42 34 1171.42 34 1171.42 34C1171.42 34 1171.42 34 1171.42 34C1171.42 34 1171.42 34 1171.42 34C1171.42 34 1171.42 34 1171.42 34C1171.42 34 1171.42 34 1171.42 34C1171.42 34 1171.42 34 1171.42 34C1171.42 34 1171.42 34 1171.42 34C1171.42 34 1171.42 34 1171.42 34C1171.42 34 1171.42 34 1171.42 34C1171.42 34 1171.42 34 1171.42 34C1171.42 34 1171.42 34 1171.42 34C1171.42 34 1171.42 34 1171.42 34C1171.42 34 1171.42 34 1171.42 34C1171.42 34 1171.42 34 1171.42 34C1171.42 34 1171.42 34 1171.42 34C1171.42 34 1171.42 34 1171.42 34C1171.42 34 1171.42 34 1171.42 34C1171.42 34 1171.42 34 1171.42 34C1171.42 34 1171.42 34 1171.42 34C1171.42 34 1171.42 34 1171.42 34C1171.42 34 1171.42 34 1171.42 34C1171.42 34 1171.42 34 1171.42 34C1171.42 34 1171.42 34 1171.42 34C1171.42 34 1171.42 34 1171.42 34C1171.42 34 1171.42 34 1171.42 34C1171.42 34 1171.42 34 1171.42 34C1171.42 34 1171.42 34 1171.42 34C1171.42 34 1171.42 34 1171.42 34C1171.42 34 1171.42 34 1171.42 34C1171.42 34 1171.42 34 1171.42 34C1171.42 34 1171.42 34 1171.42 34C1171.42 34 1171.42 34 1171.42 34C1171.42 34 1171.42 34 1171.42 34C1171.42 34 1171.42 34 1171.42 34C1171.42 34 1171.42 34 1171.42 34C1171.42 34 1171.42 34 1171.42 34C1171.42 34 1171.42 34 1171.42 34C1171.42 34 1171.42 34 1171.42 34C1171.42 34 1171.42 34 1171.42 34C1171.42 34 1171.42 34 1171.42 34C1171.42 34 1171.42 34 1171.42 34C1171.42 34 1171.42 34 1171.42 34C1171.42 34 1171.42 34 1171.42 34C1171.42 34 1171.42 34 1171.42 34C1171.42 34 1171.42 34 1171.42 34C1171.42 34 1171.42 34 1171.42 34C1171.42 34 1171.42 34 1171.42 34C1171.42 34 1171.42 34 1171.42 34C1171.42 34 1171.42 34 1171.42 34C1171.42 34 1171.42 34 1171.42 34C1171.42 34 1171.42 34 1171.42 34C1171.42 34 1171.42 34 1171.42 34C1171.42 34 1171.42 34 1171.42 34C1171.42 34 1171.42 34 1171.42 34C1171.42 34 1171.42 34 1171.42 34C1171.42 34 1171.42 34 1171.42 34C1171.42 34 1171.42 34 1171.42 34C1171.42 34 1171.42 34 1171.42 34C1171.42 34 1171.42 34 1171.42 34C1171.42 34 1171.42 34 1171.42 34C1171.42 34 1171.42 34 1171.42 34C1171.42 34 1171.42 34 1171.42 34C1171.42 34 1171.42 34 1171.42 34C1171.42 34 1171.42 34 1171.42 34C1171.42 34 1171.42 34 1171.42 34C1171.42 34 1171.42 34 1171.42 34C1171.42 34 1171.42 34 1171.42 34C1171.42 34 1171.42 34 1171.42 34C1171.42 34 1171.42 34 1171.42 34C1171.42 34 1171.42 34 1171.42 34C1171.42 34 1171.42 34 1171.42 34C1171.42 34 1171.42 34 1171.42 34C1171.42 34 1171.42 34 1171.42 34C1171.42 34 1171.42 34 1171.42 34C1171.42 34 1171.42 34 1171.42 34C1171.42 34 1171.42 34 1171.42 34C1171.42 34 1171.42 34 1171.42 34C1171.42 34 1171.42 34 1171.42 34C1171.42 34 1171.42 34 1171.42 34C1171.42 34 1171.42 34 1171.42 34C1171.42 34 1171.42 34 1171.42 34C1171.42 34 1171.42 34 1171.42 34C1171.42 34 1171.42 34 1171.42 34C1171.42 34 1171.42 34 1171.42 34C1171.42 34 1171.42 34 1171.42 34C1171.42 34 1171.42 34 1171.42 34C1171.42 34 1171.42 34 1171.42 34C1171.42 34 1171.42 34 1171.42 34C1171.42 34 1171.42 34 1171.42 34C1171.42 34 1171.42 34 1171.42 34C1171.42 34 1171.42 34 1171.42 34C1171.42 34 1171.42 34 1171.42 34C1171.42 34 1171.42 34 1171.42 34C1171.42 34 1171.42 34 1171.42 34C1171.42 34 1171.42 34 1171.42 34C1171.42 34 1171.42 34 1171.42 34C1171.42 34 1171.42 34 1171.42 34C1171.42 34 1171.42 34 1171.42 34C1171.42 34 1171.42 34 1171.42 34C1171.42 34 1171.42 34 1171.42 34C1171.42 34 1171.42 34 1171.42 34C1171.42 34 1171.42 34 1171.42 34C1171.42 34 1171.42 34 1171.42 34C1171.42 34 1171.42 34 1171.42 34C1171.42 34 1171.42 34 1171.42 34C1171.42 34 1171.42 34 1171.42 34C1171.42 34 1171.42 34 1171.42 34C1171.42 34 1171.42 34 1171.42 34C1171.42 34 1171.42 34 1171.42 34C1171.42 34 1171.42 34 1171.42 34C1171.42 34 1171.42 34 1171.42 34C1171.42 34 1171.42 34 1171.42 34C1171.42 34 1171.42 34 1171.42 34C1171.42 34 1171.42 34 1171.42 34C1171.42 34 1171.42 34 1171.42 34C1171.42 34 1171.42 34 1171.42 34C1171.42 34 1171.42 34 1171.42 34C1171.42 34 1171.42 34 1171.42 34C1171.42 34 1171.42 34 1171.42 34C1171.42 34 1171.42 34 1171.42 34C1171.42 34 1171.42 34 1171.42 34C1171.42 34 1171.42 34 1171.42 34C1171.42 34 1171.42 34 1171.42 34C1171.42 34 1171.42 34 1171.42 34C1171.42 34 1171.42 34 1171.42 34C1171.42 34 1171.42 34 1171.42 34C1171.42 34 1171.42 34 1171.42 34C1171.42 34 1171.42 34 1171.42 34C1171.42 34 1171.42 34 1171.42 34C1171.42 34 1171.42 34 1171.42 34C1171.42 34 1171.42 34 1171.42 34C1171.42 34 1171.42 34 1171.42 34C1171.42 34 1171.42 34 1171.42 34C1171.42 34 1171.42 34 1171.42 34C1171.42 34 1171.42 34 1171.42 34C1171.42 34 1171.42 34 1171.42 34C1171.42 34 1171.42 34 1171.42 34C1171.42 34 1171.42 34 1171.42 34C1171.42 34 1171.42 34 1171.42 34C1171.42 34 1171.42 34 1171.42 34C1171.42 34 1171.42 34 1171.42 34C1171.42 34 1171.42 34 1171.42 34C1171.42 34 1171.42 34 1171.42 34C1171.42 34 1171.42 34 1171.42 34C1171.42 34 1171.42 34 1171.42 34C1171.42 34 1171.42 34 1171.42 34C1171.42 34 1171.42 34 1171.42 34C1171.42 34 1171.42 34 1171.42 34C1171.42 34 1171.42 34 1171.42 34C1171.42 34 1171.42 34 1171.42 34C1171.42 34 1171.42 34 1171.42 34C1171.42 34 1171.42 34 1171.42 34C1171.42 34 1171.42 34 1171.42 34C1171.42 34 1171.42 34 1171.42 34C1171.42 34 1171.42 34 1171.42 34C1171.42 34 1171.42 34 1171.42 34C1171.42 34 1171.42 34 1171.42 34C1171.42 34 1171.42 34 1171.42 34C1171.42 34 1171.42 34 1171.42 34C1171.42 34 1171.42 34 1171.42 34C1171.42 34 1171.42 34 1171.42 34C1171.42 34 1171.42 34 1171.42 34C1171.42 34 1171.42 34 1171.42 34C1171.42 34 1171.42 34 1171.42 34C1171.42 34 1171.42 34 1171.42 34C1171.42 34 1171.42 34 1171.42 34C1171.42 34 1171.42 34 1171.42 34C1171.42 34 1171.42 34 1171.42 34C1171.42 34 1171.42 34 1171.42 34C1171.42 34 1171.42 34 1171.42 34C1171.42 34 1171.42 34 1171.42 34C1171.42 34 1171.42 34 1171.42 34C1171.42 34 1171.42 34 1171.42 34C1171.42 34 1171.42 34 1171.42 34C1171.42 34 1171.42 34 1171.42 34C1171.42 34 1171.42 34 1171.42 34C1171.42 34 1171.42 34 1171.42 34C1171.42 34 1171.42 34 1171.42 34C1171.42 34 1171.42 34 1171.42 34C1171.42 34 1171.42 34 1171.42 34C1171.42 34 1171.42 34 1171.42 34C1171.42 34 1171.42 34 1171.42 34C1171.42 34 1171.42 34 1171.42 34C1171.42 34 1171.42 34 1171.42 34C1171.42 34 1171.42 34 1171.42 34C1171.42 34 1171.42 34 1171.42 34C1171.42 34 1171.42 34 1171.42 34C1171.42 34 1171.42 34 1171.42 34C1171.42 34 1171.42 34 1171.42 34C1171.42 34 1171.42 34 1171.42 34C1171.42 34 1171.42 34 1171.42 34C1171.42 34 1171.42 34 1171.42 34C1171.42 34 1171.42 34 1171.42 34C1171.42 34 1171.42 34 1171.42 34C1171.42 34 1171.42 34 1171.42 34C1171.42 34 1171.42 34 1171.42 34C1171.42 34 1171.42 34 1171.42 34C1171.42 34 1171.42 34 1171.42 34C1171.42 34 1171.42 34 1171.42 34C1171.42 34 1171.42 34 1171.42 34C1171.42 34 1171.42 34 1171.42 34C1171.42 34 1171.42 34 1171.42 34C1171.42 34 1171.42 34 1171.42 34C1171.42 34 1171.42 34 1171.42 34C1171.42 34 1171.42 34 1171.42 34C1171.42 34 1171.42 34 1171.42 34C1171.42 34 1171.42 34 1171.42 34C1171.42 34 1171.42 34 1171.42 34C1171.42 34 1171.42 34 1171.42 34C1171.42 34 1171.42 34 1171.42 34C1171.42 34 1171.42 34 1171.42 34C1171.42 34 1171.42 34 1171.42 34C1171.42 34 1171.42 34 1171.42 34C1171.42 34 1171.42 34 1171.42 34C1171.42 34 1171.42 34 1171.42 34C1171.42 34 1171.42 34 1171.42 34C1171.42 34 1171.42 34 1171.42 34C1171.42 34 1171.42 34 1171.42 34C1171.42 34 1171.42 34 1171.42 34C1171.42 34 1171.42 34 1171.42 34C1171.42 34 1171.42 34 1171.42 34C1171.42 34 1171.42 34 1171.42 34C1171.42 34 1171.42 34 1171.42 34C1171.42 34 1171.42 34 1171.42 34C1171.42 34 1171.42 34 1171.42 34C1171.42 34 1171.42 34 1171.42 34C1171.42 34 1171.42 34 1171.42 34C1171.42 34 1171.42 34 1171.42 34C1171.42 34 1171.42 34 1171.42 34C1171.42 34 1171.42 34 1171.42 34C1171.42 34 1171.42 34 1171.42 34C1171.42 34 1171.42 34 1171.42 34C1171.42 34 1171.42 34 1171.42 34C1171.42 34 1171.42 34 1171.42 34C1171.42 34 1171.42 34 1171.42 34C1171.42 34 1171.42 34 1171.42 34C1171.42 34 1171.42 34 1171.42 34C1171.42 34 1171.42 34 1171.42 34C1171.42 34 1171.42 34 1171.42 34C1171.42 34 1171.42 34 1171.42 34C1171.42 34 1171.42 34 1171.42 34C1171.42 34 1171.42 34 1171.42 34C1171.42 34 1171.42 34 1171.42 34C1171.42 34 1171.42 34 1171.42 34C1171.42 34 1171.42 34 1171.42 34C1171.42 34 1171.42 34 1171.42 34C1171.42 34 1171.42 34 1171.42 34C1171.42 34 1171.42 34 1171.42 34C1171.42 34 1171.42 34 1171.42 34C1171.42 34 1171.42 34 1171.42 34C1171.42 34 1171.42 34 1171.42 34C1171.42 34 1171.42 34 1171.42 34C1171.42 34 1171.42 34 1171.42 34C1171.42 34 1171.42 34 1171.42 34C1171.42 34 1171.42 34 1171.42 34C1171.42 34 1171.42 34 1171.42 34C1171.42 34 1171.42 34 1171.42 34C1171.42 34 1171.42 34 1171.42 34C1171.42 34 1171.42 34 1171.42 34C1171.42 34 1171.42 34 1171.42 34C1171.42 34 1171.42 34 1171.42 34C1171.42 34 1171.42 34 1171.42 34C1171.42 34 1171.42 34 1171.42 34C1171.42 34 1171.42 34 1171.42 34C1171.42 34 1171.42 34 1171.42 34C1171.42 34 1171.42 34 1171.42 34C1171.42 34 1171.42 34 1171.42 34C1171.42 34 1171.42 34 1171.42 34C1171.42 34 1171.42 34 1171.42 34C1171.42 34 1171.42 34 1171.42 34C1171.42 34 1171.42 34 1171.42 34C1171.42 34 1171.42 34 1171.42 34C1171.42 34 1171.42 34 1171.42 34C1171.42 34 1171.42 34 1171.42 34C1171.42 34 1171.42 34 1171.42 34C1171.42 34 1171.42 34 1171.42 34C1171.42 34 1171.42 34 1171.42 34C1171.42 34 1171.42 34 1171.42 34C1171.42 34 1171.42 34 1171.42 34C1171.42 34 1171.42 34 1171.42 34C1171.42 34 1171.42 34 1171.42 34C1171.42 34 1171.42 34 1171.42 34C1171.42 34 1171.42 34 1171.42 34C1171.42 34 1171.42 34 1171.42 34C1171.42 34 1171.42 34 1171.42 34C1171.42 34 1171.42 34 1171.42 34C1171.42 34 1171.42 34 1171.42 34C1171.42 34 1171.42 34 1171.42 34C1171.42 34 1171.42 34 1171.42 34C1171.42 34 1171.42 34 1171.42 34C1171.42 34 1171.42 34 1171.42 34C1171.42 34 1171.42 34 1171.42 34C1171.42 34 1171.42 34 1171.42 34C1171.42 34 1171.42 34 1171.42 34C1171.42 34 1171.42 34 1171.42 34C1171.42 34 1171.42 34 1171.42 34C1171.42 34 1171.42 34 1171.42 34C1171.42 34 1171.42 34 1171.42 34C1171.42 34 1171.42 34 1171.42 34C1171.42 34 1171.42 34 1171.42 34C1171.42 34 1171.42 34 1171.42 34C1171.42 34 1171.42 34 1171.42 34C1171.42 34 1171.42 34 1171.42 34C1171.42 34 1171.42 34 1171.42 34C1171.42 34 1171.42 34 1171.42 34C1171.42 34 1171.42 34 1171.42 34C1171.42 34 1171.42 34 1171.42 34C1171.42 34 1171.42 34 1171.42 34C1171.42 34 1171.42 34 1171.42 34C1171.42 34 1171.42 34 1171.42 34C1171.42 34 1171.42 34 1171.42 34C1171.42 34 1171.42 34 1171.42 34C1171.42 34 1171.42 34 1171.42 34C1171.42 34 1171.42 34 1171.42 34C1171.42 34 1171.42 34 1171.42 34C1171.42 34 1171.42 34 1171.42 34C1171.42 34 1171.42 34 1171.42 34C1171.42 34 1171.42 34 1171.42 34C1171.42 34 1171.42 34 1171.42 34C1171.42 34 1171.42 34 1171.42 34C1171.42 34 1171.42 34 1171.42 34C1171.42 34 1171.42 34 1171.42 34C1171.42 34 1171.42 34 1171.42 34C1171.42 34 1171.42 34 1171.42 34C1171.42 34 1171.42 34 1171.42 34C1171.42 34 1171.42 34 1171.42 34C1171.42 34 1171.42 34 1171.42 34C1171.42 34 1171.42 34 1171.42 34C1171.42 34 1171.42 34 1171.42 34C1171.42 34 1171.42 34 1171.42 34C1171.42 34 1171.42 34 1171.42 34C1171.42 34 1171.42 34 1171.42 34C1171.42 34 1171.42 34 1171.42 34C1171.42 34 1171.42 34 1171.42 34C1171.42 34 1171.42 34 1171.42 34C1171.42 34 1171.42 34 1171.42 34C1171.42 34 1171.42 34 1171.42 34C1171.42 34 1171.42 34 1171.42 34C1171.42 34 1171.42 34 1171.42 34C1171.42 34 1171.42 34 1171.42 34C1171.42 34 1171.42 34 1171.42 34C1171.42 34 1171.42 34 1171.42 34C1171.42 34 1171.42 34 1171.42 34C1171.42 34 1171.42 34 1171.42 34C1171.42 34 1171.42 34 1171.42 34C1171.42 34 1171.42 34 1171.42 34C1171.42 34 1171.42 34 1171.42 34C1171.42 34 1171.42 34 1171.42 34C1171.42 34 1171.42 34 1171.42 34C1171.42 34 1171.42 34 1171.42 34C1171.42 34 1171.42 34 1171.42 34C1171.42 34 1171.42 34 1171.42 34C1171.42 34 1171.42 34 1171.42 34C1171.42 34 1171.42 34 1171.42 34C1171.42 34 1171.42 34 1171.42 34C1171.42 34 1171.42 34 1171.42 34C1171.42 34 1171.42 34 1171.42 34C1171.42 34 1171.42 34 1171.42 34C1171.42 34 1171.42 34 1171.42 34C1171.42 34 1171.42 34 1171.42 34C1171.42 34 1171.42 34 1171.42 34C1171.42 34 1171.42 34 1171.42 34C1171.42 34 1171.42 34 1171.42 34C1171.42 34 1171.42 34 1171.42 34C1171.42 34 1171.42 34 1171.42 34C1171.42 34 1171.42 34 1171.42 34C1171.42 34 1171.42 34 1171.42 34C1171.42 34 1171.42 34 1171.42 34C1171.42 34 1171.42 34 1171.42 34C1171.42 34 1171.42 34 1171.42 34C1171.42 34 1171.42 34 1171.42 34C1171.42 34 1171.42 34 1171.42 34C1171.42 34 1171.42 34 1171.42 34C1171.42 34 1171.42 34 1171.42 34C1171.42 34 1171.42 34 1171.42 34C1171.42 34 1171.42 34 1171.42 34C1171.42 34 1171.42 34 1171.42 34C1171.42 34 1171.42 34 1171.42 34C1171.42 34 1171.42 34 1171.42 34C1171.42 34 1171.42 34 1171.42 34C1171.42 34 1171.42 34 1171.42 34C1171.42 34 1171.42 34 1171.42 34C1171.42 34 1171.42 34 1171.42 34C1171.42 34 1171.42 34 1171.42 34C1171.42 34 1171.42 34 1171.42 34C1171.42 34 1171.42 34 1171.42 34C1171.42 34 1171.42 34 1171.42 34C1171.42 34 1171.42 34 1171.42 34C1171.42 34 1171.42 34 1171.42 34C1171.42 34 1171.42 34 1171.42 34C1171.42 34 1171.42 34 1171.42 34C1171.42 34 1171.42 34 1171.42 34C1171.42 34 1171.42 34 1171.42 34C1171.42 34 1171.42 34 1171.42 34C1171.42 34 1171.42 34 1171.42 34C1171.42 34 1171.42 34 1171.42 34C1171.42 34 1171.42 34 1171.42 34C1171.42 34 1171.42 34 1171.42 34C1171.42 34 1171.42 34 1171.42 34C1171.42 34 1171.42 34 1171.42 34C1171.42 34 1171.42 34 1171.42 34C1171.42 34 1171.42 34 1171.42 34C1171.42 34 1171.42 34 1171.42 34C1171.42 34 1171.42 34 1171.42 34C1171.42 34 1171.42 34 1171.42 34C1171.42 34 1171.42 34 1171.42 34C1171.42 34 1171.42 34 1171.42 34C1171.42 34 1171.42 34 1171.42 34C1171.42 34 1171.42 34 1171.42 34C1171.42 34 1171.42 34 1171.42 34C1171.42 34 1171.42 34 1171.42 34C1171.42 34 1171.42 34 1171.42 34C1171.42 34 1171.42 34 1171.42 34C1171.42 34 1171.42 34 1171.42 34C1171.42 34 1171.42 34 1171.42 34C1171.42 34 1171.42 34 1171.42 34C1171.42 34 1171.42 34 1171.42 34C1171.42 34 1171.42 34 1171.42 34C1171.42 34 1171.42 34 1171.42 34C1171.42 34 1171.42 34 1171.42 34C1171.42 34 1171.42 34 1171.42 34C1171.42 34 1171.42 34 1171.42 34C1171.42 34 1171.42 34 1171.42 34C1171.42 34 1171.42 34 1171.42 34C1171.42 34 1171.42 34 1171.42 34V28C1171.42 28 1171.42 28 1171.42 28C1171.42 28 1171.42 28 1171.42 28C1171.42 28 1171.42 28 1171.42 28C1171.42 28 1171.42 28 1171.42 28C1171.42 28 1171.42 28 1171.42 28C1171.42 28 1171.42 28 1171.42 28C1171.42 28 1171.42 28 1171.42 28C1171.42 28 1171.42 28 1171.42 28C1171.42 28 1171.42 28 1171.42 28C1171.42 28 1171.42 28 1171.42 28C1171.42 28 1171.42 28 1171.42 28C1171.42 28 1171.42 28 1171.42 28C1171.42 28 1171.42 28 1171.42 28C1171.42 28 1171.42 28 1171.42 28C1171.42 28 1171.42 28 1171.42 28C1171.42 28 1171.42 28 1171.42 28C1171.42 28 1171.42 28 1171.42 28C1171.42 28 1171.42 28 1171.42 28C1171.42 28 1171.42 28 1171.42 28C1171.42 28 1171.42 28 1171.42 28C1171.42 28 1171.42 28 1171.42 28C1171.42 28 1171.42 28 1171.42 28C1171.42 28 1171.42 28 1171.42 28C1171.42 28 1171.42 28 1171.42 28C1171.42 28 1171.42 28 1171.42 28C1171.42 28 1171.42 28 1171.42 28C1171.42 28 1171.42 28 1171.42 28C1171.42 28 1171.42 28 1171.42 28C1171.42 28 1171.42 28 1171.42 28C1171.42 28 1171.42 28 1171.42 28C1171.42 28 1171.42 28 1171.42 28C1171.42 28 1171.42 28 1171.42 28C1171.42 28 1171.42 28 1171.42 28C1171.42 28 1171.42 28 1171.42 28C1171.42 28 1171.42 28 1171.42 28C1171.42 28 1171.42 28 1171.42 28C1171.42 28 1171.42 28 1171.42 28C1171.42 28 1171.42 28 1171.42 28C1171.42 28 1171.42 28 1171.42 28C1171.42 28 1171.42 28 1171.42 28C1171.42 28 1171.42 28 1171.42 28C1171.42 28 1171.42 28 1171.42 28C1171.42 28 1171.42 28 1171.42 28C1171.42 28 1171.42 28 1171.42 28C1171.42 28 1171.42 28 1171.42 28C1171.42 28 1171.42 28 1171.42 28C1171.42 28 1171.42 28 1171.42 28C1171.42 28 1171.42 28 1171.42 28C1171.42 28 1171.42 28 1171.42 28C1171.42 28 1171.42 28 1171.42 28C1171.42 28 1171.42 28 1171.42 28C1171.42 28 1171.42 28 1171.42 28C1171.42 28 1171.42 28 1171.42 28C1171.42 28 1171.42 28 1171.42 28C1171.42 28 1171.42 28 1171.42 28C1171.42 28 1171.42 28 1171.42 28C1171.42 28 1171.42 28 1171.42 28C1171.42 28 1171.42 28 1171.42 28C1171.42 28 1171.42 28 1171.42 28C1171.42 28 1171.42 28 1171.42 28C1171.42 28 1171.42 28 1171.42 28C1171.42 28 1171.42 28 1171.42 28C1171.42 28 1171.42 28 1171.42 28C1171.42 28 1171.42 28 1171.42 28C1171.42 28 1171.42 28 1171.42 28C1171.42 28 1171.42 28 1171.42 28C1171.42 28 1171.42 28 1171.42 28C1171.42 28 1171.42 28 1171.42 28C1171.42 28 1171.42 28 1171.42 28C1171.42 28 1171.42 28 1171.42 28C1171.42 28 1171.42 28 1171.42 28C1171.42 28 1171.42 28 1171.42 28C1171.42 28 1171.42 28 1171.42 28C1171.42 28 1171.42 28 1171.42 28C1171.42 28 1171.42 28 1171.42 28C1171.42 28 1171.42 28 1171.42 28C1171.42 28 1171.42 28 1171.42 28C1171.42 28 1171.42 28 1171.42 28C1171.42 28 1171.42 28 1171.42 28C1171.42 28 1171.42 28 1171.42 28C1171.42 28 1171.42 28 1171.42 28C1171.42 28 1171.42 28 1171.42 28C1171.42 28 1171.42 28 1171.42 28C1171.42 28 1171.42 28 1171.42 28C1171.42 28 1171.42 28 1171.42 28C1171.42 28 1171.42 28 1171.42 28C1171.42 28 1171.42 28 1171.42 28C1171.42 28 1171.42 28 1171.42 28C1171.42 28 1171.42 28 1171.42 28C1171.42 28 1171.42 28 1171.42 28C1171.42 28 1171.42 28 1171.42 28C1171.42 28 1171.42 28 1171.42 28C1171.42 28 1171.42 28 1171.42 28C1171.42 28 1171.42 28 1171.42 28C1171.42 28 1171.42 28 1171.42 28C1171.42 28 1171.42 28 1171.42 28C1171.42 28 1171.42 28 1171.42 28C1171.42 28 1171.42 28 1171.42 28C1171.42 28 1171.42 28 1171.42 28C1171.42 28 1171.42 28 1171.42 28C1171.42 28 1171.42 28 1171.42 28C1171.42 28 1171.42 28 1171.42 28C1171.42 28 1171.42 28 1171.42 28C1171.42 28 1171.42 28 1171.42 28C1171.42 28 1171.42 28 1171.42 28C1171.42 28 1171.42 28 1171.42 28C1171.42 28 1171.42 28 1171.42 28C1171.42 28 1171.42 28 1171.42 28C1171.42 28 1171.42 28 1171.42 28C1171.42 28 1171.42 28 1171.42 28C1171.42 28 1171.42 28 1171.42 28C1171.42 28 1171.42 28 1171.42 28C1171.42 28 1171.42 28 1171.42 28C1171.42 28 1171.42 28 1171.42 28C1171.42 28 1171.42 28 1171.42 28C1171.42 28 1171.42 28 1171.42 28C1171.42 28 1171.42 28 1171.42 28C1171.42 28 1171.42 28 1171.42 28C1171.42 28 1171.42 28 1171.42 28C1171.42 28 1171.42 28 1171.42 28C1171.42 28 1171.42 28 1171.42 28C1171.42 28 1171.42 28 1171.42 28C1171.42 28 1171.42 28 1171.42 28C1171.42 28 1171.42 28 1171.42 28C1171.42 28 1171.42 28 1171.42 28C1171.42 28 1171.42 28 1171.42 28C1171.42 28 1171.42 28 1171.42 28C1171.42 28 1171.42 28 1171.42 28C1171.42 28 1171.42 28 1171.42 28C1171.42 28 1171.42 28 1171.42 28C1171.42 28 1171.42 28 1171.42 28C1171.42 28 1171.42 28 1171.42 28C1171.42 28 1171.42 28 1171.42 28C1171.42 28 1171.42 28 1171.42 28C1171.42 28 1171.42 28 1171.42 28C1171.42 28 1171.42 28 1171.42 28C1171.42 28 1171.42 28 1171.42 28C1171.42 28 1171.42 28 1171.42 28C1171.42 28 1171.42 28 1171.42 28C1171.42 28 1171.42 28 1171.42 28C1171.42 28 1171.42 28 1171.42 28C1171.42 28 1171.42 28 1171.42 28C1171.42 28 1171.42 28 1171.42 28C1171.42 28 1171.42 28 1171.42 28C1171.42 28 1171.42 28 1171.42 28C1171.42 28 1171.42 28 1171.42 28C1171.42 28 1171.42 28 1171.42 28C1171.42 28 1171.42 28 1171.42 28C1171.42 28 1171.42 28 1171.42 28C1171.42 28 1171.42 28 1171.42 28C1171.42 28 1171.42 28 1171.42 28C1171.42 28 1171.42 28 1171.42 28C1171.42 28 1171.42 28 1171.42 28C1171.42 28 1171.42 28 1171.42 28C1171.42 28 1171.42 28 1171.42 28C1171.42 28 1171.42 28 1171.42 28C1171.42 28 1171.42 28 1171.42 28C1171.42 28 1171.42 28 1171.42 28C1171.42 28 1171.42 28 1171.42 28C1171.42 28 1171.42 28 1171.42 28C1171.42 28 1171.42 28 1171.42 28C1171.42 28 1171.42 28 1171.42 28C1171.42 28 1171.42 28 1171.42 28C1171.42 28 1171.42 28 1171.42 28C1171.42 28 1171.42 28 1171.42 28C1171.42 28 1171.42 28 1171.42 28C1171.42 28 1171.42 28 1171.42 28C1171.42 28 1171.42 28 1171.42 28C1171.42 28 1171.42 28 1171.42 28C1171.42 28 1171.42 28 1171.42 28C1171.42 28 1171.42 28 1171.42 28C1171.42 28 1171.42 28 1171.42 28C1171.42 28 1171.42 28 1171.42 28C1171.42 28 1171.42 28 1171.42 28C1171.42 28 1171.42 28 1171.42 28C1171.42 28 1171.42 28 1171.42 28C1171.42 28 1171.42 28 1171.42 28C1171.42 28 1171.42 28 1171.42 28C1171.42 28 1171.42 28 1171.42 28C1171.42 28 1171.42 28 1171.42 28C1171.42 28 1171.42 28 1171.42 28C1171.42 28 1171.42 28 1171.42 28C1171.42 28 1171.42 28 1171.42 28C1171.42 28 1171.42 28 1171.42 28C1171.42 28 1171.42 28 1171.42 28C1171.42 28 1171.42 28 1171.42 28C1171.42 28 1171.42 28 1171.42 28C1171.42 28 1171.42 28 1171.42 28C1171.42 28 1171.42 28 1171.42 28C1171.42 28 1171.42 28 1171.42 28C1171.42 28 1171.42 28 1171.42 28C1171.42 28 1171.42 28 1171.42 28C1171.42 28 1171.42 28 1171.42 28C1171.42 28 1171.42 28 1171.42 28C1171.42 28 1171.42 28 1171.42 28C1171.42 28 1171.42 28 1171.42 28C1171.42 28 1171.42 28 1171.42 28C1171.42 28 1171.42 28 1171.42 28C1171.42 28 1171.42 28 1171.42 28C1171.42 28 1171.42 28 1171.42 28C1171.42 28 1171.42 28 1171.42 28C1171.42 28 1171.42 28 1171.42 28C1171.42 28 1171.42 28 1171.42 28C1171.42 28 1171.42 28 1171.42 28C1171.42 28 1171.42 28 1171.42 28C1171.42 28 1171.42 28 1171.42 28C1171.42 28 1171.42 28 1171.42 28C1171.42 28 1171.42 28 1171.42 28C1171.42 28 1171.42 28 1171.42 28C1171.42 28 1171.42 28 1171.42 28C1171.42 28 1171.42 28 1171.42 28C1171.42 28 1171.42 28 1171.42 28C1171.42 28 1171.42 28 1171.42 28C1171.42 28 1171.42 28 1171.42 28C1171.42 28 1171.42 28 1171.42 28C1171.42 28 1171.42 28 1171.42 28C1171.42 28 1171.42 28 1171.42 28C1171.42 28 1171.42 28 1171.42 28C1171.42 28 1171.42 28 1171.42 28C1171.42 28 1171.42 28 1171.42 28C1171.42 28 1171.42 28 1171.42 28C1171.42 28 1171.42 28 1171.42 28C1171.42 28 1171.42 28 1171.42 28C1171.42 28 1171.42 28 1171.42 28C1171.42 28 1171.42 28 1171.42 28C1171.42 28 1171.42 28 1171.42 28C1171.42 28 1171.42 28 1171.42 28C1171.42 28 1171.42 28 1171.42 28C1171.42 28 1171.42 28 1171.42 28C1171.42 28 1171.42 28 1171.42 28C1171.42 28 1171.42 28 1171.42 28C1171.42 28 1171.42 28 1171.42 28C1171.42 28 1171.42 28 1171.42 28C1171.42 28 1171.42 28 1171.42 28C1171.42 28 1171.42 28 1171.42 28C1171.42 28 1171.42 28 1171.42 28C1171.42 28 1171.42 28 1171.42 28C1171.42 28 1171.42 28 1171.42 28C1171.42 28 1171.42 28 1171.42 28C1171.42 28 1171.42 28 1171.42 28C1171.42 28 1171.42 28 1171.42 28C1171.42 28 1171.42 28 1171.42 28C1171.42 28 1171.42 28 1171.42 28C1171.42 28 1171.42 28 1171.42 28C1171.42 28 1171.42 28 1171.42 28C1171.42 28 1171.42 28 1171.42 28C1171.42 28 1171.42 28 1171.42 28C1171.42 28 1171.42 28 1171.42 28C1171.42 28 1171.42 28 1171.42 28C1171.42 28 1171.42 28 1171.42 28C1171.42 28 1171.42 28 1171.42 28C1171.42 28 1171.42 28 1171.42 28C1171.42 28 1171.42 28 1171.42 28C1171.42 28 1171.42 28 1171.42 28C1171.42 28 1171.42 28 1171.42 28C1171.42 28 1171.42 28 1171.42 28C1171.42 28 1171.42 28 1171.42 28C1171.42 28 1171.42 28 1171.42 28C1171.42 28 1171.42 28 1171.42 28C1171.42 28 1171.42 28 1171.42 28C1171.42 28 1171.42 28 1171.42 28C1171.42 28 1171.42 28 1171.42 28C1171.42 28 1171.42 28 1171.42 28C1171.42 28 1171.42 28 1171.42 28C1171.42 28 1171.42 28 1171.42 28C1171.42 28 1171.42 28 1171.42 28C1171.42 28 1171.42 28 1171.42 28C1171.42 28 1171.42 28 1171.42 28C1171.42 28 1171.42 28 1171.42 28C1171.42 28 1171.42 28 1171.42 28C1171.42 28 1171.42 28 1171.42 28C1171.42 28 1171.42 28 1171.42 28C1171.42 28 1171.42 28 1171.42 28C1171.42 28 1171.42 28 1171.42 28C1171.42 28 1171.42 28 1171.42 28C1171.42 28 1171.42 28 1171.42 28C1171.42 28 1171.42 28 1171.42 28C1171.42 28 1171.42 28 1171.42 28C1171.42 28 1171.42 28 1171.42 28C1171.42 28 1171.42 28 1171.42 28C1171.42 28 1171.42 28 1171.42 28C1171.42 28 1171.42 28 1171.42 28C1171.42 28 1171.42 28 1171.42 28C1171.42 28 1171.42 28 1171.42 28C1171.42 28 1171.42 28 1171.42 28C1171.42 28 1171.42 28 1171.42 28C1171.42 28 1171.42 28 1171.42 28C1171.42 28 1171.42 28 1171.42 28C1171.42 28 1171.42 28 1171.42 28C1171.42 28 1171.42 28 1171.42 28C1171.42 28 1171.42 28 1171.42 28C1171.42 28 1171.42 28 1171.42 28C1171.42 28 1171.42 28 1171.42 28C1171.42 28 1171.42 28 1171.42 28C1171.42 28 1171.42 28 1171.42 28C1171.42 28 1171.42 28 1171.42 28C1171.42 28 1171.42 28 1171.42 28C1171.42 28 1171.42 28 1171.42 28C1171.42 28 1171.42 28 1171.42 28C1171.42 28 1171.42 28 1171.42 28C1171.42 28 1171.42 28 1171.42 28C1171.42 28 1171.42 28 1171.42 28C1171.42 28 1171.42 28 1171.42 28C1171.42 28 1171.42 28 1171.42 28C1171.42 28 1171.42 28 1171.42 28C1171.42 28 1171.42 28 1171.42 28C1171.42 28 1171.42 28 1171.42 28C1171.42 28 1171.42 28 1171.42 28C1171.42 28 1171.42 28 1171.42 28C1171.42 28 1171.42 28 1171.42 28C1171.42 28 1171.42 28 1171.42 28C1171.42 28 1171.42 28 1171.42 28C1171.42 28 1171.42 28 1171.42 28C1171.42 28 1171.42 28 1171.42 28C1171.42 28 1171.42 28 1171.42 28C1171.42 28 1171.42 28 1171.42 28C1171.42 28 1171.42 28 1171.42 28C1171.42 28 1171.42 28 1171.42 28C1171.42 28 1171.42 28 1171.42 28C1171.42 28 1171.42 28 1171.42 28C1171.42 28 1171.42 28 1171.42 28C1171.42 28 1171.42 28 1171.42 28C1171.42 28 1171.42 28 1171.42 28C1171.42 28 1171.42 28 1171.42 28C1171.42 28 1171.42 28 1171.42 28C1171.42 28 1171.42 28 1171.42 28C1171.42 28 1171.42 28 1171.42 28C1171.42 28 1171.42 28 1171.42 28C1171.42 28 1171.42 28 1171.42 28C1171.42 28 1171.42 28 1171.42 28C1171.42 28 1171.42 28 1171.42 28C1171.42 28 1171.42 28 1171.42 28C1171.42 28 1171.42 28 1171.42 28C1171.42 28 1171.42 28 1171.42 28C1171.42 28 1171.42 28 1171.42 28C1171.42 28 1171.42 28 1171.42 28C1171.42 28 1171.42 28 1171.42 28C1171.42 28 1171.42 28 1171.42 28C1171.42 28 1171.42 28 1171.42 28C1171.42 28 1171.42 28 1171.42 28C1171.42 28 1171.42 28 1171.42 28C1171.42 28 1171.42 28 1171.42 28C1171.42 28 1171.42 28 1171.42 28C1171.42 28 1171.42 28 1171.42 28C1171.42 28 1171.42 28 1171.42 28C1171.42 28 1171.42 28 1171.42 28C1171.42 28 1171.42 28 1171.42 28C1171.42 28 1171.42 28 1171.42 28C1171.42 28 1171.42 28 1171.42 28C1171.42 28 1171.42 28 1171.42 28C1171.42 28 1171.42 28 1171.42 28C1171.42 28 1171.42 28 1171.42 28C1171.42 28 1171.42 28 1171.42 28C1171.42 28 1171.42 28 1171.42 28C1171.42 28 1171.42 28 1171.42 28C1171.42 28 1171.42 28 1171.42 28C1171.42 28 1171.42 28 1171.42 28C1171.42 28 1171.42 28 1171.42 28C1171.42 28 1171.42 28 1171.42 28C1171.42 28 1171.42 28 1171.42 28C1171.42 28 1171.42 28 1171.42 28C1171.42 28 1171.42 28 1171.42 28C1171.42 28 1171.42 28 1171.42 28C1171.42 28 1171.42 28 1171.42 28C1171.42 28 1171.42 28 1171.42 28C1171.42 28 1171.42 28 1171.42 28C1171.42 28 1171.42 28 1171.42 28C1171.42 28 1171.42 28 1171.42 28C1171.42 28 1171.42 28 1171.42 28C1171.42 28 1171.42 28 1171.42 28C1171.42 28 1171.42 28 1171.42 28C1171.42 28 1171.42 28 1171.42 28C1171.42 28 1171.42 28 1171.42 28C1171.42 28 1171.42 28 1171.42 28C1171.42 28 1171.42 28 1171.42 28C1171.42 28 1171.42 28 1171.42 28C1171.42 28 1171.42 28 1171.42 28C1171.42 28 1171.42 28 1171.42 28C1171.42 28 1171.42 28 1171.42 28C1171.42 28 1171.42 28 1171.42 28C1171.42 28 1171.42 28 1171.42 28C1171.42 28 1171.42 28 1171.42 28C1171.42 28 1171.42 28 1171.42 28C1171.42 28 1171.42 28 1171.42 28C1171.42 28 1171.42 28 1171.42 28C1171.42 28 1171.42 28 1171.42 28C1171.42 28 1171.42 28 1171.42 28C1171.42 28 1171.42 28 1171.42 28C1171.42 28 1171.42 28 1171.42 28C1171.42 28 1171.42 28 1171.42 28C1171.42 28 1171.42 28 1171.42 28C1171.42 28 1171.42 28 1171.42 28C1171.42 28 1171.42 28 1171.42 28C1171.42 28 1171.42 28 1171.42 28C1171.42 28 1171.42 28 1171.42 28C1171.42 28 1171.42 28 1171.42 28C1171.42 28 1171.42 28 1171.42 28C1171.42 28 1171.42 28 1171.42 28C1171.42 28 1171.42 28 1171.42 28C1171.42 28 1171.42 28 1171.42 28C1171.42 28 1171.42 28 1171.42 28C1171.42 28 1171.42 28 1171.42 28C1171.42 28 1171.42 28 1171.42 28C1171.42 28 1171.42 28 1171.42 28C1171.42 28 1171.42 28 1171.42 28C1171.42 28 1171.42 28 1171.42 28C1171.42 28 1171.42 28 1171.42 28C1171.42 28 1171.42 28 1171.42 28C1171.42 28 1171.42 28 1171.42 28C1171.42 28 1171.42 28 1171.42 28C1171.42 28 1171.42 28 1171.42 28C1171.42 28 1171.42 28 1171.42 28C1171.42 28 1171.42 28 1171.42 28C1171.42 28 1171.42 28 1171.42 28C1171.42 28 1171.42 28 1171.42 28C1171.42 28 1171.42 28 1171.42 28C1171.42 28 1171.42 28 1171.42 28C1171.42 28 1171.42 28 1171.42 28C1171.42 28 1171.42 28 1171.42 28C1171.42 28 1171.42 28 1171.42 28C1171.42 28 1171.42 28 1171.42 28C1171.42 28 1171.42 28 1171.42 28C1171.42 28 1171.42 28 1171.42 28C1171.42 28 1171.42 28 1171.42 28C1171.42 28 1171.42 28 1171.42 28C1171.42 28 1171.42 28 1171.42 28C1171.42 28 1171.42 28 1171.42 28C1171.42 28 1171.42 28 1171.42 28C1171.42 28 1171.42 28 1171.42 28C1171.42 28 1171.42 28 1171.42 28C1171.42 28 1171.42 28 1171.42 28C1171.42 28 1171.42 28 1171.42 28C1171.42 28 1171.42 28 1171.42 28C1171.42 28 1171.42 28 1171.42 28C1171.42 28 1171.42 28 1171.42 28C1171.42 28 1171.42 28 1171.42 28C1171.42 28 1171.42 28 1171.42 28C1171.42 28 1171.42 28 1171.42 28C1171.42 28 1171.42 28 1171.42 28C1171.42 28 1171.42 28 1171.42 28C1171.42 28 1171.42 28 1171.42 28C1171.42 28 1171.42 28 1171.42 28C1171.42 28 1171.42 28 1171.42 28C1171.42 28 1171.42 28 1171.42 28C1171.42 28 1171.42 28 1171.42 28C1171.42 28 1171.42 28 1171.42 28C1171.42 28 1171.42 28 1171.42 28C1171.42 28 1171.42 28 1171.42 28C1171.42 28 1171.42 28 1171.42 28C1171.42 28 1171.42 28 1171.42 28C1171.42 28 1171.42 28 1171.42 28C1171.42 28 1171.42 28 1171.42 28C1171.42 28 1171.42 28 1171.42 28C1171.42 28 1171.42 28 1171.42 28C1171.42 28 1171.42 28 1171.42 28C1171.42 28 1171.42 28 1171.42 28C1171.42 28 1171.42 28 1171.42 28C1171.42 28 1171.42 28 1171.42 28C1171.42 28 1171.42 28 1171.42 28C1171.42 28 1171.42 28 1171.42 28C1171.42 28 1171.42 28 1171.42 28C1171.42 28 1171.42 28 1171.42 28C1171.42 28 1171.42 28 1171.42 28C1171.42 28 1171.42 28 1171.42 28C1171.42 28 1171.42 28 1171.42 28C1171.42 28 1171.42 28 1171.42 28C1171.42 28 1171.42 28 1171.42 28C1171.42 28 1171.42 28 1171.42 28C1171.42 28 1171.42 28 1171.42 28C1171.42 28 1171.42 28 1171.42 28C1171.42 28 1171.42 28 1171.42 28C1171.42 28 1171.42 28 1171.42 28C1171.42 28 1171.42 28 1171.42 28C1171.42 28 1171.42 28 1171.42 28C1171.42 28 1171.42 28 1171.42 28C1171.42 28 1171.42 28 1171.42 28C1171.42 28 1171.42 28 1171.42 28C1171.42 28 1171.42 28 1171.42 28C1171.42 28 1171.42 28 1171.42 28C1171.42 28 1171.42 28 1171.42 28C1171.42 28 1171.42 28 1171.42 28C1171.42 28 1171.42 28 1171.42 28C1171.42 28 1171.42 28 1171.42 28C1171.42 28 1171.42 28 1171.42 28C1171.42 28 1171.42 28 1171.42 28C1171.42 28 1171.42 28 1171.42 28C1171.42 28 1171.42 28 1171.42 28C1171.42 28 1171.42 28 1171.42 28C1171.42 28 1171.42 28 1171.42 28C1171.42 28 1171.42 28 1171.42 28C1171.42 28 1171.42 28 1171.42 28C1171.42 28 1171.42 28 1171.42 28C1171.42 28 1171.42 28 1171.42 28C1171.42 28 1171.42 28 1171.42 28C1171.42 28 1171.42 28 1171.42 28C1171.42 28 1171.42 28 1171.42 28C1171.42 28 1171.42 28 1171.42 28C1171.42 28 1171.42 28 1171.42 28C1171.42 28 1171.42 28 1171.42 28C1171.42 28 1171.42 28 1171.42 28C1171.42 28 1171.42 28 1171.42 28C1171.42 28 1171.42 28 1171.42 28C1171.42 28 1171.42 28 1171.42 28C1171.42 28 1171.42 28 1171.42 28C1171.42 28 1171.42 28 1171.42 28C1171.42 28 1171.42 28 1171.42 28C1171.42 28 1171.42 28 1171.42 28C1171.42 28 1171.42 28 1171.42 28C1171.42 28 1171.42 28 1171.42 28C1171.42 28 1171.42 28 1171.42 28C1171.42 28 1171.42 28 1171.42 28C1171.42 28 1171.42 28 1171.42 28V34Z" fill="black" mask="url(#path-1-inside-1_737_224)"/>
<path d="M1154.77 79.4087C1154.77 92.7236 1153.93 104.745 1152.57 113.407C1151.89 117.75 1151.09 121.181 1150.24 123.493C1149.81 124.657 1149.39 125.449 1149.03 125.923C1148.88 126.125 1148.77 126.229 1148.7 126.28C1148.63 126.229 1148.52 126.125 1148.36 125.923C1148 125.449 1147.59 124.657 1147.16 123.493C1146.3 121.181 1145.5 117.75 1144.82 113.407C1143.47 104.745 1142.62 92.7236 1142.62 79.4087C1142.62 66.0939 1143.47 54.0729 1144.82 45.4105C1145.5 41.0675 1146.3 37.6366 1147.16 35.3247C1147.59 34.1602 1148 33.3681 1148.36 32.8947C1148.52 32.6923 1148.63 32.5887 1148.7 32.5373C1148.77 32.5887 1148.88 32.6923 1149.03 32.8947C1149.39 33.3681 1149.81 34.1602 1150.24 35.3247C1151.09 37.6366 1151.89 41.0675 1152.57 45.4105C1153.93 54.0729 1154.77 66.0939 1154.77 79.4087ZM1148.62 126.328C1148.62 126.327 1148.62 126.327 1148.62 126.326C1148.62 126.327 1148.62 126.328 1148.62 126.328ZM1148.77 126.326C1148.77 126.327 1148.77 126.327 1148.77 126.328C1148.77 126.328 1148.77 126.327 1148.77 126.326ZM1148.77 32.4899C1148.77 32.49 1148.77 32.4906 1148.77 32.4915C1148.77 32.4903 1148.77 32.4898 1148.77 32.4899ZM1148.62 32.4915C1148.62 32.4906 1148.62 32.49 1148.62 32.4899C1148.62 32.4898 1148.62 32.4903 1148.62 32.4915Z" fill="white" stroke="black" stroke-width="3"/>
<path d="M1147 88H1052H964H9.00001C4.58173 88 1 84.4183 1 80C1 75.5817 4.58172 72 9 72H574H861H938.5H1025.5H1147V88Z" fill="white" stroke="black" stroke-width="2"/>
<line x1="0.5" y1="73" x2="0.5" y2="90" stroke="black"/>
<line x1="41.5" y1="73" x2="41.5" y2="90" stroke="black"/>
<line x1="82.5" y1="73" x2="82.5" y2="90" stroke="black"/>
<line x1="123.5" y1="73" x2="123.5" y2="90" stroke="black"/>
<line x1="164.5" y1="73" x2="164.5" y2="90" stroke="black"/>
<line x1="205.5" y1="73" x2="205.5" y2="90" stroke="black"/>
<line x1="246.5" y1="73" x2="246.5" y2="90" stroke="black"/>
<line x1="287.5" y1="73" x2="287.5" y2="90" stroke="black"/>
<line x1="328.5" y1="73" x2="328.5" y2="90" stroke="black"/>
<line x1="369.5" y1="73" x2="369.5" y2="90" stroke="black"/>
<line x1="410.5" y1="73" x2="410.5" y2="90" stroke="black"/>
<line x1="451.5" y1="73" x2="451.5" y2="90" stroke="black"/>
<line x1="492.5" y1="73" x2="492.5" y2="90" stroke="black"/>
<line x1="533.5" y1="73" x2="533.5" y2="90" stroke="black"/>
<line x1="574.5" y1="73" x2="574.5" y2="90" stroke="black"/>
<line x1="615.5" y1="73" x2="615.5" y2="90" stroke="black"/>
<line x1="656.5" y1="73" x2="656.5" y2="90" stroke="black"/>
<line x1="697.5" y1="73" x2="697.5" y2="90" stroke="black"/>
<line x1="738.5" y1="73" x2="738.5" y2="90" stroke="black"/>
<line x1="779.5" y1="73" x2="779.5" y2="90" stroke="black"/>
<line x1="820.5" y1="73" x2="820.5" y2="90" stroke="black"/>
<line x1="861.5" y1="73" x2="861.5" y2="90" stroke="black"/>
<line x1="902.5" y1="73" x2="902.5" y2="90" stroke="black"/>
<line x1="943.5" y1="73" x2="943.5" y2="90" stroke="black"/>
<line x1="984.5" y1="73" x2="984.5" y2="90" stroke="black"/>
<line x1="1025.5" y1="73" x2="1025.5" y2="90" stroke="black"/>
<line x1="1066.5" y1="73" x2="1066.5" y2="90" stroke="black"/>
<line x1="1107.5" y1="73" x2="1107.5" y2="90" stroke="black"/>
</svg>
