<svg width="1326" height="378" viewBox="0 0 1326 378" fill="none" xmlns="http://www.w3.org/2000/svg">
<mask id="path-1-inside-1_733_3" fill="white">
<path d="M0.515656 289.795C0.918427 289.514 40.8562 261.326 57.4675 248.124C74.2632 234.783 89.636 215.159 93.1668 208.378C95.6285 203.657 101.583 175.588 105.528 157.011C107.184 149.208 108.615 142.471 109.417 139.163C111.939 128.768 131.207 53.6626 137.512 45.2401C143.238 37.5899 164.325 31.5809 174.458 28.6921L177.187 27.9075C179.246 27.3041 183.104 26.3817 187.994 25.2156C202.73 21.6953 227.397 15.8052 237.534 10.209C253.531 1.37696 273.824 0.16712 279.658 0.00454772C288.715 -0.186162 307.607 5.67264 314.774 7.89549C315.979 8.27066 316.848 8.54264 317.281 8.66144C320.123 9.44929 331.239 11.4033 335.082 11.9598C339.23 12.56 356.327 19.2569 359.869 20.7638L361.894 21.6517C367.506 24.1277 380.651 29.9302 387.743 30.815C396.445 31.8998 405.649 37.2553 405.991 44.346C406.285 50.3924 399.129 54.7319 397.081 55.848C394.42 65.0989 388.375 69.6384 383.034 73.6495C381.912 74.4936 380.805 75.3221 379.747 76.1819C374.331 80.5869 359.007 91.4231 354.689 94.462C355.57 95.3217 356.824 96.6316 358.284 98.2198L358.484 98.1011L359.327 98.9544C364.668 104.36 371.557 112.054 374.101 118.213L374.448 119.417C374.624 119.861 374.737 120.255 374.786 120.592L375.008 121.355L374.786 121.524C374.444 125.86 370.036 130.087 365.621 132.107C358.307 135.464 350.331 135.186 341.248 131.253C331.246 126.92 323.086 117.566 320.526 114.405L317.052 116.497C319.924 119.539 328.502 129.046 331.709 137.428C335.014 146.063 335.319 153.429 335.519 158.303C335.549 159.062 335.579 159.763 335.616 160.4C335.62 160.482 335.632 160.591 335.635 160.675C335.748 162.054 335.854 163.411 335.951 164.699C336.245 168.563 336.501 171.905 336.859 173.866L337.186 175.651L336.618 175.523C336.655 176.926 336.67 178.268 336.614 179.421C336.475 182.316 334.879 184.968 332.112 186.893C329.526 188.691 324.757 190.657 316.796 189.732C309.301 188.882 305.492 185.411 303.621 182.688C303.399 183.395 303.162 184.155 302.925 184.914C302.778 185.402 302.635 185.887 302.469 186.393C302.417 186.562 302.36 186.743 302.311 186.906C302.066 187.709 301.656 188.807 301.129 190.045C299.842 193.243 298.167 196.47 296.002 199.205C295.603 199.727 295.193 200.205 294.783 200.649C294.692 200.746 294.613 200.853 294.523 200.947C291.177 204.373 289.024 206.171 282.293 206.011C275.228 205.861 268.151 196.917 266.777 189.316C265.946 184.714 267.545 181.019 268.829 178.049C269.683 176.073 270.421 174.366 270.256 172.906C269.988 170.546 267.628 168.76 266.141 167.857C263.356 172.343 253.106 188.71 247.351 196.279C242.435 202.744 237.014 207.406 230.736 212.799C228.334 214.859 225.808 217.032 223.14 219.452C213.921 227.812 212.811 231.194 210.684 240.626C208.802 248.983 205.282 257.5 200.227 265.944C197.231 270.946 192.176 274.979 186.318 279.647C183.349 282.014 180.281 284.462 177.059 287.344C167.407 295.97 79.2469 376.055 78.3548 376.865L77.8316 377.34L77.0674 377.228C59.4813 374.648 33.4634 362.474 17.7631 344.197C1.44165 325.201 0.067749 292.13 0.0188293 290.73L0 290.164L0.515656 289.795ZM391.262 45.9435C388.638 41.7729 383.387 39.3031 375.656 38.5996C368.888 41.8198 352.13 50.8238 349.706 56.8046C347.873 61.3191 350.24 66.7871 352.822 70.098C354.991 72.8773 357.264 74.2218 358.559 74.3281C362.978 74.6126 387.671 64.8331 391.044 59.8247C392.967 56.9765 394.307 50.7831 391.262 45.9435ZM356.933 102.719C355.781 105.426 367.996 118.823 370.356 119.933L369.678 120.961L370.371 119.939C370.973 120.223 371.451 120.267 371.79 120.276L371.594 119.607C369.897 115.893 363.084 107.53 357.81 101.584C357.403 101.959 357.087 102.337 356.933 102.719ZM342.55 129.171C354.701 134.442 361.89 131.144 364.254 130.056C367.461 128.586 370.804 125.651 371.745 122.612C371.726 122.612 371.719 122.618 371.7 122.618C370.902 122.618 369.979 122.443 368.986 121.98V121.977C366.659 120.886 352.258 106.664 354.268 101.943C354.595 101.146 355.224 100.39 356.101 99.6736C355.879 99.4298 355.683 99.2203 355.472 98.989C352.171 99.7487 344.745 101.64 340.307 104.204C335.579 106.933 328.111 113.62 325.449 116.056C329.112 120.058 335.417 126.082 342.55 129.171ZM333.151 165.318C333.015 163.605 332.891 162.051 332.812 160.763C332.722 159.666 332.631 158.553 332.526 157.418C331.269 161.373 330.132 166.134 330.968 168.273C331.634 169.989 332.677 171.09 333.625 171.79C333.493 169.589 333.317 167.344 333.151 165.318ZM333.795 179.331C333.859 177.986 333.84 176.392 333.776 174.7C332.202 174.016 329.616 172.434 328.284 168.998C326.36 164.099 331.894 151.049 331.95 150.918L332.101 150.574C331.63 146.91 330.768 142.708 329.018 138.141C327.279 133.598 323.774 128.599 320.579 124.597C317.101 124.031 312.478 123.55 309.941 124.525C305.575 126.213 296.541 132.498 294.809 135.374C293.04 138.281 292.174 141.189 297.181 141.908C302.187 142.627 304.972 137.562 305.838 138.781C306.742 139.969 302.074 149.411 302.375 154.007C302.639 158.603 305.274 174.766 311.108 182.27C314.428 186.565 320.006 187.412 324.177 187.359C327.034 186.922 329.01 185.996 330.298 185.099C332.447 183.604 333.689 181.554 333.795 179.331ZM275.01 167.76C279.188 168.917 288.937 162.758 289.765 162.258C288.975 163.07 276.139 175.889 275.311 180.578C274.445 185.424 274.445 193.865 279.075 198.461C282.034 201.375 285.12 202.688 286.987 203.26C288.18 202.932 289.122 202.385 290.081 201.594L290.251 201.359C290.326 201.256 292.058 198.777 290.251 196.316C289.359 195.078 288.094 194.422 286.874 193.784C285.346 192.987 283.615 192.083 283.615 190.148C283.615 187.719 287.42 177.783 292.321 177.32L293.191 177.233C295.878 176.942 299.315 176.614 301.637 179.747C301.837 179.115 301.972 178.699 301.972 178.699L302.262 177.802C300.99 173.153 297.775 161.441 296.846 158.353C295.679 154.476 292.78 147.223 289.807 146.254C286.833 145.284 284.612 146.504 280.246 149.88C275.875 153.285 270.643 166.572 275.01 167.76ZM298.306 189.648C298.893 188.228 299.386 186.859 299.797 185.602C299.966 185.055 300.139 184.495 300.316 183.933C300.369 183.754 300.429 183.558 300.478 183.386C299.138 178.952 296.906 179.199 293.552 179.556L292.633 179.653C290.349 179.865 286.434 187.544 286.434 190.148C286.434 190.736 286.935 191.051 288.372 191.799C289.735 192.511 291.433 193.393 292.667 195.103C293.315 195.988 293.657 196.866 293.804 197.695C295.513 195.385 297.154 192.302 298.306 189.648ZM20.0592 342.831C27.1358 351.066 35.8649 357.625 44.6467 362.646C52.8112 361.267 78.0424 356.171 91.7703 343.963C108.257 329.269 156.491 280.219 172.752 272.059C189.051 263.868 186.891 226.88 213.39 214.937C228.774 208.003 241.87 196.285 250.174 187.659C256.659 178.077 264.244 165.793 264.342 165.631L264.997 164.568L265.991 165.009C268.788 157.574 280.261 144.54 285.474 139.497C287.469 137.59 291.723 134.089 296.428 130.368C303.286 124.922 311.044 118.976 313.796 116.875L312.979 116.05L321.29 111.05L322.054 112.064L351.475 95.0403L350.523 94.3181L351.753 93.4583C351.953 93.3176 371.651 79.4897 377.779 74.5093C378.863 73.6308 379.996 72.7773 381.144 71.9144C384.046 69.7384 386.982 67.4907 389.463 64.5175C381.103 70.0981 363.731 76.6759 358.664 76.6759C358.533 76.6759 358.408 76.6696 358.292 76.6602C355.777 76.4633 352.92 74.5343 350.455 71.3767C347.391 67.4468 344.88 61.3598 347.029 56.0575C350.353 47.8695 373.665 36.8395 374.655 36.3768L375.042 36.1925L375.486 36.2299C386.677 37.1365 391.605 41.4227 393.765 44.8618C395.576 47.738 396.043 50.8864 395.82 53.7221C395.93 53.6595 396.046 53.5938 396.178 53.5156C396.957 48.0413 392.723 40.2474 387.558 38.456C381.837 36.5176 374.158 34.2978 362.414 36.7989C353.225 38.7622 341.797 45.0213 337.291 47.6319H339.584L316.513 61.8506L315.678 61.3628C315.67 61.3566 315.572 61.3035 315.437 61.2222C310.841 64.78 292.268 79.0145 283.618 83.579C283.626 83.5915 283.645 83.6071 283.652 83.6196L284.33 84.6201L283.144 85.2015C282.497 85.5235 267.199 93.0425 261.801 94.2618C258.621 95.0027 252.109 95.5467 246.666 95.875C242.8 97.7571 234.052 102.397 231.368 103.253C227.992 104.332 203.325 114.036 197.615 128.486C197.615 128.486 200.634 111.735 210.029 105.661C216.01 101.796 220.896 98.5762 223.674 96.7348C223.076 96.7223 222.5 96.6942 221.976 96.6348C216.33 95.9783 203.984 84.1292 200.37 81.2842C197.246 78.8456 185.765 69.8416 176.769 67.9658C181.738 68.4973 190.169 69.7792 195.213 72.7805C202.666 77.1887 206.016 77.4074 208.839 74.1872C211.7 70.9671 205.489 63.0886 205.489 63.0886C205.489 63.0886 213.281 64.2298 217.538 66.2306C224.419 66.362 233.081 57.5611 233.081 55.0538C233.081 49.8327 217.572 43.4862 223.181 42.9234C228.79 42.3607 238.238 53.3656 244.524 52.6153C250.81 51.865 266.092 45.7371 271.475 43.111C276.858 40.4848 281.375 35.2638 280.246 29.8552C279.116 24.4465 272.604 18.8504 277.761 20.351C282.918 21.8517 287.209 36.3893 293.495 37.3273C299.782 38.2652 315.478 41.7979 324.023 40.7662C332.567 39.7345 331.212 30.2303 333.471 30.2303C335.692 30.2303 334.148 42.3607 342.43 40.7662C350.748 39.1717 366.257 33.4193 376.571 33.6069C386.922 33.7944 388.729 36.3893 395.467 40.7662C397.872 42.3544 400.051 45.3463 401.828 48.5415C402.675 47.3066 403.251 45.9311 403.179 44.4429C402.897 38.6466 394.733 34.0633 387.332 33.1411C379.759 32.1969 366.317 26.2631 360.577 23.7276L358.589 22.8584C354.193 20.9857 337.995 14.7641 334.604 14.2732C331.077 13.7668 319.566 11.7722 316.393 10.8906C315.945 10.7687 315.042 10.4873 313.792 10.0996C306.772 7.91743 288.211 2.00849 279.76 2.35239C274.11 2.50871 254.484 3.67496 239.103 12.1662C228.605 17.9625 203.675 23.9151 188.78 27.473C183.936 28.6297 180.111 29.5425 178.135 30.124L175.38 30.915C165.555 33.7162 145.112 39.5439 139.914 46.4845C134.298 53.9878 115.744 124.979 112.191 139.632C111.397 142.911 109.966 149.633 108.314 157.421C104.113 177.22 98.3576 204.339 95.7678 209.313C92.158 216.247 76.4953 236.265 59.4286 249.821C43.7998 262.242 7.66757 287.829 2.87579 291.215C3.12045 295.676 5.36392 325.724 20.0592 342.831ZM219.003 70.642C218.574 70.9609 218.028 71.2892 217.343 71.6238C212.453 74.0092 207.292 80.5963 216.59 83.3788C225.782 86.1394 229.362 85.7298 229.414 85.7236C229.46 82.4378 229.527 75.5722 229.388 72.0613C229.2 67.3405 232.49 82.9225 234.157 83.8448C235.162 84.4013 247.494 84.7858 257.679 84.2949C262.215 83.2976 266.943 82.1501 270.323 81.3279C270.816 81.2091 271.234 81.1092 271.671 81.0029C273.576 76.2196 273.165 61.5817 273.937 60.4C274.773 59.1213 273.658 78.0672 279.222 79.6866C284.164 81.1248 306.369 62.8293 311.262 58.7274C306.787 56.0231 299.883 51.7523 295.272 48.4352C294.884 48.157 294.572 47.9194 294.237 47.6693C287.488 48.1007 264.572 49.7641 254.864 53.0531C244.96 56.4014 231.409 65.4835 219.003 70.642ZM254.186 87.4463C250.305 88.2216 247.038 88.7437 245.118 88.7437C243.161 88.7437 240.857 88.5467 238.629 88.3529C235.584 88.0903 232.441 87.8152 230.95 88.1403C230.788 88.1778 230.679 88.2091 230.623 88.2123C230.709 88.5343 231.18 89.3815 232.704 90.7133C234.933 92.6579 237.394 93.9023 238.117 93.9023C240.982 93.9023 256.155 93.1456 261.033 92.0076L261.048 92.0046C264.154 91.3043 271.253 88.1309 276.259 85.7892C270.448 86.7303 262.178 87.2118 254.186 87.4463ZM327.572 46.9659C326.146 46.6939 300.105 43.5112 293.462 43.7426C294.034 44.3022 295.11 45.2214 297.124 46.6627L297.128 46.6658C303.233 51.0583 313.498 57.1924 316.476 58.9557L332.631 48.9981C330.667 48.1822 327.938 47.0785 327.572 46.9659Z"/>
</mask>
<path d="M0.515656 289.795C0.918427 289.514 40.8562 261.326 57.4675 248.124C74.2632 234.783 89.636 215.159 93.1668 208.378C95.6285 203.657 101.583 175.588 105.528 157.011C107.184 149.208 108.615 142.471 109.417 139.163C111.939 128.768 131.207 53.6626 137.512 45.2401C143.238 37.5899 164.325 31.5809 174.458 28.6921L177.187 27.9075C179.246 27.3041 183.104 26.3817 187.994 25.2156C202.73 21.6953 227.397 15.8052 237.534 10.209C253.531 1.37696 273.824 0.16712 279.658 0.00454772C288.715 -0.186162 307.607 5.67264 314.774 7.89549C315.979 8.27066 316.848 8.54264 317.281 8.66144C320.123 9.44929 331.239 11.4033 335.082 11.9598C339.23 12.56 356.327 19.2569 359.869 20.7638L361.894 21.6517C367.506 24.1277 380.651 29.9302 387.743 30.815C396.445 31.8998 405.649 37.2553 405.991 44.346C406.285 50.3924 399.129 54.7319 397.081 55.848C394.42 65.0989 388.375 69.6384 383.034 73.6495C381.912 74.4936 380.805 75.3221 379.747 76.1819C374.331 80.5869 359.007 91.4231 354.689 94.462C355.57 95.3217 356.824 96.6316 358.284 98.2198L358.484 98.1011L359.327 98.9544C364.668 104.36 371.557 112.054 374.101 118.213L374.448 119.417C374.624 119.861 374.737 120.255 374.786 120.592L375.008 121.355L374.786 121.524C374.444 125.86 370.036 130.087 365.621 132.107C358.307 135.464 350.331 135.186 341.248 131.253C331.246 126.92 323.086 117.566 320.526 114.405L317.052 116.497C319.924 119.539 328.502 129.046 331.709 137.428C335.014 146.063 335.319 153.429 335.519 158.303C335.549 159.062 335.579 159.763 335.616 160.4C335.62 160.482 335.632 160.591 335.635 160.675C335.748 162.054 335.854 163.411 335.951 164.699C336.245 168.563 336.501 171.905 336.859 173.866L337.186 175.651L336.618 175.523C336.655 176.926 336.67 178.268 336.614 179.421C336.475 182.316 334.879 184.968 332.112 186.893C329.526 188.691 324.757 190.657 316.796 189.732C309.301 188.882 305.492 185.411 303.621 182.688C303.399 183.395 303.162 184.155 302.925 184.914C302.778 185.402 302.635 185.887 302.469 186.393C302.417 186.562 302.36 186.743 302.311 186.906C302.066 187.709 301.656 188.807 301.129 190.045C299.842 193.243 298.167 196.47 296.002 199.205C295.603 199.727 295.193 200.205 294.783 200.649C294.692 200.746 294.613 200.853 294.523 200.947C291.177 204.373 289.024 206.171 282.293 206.011C275.228 205.861 268.151 196.917 266.777 189.316C265.946 184.714 267.545 181.019 268.829 178.049C269.683 176.073 270.421 174.366 270.256 172.906C269.988 170.546 267.628 168.76 266.141 167.857C263.356 172.343 253.106 188.71 247.351 196.279C242.435 202.744 237.014 207.406 230.736 212.799C228.334 214.859 225.808 217.032 223.14 219.452C213.921 227.812 212.811 231.194 210.684 240.626C208.802 248.983 205.282 257.5 200.227 265.944C197.231 270.946 192.176 274.979 186.318 279.647C183.349 282.014 180.281 284.462 177.059 287.344C167.407 295.97 79.2469 376.055 78.3548 376.865L77.8316 377.34L77.0674 377.228C59.4813 374.648 33.4634 362.474 17.7631 344.197C1.44165 325.201 0.067749 292.13 0.0188293 290.73L0 290.164L0.515656 289.795ZM391.262 45.9435C388.638 41.7729 383.387 39.3031 375.656 38.5996C368.888 41.8198 352.13 50.8238 349.706 56.8046C347.873 61.3191 350.24 66.7871 352.822 70.098C354.991 72.8773 357.264 74.2218 358.559 74.3281C362.978 74.6126 387.671 64.8331 391.044 59.8247C392.967 56.9765 394.307 50.7831 391.262 45.9435ZM356.933 102.719C355.781 105.426 367.996 118.823 370.356 119.933L369.678 120.961L370.371 119.939C370.973 120.223 371.451 120.267 371.79 120.276L371.594 119.607C369.897 115.893 363.084 107.53 357.81 101.584C357.403 101.959 357.087 102.337 356.933 102.719ZM342.55 129.171C354.701 134.442 361.89 131.144 364.254 130.056C367.461 128.586 370.804 125.651 371.745 122.612C371.726 122.612 371.719 122.618 371.7 122.618C370.902 122.618 369.979 122.443 368.986 121.98V121.977C366.659 120.886 352.258 106.664 354.268 101.943C354.595 101.146 355.224 100.39 356.101 99.6736C355.879 99.4298 355.683 99.2203 355.472 98.989C352.171 99.7487 344.745 101.64 340.307 104.204C335.579 106.933 328.111 113.62 325.449 116.056C329.112 120.058 335.417 126.082 342.55 129.171ZM333.151 165.318C333.015 163.605 332.891 162.051 332.812 160.763C332.722 159.666 332.631 158.553 332.526 157.418C331.269 161.373 330.132 166.134 330.968 168.273C331.634 169.989 332.677 171.09 333.625 171.79C333.493 169.589 333.317 167.344 333.151 165.318ZM333.795 179.331C333.859 177.986 333.84 176.392 333.776 174.7C332.202 174.016 329.616 172.434 328.284 168.998C326.36 164.099 331.894 151.049 331.95 150.918L332.101 150.574C331.63 146.91 330.768 142.708 329.018 138.141C327.279 133.598 323.774 128.599 320.579 124.597C317.101 124.031 312.478 123.55 309.941 124.525C305.575 126.213 296.541 132.498 294.809 135.374C293.04 138.281 292.174 141.189 297.181 141.908C302.187 142.627 304.972 137.562 305.838 138.781C306.742 139.969 302.074 149.411 302.375 154.007C302.639 158.603 305.274 174.766 311.108 182.27C314.428 186.565 320.006 187.412 324.177 187.359C327.034 186.922 329.01 185.996 330.298 185.099C332.447 183.604 333.689 181.554 333.795 179.331ZM275.01 167.76C279.188 168.917 288.937 162.758 289.765 162.258C288.975 163.07 276.139 175.889 275.311 180.578C274.445 185.424 274.445 193.865 279.075 198.461C282.034 201.375 285.12 202.688 286.987 203.26C288.18 202.932 289.122 202.385 290.081 201.594L290.251 201.359C290.326 201.256 292.058 198.777 290.251 196.316C289.359 195.078 288.094 194.422 286.874 193.784C285.346 192.987 283.615 192.083 283.615 190.148C283.615 187.719 287.42 177.783 292.321 177.32L293.191 177.233C295.878 176.942 299.315 176.614 301.637 179.747C301.837 179.115 301.972 178.699 301.972 178.699L302.262 177.802C300.99 173.153 297.775 161.441 296.846 158.353C295.679 154.476 292.78 147.223 289.807 146.254C286.833 145.284 284.612 146.504 280.246 149.88C275.875 153.285 270.643 166.572 275.01 167.76ZM298.306 189.648C298.893 188.228 299.386 186.859 299.797 185.602C299.966 185.055 300.139 184.495 300.316 183.933C300.369 183.754 300.429 183.558 300.478 183.386C299.138 178.952 296.906 179.199 293.552 179.556L292.633 179.653C290.349 179.865 286.434 187.544 286.434 190.148C286.434 190.736 286.935 191.051 288.372 191.799C289.735 192.511 291.433 193.393 292.667 195.103C293.315 195.988 293.657 196.866 293.804 197.695C295.513 195.385 297.154 192.302 298.306 189.648ZM20.0592 342.831C27.1358 351.066 35.8649 357.625 44.6467 362.646C52.8112 361.267 78.0424 356.171 91.7703 343.963C108.257 329.269 156.491 280.219 172.752 272.059C189.051 263.868 186.891 226.88 213.39 214.937C228.774 208.003 241.87 196.285 250.174 187.659C256.659 178.077 264.244 165.793 264.342 165.631L264.997 164.568L265.991 165.009C268.788 157.574 280.261 144.54 285.474 139.497C287.469 137.59 291.723 134.089 296.428 130.368C303.286 124.922 311.044 118.976 313.796 116.875L312.979 116.05L321.29 111.05L322.054 112.064L351.475 95.0403L350.523 94.3181L351.753 93.4583C351.953 93.3176 371.651 79.4897 377.779 74.5093C378.863 73.6308 379.996 72.7773 381.144 71.9144C384.046 69.7384 386.982 67.4907 389.463 64.5175C381.103 70.0981 363.731 76.6759 358.664 76.6759C358.533 76.6759 358.408 76.6696 358.292 76.6602C355.777 76.4633 352.92 74.5343 350.455 71.3767C347.391 67.4468 344.88 61.3598 347.029 56.0575C350.353 47.8695 373.665 36.8395 374.655 36.3768L375.042 36.1925L375.486 36.2299C386.677 37.1365 391.605 41.4227 393.765 44.8618C395.576 47.738 396.043 50.8864 395.82 53.7221C395.93 53.6595 396.046 53.5938 396.178 53.5156C396.957 48.0413 392.723 40.2474 387.558 38.456C381.837 36.5176 374.158 34.2978 362.414 36.7989C353.225 38.7622 341.797 45.0213 337.291 47.6319H339.584L316.513 61.8506L315.678 61.3628C315.67 61.3566 315.572 61.3035 315.437 61.2222C310.841 64.78 292.268 79.0145 283.618 83.579C283.626 83.5915 283.645 83.6071 283.652 83.6196L284.33 84.6201L283.144 85.2015C282.497 85.5235 267.199 93.0425 261.801 94.2618C258.621 95.0027 252.109 95.5467 246.666 95.875C242.8 97.7571 234.052 102.397 231.368 103.253C227.992 104.332 203.325 114.036 197.615 128.486C197.615 128.486 200.634 111.735 210.029 105.661C216.01 101.796 220.896 98.5762 223.674 96.7348C223.076 96.7223 222.5 96.6942 221.976 96.6348C216.33 95.9783 203.984 84.1292 200.37 81.2842C197.246 78.8456 185.765 69.8416 176.769 67.9658C181.738 68.4973 190.169 69.7792 195.213 72.7805C202.666 77.1887 206.016 77.4074 208.839 74.1872C211.7 70.9671 205.489 63.0886 205.489 63.0886C205.489 63.0886 213.281 64.2298 217.538 66.2306C224.419 66.362 233.081 57.5611 233.081 55.0538C233.081 49.8327 217.572 43.4862 223.181 42.9234C228.79 42.3607 238.238 53.3656 244.524 52.6153C250.81 51.865 266.092 45.7371 271.475 43.111C276.858 40.4848 281.375 35.2638 280.246 29.8552C279.116 24.4465 272.604 18.8504 277.761 20.351C282.918 21.8517 287.209 36.3893 293.495 37.3273C299.782 38.2652 315.478 41.7979 324.023 40.7662C332.567 39.7345 331.212 30.2303 333.471 30.2303C335.692 30.2303 334.148 42.3607 342.43 40.7662C350.748 39.1717 366.257 33.4193 376.571 33.6069C386.922 33.7944 388.729 36.3893 395.467 40.7662C397.872 42.3544 400.051 45.3463 401.828 48.5415C402.675 47.3066 403.251 45.9311 403.179 44.4429C402.897 38.6466 394.733 34.0633 387.332 33.1411C379.759 32.1969 366.317 26.2631 360.577 23.7276L358.589 22.8584C354.193 20.9857 337.995 14.7641 334.604 14.2732C331.077 13.7668 319.566 11.7722 316.393 10.8906C315.945 10.7687 315.042 10.4873 313.792 10.0996C306.772 7.91743 288.211 2.00849 279.76 2.35239C274.11 2.50871 254.484 3.67496 239.103 12.1662C228.605 17.9625 203.675 23.9151 188.78 27.473C183.936 28.6297 180.111 29.5425 178.135 30.124L175.38 30.915C165.555 33.7162 145.112 39.5439 139.914 46.4845C134.298 53.9878 115.744 124.979 112.191 139.632C111.397 142.911 109.966 149.633 108.314 157.421C104.113 177.22 98.3576 204.339 95.7678 209.313C92.158 216.247 76.4953 236.265 59.4286 249.821C43.7998 262.242 7.66757 287.829 2.87579 291.215C3.12045 295.676 5.36392 325.724 20.0592 342.831ZM219.003 70.642C218.574 70.9609 218.028 71.2892 217.343 71.6238C212.453 74.0092 207.292 80.5963 216.59 83.3788C225.782 86.1394 229.362 85.7298 229.414 85.7236C229.46 82.4378 229.527 75.5722 229.388 72.0613C229.2 67.3405 232.49 82.9225 234.157 83.8448C235.162 84.4013 247.494 84.7858 257.679 84.2949C262.215 83.2976 266.943 82.1501 270.323 81.3279C270.816 81.2091 271.234 81.1092 271.671 81.0029C273.576 76.2196 273.165 61.5817 273.937 60.4C274.773 59.1213 273.658 78.0672 279.222 79.6866C284.164 81.1248 306.369 62.8293 311.262 58.7274C306.787 56.0231 299.883 51.7523 295.272 48.4352C294.884 48.157 294.572 47.9194 294.237 47.6693C287.488 48.1007 264.572 49.7641 254.864 53.0531C244.96 56.4014 231.409 65.4835 219.003 70.642ZM254.186 87.4463C250.305 88.2216 247.038 88.7437 245.118 88.7437C243.161 88.7437 240.857 88.5467 238.629 88.3529C235.584 88.0903 232.441 87.8152 230.95 88.1403C230.788 88.1778 230.679 88.2091 230.623 88.2123C230.709 88.5343 231.18 89.3815 232.704 90.7133C234.933 92.6579 237.394 93.9023 238.117 93.9023C240.982 93.9023 256.155 93.1456 261.033 92.0076L261.048 92.0046C264.154 91.3043 271.253 88.1309 276.259 85.7892C270.448 86.7303 262.178 87.2118 254.186 87.4463ZM327.572 46.9659C326.146 46.6939 300.105 43.5112 293.462 43.7426C294.034 44.3022 295.11 45.2214 297.124 46.6627L297.128 46.6658C303.233 51.0583 313.498 57.1924 316.476 58.9557L332.631 48.9981C330.667 48.1822 327.938 47.0785 327.572 46.9659Z" fill="black" stroke="black" stroke-width="2" mask="url(#path-1-inside-1_733_3)"/>
<mask id="path-2-inside-2_733_3" fill="white">
<path fill-rule="evenodd" clip-rule="evenodd" d="M152.576 31H176.145V127.817H152.576C152.576 127.817 152.576 127.817 152.576 127.817C148.393 127.817 145.001 106.144 145.001 79.4087C145.001 52.6735 148.393 31.0003 152.576 31C152.576 31 152.576 31 152.576 31Z"/>
</mask>
<path fill-rule="evenodd" clip-rule="evenodd" d="M152.576 31H176.145V127.817H152.576C152.576 127.817 152.576 127.817 152.576 127.817C148.393 127.817 145.001 106.144 145.001 79.4087C145.001 52.6735 148.393 31.0003 152.576 31C152.576 31 152.576 31 152.576 31Z" fill="white"/>
<path d="M176.145 31V28H179.145V31H176.145ZM176.145 127.817H179.145V130.817H176.145V127.817ZM152.576 127.817V130.817H152.576L152.576 127.817ZM152.576 31L152.576 28H152.576V31ZM176.145 34H152.576V28H176.145V34ZM173.145 127.817V31H179.145V127.817H173.145ZM152.576 124.817H176.145V130.817H152.576V124.817ZM152.576 124.817C152.576 124.817 152.576 124.817 152.576 124.817C152.576 124.817 152.576 124.817 152.576 124.817H152.576H152.576C152.576 124.817 152.576 124.817 152.576 124.817C152.576 124.817 152.576 124.817 152.576 124.817C152.576 124.817 152.576 124.817 152.576 124.817H152.576C152.576 124.817 152.576 124.817 152.576 124.817C152.576 124.817 152.576 124.817 152.576 124.817C152.576 124.817 152.576 124.817 152.576 124.817C152.576 124.817 152.576 124.817 152.576 124.817C152.576 124.817 152.576 124.817 152.576 124.817C152.576 124.817 152.576 124.817 152.576 124.817C152.576 124.817 152.576 124.817 152.576 124.817C152.576 124.817 152.576 124.817 152.576 124.817H152.576H152.576H152.576H152.576H152.576H152.576H152.576H152.576H152.576H152.576H152.576H152.576H152.576H152.576C152.576 124.817 152.576 124.817 152.576 124.817C152.576 124.817 152.576 124.817 152.576 124.817C152.576 124.817 152.576 124.817 152.576 124.817C152.576 124.817 152.576 124.817 152.576 124.817C152.576 124.817 152.576 124.817 152.576 124.817C152.576 124.817 152.576 124.817 152.576 124.817C152.576 124.817 152.576 124.817 152.576 124.817C152.576 124.817 152.576 124.817 152.576 124.817H152.576C152.576 124.817 152.576 124.817 152.576 124.817C152.576 124.817 152.576 124.817 152.576 124.817C152.576 124.817 152.576 124.817 152.576 124.817H152.576H152.576C152.576 124.817 152.576 124.817 152.576 124.817C152.576 124.817 152.576 124.817 152.576 124.817V130.817C152.576 130.817 152.576 130.817 152.576 130.817C152.576 130.817 152.576 130.817 152.576 130.817H152.576H152.576C152.576 130.817 152.576 130.817 152.576 130.817C152.576 130.817 152.576 130.817 152.576 130.817C152.576 130.817 152.576 130.817 152.576 130.817H152.576C152.576 130.817 152.576 130.817 152.576 130.817C152.576 130.817 152.576 130.817 152.576 130.817C152.576 130.817 152.576 130.817 152.576 130.817C152.576 130.817 152.576 130.817 152.576 130.817C152.576 130.817 152.576 130.817 152.576 130.817C152.576 130.817 152.576 130.817 152.576 130.817C152.576 130.817 152.576 130.817 152.576 130.817C152.576 130.817 152.576 130.817 152.576 130.817H152.576H152.576H152.576H152.576H152.576H152.576H152.576H152.576H152.576H152.576H152.576H152.576H152.576H152.576C152.576 130.817 152.576 130.817 152.576 130.817C152.576 130.817 152.576 130.817 152.576 130.817C152.576 130.817 152.576 130.817 152.576 130.817C152.576 130.817 152.576 130.817 152.576 130.817C152.576 130.817 152.576 130.817 152.576 130.817C152.576 130.817 152.576 130.817 152.576 130.817C152.576 130.817 152.576 130.817 152.576 130.817C152.576 130.817 152.576 130.817 152.576 130.817H152.576C152.576 130.817 152.576 130.817 152.576 130.817C152.576 130.817 152.576 130.817 152.576 130.817C152.576 130.817 152.576 130.817 152.576 130.817H152.576H152.576C152.576 130.817 152.576 130.817 152.576 130.817C152.576 130.817 152.576 130.817 152.576 130.817V124.817ZM148.001 79.4087C148.001 92.6707 148.843 104.61 150.184 113.175C150.857 117.481 151.637 120.798 152.441 122.972C152.85 124.076 153.202 124.71 153.433 125.012C153.711 125.376 153.446 124.818 152.577 124.817L152.576 130.817C150.661 130.817 149.374 129.582 148.667 128.656C147.911 127.668 147.312 126.4 146.814 125.054C145.806 122.329 144.953 118.557 144.256 114.103C142.854 105.147 142.001 92.882 142.001 79.4087H148.001ZM152.577 34C153.446 33.9999 153.711 33.4419 153.433 33.8059C153.202 34.1079 152.85 34.7412 152.441 35.8453C151.637 38.0195 150.857 41.3368 150.184 45.6426C148.843 54.2071 148.001 66.1468 148.001 79.4087H142.001C142.001 65.9355 142.854 53.6709 144.256 44.715C144.953 40.2605 145.806 36.4885 146.814 33.7634C147.312 32.4179 147.911 31.149 148.667 30.1612C149.374 29.2355 150.661 28.0001 152.576 28L152.577 34ZM152.576 34C152.576 34 152.576 34 152.576 34C152.576 34 152.576 34 152.576 34H152.576H152.576C152.576 34 152.576 34 152.576 34C152.576 34 152.576 34 152.576 34C152.576 34 152.576 34 152.576 34H152.576C152.576 34 152.576 34 152.576 34C152.576 34 152.576 34 152.576 34C152.576 34 152.576 34 152.576 34C152.576 34 152.576 34 152.576 34C152.576 34 152.576 34 152.576 34C152.576 34 152.576 34 152.576 34C152.576 34 152.576 34 152.576 34C152.576 34 152.576 34 152.576 34H152.576H152.576H152.576H152.576H152.576H152.576H152.576H152.576H152.576H152.576H152.576H152.576H152.576H152.576C152.576 34 152.576 34 152.576 34C152.576 34 152.576 34 152.576 34C152.576 34 152.576 34 152.576 34C152.576 34 152.576 34 152.576 34C152.576 34 152.576 34 152.576 34C152.576 34 152.576 34 152.576 34C152.576 34 152.576 34 152.576 34C152.576 34 152.576 34 152.576 34H152.576C152.576 34 152.576 34 152.576 34C152.576 34 152.576 34 152.576 34C152.576 34 152.576 34 152.576 34H152.576H152.576C152.576 34 152.576 34 152.576 34C152.576 34 152.576 34 152.576 34V28C152.576 28 152.576 28 152.576 28C152.576 28 152.576 28 152.576 28H152.576H152.576C152.576 28 152.576 28 152.576 28C152.576 28 152.576 28 152.576 28C152.576 28 152.576 28 152.576 28H152.576C152.576 28 152.576 28 152.576 28C152.576 28 152.576 28 152.576 28C152.576 28 152.576 28 152.576 28C152.576 28 152.576 28 152.576 28C152.576 28 152.576 28 152.576 28C152.576 28 152.576 28 152.576 28C152.576 28 152.576 28 152.576 28C152.576 28 152.576 28 152.576 28H152.576H152.576H152.576H152.576H152.576H152.576H152.576H152.576H152.576H152.576H152.576H152.576H152.576H152.576C152.576 28 152.576 28 152.576 28C152.576 28 152.576 28 152.576 28C152.576 28 152.576 28 152.576 28C152.576 28 152.576 28 152.576 28C152.576 28 152.576 28 152.576 28C152.576 28 152.576 28 152.576 28C152.576 28 152.576 28 152.576 28C152.576 28 152.576 28 152.576 28H152.576C152.576 28 152.576 28 152.576 28C152.576 28 152.576 28 152.576 28C152.576 28 152.576 28 152.576 28H152.576H152.576C152.576 28 152.576 28 152.576 28C152.576 28 152.576 28 152.576 28V34Z" fill="black" mask="url(#path-2-inside-2_733_3)"/>
<path d="M169.227 79.4087C169.227 92.7236 170.072 104.745 171.428 113.407C172.107 117.75 172.905 121.181 173.761 123.493C174.191 124.657 174.605 125.449 174.967 125.923C175.122 126.125 175.234 126.229 175.302 126.28C175.37 126.229 175.483 126.125 175.638 125.923C176 125.449 176.414 124.657 176.844 123.493C177.7 121.181 178.498 117.75 179.177 113.407C180.533 104.745 181.378 92.7236 181.378 79.4087C181.378 66.0939 180.533 54.0729 179.177 45.4105C178.498 41.0675 177.7 37.6366 176.844 35.3247C176.414 34.1602 176 33.3681 175.638 32.8947C175.483 32.6923 175.37 32.5887 175.302 32.5373C175.235 32.5887 175.122 32.6923 174.967 32.8947C174.605 33.3681 174.191 34.1602 173.761 35.3247C172.905 37.6366 172.107 41.0675 171.428 45.4105C170.072 54.0729 169.227 66.0939 169.227 79.4087ZM175.379 126.328C175.379 126.327 175.378 126.327 175.375 126.326C175.378 126.327 175.379 126.328 175.379 126.328ZM175.23 126.326C175.227 126.327 175.226 126.327 175.226 126.328C175.226 126.328 175.227 126.327 175.23 126.326ZM175.226 32.4899C175.226 32.49 175.227 32.4906 175.23 32.4915C175.227 32.4903 175.226 32.4898 175.226 32.4899ZM175.375 32.4915C175.378 32.4906 175.379 32.49 175.379 32.4899C175.379 32.4898 175.378 32.4903 175.375 32.4915Z" fill="white" stroke="black" stroke-width="3"/>
<path d="M385.5 71H463H750H1315C1319.97 71 1324 75.0294 1324 80V80C1324 84.9706 1319.97 89 1315 89H360M298.5 71H176V89H272" stroke="black" stroke-width="3"/>
<path d="M296 71.5H177.5V87.5H274L296 71.5Z" fill="white"/>
<path d="M1324 79.5C1324 74.8056 1320.19 71 1315.5 71H387L364 88H1315.5C1320.19 88 1324 84.1944 1324 79.5Z" fill="white"/>
<line y1="-0.5" x2="17" y2="-0.5" transform="matrix(0 1 1 0 1324 71)" stroke="white"/>
<line y1="-0.5" x2="17" y2="-0.5" transform="matrix(0 1 1 0 1283 71)" stroke="black"/>
<line y1="-0.5" x2="17" y2="-0.5" transform="matrix(0 1 1 0 1242 71)" stroke="black"/>
<line y1="-0.5" x2="17" y2="-0.5" transform="matrix(0 1 1 0 1201 71)" stroke="black"/>
<line y1="-0.5" x2="17" y2="-0.5" transform="matrix(0 1 1 0 1160 71)" stroke="black"/>
<line y1="-0.5" x2="17" y2="-0.5" transform="matrix(0 1 1 0 1119 71)" stroke="black"/>
<line y1="-0.5" x2="17" y2="-0.5" transform="matrix(0 1 1 0 1078 71)" stroke="black"/>
<line y1="-0.5" x2="17" y2="-0.5" transform="matrix(0 1 1 0 1037 71)" stroke="black"/>
<line y1="-0.5" x2="17" y2="-0.5" transform="matrix(0 1 1 0 996 71)" stroke="black"/>
<line y1="-0.5" x2="17" y2="-0.5" transform="matrix(0 1 1 0 955 71)" stroke="black"/>
<line y1="-0.5" x2="17" y2="-0.5" transform="matrix(0 1 1 0 914 71)" stroke="black"/>
<line y1="-0.5" x2="17" y2="-0.5" transform="matrix(0 1 1 0 873 71)" stroke="black"/>
<line y1="-0.5" x2="17" y2="-0.5" transform="matrix(0 1 1 0 832 71)" stroke="black"/>
<line y1="-0.5" x2="17" y2="-0.5" transform="matrix(0 1 1 0 791 71)" stroke="black"/>
<line y1="-0.5" x2="17" y2="-0.5" transform="matrix(0 1 1 0 750 71)" stroke="black"/>
<line y1="-0.5" x2="17" y2="-0.5" transform="matrix(0 1 1 0 709 71)" stroke="black"/>
<line y1="-0.5" x2="17" y2="-0.5" transform="matrix(0 1 1 0 668 71)" stroke="black"/>
<line y1="-0.5" x2="17" y2="-0.5" transform="matrix(0 1 1 0 627 71)" stroke="black"/>
<line y1="-0.5" x2="17" y2="-0.5" transform="matrix(0 1 1 0 586 71)" stroke="black"/>
<line y1="-0.5" x2="17" y2="-0.5" transform="matrix(0 1 1 0 545 71)" stroke="black"/>
<line y1="-0.5" x2="17" y2="-0.5" transform="matrix(0 1 1 0 504 71)" stroke="black"/>
<line y1="-0.5" x2="17" y2="-0.5" transform="matrix(0 1 1 0 463 71)" stroke="black"/>
<line y1="-0.5" x2="17" y2="-0.5" transform="matrix(0 1 1 0 422 71)" stroke="black"/>
<line y1="-0.5" x2="17" y2="-0.5" transform="matrix(0 1 1 0 381 71)" stroke="black"/>
<line y1="-0.5" x2="17" y2="-0.5" transform="matrix(0 1 1 0 258 71)" stroke="black"/>
<line y1="-0.5" x2="17" y2="-0.5" transform="matrix(0 1 1 0 217 71)" stroke="black"/>
</svg>
