<svg width="547" height="595" viewBox="0 0 547 595" fill="none" xmlns="http://www.w3.org/2000/svg">
<path d="M130.5 509C120.526 509 16.7628 508.497 10.0228 491.859C-2.16878 461.764 2.29932 407.043 2.29932 367.319C2.29932 315.856 10.4732 272.371 17.4348 224.635C20.5954 202.963 23.1981 182.938 25.3451 160.981C26.1426 152.825 26.1721 141.1 27.5874 133.613C28.6992 127.732 28.4894 117.627 29.892 113.01C32.1957 105.428 34.378 97.5372 37.0549 90.5622C39.9523 83.0125 44.7306 74.4011 46.896 65.6541C49.0929 56.78 54.0838 52.2853 56.1143 43.5135C58.4853 33.2711 62.8658 37.9026 65.0835 31.0595C68.658 20.03 80.5304 30.0778 85.5133 26.2931C88.2742 24.1961 93.3023 26.4389 95.3545 21.373C98.2456 14.2361 101.253 11.6257 103.203 2H545" stroke="black" stroke-width="3" stroke-linecap="round"/>
<path d="M398.599 593.275V450.876L112.003 435.395L112.794 577.794L398.599 593.275Z" fill="white" stroke="black"/>
<path d="M542 561.934V419.556L398.804 451.201L399.595 593.579L542 561.934Z" fill="white" stroke="black"/>
<path d="M399.058 450.297L538.853 419.232L255.739 403.503L115.943 434.569L399.058 450.297Z" fill="white" stroke="black"/>
<path d="M367.378 472.747L182.275 459.003V517.769L367.378 533.408V472.747Z" fill="#D9D9D9"/>
</svg>
