<svg width="547" height="595" viewBox="0 0 547 595" fill="none" xmlns="http://www.w3.org/2000/svg">
<path d="M416 509C425.974 509 529.737 508.497 536.477 491.859C548.669 461.764 544.201 407.043 544.201 367.319C544.201 315.856 536.027 272.371 529.065 224.635C525.905 202.963 523.302 182.938 521.155 160.981C520.357 152.825 520.328 141.1 518.913 133.613C517.801 127.732 518.011 117.627 516.608 113.01C514.304 105.428 512.122 97.5372 509.445 90.5622C506.548 83.0125 501.769 74.4011 499.604 65.6541C497.407 56.78 492.416 52.2853 490.386 43.5135C488.015 33.2711 483.634 37.9026 481.416 31.0595C477.842 20.03 465.97 30.0778 460.987 26.2931C458.226 24.1961 453.198 26.4389 451.146 21.373C448.254 14.2361 445.247 11.6257 443.297 2H1.5" stroke="black" stroke-width="3" stroke-linecap="round"/>
<path d="M147.901 593.275V450.876L434.497 435.395L433.706 577.794L147.901 593.275Z" fill="white" stroke="black"/>
<path d="M4.5 561.934V419.556L147.696 451.201L146.905 593.579L4.5 561.934Z" fill="white" stroke="black"/>
<path d="M147.442 450.297L7.64668 419.232L290.761 403.503L430.557 434.569L147.442 450.297Z" fill="white" stroke="black"/>
<path d="M179.122 472.747L364.225 459.003V517.769L179.122 533.408V472.747Z" fill="#D9D9D9"/>
</svg>
